<svg width="26" height="26" viewBox="0 0 26 26" fill="none" xmlns="http://www.w3.org/2000/svg">
<path d="M13 0C5.83151 0 0 5.83151 0 13C0 20.1685 5.83151 26 13 26C20.1685 26 26 20.1685 26 13C26 5.83151 20.1685 0 13 0Z" fill="#009FE5"/>
<path d="M19.5878 10.246L12.5461 17.2876C12.3348 17.4988 12.0575 17.6051 11.7802 17.6051C11.5029 17.6051 11.2256 17.4988 11.0143 17.2876L7.49356 13.7668C7.06985 13.3433 7.06985 12.6585 7.49356 12.235C7.91707 11.8113 8.60162 11.8113 9.02533 12.235L11.7802 14.9899L18.0561 8.71426C18.4796 8.29056 19.1641 8.29056 19.5878 8.71426C20.0113 9.13777 20.0113 9.82233 19.5878 10.246Z" fill="#FAFAFA"/>
</svg>
