<svg width="24" height="24" viewBox="0 0 24 24" fill="none" xmlns="http://www.w3.org/2000/svg">
<path d="M23.25 3.75101H13.5V1.50101C13.5 1.27751 13.401 1.06601 13.2285 0.923511C13.0575 0.781011 12.828 0.719511 12.612 0.764511L0.612 3.01451C0.2565 3.08051 0 3.38951 0 3.75101V20.251C0 20.611 0.2565 20.9215 0.612 20.9875L12.612 23.2375C12.657 23.2465 12.7035 23.251 12.75 23.251C12.924 23.251 13.0935 23.191 13.2285 23.0785C13.401 22.936 13.5 22.723 13.5 22.501V20.251H23.25C23.664 20.251 24 19.915 24 19.501V4.50101C24 4.08701 23.664 3.75101 23.25 3.75101ZM10.314 14.5075C10.587 14.818 10.5555 15.292 10.2435 15.565C10.101 15.6895 9.9255 15.751 9.75 15.751C9.5415 15.751 9.3345 15.664 9.186 15.4945L7.005 13.003L5.0925 15.463C4.944 15.652 4.722 15.751 4.5 15.751C4.3395 15.751 4.1775 15.7 4.0395 15.5935C3.7125 15.3385 3.654 14.8675 3.9075 14.5405L5.9985 11.8525L3.936 9.49451C3.663 9.18401 3.6945 8.71001 4.0065 8.43701C4.317 8.16401 4.7895 8.19401 5.0655 8.50751L6.9375 10.6465L9.159 7.79051C9.414 7.46501 9.885 7.40501 10.212 7.66001C10.539 7.91351 10.5975 8.38451 10.3425 8.71301L7.9425 11.797L10.314 14.5075ZM22.5 18.751H13.5V17.251H15.75C16.164 17.251 16.5 16.915 16.5 16.501C16.5 16.087 16.164 15.751 15.75 15.751H13.5V14.251H15.75C16.164 14.251 16.5 13.915 16.5 13.501C16.5 13.087 16.164 12.751 15.75 12.751H13.5V11.251H15.75C16.164 11.251 16.5 10.915 16.5 10.501C16.5 10.087 16.164 9.75101 15.75 9.75101H13.5V8.25101H15.75C16.164 8.25101 16.5 7.91501 16.5 7.50101C16.5 7.08701 16.164 6.75101 15.75 6.75101H13.5V5.25101H22.5V18.751Z" fill="white"/>
<path d="M20.25 6.75H18.75C18.336 6.75 18 7.086 18 7.5C18 7.914 18.336 8.25 18.75 8.25H20.25C20.664 8.25 21 7.914 21 7.5C21 7.086 20.664 6.75 20.25 6.75Z" fill="white"/>
<path d="M20.25 9.75H18.75C18.336 9.75 18 10.086 18 10.5C18 10.914 18.336 11.25 18.75 11.25H20.25C20.664 11.25 21 10.914 21 10.5C21 10.086 20.664 9.75 20.25 9.75Z" fill="white"/>
<path d="M20.25 12.75H18.75C18.336 12.75 18 13.086 18 13.5C18 13.914 18.336 14.25 18.75 14.25H20.25C20.664 14.25 21 13.914 21 13.5C21 13.086 20.664 12.75 20.25 12.75Z" fill="white"/>
<path d="M20.25 15.75H18.75C18.336 15.75 18 16.086 18 16.5C18 16.914 18.336 17.25 18.75 17.25H20.25C20.664 17.25 21 16.914 21 16.5C21 16.086 20.664 15.75 20.25 15.75Z" fill="white"/>
</svg>
