<svg width="30" height="30" viewBox="0 0 30 30" fill="none" xmlns="http://www.w3.org/2000/svg">
<g clip-path="url(#clip0)">
<path d="M23.9608 27.1556H0.809558C0.2768 27.1556 -0.110614 26.6497 0.0285238 26.1351L5.2868 11.719C5.38197 11.3663 5.70214 11.1211 6.06783 11.1211H29.219C29.7518 11.1211 30.0001 11.6301 30.0001 12.1416L24.7418 26.5576C24.6466 26.9104 24.3265 27.1556 23.9608 27.1556Z" fill="#009FE5"/>
<path d="M26.0007 6.46639H12.931L10.3448 2.8457H0.895862C0.401379 2.8457 0 3.24657 0 3.74157V25.8423C0.0356897 25.8433 0.0713793 25.8454 0.106034 25.8474L5.28621 11.7195C5.38138 11.3662 5.70155 11.1216 6.06724 11.1216H26.8966V7.36225C26.8966 6.86725 26.4952 6.46639 26.0007 6.46639Z" fill="#007CB2"/>
</g>
<defs>
<clipPath id="clip0">
<rect width="30" height="30" fill="white"/>
</clipPath>
</defs>
</svg>
