<svg width="30" height="30" viewBox="0 0 30 30" fill="none" xmlns="http://www.w3.org/2000/svg">
<path d="M3.74998 0H19.6809L28.1249 8.41128V28.125C28.1249 29.1609 27.285 30 26.25 30H3.74998C2.71495 30 1.875 29.1609 1.875 28.125V1.87498C1.875 0.839081 2.71505 0 3.74998 0Z" fill="#009FE5"/>
<path d="M28.0978 8.43632H21.5625C20.5275 8.43632 19.6875 7.59637 19.6875 6.56134V0.0175781L28.0978 8.43632Z" fill="#007CB2"/>
<path d="M21.0903 14.2158C21.4044 14.2158 21.5581 13.942 21.5581 13.6767C21.5581 13.402 21.3978 13.1367 21.0903 13.1367H19.3016C18.9519 13.1367 18.7569 13.4264 18.7569 13.7461V18.142C18.7569 18.5339 18.98 18.7514 19.2819 18.7514C19.5819 18.7514 19.806 18.5339 19.806 18.142V16.9355H20.8879C21.2235 16.9355 21.3913 16.6608 21.3913 16.388C21.3913 16.1208 21.2235 15.8554 20.8879 15.8554H19.806V14.2158H21.0903ZM15.0444 13.1367H13.7356C13.3803 13.1367 13.1281 13.3805 13.1281 13.7423V18.1458C13.1281 18.5948 13.4909 18.7355 13.7505 18.7355H15.124C16.7496 18.7355 17.823 17.6658 17.823 16.0148C17.8222 14.2692 16.8116 13.1367 15.0444 13.1367ZM15.1072 17.6499H14.3094V14.2224H15.0285C16.1169 14.2224 16.5903 14.9527 16.5903 15.9605C16.5903 16.9037 16.1253 17.6499 15.1072 17.6499ZM10.3128 13.1367H9.01627C8.6497 13.1367 8.44531 13.3785 8.44531 13.7461V18.142C8.44531 18.5339 8.67967 18.7514 8.99464 18.7514C9.30961 18.7514 9.54397 18.5339 9.54397 18.142V16.8586H10.3568C11.3599 16.8586 12.1877 16.1479 12.1877 15.0051C12.1878 13.8868 11.3891 13.1367 10.3128 13.1367ZM10.2913 15.8274H9.54407V14.1689H10.2913C10.7525 14.1689 11.046 14.5289 11.046 14.9986C11.045 15.4674 10.7525 15.8274 10.2913 15.8274Z" fill="white"/>
</svg>
