<svg width="62" height="28" viewBox="0 0 62 28" fill="none" xmlns="http://www.w3.org/2000/svg">
<path d="M13.0489 2.92705C13.3483 2.00574 14.6517 2.00574 14.9511 2.92705L16.9187 8.98278C17.0526 9.3948 17.4365 9.67376 17.8697 9.67376H24.2371C25.2058 9.67376 25.6086 10.9134 24.8249 11.4828L19.6736 15.2254C19.3231 15.4801 19.1764 15.9314 19.3103 16.3435L21.2779 22.3992C21.5773 23.3205 20.5228 24.0866 19.7391 23.5172L14.5878 19.7746C14.2373 19.5199 13.7627 19.5199 13.4122 19.7746L8.2609 23.5172C7.47719 24.0866 6.42271 23.3205 6.72206 22.3992L8.68969 16.3435C8.82356 15.9314 8.6769 15.4801 8.32642 15.2254L3.17511 11.4828C2.39139 10.9134 2.79417 9.67376 3.76289 9.67376H10.1303C10.5635 9.67376 10.9474 9.3948 11.0813 8.98278L13.0489 2.92705Z" fill="#F2C94C"/>
<path d="M47.0489 2.92705C47.3483 2.00574 48.6517 2.00574 48.9511 2.92705L50.9187 8.98278C51.0526 9.3948 51.4365 9.67376 51.8697 9.67376H58.2371C59.2058 9.67376 59.6086 10.9134 58.8249 11.4828L53.6736 15.2254C53.3231 15.4801 53.1764 15.9314 53.3103 16.3435L55.2779 22.3992C55.5773 23.3205 54.5228 24.0866 53.7391 23.5172L48.5878 19.7746C48.2373 19.5199 47.7627 19.5199 47.4122 19.7746L42.2609 23.5172C41.4772 24.0866 40.4227 23.3205 40.7221 22.3992L42.6897 16.3435C42.8236 15.9314 42.6769 15.4801 42.3264 15.2254L37.1751 11.4828C36.3914 10.9134 36.7942 9.67376 37.7629 9.67376H44.1303C44.5635 9.67376 44.9474 9.3948 45.0813 8.98278L47.0489 2.92705Z" fill="#F2C94C"/>
</svg>
