<svg width="164" height="28" viewBox="0 0 164 28" fill="none" xmlns="http://www.w3.org/2000/svg">
<path d="M149.049 2.92705C149.348 2.00574 150.652 2.00574 150.951 2.92705L152.919 8.98278C153.053 9.3948 153.437 9.67376 153.87 9.67376H160.237C161.206 9.67376 161.609 10.9134 160.825 11.4828L155.674 15.2254C155.323 15.4801 155.176 15.9314 155.31 16.3435L157.278 22.3992C157.577 23.3205 156.523 24.0866 155.739 23.5172L150.588 19.7746C150.237 19.5199 149.763 19.5199 149.412 19.7746L144.261 23.5172C143.477 24.0866 142.423 23.3205 142.722 22.3992L144.69 16.3435C144.824 15.9314 144.677 15.4801 144.326 15.2254L139.175 11.4828C138.391 10.9134 138.794 9.67376 139.763 9.67376H146.13C146.563 9.67376 146.947 9.3948 147.081 8.98278L149.049 2.92705Z" fill="#F2C94C"/>
<path d="M115.049 2.92705C115.348 2.00574 116.652 2.00574 116.951 2.92705L118.919 8.98278C119.053 9.3948 119.437 9.67376 119.87 9.67376H126.237C127.206 9.67376 127.609 10.9134 126.825 11.4828L121.674 15.2254C121.323 15.4801 121.176 15.9314 121.31 16.3435L123.278 22.3992C123.577 23.3205 122.523 24.0866 121.739 23.5172L116.588 19.7746C116.237 19.5199 115.763 19.5199 115.412 19.7746L110.261 23.5172C109.477 24.0866 108.423 23.3205 108.722 22.3992L110.69 16.3435C110.824 15.9314 110.677 15.4801 110.326 15.2254L105.175 11.4828C104.391 10.9134 104.794 9.67376 105.763 9.67376H112.13C112.563 9.67376 112.947 9.3948 113.081 8.98278L115.049 2.92705Z" fill="#F2C94C"/>
<path d="M81.0489 2.92705C81.3483 2.00574 82.6517 2.00574 82.9511 2.92705L84.9187 8.98278C85.0526 9.3948 85.4365 9.67376 85.8697 9.67376H92.2371C93.2058 9.67376 93.6086 10.9134 92.8249 11.4828L87.6736 15.2254C87.3231 15.4801 87.1764 15.9314 87.3103 16.3435L89.2779 22.3992C89.5773 23.3205 88.5228 24.0866 87.7391 23.5172L82.5878 19.7746C82.2373 19.5199 81.7627 19.5199 81.4122 19.7746L76.2609 23.5172C75.4772 24.0866 74.4227 23.3205 74.7221 22.3992L76.6897 16.3435C76.8236 15.9314 76.6769 15.4801 76.3264 15.2254L71.1751 11.4828C70.3914 10.9134 70.7942 9.67376 71.7629 9.67376H78.1303C78.5635 9.67376 78.9474 9.3948 79.0813 8.98278L81.0489 2.92705Z" fill="#F2C94C"/>
<path d="M47.0489 2.92705C47.3483 2.00574 48.6517 2.00574 48.9511 2.92705L50.9187 8.98278C51.0526 9.3948 51.4365 9.67376 51.8697 9.67376H58.2371C59.2058 9.67376 59.6086 10.9134 58.8249 11.4828L53.6736 15.2254C53.3231 15.4801 53.1764 15.9314 53.3103 16.3435L55.2779 22.3992C55.5773 23.3205 54.5228 24.0866 53.7391 23.5172L48.5878 19.7746C48.2373 19.5199 47.7627 19.5199 47.4122 19.7746L42.2609 23.5172C41.4772 24.0866 40.4227 23.3205 40.7221 22.3992L42.6897 16.3435C42.8236 15.9314 42.6769 15.4801 42.3264 15.2254L37.1751 11.4828C36.3914 10.9134 36.7942 9.67376 37.7629 9.67376H44.1303C44.5635 9.67376 44.9474 9.3948 45.0813 8.98278L47.0489 2.92705Z" fill="#F2C94C"/>
<path d="M13.0489 2.92705C13.3483 2.00574 14.6517 2.00574 14.9511 2.92705L16.9187 8.98278C17.0526 9.3948 17.4365 9.67376 17.8697 9.67376H24.2371C25.2058 9.67376 25.6086 10.9134 24.8249 11.4828L19.6736 15.2254C19.3231 15.4801 19.1764 15.9314 19.3103 16.3435L21.2779 22.3992C21.5773 23.3205 20.5228 24.0866 19.7391 23.5172L14.5878 19.7746C14.2373 19.5199 13.7627 19.5199 13.4122 19.7746L8.2609 23.5172C7.47719 24.0866 6.42271 23.3205 6.72206 22.3992L8.68969 16.3435C8.82356 15.9314 8.6769 15.4801 8.32642 15.2254L3.17511 11.4828C2.39139 10.9134 2.79417 9.67376 3.76289 9.67376H10.1303C10.5635 9.67376 10.9474 9.3948 11.0813 8.98278L13.0489 2.92705Z" fill="#F2C94C"/>
</svg>
