<svg width="38" height="38" viewBox="0 0 38 38" fill="none" xmlns="http://www.w3.org/2000/svg">
<path d="M36.3592 16.2785H1.63851C1.50232 16.2785 1.37171 16.2244 1.2754 16.1281C1.1791 16.0318 1.125 15.9012 1.125 15.765V12.0195C1.125 11.931 1.14783 11.8441 1.19128 11.7671C1.23474 11.6901 1.29734 11.6256 1.37303 11.5799L18.7298 1.10114C18.8098 1.05286 18.9015 1.02734 18.995 1.02734C19.0885 1.02734 19.1802 1.05286 19.2602 1.10114L36.6242 11.5799C36.6999 11.6256 36.7625 11.6901 36.8059 11.7671C36.8494 11.8441 36.8722 11.931 36.8722 12.0195V15.765C36.8722 15.9011 36.8182 16.0317 36.722 16.128C36.6258 16.2243 36.4953 16.2784 36.3592 16.2785ZM2.15254 15.2515H35.8457V12.3091L18.9958 2.14049L2.15254 12.3081V15.2515Z" fill="black"/>
<path d="M19.001 12.4854C18.3936 12.4854 17.7998 12.3053 17.2947 11.9678C16.7896 11.6303 16.3959 11.1507 16.1635 10.5894C15.931 10.0282 15.8702 9.4107 15.9887 8.81492C16.1072 8.21914 16.3997 7.67188 16.8293 7.24235C17.2588 6.81281 17.8061 6.5203 18.4018 6.40179C18.9976 6.28328 19.6152 6.3441 20.1764 6.57657C20.7376 6.80903 21.2173 7.20269 21.5547 7.70776C21.8922 8.21284 22.0723 8.80665 22.0723 9.4141C22.0714 10.2284 21.7475 11.009 21.1717 11.5848C20.5959 12.1606 19.8153 12.4845 19.001 12.4854ZM19.001 7.36929C18.5967 7.36929 18.2014 7.48919 17.8653 7.71382C17.5291 7.93845 17.2671 8.25772 17.1123 8.63127C16.9576 9.00482 16.9171 9.41586 16.996 9.81241C17.0749 10.209 17.2696 10.5732 17.5555 10.8591C17.8414 11.145 18.2056 11.3397 18.6022 11.4186C18.9988 11.4975 19.4098 11.457 19.7833 11.3023C20.1569 11.1475 20.4762 10.8855 20.7008 10.5493C20.9254 10.2132 21.0453 9.81791 21.0453 9.41359C21.0446 8.87162 20.829 8.35203 20.4458 7.9688C20.0626 7.58557 19.543 7.36997 19.001 7.36929Z" fill="black"/>
<path d="M33.3625 19.5219H27.8983C27.6041 19.5215 27.3221 19.4044 27.1142 19.1964C26.9063 18.9883 26.7893 18.7063 26.7891 18.4122V15.7645C26.7891 15.6283 26.8432 15.4977 26.9395 15.4014C27.0358 15.3051 27.1664 15.251 27.3026 15.251H33.9582C34.0944 15.251 34.225 15.3051 34.3213 15.4014C34.4176 15.4977 34.4717 15.6283 34.4717 15.7645V18.4137C34.4711 18.7076 34.3539 18.9892 34.146 19.1969C33.9382 19.4046 33.6564 19.5215 33.3625 19.5219ZM27.8166 16.2765V18.4122C27.8166 18.434 27.8252 18.455 27.8406 18.4704C27.856 18.4859 27.8769 18.4947 27.8988 18.4948H33.3625C33.3844 18.4947 33.4053 18.4859 33.4207 18.4704C33.4361 18.455 33.4447 18.434 33.4447 18.4122V16.278L27.8166 16.2765Z" fill="black"/>
<path d="M32.8973 29.8951H28.3651C28.2289 29.8951 28.0983 29.841 28.002 29.7447C27.9057 29.6484 27.8516 29.5178 27.8516 29.3816V19.0086C27.8516 18.8724 27.9057 18.7418 28.002 18.6455C28.0983 18.5492 28.2289 18.4951 28.3651 18.4951H32.8973C33.0335 18.4951 33.1642 18.5492 33.2605 18.6455C33.3568 18.7418 33.4109 18.8724 33.4109 19.0086V29.3816C33.4109 29.5178 33.3568 29.6484 33.2605 29.7447C33.1642 29.841 33.0335 29.8951 32.8973 29.8951ZM28.8786 28.8681H32.3838V19.5221H28.8786V28.8681Z" fill="black"/>
<path d="M33.9582 33.1396H27.3026C27.1664 33.1396 27.0358 33.0855 26.9395 32.9892C26.8432 32.8929 26.7891 32.7623 26.7891 32.6261V29.9769C26.7893 29.6828 26.9063 29.4007 27.1142 29.1927C27.3221 28.9847 27.6041 28.8676 27.8983 28.8672H33.3625C33.6567 28.8676 33.9386 28.9847 34.1466 29.1927C34.3545 29.4007 34.4715 29.6828 34.4717 29.9769V32.6261C34.4717 32.7623 34.4176 32.8929 34.3213 32.9892C34.225 33.0855 34.0944 33.1396 33.9582 33.1396ZM27.8161 32.1126H33.4447V29.9769C33.4447 29.9551 33.4361 29.9341 33.4207 29.9186C33.4053 29.9031 33.3844 29.8944 33.3625 29.8942H27.8983C27.8764 29.8944 27.8555 29.9031 27.8401 29.9186C27.8247 29.9341 27.8161 29.9551 27.8161 29.9769V32.1126Z" fill="black"/>
<path d="M21.7331 19.5219H16.2693C15.9752 19.5215 15.6932 19.4044 15.4853 19.1964C15.2774 18.9883 15.1604 18.7063 15.1602 18.4122V15.7645C15.1602 15.6283 15.2143 15.4977 15.3106 15.4014C15.4069 15.3051 15.5375 15.251 15.6737 15.251H22.3288C22.465 15.251 22.5956 15.3051 22.6919 15.4014C22.7882 15.4977 22.8423 15.6283 22.8423 15.7645V18.4137C22.8416 18.7076 22.7245 18.9892 22.5166 19.1969C22.3087 19.4046 22.027 19.5215 21.7331 19.5219ZM16.1872 16.278V18.4137C16.1872 18.4355 16.1958 18.4565 16.2112 18.472C16.2266 18.4875 16.2475 18.4962 16.2693 18.4964H21.7331C21.755 18.4962 21.7759 18.4875 21.7913 18.472C21.8066 18.4565 21.8153 18.4355 21.8153 18.4137V16.278H16.1872Z" fill="black"/>
<path d="M21.259 29.8951H16.7401C16.6039 29.8951 16.4733 29.841 16.377 29.7447C16.2807 29.6484 16.2266 29.5178 16.2266 29.3816V19.0086C16.2266 18.8724 16.2807 18.7418 16.377 18.6455C16.4733 18.5492 16.6039 18.4951 16.7401 18.4951H21.259C21.3952 18.4951 21.5258 18.5492 21.6221 18.6455C21.7184 18.7418 21.7725 18.8724 21.7725 19.0086V29.3816C21.7725 29.5178 21.7184 29.6484 21.6221 29.7447C21.5258 29.841 21.3952 29.8951 21.259 29.8951ZM17.2536 28.8681H20.7455V19.5221H17.2536V28.8681Z" fill="black"/>
<path d="M22.3288 33.1396H15.6737C15.5375 33.1396 15.4069 33.0855 15.3106 32.9892C15.2143 32.8929 15.1602 32.7623 15.1602 32.6261V29.9769C15.1604 29.6828 15.2774 29.4007 15.4853 29.1927C15.6932 28.9847 15.9752 28.8676 16.2693 28.8672H21.7331C22.0273 28.8676 22.3092 28.9847 22.5172 29.1927C22.7251 29.4007 22.842 29.6828 22.8423 29.9769V32.6261C22.8423 32.7623 22.7882 32.8929 22.6919 32.9892C22.5956 33.0855 22.465 33.1396 22.3288 33.1396ZM16.1867 32.1126H21.8153V29.9769C21.8153 29.9551 21.8066 29.9341 21.7913 29.9186C21.7759 29.9031 21.755 29.8944 21.7331 29.8942H16.2693C16.2475 29.8944 16.2266 29.9031 16.2112 29.9186C16.1958 29.9341 16.1872 29.9551 16.1872 29.9769L16.1867 32.1126Z" fill="black"/>
<path d="M10.6125 19.5219H5.14825C4.85411 19.5215 4.57215 19.4044 4.36421 19.1964C4.15627 18.9883 4.03933 18.7063 4.03906 18.4122V15.7645C4.03906 15.6283 4.09316 15.4977 4.18947 15.4014C4.28577 15.3051 4.41638 15.251 4.55258 15.251H11.2082C11.3444 15.251 11.475 15.3051 11.5713 15.4014C11.6676 15.4977 11.7217 15.6283 11.7217 15.7645V18.4137C11.7211 18.7076 11.6039 18.9892 11.3961 19.1969C11.1882 19.4046 10.9064 19.5215 10.6125 19.5219ZM5.06609 16.278V18.4137C5.06609 18.4355 5.07473 18.4565 5.09012 18.472C5.10552 18.4875 5.12641 18.4962 5.14825 18.4964H10.6125C10.6344 18.4962 10.6553 18.4875 10.6707 18.472C10.6861 18.4565 10.6947 18.4355 10.6947 18.4137V16.278H5.06609Z" fill="black"/>
<path d="M10.1658 29.8951H5.59554C5.45935 29.8951 5.32874 29.841 5.23244 29.7447C5.13613 29.6484 5.08203 29.5178 5.08203 29.3816V19.0086C5.08203 18.8724 5.13613 18.7418 5.23244 18.6455C5.32874 18.5492 5.45935 18.4951 5.59554 18.4951H10.1658C10.302 18.4951 10.4326 18.5492 10.5289 18.6455C10.6252 18.7418 10.6793 18.8724 10.6793 19.0086V29.3816C10.6793 29.5178 10.6252 29.6484 10.5289 29.7447C10.4326 29.841 10.302 29.8951 10.1658 29.8951ZM6.10906 28.8681H9.6523V19.5221H6.10906V28.8681Z" fill="black"/>
<path d="M11.2082 33.1396H4.55258C4.41638 33.1396 4.28577 33.0855 4.18947 32.9892C4.09316 32.8929 4.03906 32.7623 4.03906 32.6261V29.9769C4.03933 29.6828 4.15627 29.4007 4.36421 29.1927C4.57215 28.9847 4.85411 28.8676 5.14825 28.8672H10.6125C10.9067 28.8676 11.1887 28.9847 11.3966 29.1927C11.6045 29.4007 11.7215 29.6828 11.7217 29.9769V32.6261C11.7217 32.7623 11.6676 32.8929 11.5713 32.9892C11.475 33.0855 11.3444 33.1396 11.2082 33.1396ZM5.06609 32.1126H10.6947V29.9769C10.6947 29.9551 10.6861 29.9341 10.6707 29.9186C10.6553 29.9031 10.6344 29.8944 10.6125 29.8942H5.14825C5.12641 29.8944 5.10552 29.9031 5.09012 29.9186C5.07473 29.9341 5.06609 29.9551 5.06609 29.9769V32.1126Z" fill="black"/>
<path d="M36.4598 36.9732H1.54086C1.40467 36.9732 1.27405 36.9191 1.17775 36.8228C1.08145 36.7265 1.02734 36.5958 1.02734 36.4597V32.6268C1.02734 32.4906 1.08145 32.36 1.17775 32.2637C1.27405 32.1674 1.40467 32.1133 1.54086 32.1133H36.4598C36.596 32.1133 36.7266 32.1674 36.8229 32.2637C36.9192 32.36 36.9733 32.4906 36.9733 32.6268V36.4597C36.9733 36.5958 36.9192 36.7265 36.8229 36.8228C36.7266 36.9191 36.596 36.9732 36.4598 36.9732ZM2.05437 35.9461H35.9463V33.1403H2.05437V35.9461Z" fill="black"/>
</svg>
