<svg width="5252" height="5252" viewBox="0 0 5252 5252" fill="none" xmlns="http://www.w3.org/2000/svg">
<path d="M2626 0C1177.97 0 0 1177.97 0 2626C0 4074.03 1177.97 5252 2626 5252C4074.03 5252 5252 4074.03 5252 2626C5252 1177.97 4074.03 0 2626 0Z" fill="#049e51"/>
<path d="M3956.95 2069.51L2534.52 3491.9C2491.85 3534.58 2435.83 3556.06 2379.81 3556.06C2323.8 3556.06 2267.78 3534.58 2225.1 3491.9L1513.91 2780.71C1428.32 2695.16 1428.32 2556.84 1513.91 2471.29C1599.46 2385.7 1737.74 2385.7 1823.33 2471.29L2379.81 3027.78L3647.53 1760.1C3733.08 1674.51 3871.36 1674.51 3956.95 1760.1C4042.5 1845.65 4042.5 1983.93 3956.95 2069.51Z" fill="#FAFAFA"/>
</svg>
