<svg width="20" height="20" viewBox="0 0 20 20" fill="none" xmlns="http://www.w3.org/2000/svg">
<g clipPath="url(#clip0)">
<path d="M8.11203 16.2503C6.15952 16.2503 4.57031 14.6611 4.57031 12.7086V4.16699H3.11203C1.84784 4.16699 0.820312 5.19437 0.820312 6.45856V17.7086C0.820312 18.9727 1.84784 20.0003 3.11203 20.0003H13.5286C14.7928 20.0003 15.8203 18.9727 15.8203 17.7086V16.2503H8.11203Z" fill="#00587F"/>
<path d="M19.1536 2.29172C19.1536 1.02585 18.1277 0 16.862 0H8.11203C6.84616 0 5.82031 1.02585 5.82031 2.29172V12.7083C5.82031 13.9742 6.84616 15 8.11203 15H16.862C18.1277 15 19.1536 13.9742 19.1536 12.7083V2.29172Z" fill="#00587F"/>
</g>
<defs>
<clipPath id="clip0">
<rect width="20" height="20" fill="white"/>
</clipPath>
</defs>
</svg>
