<svg width="28" height="28" viewBox="0 0 28 28" fill="none" xmlns="http://www.w3.org/2000/svg">
<path d="M23.1875 3.5H18.375V2.625C18.375 1.17523 17.1998 0 15.75 0H12.25C10.8002 0 9.625 1.17523 9.625 2.625V3.5H4.8125C3.6044 3.5 2.625 4.4794 2.625 5.6875V7.4375C2.625 7.92077 3.01673 8.3125 3.5 8.3125H24.5C24.9833 8.3125 25.375 7.92077 25.375 7.4375V5.6875C25.375 4.4794 24.3956 3.5 23.1875 3.5ZM11.375 2.625C11.375 2.14266 11.7677 1.75 12.25 1.75H15.75C16.2323 1.75 16.625 2.14266 16.625 2.625V3.5H11.375V2.625Z" fill="#DB4446"/>
<path d="M4.28514 10.0625C4.12901 10.0625 4.0046 10.193 4.01204 10.349L4.73391 25.4997C4.80063 26.9019 5.95235 28 7.35563 28H20.6436C22.0469 28 23.1986 26.9019 23.2653 25.4997L23.9872 10.349C23.9946 10.193 23.8702 10.0625 23.7141 10.0625H4.28514ZM17.4996 12.25C17.4996 11.7666 17.8912 11.375 18.3746 11.375C18.8581 11.375 19.2496 11.7666 19.2496 12.25V23.625C19.2496 24.1084 18.8581 24.5 18.3746 24.5C17.8912 24.5 17.4996 24.1084 17.4996 23.625V12.25ZM13.1246 12.25C13.1246 11.7666 13.5162 11.375 13.9996 11.375C14.4831 11.375 14.8746 11.7666 14.8746 12.25V23.625C14.8746 24.1084 14.4831 24.5 13.9996 24.5C13.5162 24.5 13.1246 24.1084 13.1246 23.625V12.25ZM8.74961 12.25C8.74961 11.7666 9.14118 11.375 9.62461 11.375C10.1081 11.375 10.4996 11.7666 10.4996 12.25V23.625C10.4996 24.1084 10.1081 24.5 9.62461 24.5C9.14118 24.5 8.74961 24.1084 8.74961 23.625V12.25Z" fill="#DB4446"/>
</svg>
