<svg width="309" height="309" viewBox="0 0 309 309" fill="none" xmlns="http://www.w3.org/2000/svg">
<path d="M156.812 295.163C237.119 295.163 302.221 257.575 302.221 211.208C302.221 164.841 237.119 127.252 156.812 127.252C76.5043 127.252 11.4023 164.841 11.4023 211.208C11.4023 257.575 76.5043 295.163 156.812 295.163Z" fill="#F5F5F5"/>
<path d="M252.685 252.379C275.468 252.379 293.937 241.716 293.937 228.561C293.937 215.407 275.468 204.744 252.685 204.744C229.903 204.744 211.434 215.407 211.434 228.561C211.434 241.716 229.903 252.379 252.685 252.379Z" fill="#E0E0E0"/>
<path d="M148.289 241.409L101.754 214.533L154.945 183.824L201.487 210.695L148.289 241.409Z" fill="#E0E0E0"/>
<path d="M21.5742 233.097L81.5944 267.749L131.937 238.69L71.9165 204.039L21.5742 233.097Z" fill="#E0E0E0"/>
<path d="M110.324 70.2232V66.8118C110.298 66.6147 110.222 66.4275 110.103 66.2684C109.984 66.1093 109.826 65.9835 109.644 65.9033L89.0461 54.0872C88.5552 53.8404 88.0134 53.7119 87.464 53.7119C86.9146 53.7119 86.3728 53.8404 85.8819 54.0872L26.6837 88.0772C26.5018 88.1574 26.3437 88.2831 26.2246 88.4422C26.1056 88.6014 26.0295 88.7885 26.0039 88.9856V92.397C26.0289 92.5943 26.1047 92.7817 26.2239 92.9409C26.3431 93.1002 26.5015 93.2258 26.6837 93.3055L47.2755 105.103C47.7663 105.35 48.3081 105.478 48.8575 105.478C49.407 105.478 49.9487 105.35 50.4396 105.103L109.638 71.1131C109.82 71.0334 109.979 70.9078 110.098 70.7486C110.217 70.5893 110.293 70.4019 110.318 70.2046L110.324 70.2232Z" fill="#F0F0F0"/>
<path d="M26.6848 89.8756L47.2765 101.692C47.7666 101.941 48.3087 102.071 48.8586 102.071C49.4086 102.071 49.9507 101.941 50.4407 101.692L109.639 67.7017C110.51 67.2011 110.51 66.3916 109.639 65.8848L89.0472 54.0872C88.5563 53.8404 88.0145 53.7119 87.4651 53.7119C86.9157 53.7119 86.3739 53.8404 85.883 54.0872L26.6848 88.0772C25.8134 88.5654 25.8134 89.375 26.6848 89.8756Z" fill="#FAFAFA"/>
<path d="M48.8575 102.075V105.48C48.307 105.488 47.7632 105.359 47.2755 105.103L26.6837 93.3179C26.5015 93.2382 26.3431 93.1126 26.2239 92.9534C26.1047 92.7941 26.0289 92.6067 26.0039 92.4094V88.9919C26.016 88.8537 26.0605 88.7203 26.1337 88.6025C25.8927 89.0413 26.0719 89.5481 26.6837 89.9003L47.2755 101.698C47.7619 101.957 48.3066 102.087 48.8575 102.075Z" fill="#E0E0E0"/>
<path d="M59.9219 73.2514L77.368 83.195L106.185 66.6573L88.7454 56.7075L59.9219 73.2514Z" fill="#E0E0E0"/>
<path d="M77.5654 82.4414L60.7372 72.782C61.1745 71.3553 61.142 69.8258 60.6445 68.4189L77.3676 77.9732C77.3676 77.9732 77.689 79.03 77.5654 82.4414Z" fill="white"/>
<path d="M76.5077 76.6321C76.9774 76.9355 77.3688 77.3456 77.6501 77.8288C77.9315 78.312 78.0948 78.8548 78.1269 79.4131V82.6637C78.1269 83.6896 77.3976 84.1037 76.5077 83.5969L59.9453 74.055V73.2516L76.31 82.5834C76.8476 82.8924 77.2802 82.639 77.2802 82.0272V79.0114C77.2616 78.6764 77.164 78.3506 76.9954 78.0606C76.8267 77.7706 76.5919 77.5246 76.31 77.3428L59.9453 67.9801V67.0654L76.5077 76.6321Z" fill="#EBEBEB"/>
<path d="M59.9453 67.0961L88.7441 50.5522L105.325 60.0694C105.796 60.3731 106.188 60.784 106.469 61.2685C106.751 61.753 106.914 62.2972 106.944 62.8566V66.1258C106.966 66.3258 106.933 66.5279 106.85 66.7107C106.766 66.8935 106.634 67.0502 106.468 67.1641L77.651 83.7079C77.8137 83.5915 77.9428 83.4342 78.0253 83.2519C78.1078 83.0696 78.1407 82.8688 78.1207 82.6697V79.4128C78.0906 78.8541 77.9281 78.3106 77.6466 77.827C77.365 77.3435 76.9726 76.9338 76.5015 76.6318L59.9453 67.0961Z" fill="#FAFAFA"/>
<path d="M77.6523 77.8121C77.9461 78.289 78.1102 78.8344 78.1282 79.3942V82.651C78.1482 82.8501 78.1153 83.0509 78.0328 83.2332C77.9503 83.4155 77.8212 83.5728 77.6585 83.6893L106.476 67.1454C106.642 67.0315 106.773 66.8748 106.857 66.692C106.941 66.5092 106.974 66.3071 106.952 66.1072V62.8565C106.934 62.2967 106.77 61.7513 106.476 61.2744L77.6523 77.8121Z" fill="#F0F0F0"/>
<path d="M42.1825 48.5005L42.0156 50.7006L61.495 61.1509L61.9338 59.8655L42.1825 48.5005Z" fill="#EBEBEB"/>
<path d="M61.6726 60.3784L42.805 49.4893L39.5234 51.3803L58.7618 62.6341L61.6726 60.3784Z" fill="white"/>
<path d="M55.2212 61.4663L53.3672 83.3311C53.3763 83.578 53.4445 83.8191 53.566 84.0341C53.6875 84.2492 53.8588 84.432 54.0655 84.5671L65.0103 90.9016C65.185 90.9982 65.3795 91.0532 65.5789 91.0623L58.7809 63.3697C58.5826 63.3589 58.3888 63.3062 58.2123 63.2152L57.4274 62.7579L55.2212 61.4663Z" fill="#E0E0E0"/>
<path d="M59.5983 63.1904L61.5512 61.5156L62.9788 60.2796C63.1271 60.0448 63.3001 59.8717 63.2074 59.6616L69.9189 87.1503C70.0116 87.3418 70.0363 87.7683 69.7706 87.9289L66.3901 90.8212C66.1342 90.9567 65.8437 91.0127 65.5558 90.9819L58.7578 63.2893C59.0416 63.3383 59.3336 63.3039 59.5983 63.1904Z" fill="#F0F0F0"/>
<path d="M62.9816 59.4824C63.3647 59.7049 63.272 59.9521 62.9816 60.2858L59.5949 63.1842C59.3794 63.2969 59.1398 63.3557 58.8966 63.3557C58.6534 63.3557 58.4138 63.2969 58.1982 63.1842L55.2195 61.4662C54.8301 61.2437 54.7622 60.9224 55.065 60.7493C55.264 60.6686 55.4788 60.6344 55.693 60.6494C55.9072 60.6644 56.1152 60.7282 56.301 60.8358L58.6494 62.1954C58.7212 62.2318 58.8006 62.2508 58.8811 62.2508C58.9617 62.2508 59.0411 62.2318 59.1129 62.1954L61.5849 60.0448C61.7147 59.9706 61.7147 59.8532 61.5849 59.7791L42.1797 48.5006L43.1067 47.9629L62.9816 59.4824Z" fill="#FAFAFA"/>
<path d="M36.5625 49.5576L55.121 60.2737V95.5863L36.5625 84.864V49.5576Z" fill="#EBEBEB"/>
<path d="M54.5219 60.861L36.5628 50.5527C35.4645 51.7172 34.026 52.5046 32.4531 52.8023L50.2639 63.0672C50.2639 63.0672 51.4134 62.7953 54.5219 60.861Z" fill="white"/>
<path d="M48.5377 63.0362C49.073 63.3043 49.6633 63.4438 50.262 63.4438C50.8606 63.4438 51.4509 63.3043 51.9862 63.0362L55.002 61.2687C55.9537 60.7187 55.9537 59.8349 55.002 59.2849L37.3087 49.125L36.5609 49.5576L53.97 59.6125C54.0983 59.6499 54.2111 59.728 54.2913 59.8349C54.3715 59.9419 54.4149 60.072 54.4149 60.2057C54.4149 60.3395 54.3715 60.4696 54.2913 60.5765C54.2111 60.6835 54.0983 60.7616 53.97 60.799L51.1581 62.4182C50.8369 62.5796 50.4824 62.6637 50.1229 62.6637C49.7634 62.6637 49.4089 62.5796 49.0878 62.4182L31.6849 52.3571L30.832 52.8454L48.5377 63.0362Z" fill="#FAFAFA"/>
<path d="M30.8398 52.8452V88.1516L48.5394 98.3115C49.0746 98.5796 49.665 98.7191 50.2636 98.7191C50.8622 98.7191 51.4526 98.5796 51.9878 98.3115L55.016 96.5749C55.2128 96.4881 55.3827 96.3499 55.5077 96.1748C55.6328 95.9997 55.7084 95.7943 55.7267 95.5799V60.2736C55.7075 60.4886 55.63 60.6943 55.5026 60.8685C55.3752 61.0427 55.2027 61.1789 55.0036 61.2624L51.9878 63.036C51.4526 63.3041 50.8622 63.4437 50.2636 63.4437C49.665 63.4437 49.0746 63.3041 48.5394 63.036L30.8398 52.8452Z" fill="#EBEBEB"/>
<path d="M50.2624 63.4134C50.8623 63.4252 51.4555 63.2848 51.9866 63.0055L55.0024 61.2627C55.1992 61.1775 55.3691 61.0406 55.4943 60.8664C55.6194 60.6923 55.6951 60.4876 55.7131 60.2739V95.5803C55.6948 95.7946 55.6192 96.0001 55.4941 96.1752C55.3691 96.3502 55.1993 96.4884 55.0024 96.5752L51.9742 98.3118C51.4431 98.5912 50.85 98.7315 50.25 98.7197L50.2624 63.4134Z" fill="#F0F0F0"/>
<path d="M199.348 191.58C199.255 190.017 199.045 188.144 198.792 185.969C197.846 177.712 196.554 166.403 199.978 155.569C202.061 148.975 207.079 141.157 214.915 138.988C216.658 138.506 220.873 137.796 222.492 141.534C222.719 142.075 222.855 142.649 222.894 143.234C223.06 145.607 221.991 147.702 220.805 149.612C219.439 151.83 217.857 153.938 216.324 155.989C214.878 157.93 213.376 159.932 212.066 162.009C210.651 164.265 209.411 166.626 208.358 169.072L207.858 168.856C208.909 166.385 210.149 163.999 211.566 161.718C212.882 159.623 214.39 157.609 215.848 155.662C217.369 153.623 218.938 151.521 220.298 149.327C221.435 147.473 222.461 145.49 222.306 143.271C222.273 142.748 222.152 142.234 221.948 141.751C220.502 138.407 216.621 139.075 215.02 139.514C207.394 141.627 202.493 149.278 200.454 155.73C197.067 166.458 198.353 177.7 199.292 185.907C199.539 188.088 199.756 189.973 199.848 191.549L199.348 191.58Z" fill="#0D5372"/>
<path d="M199.903 200.566C199.862 200.572 199.82 200.572 199.779 200.566C199.661 200.543 199.549 200.492 199.454 200.418C199.358 200.344 199.281 200.248 199.229 200.139C199.121 199.833 199.121 199.5 199.229 199.194C199.316 198.602 199.316 198 199.229 197.408C199.229 197.074 199.174 196.722 199.174 196.407V192.569C199.667 185.675 201.687 178.977 205.088 172.96C208.104 167.713 211.441 164.221 215.594 161.959C217.833 160.729 220.288 159.942 222.825 159.642C225.064 159.394 227.315 159.989 229.141 161.31C231.025 162.8 231.872 165.352 231.161 167.373C230.661 168.788 229.518 169.845 228.35 170.803C226.267 172.502 223.993 174.023 221.799 175.493C219.976 176.729 218.091 177.965 216.329 179.325C210.941 183.484 206.42 188.66 203.024 194.559C202.468 195.517 201.942 196.505 201.46 197.494L201.263 197.884C201.07 198.237 200.9 198.602 200.756 198.977C200.725 199.058 200.694 199.225 200.651 199.416C200.619 199.769 200.507 200.109 200.323 200.411C200.207 200.513 200.057 200.569 199.903 200.566ZM223.715 160.155C223.436 160.155 223.158 160.155 222.874 160.192C220.412 160.479 218.03 161.243 215.86 162.441C211.806 164.648 208.536 168.077 205.57 173.232C202.215 179.174 200.22 185.787 199.73 192.594V196.394C199.73 196.691 199.73 197.012 199.786 197.352C199.885 197.999 199.885 198.658 199.786 199.305C199.719 199.506 199.719 199.722 199.786 199.923C199.801 199.954 199.824 199.982 199.852 200.003C199.88 200.024 199.912 200.039 199.946 200.047C200.057 199.818 200.132 199.574 200.169 199.324C200.198 199.152 200.24 198.983 200.292 198.817C200.443 198.42 200.621 198.034 200.824 197.661L201.015 197.278C201.51 196.277 202.041 195.282 202.597 194.312C203.753 192.312 205.035 190.388 206.435 188.552C209.204 184.934 212.435 181.695 216.045 178.917C217.825 177.558 219.716 176.291 221.545 175.067C223.733 173.602 225.989 172.088 228.059 170.407C229.159 169.511 230.241 168.504 230.698 167.218C231.316 165.408 230.556 163.115 228.844 161.762C227.366 160.66 225.557 160.093 223.715 160.155Z" fill="#0D5372"/>
<path d="M199.439 195.288H199.371C199.336 195.28 199.303 195.265 199.274 195.244C199.245 195.223 199.221 195.197 199.202 195.166C199.184 195.136 199.172 195.102 199.167 195.066C199.162 195.031 199.164 194.995 199.173 194.96C204.272 174.628 218.368 165.556 225.895 163.399C225.964 163.38 226.038 163.389 226.1 163.423C226.163 163.458 226.209 163.516 226.229 163.585C226.248 163.654 226.24 163.729 226.205 163.792C226.171 163.855 226.113 163.903 226.044 163.924C218.628 166.044 204.741 174.999 199.705 195.09C199.687 195.147 199.652 195.197 199.604 195.233C199.556 195.269 199.498 195.288 199.439 195.288Z" fill="#0D5372"/>
<path d="M199.41 178.602C199.338 178.596 199.27 178.561 199.223 178.506C199.175 178.45 199.152 178.378 199.157 178.305C200.782 156.348 215.145 144.315 216.776 143.024C216.804 143.001 216.836 142.983 216.87 142.973C216.905 142.962 216.941 142.959 216.977 142.963C217.013 142.967 217.047 142.978 217.079 142.996C217.11 143.014 217.138 143.038 217.159 143.067C217.182 143.095 217.198 143.127 217.208 143.162C217.218 143.196 217.221 143.232 217.217 143.268C217.213 143.303 217.202 143.338 217.185 143.369C217.167 143.4 217.144 143.428 217.116 143.45C215.503 144.729 201.308 156.62 199.707 178.349C199.699 178.421 199.664 178.487 199.609 178.534C199.554 178.581 199.483 178.606 199.41 178.602Z" fill="#0D5372"/>
<path d="M197.699 102.026L163.332 82.1941C163.066 82.0033 162.754 81.8863 162.429 81.8548C162.103 81.8233 161.775 81.8786 161.478 82.0149L159.006 83.4425C158.734 83.6317 158.518 83.8903 158.38 84.1914C158.242 84.4924 158.187 84.8249 158.221 85.1543V179.22C158.271 180.137 158.537 181.028 158.997 181.823C159.456 182.617 160.097 183.293 160.866 183.793L195.227 203.6C195.492 203.792 195.803 203.91 196.129 203.943C196.454 203.975 196.783 203.921 197.081 203.786L199.553 202.352C199.821 202.162 200.034 201.903 200.17 201.604C200.306 201.304 200.359 200.973 200.325 200.646V106.599C200.277 105.684 200.014 104.793 199.558 103.999C199.102 103.204 198.465 102.528 197.699 102.026Z" fill="#263238"/>
<path d="M165.624 180.833L163.152 182.261V190.084C163.165 190.314 163.231 190.537 163.346 190.735C163.461 190.934 163.621 191.103 163.814 191.228L164.969 191.895C165.174 191.999 165.401 192.053 165.631 192.053C165.86 192.053 166.087 191.999 166.292 191.895L167.447 191.228C167.858 190.963 168.176 190.576 168.356 190.122L170.587 183.694L165.624 180.833Z" fill="#263238"/>
<path d="M163.152 190.085C163.165 190.314 163.231 190.537 163.346 190.735C163.461 190.934 163.621 191.103 163.814 191.228L164.969 191.895C165.049 191.944 165.139 191.973 165.232 191.982C165.325 191.991 165.418 191.978 165.506 191.945C165.593 191.913 165.672 191.861 165.737 191.793C165.801 191.726 165.849 191.644 165.878 191.555L168.096 185.122L163.152 182.261V190.085Z" fill="#37474F"/>
<path d="M190.417 195.103L187.945 196.536V204.354C187.957 204.584 188.022 204.807 188.136 205.007C188.249 205.207 188.409 205.377 188.6 205.503L189.762 206.171C189.966 206.275 190.192 206.329 190.42 206.329C190.649 206.329 190.875 206.275 191.079 206.171L192.24 205.503C192.651 205.238 192.969 204.852 193.149 204.397L195.374 197.964L190.417 195.103Z" fill="#263238"/>
<path d="M187.945 204.354C187.957 204.583 188.022 204.807 188.136 205.007C188.249 205.206 188.409 205.377 188.6 205.503L189.762 206.171C189.842 206.219 189.932 206.249 190.025 206.257C190.118 206.266 190.211 206.254 190.299 206.221C190.386 206.188 190.465 206.136 190.529 206.069C190.594 206.001 190.642 205.92 190.671 205.831L192.902 199.397L187.958 196.536L187.945 204.354Z" fill="#37474F"/>
<path d="M161.026 83.6957L195.386 103.472C196.156 103.974 196.796 104.65 197.256 105.446C197.715 106.241 197.981 107.134 198.031 108.051V202.117C198.097 202.447 198.057 202.79 197.918 203.096C197.779 203.403 197.547 203.659 197.255 203.827C196.964 203.995 196.627 204.068 196.291 204.035C195.956 204.002 195.64 203.865 195.386 203.643L161.026 183.83C160.257 183.329 159.618 182.654 159.159 181.859C158.701 181.065 158.436 180.173 158.387 179.257V85.2159C158.321 84.8861 158.36 84.5439 158.499 84.2375C158.637 83.931 158.869 83.6759 159.16 83.508C159.452 83.3401 159.788 83.2679 160.123 83.3015C160.458 83.3352 160.773 83.4731 161.026 83.6957Z" fill="#37474F"/>
<path d="M111.129 212.271L148.295 233.728L200.331 203.687L197.853 202.253L160.686 180.796L111.129 209.409V212.271Z" fill="#455A64"/>
<path d="M148.297 233.728V230.866L200.332 200.825V203.687L148.297 233.728Z" fill="#263238"/>
<path d="M148.529 229.562L148.152 229.309C154.746 219.328 154.703 202.086 154.165 197.76C154.122 197.469 154.091 197.29 154.085 197.222L154.536 197.148C154.536 197.284 154.586 197.445 154.61 197.636C155.092 200.695 157.818 217.313 161.044 222.356L160.661 222.603C158.108 218.642 155.927 207.951 154.833 201.783C154.901 208.785 153.881 221.509 148.529 229.562Z" fill="#FAFAFA"/>
<path d="M170.237 214.322C169.674 214.156 156.535 210.176 155.324 204.379L155.775 204.286C156.925 209.817 170.23 213.847 170.366 213.89L170.237 214.322Z" fill="#FAFAFA"/>
<path d="M156.971 211.974L156.638 210.559C156.592 210.299 156.459 210.062 156.262 209.887C156.064 209.712 155.813 209.609 155.55 209.594C155.332 209.563 155.11 209.598 154.913 209.697C154.717 209.795 154.555 209.951 154.45 210.145L154.023 209.965C154.166 209.683 154.394 209.451 154.674 209.303C154.954 209.155 155.273 209.097 155.587 209.137C155.814 209.151 156.036 209.214 156.237 209.321C156.439 209.427 156.615 209.575 156.755 209.755C156.829 209.169 157.128 208.635 157.589 208.266C157.764 208.174 157.959 208.13 158.157 208.136C158.354 208.143 158.546 208.2 158.714 208.303L158.51 208.711C158.407 208.644 158.289 208.606 158.167 208.598C158.044 208.591 157.922 208.614 157.812 208.667C157.286 208.964 157.083 210.107 157.052 210.521L156.971 211.974Z" fill="#FAFAFA"/>
<path d="M158.264 216.689L157.857 215.404C157.393 213.951 156.621 213.117 155.706 213.062C155.324 213.054 154.948 213.158 154.624 213.361C154.3 213.565 154.043 213.858 153.883 214.205L153.469 214.007C153.664 213.573 153.984 213.207 154.388 212.955C154.792 212.703 155.261 212.577 155.737 212.592C156.287 212.623 157.232 212.919 157.937 214.353C158.091 213.222 158.555 211.405 159.748 210.645C160.176 210.411 160.657 210.29 161.145 210.296C161.633 210.301 162.112 210.432 162.535 210.676L162.343 211.09C161.989 210.881 161.587 210.766 161.176 210.756C160.765 210.746 160.358 210.842 159.995 211.035C158.407 212.023 158.302 215.293 158.302 215.33L158.264 216.689Z" fill="#FAFAFA"/>
<path d="M152.685 219.829L152.277 219.619C153.192 217.857 155.2 216.59 156.943 216.677C157.313 216.681 157.677 216.768 158.009 216.932C158.34 217.096 158.631 217.332 158.859 217.623C159.027 216.733 159.373 215.887 159.876 215.135C160.38 214.383 161.03 213.741 161.788 213.247C162.602 212.707 163.541 212.385 164.515 212.312C165.489 212.24 166.466 212.419 167.35 212.833L167.171 213.247C166.356 212.87 165.458 212.707 164.563 212.774C163.667 212.841 162.804 213.136 162.054 213.63C161.253 214.15 160.584 214.849 160.101 215.674C159.618 216.498 159.334 217.423 159.273 218.376V219.544L158.841 218.457C158.697 218.07 158.439 217.736 158.102 217.5C157.764 217.264 157.362 217.136 156.949 217.134C155.349 217.054 153.526 218.216 152.685 219.829Z" fill="#FAFAFA"/>
<path d="M150.175 226.651L149.773 226.429C150.33 225.415 153.29 220.323 156.794 219.402C157.288 219.26 157.807 219.225 158.317 219.299C158.826 219.372 159.314 219.553 159.748 219.828L159.513 220.218C159.13 219.976 158.701 219.817 158.252 219.752C157.804 219.687 157.347 219.718 156.911 219.841C154.34 220.521 151.683 223.932 150.175 226.651Z" fill="#FAFAFA"/>
<path d="M195.375 172.212V175.073L148.295 202.253L111.129 180.796V177.935L158.208 150.755L195.375 172.212Z" fill="#263238"/>
<path d="M195.375 172.212L148.295 199.391L111.129 177.935L158.208 150.755L195.375 172.212Z" fill="#455A64"/>
<path d="M195.375 140.743V143.599L148.295 170.784L111.129 149.321V146.466L158.208 119.28L195.375 140.743Z" fill="#263238"/>
<path d="M195.375 140.743L148.295 167.923L111.129 146.466L158.208 119.28L195.375 140.743Z" fill="#455A64"/>
<path d="M148.136 130.601L113.775 110.795C113.51 110.603 113.199 110.485 112.873 110.452C112.547 110.42 112.219 110.474 111.921 110.609C111.476 110.863 109.894 111.783 109.449 112.037C109.178 112.227 108.963 112.486 108.827 112.787C108.69 113.088 108.636 113.42 108.67 113.749V207.79C108.721 208.706 108.987 209.598 109.446 210.392C109.906 211.187 110.546 211.862 111.315 212.363L145.676 232.176C145.941 232.368 146.253 232.486 146.578 232.518C146.904 232.551 147.232 232.497 147.53 232.361C147.975 232.102 149.57 231.187 150.002 230.921C150.274 230.733 150.491 230.476 150.63 230.176C150.769 229.876 150.825 229.545 150.793 229.216V135.181C150.742 134.262 150.475 133.369 150.013 132.573C149.552 131.777 148.908 131.102 148.136 130.601Z" fill="#263238"/>
<path opacity="0.2" d="M148.299 145.038L150.784 143.604V135.014L148.293 136.448L148.299 145.038Z" fill="black"/>
<path opacity="0.2" d="M197.862 116.425L200.346 114.997V106.407L197.855 107.841L197.862 116.425Z" fill="black"/>
<path d="M116.089 209.409L113.617 210.836V218.66C113.63 218.889 113.696 219.112 113.811 219.311C113.926 219.51 114.086 219.678 114.278 219.803L115.434 220.471C115.639 220.575 115.866 220.629 116.095 220.629C116.325 220.629 116.552 220.575 116.757 220.471L117.912 219.803C118.321 219.539 118.639 219.155 118.821 218.703L121.052 212.27L116.089 209.409Z" fill="#263238"/>
<path d="M113.609 218.66C113.622 218.889 113.688 219.112 113.803 219.311C113.918 219.51 114.078 219.679 114.271 219.804L115.426 220.471C115.506 220.519 115.596 220.549 115.689 220.558C115.782 220.566 115.875 220.554 115.963 220.521C116.05 220.488 116.129 220.436 116.194 220.369C116.258 220.301 116.306 220.22 116.335 220.131L118.566 213.698L113.622 210.836L113.609 218.66Z" fill="#37474F"/>
<path d="M140.863 223.715L138.391 225.143V232.967C138.402 233.196 138.467 233.418 138.581 233.617C138.695 233.816 138.854 233.985 139.046 234.11L140.208 234.778C140.411 234.881 140.637 234.935 140.866 234.935C141.094 234.935 141.32 234.881 141.524 234.778L142.686 234.11C143.093 233.844 143.41 233.46 143.594 233.01L145.819 226.577L140.863 223.715Z" fill="#263238"/>
<path d="M138.391 232.936C138.402 233.165 138.467 233.388 138.581 233.586C138.695 233.785 138.854 233.954 139.046 234.079L140.208 234.747C140.287 234.795 140.377 234.825 140.47 234.834C140.563 234.842 140.657 234.83 140.744 234.797C140.832 234.764 140.91 234.712 140.975 234.645C141.039 234.577 141.087 234.496 141.116 234.407L143.341 227.974L138.397 225.112L138.391 232.936Z" fill="#37474F"/>
<path d="M111.291 112.228L145.658 132.035C146.427 132.538 147.066 133.214 147.525 134.01C147.983 134.805 148.248 135.698 148.297 136.615V233.727C148.297 233.727 146.387 232.596 145.658 232.176L111.297 212.363C110.528 211.862 109.888 211.187 109.428 210.393C108.969 209.598 108.703 208.706 108.652 207.79V113.749C108.586 113.419 108.625 113.077 108.764 112.77C108.903 112.464 109.134 112.209 109.426 112.041C109.717 111.873 110.054 111.801 110.389 111.834C110.723 111.868 111.039 112.006 111.291 112.228Z" fill="#37474F"/>
<path opacity="0.2" d="M145.658 132.035L111.291 112.228C111.039 112.006 110.723 111.868 110.389 111.834C110.054 111.801 109.717 111.873 109.426 112.041C109.134 112.209 108.903 112.464 108.764 112.77C108.625 113.077 108.586 113.419 108.652 113.749V122.147L148.297 145.013V136.615C148.248 135.698 147.983 134.805 147.525 134.01C147.066 133.214 146.427 132.538 145.658 132.035Z" fill="black"/>
<path d="M192.894 140.972C192.834 140.97 192.777 140.946 192.735 140.903C192.692 140.861 192.667 140.803 192.666 140.743V112.525L165.752 128.062C165.727 128.078 165.698 128.089 165.669 128.094C165.639 128.099 165.609 128.097 165.58 128.09C165.551 128.082 165.523 128.069 165.5 128.05C165.476 128.031 165.457 128.008 165.443 127.982C165.427 127.956 165.417 127.927 165.413 127.897C165.408 127.867 165.41 127.837 165.417 127.807C165.425 127.778 165.438 127.75 165.456 127.726C165.474 127.702 165.497 127.682 165.523 127.666L192.814 111.932C192.848 111.911 192.888 111.899 192.928 111.899C192.969 111.899 193.008 111.911 193.043 111.932C193.077 111.953 193.105 111.982 193.125 112.016C193.144 112.051 193.154 112.09 193.154 112.13V140.743C193.154 140.776 193.148 140.809 193.134 140.839C193.121 140.869 193.101 140.895 193.077 140.917C193.052 140.939 193.023 140.955 192.991 140.964C192.96 140.974 192.927 140.976 192.894 140.972Z" fill="#FAFAFA"/>
<path d="M187.942 133.816H187.874C187.815 133.802 187.764 133.766 187.732 133.715C187.699 133.664 187.688 133.603 187.701 133.544L192.311 113.576L183.165 129.415C183.151 129.442 183.131 129.465 183.108 129.484C183.085 129.503 183.058 129.516 183.029 129.525C183 129.533 182.97 129.535 182.94 129.531C182.91 129.527 182.882 129.517 182.856 129.502C182.829 129.487 182.806 129.467 182.787 129.443C182.768 129.419 182.754 129.392 182.746 129.363C182.738 129.333 182.736 129.303 182.74 129.272C182.744 129.242 182.754 129.213 182.769 129.187L192.657 112.019C192.686 111.972 192.73 111.936 192.782 111.918C192.834 111.9 192.89 111.9 192.942 111.92C192.992 111.941 193.034 111.979 193.059 112.028C193.084 112.076 193.091 112.132 193.078 112.186L188.134 133.649C188.123 133.693 188.098 133.732 188.064 133.762C188.03 133.792 187.987 133.811 187.942 133.816Z" fill="#FAFAFA"/>
<path d="M178.034 126.69C178.002 126.69 177.971 126.684 177.942 126.671C177.913 126.658 177.888 126.639 177.867 126.616C177.824 126.573 177.801 126.515 177.801 126.455C177.801 126.395 177.824 126.337 177.867 126.295L192.736 111.988C192.779 111.946 192.836 111.922 192.897 111.922C192.957 111.922 193.014 111.946 193.057 111.988C193.1 112.032 193.124 112.09 193.124 112.152C193.124 112.213 193.1 112.272 193.057 112.315L178.188 126.616C178.169 126.638 178.145 126.656 178.118 126.668C178.092 126.681 178.063 126.689 178.034 126.69Z" fill="#FAFAFA"/>
<path d="M192.897 136.405C192.837 136.403 192.779 136.379 192.737 136.336C192.694 136.294 192.67 136.236 192.668 136.176C192.668 132.431 188.49 132.178 188.311 132.172C188.277 132.169 188.245 132.16 188.215 132.144C188.185 132.128 188.159 132.106 188.138 132.079C188.119 132.053 188.105 132.022 188.099 131.99C188.093 131.958 188.093 131.925 188.101 131.893C188.253 131.128 188.202 130.337 187.951 129.598C187.701 128.859 187.26 128.199 186.673 127.685C186.459 127.471 186.202 127.305 185.918 127.199C185.635 127.092 185.332 127.047 185.03 127.067C184.868 127.094 184.715 127.156 184.579 127.247C184.444 127.339 184.33 127.459 184.245 127.598C184.219 127.643 184.179 127.678 184.13 127.697C184.082 127.717 184.029 127.719 183.979 127.703C183.93 127.688 183.887 127.657 183.858 127.614C183.829 127.571 183.815 127.52 183.818 127.469C183.818 127.326 184.072 123.995 181.142 123.668C181.105 123.663 181.069 123.65 181.038 123.628C181.006 123.607 180.981 123.578 180.963 123.544C180.946 123.512 180.938 123.476 180.938 123.439C180.938 123.403 180.946 123.367 180.963 123.334C180.963 123.334 182.261 120.905 181.76 119.713C181.703 119.573 181.613 119.448 181.498 119.349C181.383 119.251 181.246 119.18 181.099 119.144C181.07 119.136 181.042 119.123 181.019 119.104C180.995 119.085 180.975 119.062 180.961 119.035C180.946 119.009 180.937 118.979 180.935 118.949C180.932 118.919 180.935 118.889 180.945 118.86C180.963 118.802 181.003 118.755 181.056 118.726C181.109 118.697 181.171 118.69 181.229 118.705C181.442 118.76 181.639 118.864 181.804 119.009C181.97 119.154 182.098 119.336 182.181 119.54C182.656 120.671 181.853 122.543 181.507 123.248C183.781 123.686 184.201 125.831 184.263 126.894C184.467 126.749 184.698 126.65 184.943 126.603C185.315 126.567 185.689 126.616 186.039 126.745C186.389 126.875 186.705 127.082 186.964 127.351C187.578 127.893 188.048 128.578 188.332 129.346C188.615 130.114 188.704 130.941 188.589 131.751C189.59 131.881 193.125 132.579 193.119 136.189C193.116 136.246 193.092 136.3 193.05 136.34C193.009 136.38 192.954 136.403 192.897 136.405Z" fill="#FAFAFA"/>
<path d="M192.899 130.237C192.841 130.237 192.786 130.216 192.743 130.177C192.701 130.138 192.675 130.084 192.67 130.027C192.571 128.717 191.811 127.023 190.853 126.603C190.663 126.518 190.453 126.491 190.248 126.524C190.042 126.556 189.851 126.649 189.697 126.788C189.66 126.813 189.616 126.826 189.571 126.826C189.526 126.826 189.482 126.813 189.444 126.788C189.405 126.767 189.373 126.734 189.352 126.695C189.331 126.655 189.322 126.61 189.327 126.566C189.327 126.566 189.531 124.248 188.486 123.291C188.26 123.101 187.991 122.969 187.703 122.905C187.415 122.84 187.116 122.845 186.83 122.92C186.791 122.928 186.75 122.926 186.712 122.913C186.673 122.9 186.64 122.876 186.614 122.846C186.587 122.815 186.569 122.777 186.562 122.737C186.554 122.697 186.557 122.656 186.57 122.617C186.781 122.042 187.188 120.429 186.638 119.854C186.379 119.589 185.903 119.564 185.217 119.787C185.17 119.802 185.12 119.802 185.073 119.786C185.026 119.771 184.986 119.74 184.957 119.7C184.929 119.66 184.914 119.613 184.914 119.564C184.914 119.515 184.929 119.468 184.957 119.428C185.341 118.946 186.286 117.537 186.051 116.863C186.013 116.77 185.95 116.689 185.869 116.628C185.789 116.568 185.694 116.529 185.594 116.517C185.565 116.51 185.537 116.497 185.513 116.479C185.489 116.461 185.468 116.439 185.453 116.413C185.437 116.387 185.427 116.358 185.423 116.329C185.418 116.299 185.42 116.268 185.427 116.239C185.433 116.21 185.445 116.182 185.462 116.157C185.479 116.132 185.501 116.112 185.526 116.096C185.552 116.08 185.58 116.07 185.61 116.066C185.64 116.062 185.67 116.064 185.699 116.072C185.873 116.098 186.036 116.168 186.174 116.276C186.312 116.385 186.419 116.528 186.484 116.69C186.737 117.426 186.119 118.544 185.687 119.162C185.909 119.109 186.142 119.111 186.364 119.169C186.586 119.226 186.79 119.336 186.96 119.49C187.64 120.194 187.312 121.684 187.108 122.382C187.409 122.346 187.715 122.374 188.005 122.465C188.294 122.555 188.562 122.706 188.789 122.907C189.71 123.748 189.809 125.379 189.796 126.127C189.99 126.036 190.201 125.989 190.414 125.989C190.628 125.989 190.839 126.036 191.032 126.127C192.2 126.64 193.01 128.463 193.127 129.94C193.13 129.97 193.126 130 193.117 130.028C193.108 130.057 193.093 130.083 193.073 130.105C193.054 130.128 193.03 130.146 193.003 130.159C192.976 130.172 192.947 130.18 192.917 130.181L192.899 130.237Z" fill="#FAFAFA"/>
<path d="M206.21 102.118C206.181 101.79 206.065 101.476 205.874 101.207C205.682 100.939 205.423 100.727 205.123 100.592L168.284 79.3202C167.465 78.9058 166.56 78.6899 165.642 78.6899C164.724 78.6899 163.819 78.9058 163 79.3202L106.342 112.037C106.041 112.172 105.782 112.384 105.591 112.653C105.399 112.921 105.283 113.235 105.254 113.564V116.425C105.283 116.753 105.399 117.067 105.591 117.336C105.782 117.604 106.041 117.817 106.342 117.951L143.181 139.217C143.999 139.634 144.904 139.852 145.823 139.852C146.741 139.852 147.646 139.634 148.464 139.217L205.123 106.506C205.423 106.371 205.682 106.159 205.874 105.89C206.065 105.622 206.181 105.308 206.21 104.98V102.118Z" fill="#37474F"/>
<path d="M143.179 136.355L106.34 115.09C104.881 114.243 104.881 112.878 106.34 112.037L162.998 79.3202C163.817 78.9058 164.722 78.6899 165.64 78.6899C166.558 78.6899 167.463 78.9058 168.282 79.3202L205.121 100.592C206.586 101.438 206.586 102.798 205.121 103.645L148.463 136.355C147.645 136.773 146.739 136.99 145.821 136.99C144.902 136.99 143.997 136.773 143.179 136.355Z" fill="#455A64"/>
<path opacity="0.1" d="M197.857 110.696L180.515 132.159L150.784 149.327L150.777 137.882L197.857 110.696Z" fill="black"/>
<path opacity="0.1" d="M195.38 143.599L180.517 163.628L150.785 180.802V169.351L195.38 143.599Z" fill="black"/>
<path opacity="0.1" d="M195.38 175.073L180.517 195.103L150.785 212.277V200.825L195.38 175.073Z" fill="black"/>
<path d="M127.169 237.583L81.585 263.904L30.2539 234.197L75.8376 207.882L127.169 237.583Z" fill="#0D5372"/>
<path opacity="0.5" d="M127.169 237.583L81.585 263.904L30.2539 234.197L75.8376 207.882L127.169 237.583Z" fill="black"/>
<path d="M75.8376 172.206V207.883L30.2539 234.197V198.526L75.8376 172.206Z" fill="#0D5372"/>
<path opacity="0.23" d="M75.8376 172.206V207.883L30.2539 234.197V198.526L75.8376 172.206Z" fill="black"/>
<path d="M81.585 228.227V263.904L30.2539 234.197V198.526L81.585 228.227Z" fill="#0D5372"/>
<path opacity="0.38" d="M81.585 228.227V263.904L30.2539 234.197V198.526L81.585 228.227Z" fill="black"/>
<path d="M127.171 201.907V237.584L75.8398 207.883V172.206L127.171 201.907Z" fill="#0D5372"/>
<path opacity="0.4" d="M127.171 201.907V237.584L75.8398 207.883V172.206L127.171 201.907Z" fill="black"/>
<path d="M127.174 237.583V201.906L81.5898 228.227V263.904L127.174 237.583Z" fill="#0D5372"/>
<path opacity="0.23" d="M127.174 237.583V201.906L81.5898 228.227V263.904L127.174 237.583Z" fill="black"/>
<path d="M75.8398 172.205L75.9016 152.454L127.109 182.192L127.171 201.906L75.8398 172.205Z" fill="#0D5372"/>
<path opacity="0.2" d="M75.8398 172.205L75.9016 152.454L127.109 182.192L127.171 201.906L75.8398 172.205Z" fill="black"/>
<path d="M81.5898 228.227L85.8664 210.948L131.036 184.868L127.174 201.906L81.5898 228.227Z" fill="#0D5372"/>
<path opacity="0.3" d="M81.5898 228.227L85.8664 210.948L131.036 184.868L127.174 201.906L81.5898 228.227Z" fill="black"/>
<path d="M30.2548 198.526L24.8164 180.604L70.4001 154.29L75.8385 172.205L30.2548 198.526Z" fill="#0D5372"/>
<path opacity="0.1" d="M30.2548 198.526L24.8164 180.604L70.4001 154.29L75.8385 172.205L30.2548 198.526Z" fill="black"/>
<path d="M30.2558 198.526L19.5273 183.712L70.8646 213.413L81.5869 228.227L30.2558 198.526Z" fill="#0D5372"/>
<path opacity="0.45" d="M30.2558 198.526L19.5273 183.712L70.8646 213.413L81.5869 228.227L30.2558 198.526Z" fill="black"/>
<g opacity="0.7">
<path opacity="0.7" d="M95.0108 253.293C94.9365 253.293 94.8651 253.264 94.812 253.212C94.7588 253.16 94.7282 253.089 94.7266 253.015V246.736C94.7281 246.661 94.7586 246.59 94.8116 246.537C94.8645 246.484 94.9359 246.453 95.0108 246.452C95.0852 246.453 95.1559 246.484 95.2079 246.537C95.2599 246.59 95.289 246.662 95.2889 246.736V253.015C95.2889 253.089 95.2596 253.159 95.2075 253.211C95.1553 253.264 95.0846 253.293 95.0108 253.293Z" fill="white"/>
<path opacity="0.7" d="M94.1863 248.911C94.1494 248.917 94.1119 248.917 94.075 248.911C94.0076 248.88 93.9546 248.824 93.927 248.755C93.8994 248.686 93.8993 248.61 93.9267 248.54L94.9279 246.235L96.0403 247.521C96.0801 247.578 96.0973 247.649 96.0885 247.718C96.0798 247.787 96.0458 247.851 95.993 247.897C95.9402 247.943 95.8723 247.968 95.8024 247.967C95.7324 247.966 95.6653 247.939 95.6138 247.892L95.0885 247.274L94.4705 248.757C94.4438 248.808 94.4025 248.85 94.3519 248.877C94.3013 248.905 94.2436 248.917 94.1863 248.911Z" fill="white"/>
<path opacity="0.7" d="M97.5984 251.816C97.5241 251.814 97.4534 251.784 97.4014 251.731C97.3494 251.677 97.3203 251.606 97.3203 251.532V245.259C97.3203 245.185 97.3496 245.115 97.4018 245.062C97.4539 245.01 97.5247 244.981 97.5984 244.981C97.6722 244.981 97.7429 245.01 97.7951 245.062C97.8472 245.115 97.8765 245.185 97.8765 245.259V251.526C97.8773 251.563 97.8708 251.6 97.8573 251.635C97.8437 251.67 97.8235 251.701 97.7976 251.728C97.7718 251.755 97.7409 251.777 97.7067 251.792C97.6726 251.807 97.6357 251.815 97.5984 251.816Z" fill="white"/>
<path opacity="0.7" d="M96.7747 247.434C96.7378 247.44 96.7003 247.44 96.6634 247.434C96.6295 247.42 96.5989 247.398 96.5733 247.372C96.5477 247.345 96.5278 247.313 96.5145 247.279C96.5013 247.244 96.4951 247.207 96.4962 247.171C96.4974 247.134 96.5059 247.097 96.5213 247.064L97.5163 244.728L98.6287 246.007C98.68 246.06 98.7087 246.131 98.7087 246.205C98.7087 246.278 98.68 246.349 98.6287 246.402C98.6028 246.428 98.572 246.449 98.5381 246.463C98.5041 246.478 98.4677 246.485 98.4309 246.485C98.3941 246.485 98.3577 246.478 98.3238 246.463C98.2898 246.449 98.259 246.428 98.2332 246.402L97.7079 245.784L97.0899 247.268C97.0643 247.327 97.019 247.376 96.9617 247.407C96.9044 247.437 96.8384 247.447 96.7747 247.434Z" fill="white"/>
</g>
<g opacity="0.7">
<path opacity="0.7" d="M87.5389 257.551C87.4333 257.553 87.329 257.527 87.2361 257.477C87.1243 257.405 87.0338 257.305 86.974 257.187C86.9143 257.068 86.8874 256.936 86.8962 256.803V256.031C86.8978 255.956 86.9284 255.886 86.9816 255.834C87.0347 255.782 87.1061 255.753 87.1804 255.753C87.2542 255.753 87.3249 255.782 87.3771 255.834C87.4292 255.886 87.4585 255.957 87.4585 256.031V256.803C87.4585 256.915 87.4585 256.976 87.5142 256.989C87.5698 257.001 87.6007 256.989 87.6934 256.939C87.8673 256.779 88.0044 256.582 88.095 256.363C88.1857 256.145 88.2279 255.909 88.2187 255.672V252.459C88.2187 252.385 88.248 252.314 88.3001 252.262C88.3523 252.21 88.423 252.181 88.4968 252.181C88.5705 252.181 88.6413 252.21 88.6934 252.262C88.7456 252.314 88.7749 252.385 88.7749 252.459V255.672C88.7887 256.006 88.7237 256.338 88.5852 256.642C88.4467 256.946 88.2386 257.213 87.9777 257.421C87.8456 257.503 87.6941 257.548 87.5389 257.551Z" fill="white"/>
<path opacity="0.7" d="M84.5898 254.962V254.48C84.6633 253.242 85.0251 252.038 85.6464 250.965C86.2677 249.892 87.1312 248.979 88.1681 248.3C89.1816 247.719 90.1457 247.632 90.8873 248.065C91.2828 248.336 91.5982 248.708 91.8004 249.143C92.0026 249.578 92.0842 250.059 92.0367 250.537V250.697L84.5898 254.962ZM89.849 248.324C89.3542 248.347 88.8734 248.496 88.4523 248.757C87.5638 249.341 86.8115 250.11 86.2464 251.011C85.6812 251.912 85.3165 252.925 85.1769 253.979L91.462 250.345C91.4888 249.987 91.4227 249.628 91.27 249.304C91.1174 248.979 90.8833 248.699 90.5906 248.491C90.3623 248.371 90.1066 248.314 89.849 248.324Z" fill="white"/>
</g>
<path opacity="0.7" d="M19.5273 183.712L70.8646 213.413L81.5869 228.227L70.296 213.939L19.5273 183.712Z" fill="white"/>
<path opacity="0.7" d="M127.174 201.906L81.5898 228.227V263.904L82.4427 228.944L127.174 201.906Z" fill="white"/>
<path d="M60.2859 187.637C64.9888 186.957 69.2839 183.929 72.0279 180.122C73.3075 178.343 74.2501 176.345 74.8089 174.226C75.4023 172.245 75.4999 170.148 75.0931 168.12C74.2465 164.727 71.107 162.719 67.7884 162.299C66.1044 162.077 64.392 162.244 62.7826 162.787C61.1138 163.36 59.6659 164.44 58.642 165.877C58 166.642 57.5961 167.579 57.4801 168.571C57.4703 168.96 57.6073 169.338 57.8639 169.63C58.1205 169.922 58.4778 170.107 58.8645 170.147C59.8596 170.231 60.854 169.979 61.6887 169.43C62.7065 168.86 63.6029 168.095 64.3276 167.181C65.882 165.262 67.0452 163.058 67.7513 160.692C68.2467 158.662 68.2467 156.542 67.7513 154.512C67.3749 152.388 66.4042 150.414 64.9518 148.82C63.2867 147.306 61.1736 146.375 58.9324 146.169C56.7019 145.862 54.4307 146.074 52.2951 146.787C51.3571 147.071 50.488 147.547 49.7428 148.183C49.2113 148.678 48.6057 149.494 48.822 150.297C49.0383 151.1 50.2125 151.459 51.0097 151.354C52.1896 151.133 53.2703 150.547 54.0997 149.679C55.0239 148.769 55.809 147.728 56.4295 146.589C56.8906 145.771 57.1312 144.846 57.1279 143.907C57.0475 139.989 52.7154 137.455 49.3225 136.738C48.4067 136.547 47.4685 136.484 46.5354 136.553C46.2202 136.553 46.4118 137.072 46.6651 137.053C48.4909 136.97 50.3053 137.38 51.9181 138.24C53.5093 138.971 54.8457 140.161 55.7559 141.657C56.1615 142.395 56.3617 143.228 56.3357 144.069C56.3096 144.911 56.0581 145.73 55.6076 146.441C55.0025 147.495 54.2491 148.456 53.3704 149.296C52.635 149.963 51.5164 150.736 50.4844 150.662C50.314 150.661 50.1471 150.613 50.0029 150.522C49.8586 150.432 49.7428 150.302 49.6686 150.149C49.6375 149.946 49.6542 149.738 49.7175 149.543C49.7808 149.348 49.889 149.17 50.0332 149.024C50.579 148.436 51.2539 147.983 52.0047 147.701C53.8587 146.931 55.8663 146.601 57.8695 146.737C59.9339 146.775 61.9415 147.42 63.6416 148.591C65.1226 149.821 66.1744 151.49 66.6451 153.356C67.2413 155.252 67.4267 157.254 67.1889 159.227C66.8219 161.213 66.059 163.104 64.9456 164.789C63.8023 166.68 62.3685 168.497 60.2179 169.239C59.6864 169.43 58.574 169.708 58.3639 168.936C58.1538 168.163 58.7594 167.212 59.1487 166.612C60.0097 165.257 61.2649 164.198 62.7455 163.578C64.1743 163.005 65.7166 162.772 67.2507 162.898C70.1615 163.114 73.1155 164.635 74.1291 167.527C74.6375 169.255 74.6928 171.086 74.2897 172.842C73.9262 174.767 73.2342 176.614 72.2442 178.305C70.1145 181.896 66.8892 184.71 63.0421 186.333C62.1275 186.728 61.1881 187.062 60.2302 187.371C60.1314 187.408 60.1746 187.655 60.2859 187.637Z" fill="#E0E0E0"/>
<path d="M40.6373 133.982C38.1653 133.803 34.7601 135.749 35.9714 137.171C37.1827 138.592 40.3963 136.293 40.3963 136.293C40.3963 136.293 40.0935 139.167 41.1441 139.495C42.1947 139.822 43.6161 137.078 42.5655 135.323C43.0721 135.523 43.6211 135.591 44.1613 135.522C44.7015 135.453 45.2155 135.248 45.6555 134.927C47.151 133.827 45.569 132.789 43.4616 132.975C43.4616 132.975 44.9695 128.031 41.9228 128.976C40.3963 129.44 39.8586 131.226 40.6373 133.982Z" fill="#0D5372"/>
<path opacity="0.65" d="M40.6373 133.982C38.1653 133.803 34.7601 135.749 35.9714 137.171C37.1827 138.592 40.3963 136.293 40.3963 136.293C40.3963 136.293 40.0935 139.167 41.1441 139.495C42.1947 139.822 43.6161 137.078 42.5655 135.323C43.0721 135.523 43.6211 135.591 44.1613 135.522C44.7015 135.453 45.2155 135.248 45.6555 134.927C47.151 133.827 45.569 132.789 43.4616 132.975C43.4616 132.975 44.9695 128.031 41.9228 128.976C40.3963 129.44 39.8586 131.226 40.6373 133.982Z" fill="white"/>
<path d="M42.9368 135.033C42.8 134.899 42.6555 134.773 42.5041 134.656C42.2878 134.489 42.0592 134.328 41.8429 134.167C41.6323 134.014 41.4113 133.876 41.1816 133.753C41.0494 133.68 40.9132 133.614 40.7738 133.555C40.5812 133.465 40.367 133.431 40.1558 133.457C40.1004 133.458 40.0465 133.475 39.9997 133.504C39.9528 133.534 39.9148 133.575 39.8895 133.624C39.8642 133.674 39.8527 133.729 39.856 133.784C39.8594 133.839 39.8775 133.893 39.9085 133.939C40.0784 134.123 40.2905 134.263 40.5265 134.347L40.8603 134.526C41.0889 134.662 41.2929 134.816 41.4783 134.971C41.6637 135.125 41.9109 135.274 42.0963 135.428C42.4151 135.687 42.7714 135.895 43.153 136.046C43.1701 136.055 43.1893 136.06 43.2087 136.06C43.2281 136.06 43.2472 136.055 43.2643 136.046C43.5795 135.799 43.116 135.212 42.9368 135.033Z" fill="#455A64"/>
<path d="M239.954 65.9966C237.253 69.6304 233.638 89.6103 232.272 96.019C225.703 95.8274 216.915 95.5184 213.59 95.1723C209.882 94.783 201.966 94.0229 198.078 94.5543C188.431 95.7903 188.808 102.131 189.043 103.787C189.297 105.678 190.65 106.544 195.841 105.363C197.003 105.108 198.187 104.969 199.376 104.949C199.877 104.949 200.933 104.696 201.329 105.122C201.947 105.74 200.161 106.778 199.716 107.063C199.03 107.508 198.313 108.07 198.171 108.873C198.13 109.02 198.132 109.176 198.177 109.321C198.222 109.467 198.308 109.597 198.424 109.695C198.676 109.798 198.958 109.798 199.209 109.695C201.579 109.133 203.864 108.262 206.007 107.106C206.815 106.619 207.665 106.205 208.547 105.87C209.888 105.437 211.273 105.691 212.62 105.691C215.518 105.691 230.838 107.211 237.649 107.903C242.364 108.379 242.865 103.725 244.49 99.0101C246.486 93.1638 251.214 62.4183 251.214 62.4183C246.443 61.7262 243.168 61.6829 239.954 65.9966Z" fill="#FFA8A7"/>
<path d="M251.29 61.9363C249.009 61.5161 243.874 60.8796 241.08 64.0005C238.287 67.1214 237.626 70.3968 236.396 75.1245C235.166 79.8522 232.984 88.3188 232.984 88.3188C232.984 88.3188 236.587 93.4914 247.866 92.0268L251.29 61.9363Z" fill="#37474F"/>
<path d="M279.612 225.348L271.683 225.354L269.402 208.143L279.408 207.748L279.612 225.348Z" fill="#FFA8A7"/>
<path d="M253.286 216.751C251.938 219.094 247.606 218.902 244.016 218.074L243.602 201.153L254.2 200.733L253.286 216.751Z" fill="#FFA8A7"/>
<path d="M279.072 116.592C279.356 123.916 278.386 167.219 278.386 167.219C278.652 169.32 280.827 172.985 281.278 180.568C281.94 191.581 279.696 215.065 279.696 215.065C279.696 215.065 275.154 217.438 270.259 215.621C270.259 215.621 265.278 181.631 263.461 170.766C261.892 161.311 259.877 135.948 259.877 135.948L255.965 168.455C256.682 172.303 256.979 176.217 256.849 180.129C256.688 185.184 253.808 209.731 253.808 209.731C250.523 210.806 246.994 210.89 243.661 209.972C243.661 209.972 241.3 171.879 241.028 167.262C240.719 161.997 240.929 115.517 240.929 115.517L279.072 116.592Z" fill="#0D5372"/>
<path opacity="0.2" d="M259.891 135.96C259.891 135.96 252.964 133.995 248.242 129.78C248.242 129.78 250.455 133.556 256.721 136.906L256.363 165.278L259.891 135.96Z" fill="black"/>
<path d="M262.644 239.704C262.391 239.964 262.539 241.675 262.848 242.12C263.157 242.565 265.048 244.073 268.33 244.184C271.463 244.283 274.232 243.752 276.018 242.516C277.804 241.28 278.644 239.964 278.749 238.19C278.855 236.416 278.589 234.692 279.367 233.289C280.103 231.998 281.296 230.521 281.537 229.822C282.074 228.308 281.419 226.201 281.419 226.201L262.644 239.704Z" fill="#263238"/>
<path d="M270.558 223.84C270.562 224.516 270.467 225.189 270.274 225.836C269.603 227.944 268.595 229.929 267.289 231.714C266.387 232.869 265.25 233.84 264.292 234.958C263.267 236.019 262.638 237.4 262.512 238.87C262.475 241.342 265.17 242.053 267.227 242.337C269.458 242.631 271.727 242.42 273.865 241.719C274.991 241.38 275.995 240.722 276.756 239.825C277.517 238.928 278.002 237.83 278.154 236.664C278.24 235.978 278.154 235.286 278.228 234.6C278.437 233.024 279.034 231.525 279.964 230.237C280.503 229.491 280.963 228.692 281.336 227.851C281.911 226.306 281.336 224.619 280.867 223.13C280.465 221.838 280.008 220.373 279.557 220.515C279.557 221.201 279.557 221.263 279.118 221.751C278.5 222.369 278.531 223.228 277.882 223.766C278.069 223.196 278.198 222.608 278.265 222.011C278.295 221.768 278.236 221.522 278.098 221.319C277.875 221.137 277.612 221.011 277.332 220.948C276.354 220.659 275.35 220.471 274.334 220.386C273.368 220.259 272.387 220.29 271.43 220.478C271.147 220.544 270.894 220.703 270.713 220.93C270.554 221.183 270.474 221.477 270.484 221.776C270.484 222.178 270.552 223.185 270.558 223.84Z" fill="#455A64"/>
<path d="M268.208 230.347C269.098 229.631 271.137 229.538 272.262 229.618C273.402 229.67 274.51 230.01 275.482 230.607C275.625 230.703 275.798 230.744 275.969 230.724C276.14 230.703 276.298 230.622 276.415 230.496C276.483 230.424 276.535 230.338 276.567 230.244C276.599 230.149 276.61 230.05 276.599 229.951C276.589 229.852 276.557 229.757 276.506 229.672C276.455 229.587 276.386 229.513 276.304 229.458C275.23 228.73 273.973 228.318 272.676 228.271C269.92 228.191 269.135 228.691 269.135 228.691C269.135 228.691 267.905 229.544 268.208 230.347Z" fill="#F5F5F5"/>
<path d="M266.207 232.943C267.326 232.22 269.581 232.226 270.7 232.325C271.821 232.396 272.904 232.761 273.839 233.382C273.982 233.477 274.153 233.518 274.323 233.498C274.493 233.478 274.651 233.397 274.766 233.271C274.836 233.2 274.889 233.114 274.922 233.02C274.955 232.926 274.967 232.826 274.957 232.727C274.947 232.628 274.915 232.533 274.864 232.447C274.813 232.362 274.744 232.288 274.661 232.233C273.569 231.467 272.285 231.021 270.953 230.947C268.191 230.861 267.499 231.448 267.499 231.448C267.185 231.584 266.906 231.789 266.682 232.048C266.458 232.307 266.296 232.613 266.207 232.943Z" fill="#F5F5F5"/>
<path d="M273.666 225.601C272.499 225.442 271.311 225.587 270.217 226.022C269.748 226.312 269.457 227.091 269.772 227.258C270.73 226.828 271.778 226.641 272.825 226.714C273.86 226.774 274.876 227.013 275.829 227.418C276.07 227.511 276.354 227.647 276.601 227.771C276.68 227.811 276.767 227.835 276.856 227.841C276.944 227.847 277.033 227.835 277.117 227.805C277.201 227.776 277.278 227.73 277.343 227.669C277.409 227.609 277.461 227.536 277.497 227.455C277.556 227.315 277.561 227.158 277.51 227.014C277.46 226.87 277.359 226.75 277.226 226.677C276.13 226.067 274.916 225.7 273.666 225.601Z" fill="#F5F5F5"/>
<path d="M225.894 227.307C225.613 228.013 225.613 228.8 225.894 229.507C226.166 230.168 229.441 232.22 233.99 232.133C237.372 232.051 240.671 231.065 243.544 229.278C245.33 228.215 247.141 228.085 249.391 228.042C251.64 227.999 254.644 227.041 255.187 226.015C255.731 224.989 255.249 223.154 255.249 223.154L225.894 227.307Z" fill="#263238"/>
<path d="M244.869 214.02L244.517 213.927C244.317 213.866 244.106 213.847 243.899 213.871C243.676 213.925 243.475 214.046 243.324 214.217C242.856 214.766 242.442 215.357 242.088 215.985C241.068 217.487 238.998 218.679 236.773 219.749C235.253 220.472 233.776 221.022 232.212 221.633C230.649 222.245 228.504 222.591 227.268 223.358C225.414 224.476 225.062 227.474 227.027 228.759C228.733 229.871 233.281 231.2 238.151 230.063C240.815 229.445 243.868 226.775 247.329 226.67C249.535 226.602 253.713 226.182 255.202 224.581C255.764 223.871 255.202 221.491 254.701 219.44C254.182 217.202 254.417 213.878 253.416 213.878L253.354 214.996C253.261 215.33 252.477 215.657 252.229 215.917L251.339 216.856C250.975 217.291 250.53 217.652 250.029 217.919C249.146 218.315 248.114 218.08 247.168 217.833C247.131 217.833 247.644 216.115 247.699 215.948C247.755 215.817 247.772 215.674 247.749 215.534C247.701 215.397 247.607 215.281 247.483 215.206C246.703 214.635 245.813 214.231 244.869 214.02Z" fill="#455A64"/>
<path d="M238.883 218.649C239.056 218.354 239.3 218.108 239.592 217.932C239.885 217.756 240.217 217.656 240.558 217.641C241.565 217.505 243.289 218.321 244.346 219.279C244.446 219.369 244.522 219.482 244.568 219.608C244.614 219.734 244.628 219.869 244.61 220.002C244.592 220.135 244.541 220.261 244.463 220.37C244.385 220.479 244.281 220.567 244.161 220.626C244.01 220.701 243.839 220.727 243.673 220.7C243.507 220.674 243.353 220.596 243.234 220.478C242.076 219.326 240.516 218.669 238.883 218.649Z" fill="#F5F5F5"/>
<path d="M235.711 220.237C235.943 219.941 236.242 219.705 236.584 219.549C236.926 219.393 237.301 219.322 237.676 219.341C237.676 219.341 240.284 219.539 241.823 221.121C241.918 221.208 241.991 221.316 242.035 221.437C242.079 221.558 242.093 221.687 242.076 221.815C242.059 221.942 242.011 222.064 241.937 222.169C241.863 222.274 241.764 222.36 241.65 222.419C241.504 222.49 241.34 222.514 241.179 222.489C241.019 222.463 240.871 222.389 240.754 222.276C240.121 221.579 239.338 221.034 238.465 220.681C237.592 220.328 236.651 220.176 235.711 220.237Z" fill="#F5F5F5"/>
<path d="M232.215 221.634C232.477 221.362 232.796 221.15 233.148 221.012C233.499 220.875 233.877 220.815 234.254 220.836C235.732 220.999 237.12 221.624 238.222 222.622C238.317 222.71 238.389 222.819 238.433 222.94C238.477 223.061 238.491 223.191 238.474 223.319C238.457 223.447 238.41 223.569 238.336 223.675C238.262 223.781 238.163 223.867 238.049 223.926C237.903 223.998 237.738 224.023 237.577 223.996C237.416 223.97 237.268 223.893 237.153 223.778C236.553 223.061 235.794 222.495 234.937 222.122C234.08 221.75 233.148 221.583 232.215 221.634Z" fill="#F5F5F5"/>
<path d="M264.499 62.0723C267.416 62.4061 270.865 62.5853 273.652 62.9499C277.243 63.4196 280.042 67.1338 280.92 72.8812C281.884 79.2095 277.83 97.354 277.83 97.354L279.121 118.749C273.862 122.624 251.466 124.657 240.305 116.598C240.305 116.598 240.564 80.1859 241.436 74.5745C242.635 66.8804 244.526 62.1032 253.178 61.5532L264.499 62.0723Z" fill="#455A64"/>
<path d="M284.443 108.422C283.497 110.004 282.546 111.586 281.569 113.15C281.211 113.731 280.846 114.306 280.469 114.874C280.265 115.152 280.026 115.404 279.759 115.622C279.289 115.943 278.312 115.739 277.744 115.758C274.95 115.853 272.165 116.059 269.388 116.376C269.156 116.369 268.925 116.412 268.711 116.504C268.498 116.596 268.307 116.734 268.152 116.907C268.038 117.147 268.016 117.419 268.088 117.674C268.161 117.929 268.325 118.149 268.548 118.292C269.003 118.565 269.52 118.718 270.05 118.737L272.46 119.021C272.804 119.032 273.138 119.139 273.424 119.33C274.302 120.041 272.627 120.893 272.126 121.239C271.119 121.939 270.045 122.535 268.919 123.019C263.894 125.133 263.283 126.666 264.21 128.408C265.013 129.922 268.486 135.429 277.311 130.689C280.865 128.779 286.272 122.747 288.738 119.83C292.285 115.622 298.286 106.234 298.286 106.234C301.698 101.55 302.136 99.628 302.217 97.6813C302.297 95.7346 291.711 80.7605 288.114 75.5013C284.517 70.2421 282.805 63.8458 273.653 62.9683C273.653 62.9683 270.167 74.0181 275.939 81.1684L289.27 99.764C289.27 99.764 285.741 106.253 284.443 108.422Z" fill="#FFA8A7"/>
<path d="M294.115 82.6329C292.404 80.1609 290.618 77.6147 288.893 75.0933C281.632 64.4946 282.244 62.5541 271.775 62.4058C270.848 63.8272 270.298 69.9454 271.694 76.0883C272.862 81.2486 277.256 84.8886 277.256 84.8886L282.497 91.9894C282.497 91.9894 285.704 91.8905 289.548 89.0725C291.768 87.5174 293.382 85.2422 294.115 82.6329Z" fill="#37474F"/>
<path d="M271.406 34.2193C270.88 33.4351 270.151 32.8083 269.296 32.4056C268.442 32.003 267.495 31.8395 266.555 31.9327L266.011 45.2012L265.121 50.1019L265.276 55.5588C265.792 55.4858 266.282 55.2831 266.699 54.9697C267.116 54.6564 267.447 54.2425 267.661 53.7666C268.477 52.1969 270.751 44.6079 270.751 44.6079C272.79 38.3723 272.358 35.5542 271.406 34.2193Z" fill="#263238"/>
<path d="M265.39 45.2628C265.619 44.4564 266.061 43.7264 266.669 43.1493C267.429 42.3335 270.458 41.4498 271.836 44.0207C273.214 46.5915 270.89 49.9844 269.098 51.0226C266.805 52.3575 265.458 50.5406 265.458 50.5406L265.514 62.7584C264.445 65.2304 259.618 67.4305 256.744 67.0844C254.458 66.794 252.35 64.9956 254.396 62.3753L254.229 58.8897C254.229 58.8897 251.17 59.5077 249.656 59.3532C247.141 59.0937 245.466 57.1964 244.576 54.5267C243.142 50.2377 242.506 46.7522 243.111 38.1497C243.779 28.7252 254.674 28.0886 260.749 31.5C266.824 34.9113 265.39 45.2628 265.39 45.2628Z" fill="#FFA8A7"/>
<path d="M239.645 28.3604C239.367 26.3025 240.078 24.0962 242.235 23.367C243.026 23.0359 243.895 22.935 244.741 23.0761C245.588 23.2171 246.377 23.5943 247.018 24.1642C247.289 23.4382 247.756 22.8019 248.368 22.327C248.98 21.8521 249.713 21.5573 250.483 21.4758C251.254 21.3942 252.032 21.5292 252.73 21.8655C253.428 22.2017 254.018 22.726 254.434 23.3793C255.007 22.5092 255.892 21.892 256.906 21.6551C257.532 21.5154 258.179 21.5026 258.809 21.6172C259.44 21.7318 260.041 21.9717 260.577 22.3225C261.455 22.9714 262.487 24.1766 262.227 25.7401C263.964 25.0418 265.775 25.6227 267.066 27.1553C267.835 28.0938 268.27 29.2613 268.302 30.474C268.347 31.1039 268.256 31.736 268.036 32.328C267.789 32.8904 267.282 33.2611 267.134 33.8977C266.918 34.4577 266.807 35.0526 266.807 35.6528C266.949 36.691 267.177 37.7293 267.313 38.7428C267.46 39.7523 267.544 40.7698 267.567 41.7896C267.534 42.0294 267.451 42.2595 267.322 42.4642C267.193 42.6689 267.021 42.8435 266.819 42.9761C266.242 43.4807 265.795 44.1166 265.515 44.8301C265.299 45.2751 265.089 46.3751 264.662 46.6841C263.346 47.6049 263.197 44.6262 263.136 44.0514C263.051 42.7323 263.051 41.4092 263.136 40.09C262.472 40.0815 261.817 39.9341 261.214 39.6574C260.61 39.3806 260.071 38.9807 259.632 38.4832C259.176 37.9242 258.875 37.2549 258.76 36.5427C258.689 36.1347 258.656 35.7209 258.661 35.3067C257.802 36.7281 255.806 37.309 254.385 37.1607C251.999 36.9444 251.177 35.9247 250.794 35.1769C250.643 35.914 250.319 36.6046 249.849 37.1916C249.239 37.7642 248.505 38.1874 247.704 38.4276C247.013 38.612 246.285 38.6047 245.598 38.4065C244.911 38.2084 244.291 37.8268 243.805 37.3029C242.834 38.6934 240.375 38.0754 239.831 37.686C238.595 36.7899 238.193 35.7208 238.057 34.1943C237.921 32.6679 238.539 30.9251 240.233 30.3256C239.927 29.7084 239.729 29.0439 239.645 28.3604Z" fill="#263238"/>
<path d="M254.23 58.8713C254.23 58.8713 259.755 57.4746 261.646 56.3375C262.765 55.6825 263.659 54.7044 264.211 53.5317C263.972 54.6885 263.504 55.7855 262.833 56.7577C261.498 58.655 254.292 60.3606 254.292 60.3606L254.23 58.8713Z" fill="#F28F8F"/>
<path d="M254.537 44.8547C254.558 45.0887 254.647 45.3115 254.794 45.4953C254.94 45.6792 255.137 45.8159 255.361 45.8885C255.584 45.9611 255.824 45.9664 256.051 45.9038C256.277 45.8412 256.481 45.7133 256.635 45.5362C256.789 45.3591 256.888 45.1405 256.92 44.9075C256.951 44.6746 256.913 44.4376 256.811 44.2261C256.708 44.0145 256.546 43.8377 256.344 43.7176C256.142 43.5975 255.909 43.5395 255.674 43.5507C255.352 43.576 255.052 43.7267 254.84 43.9705C254.627 44.2143 254.518 44.5317 254.537 44.8547Z" fill="#263238"/>
<path d="M252.691 53.7976C252.719 54.0991 252.835 54.3856 253.025 54.6216C253.215 54.8576 253.47 55.0326 253.758 55.1249C254.047 55.2172 254.356 55.2227 254.647 55.1407C254.939 55.0587 255.2 54.8929 255.398 54.6638C255.596 54.4347 255.722 54.1525 255.761 53.8522C255.8 53.5519 255.75 53.2467 255.617 52.9747C255.484 52.7027 255.274 52.4757 255.013 52.3221C254.752 52.1684 254.452 52.0948 254.149 52.1105C253.733 52.1437 253.347 52.3393 253.074 52.655C252.801 52.9707 252.664 53.3812 252.691 53.7976Z" fill="#F28F8F"/>
<path d="M255.535 40.7387L258.081 41.9747C258.24 41.6257 258.258 41.2291 258.133 40.8669C258.008 40.5046 257.748 40.2043 257.408 40.028C257.239 39.9472 257.055 39.9016 256.868 39.8938C256.681 39.886 256.494 39.9162 256.319 39.9827C256.144 40.0491 255.985 40.1503 255.85 40.2803C255.715 40.4102 255.608 40.5662 255.535 40.7387Z" fill="#263238"/>
<path d="M244.462 41.8081L246.631 39.9541C246.518 39.8062 246.376 39.6829 246.213 39.592C246.051 39.501 245.871 39.4443 245.686 39.4252C245.501 39.4061 245.314 39.425 245.136 39.4809C244.958 39.5368 244.794 39.6284 244.653 39.7501C244.364 40.0034 244.183 40.358 244.147 40.7409C244.111 41.1238 244.224 41.5057 244.462 41.8081Z" fill="#263238"/>
<path d="M245.107 44.614C245.122 44.8426 245.204 45.0617 245.343 45.2437C245.482 45.4257 245.672 45.5626 245.889 45.6371C246.105 45.7115 246.339 45.7203 246.561 45.6622C246.782 45.6041 246.982 45.4819 247.134 45.3107C247.286 45.1396 247.385 44.9273 247.417 44.7004C247.449 44.4735 247.413 44.2423 247.314 44.0358C247.215 43.8292 247.057 43.6566 246.86 43.5395C246.663 43.4225 246.436 43.3663 246.207 43.378C245.898 43.3987 245.61 43.5398 245.404 43.771C245.198 44.0021 245.092 44.3049 245.107 44.614Z" fill="#263238"/>
<path d="M250.843 43.2422L250.806 50.5531L246.938 49.4407L250.843 43.2422Z" fill="#F28F8F"/>
<path d="M241.135 53.4697C241.17 53.4618 241.204 53.4467 241.234 53.4255C241.264 53.4043 241.289 53.3773 241.308 53.3461C241.33 53.3156 241.345 53.2809 241.353 53.2442C241.362 53.2074 241.362 53.1694 241.355 53.1325C241.348 53.0955 241.334 53.0603 241.313 53.029C241.292 52.9978 241.265 52.9711 241.234 52.9506L237.872 50.7134C237.841 50.6926 237.805 50.6781 237.769 50.6709C237.732 50.6636 237.694 50.6637 237.657 50.6712C237.62 50.6787 237.586 50.6934 237.554 50.7144C237.523 50.7354 237.497 50.7624 237.476 50.7938C237.454 50.8247 237.439 50.8597 237.432 50.8967C237.424 50.9336 237.424 50.9718 237.431 51.0088C237.439 51.0458 237.454 51.0809 237.475 51.1119C237.497 51.1429 237.524 51.1693 237.557 51.1893L240.912 53.4264C240.944 53.4496 240.98 53.4655 241.019 53.473C241.057 53.4805 241.097 53.4793 241.135 53.4697Z" fill="#E0E0E0"/>
<path d="M240.776 54.916C240.828 54.903 240.876 54.876 240.914 54.8379C240.952 54.7998 240.979 54.752 240.992 54.6997C241.009 54.6251 240.995 54.547 240.955 54.4822C240.914 54.4175 240.85 54.3713 240.776 54.3536L236.845 53.4451C236.809 53.4359 236.771 53.4341 236.734 53.4397C236.696 53.4453 236.66 53.4583 236.628 53.4778C236.596 53.4974 236.568 53.5231 236.546 53.5536C236.524 53.584 236.508 53.6186 236.499 53.6553C236.483 53.7298 236.496 53.8079 236.536 53.8727C236.577 53.9375 236.641 53.9837 236.716 54.0013L240.646 54.916C240.689 54.9221 240.733 54.9221 240.776 54.916Z" fill="#E0E0E0"/>
<path d="M237.125 57.5299H237.162L240.95 56.1456C241.021 56.1194 241.079 56.0659 241.111 55.9969C241.143 55.928 241.146 55.8492 241.12 55.7779C241.094 55.7066 241.04 55.6486 240.971 55.6168C240.902 55.5849 240.823 55.5817 240.752 55.6079L236.964 56.9923C236.928 57.0053 236.896 57.0253 236.868 57.0511C236.84 57.0769 236.818 57.108 236.802 57.1425C236.787 57.1771 236.778 57.2144 236.777 57.2523C236.777 57.2901 236.783 57.3278 236.797 57.3631C236.823 57.4251 236.87 57.476 236.93 57.5065C236.99 57.5371 237.059 57.5454 237.125 57.5299Z" fill="#E0E0E0"/>
<path d="M205.073 87.1756C205.152 87.3324 205.274 87.4628 205.426 87.5508C205.577 87.6388 205.751 87.6804 205.926 87.6705C206.101 87.6607 206.269 87.5998 206.41 87.4953C206.55 87.3909 206.657 87.2475 206.717 87.0829L209.535 80.1304C209.581 80.0189 209.604 79.8994 209.602 79.7789C209.601 79.6584 209.575 79.5395 209.527 79.4292C209.478 79.319 209.408 79.2196 209.32 79.1371C209.232 79.0546 209.129 78.9907 209.016 78.9491C208.903 78.9075 208.782 78.8892 208.662 78.8951C208.542 78.9011 208.424 78.9313 208.315 78.9839C208.207 79.0365 208.11 79.1104 208.031 79.2012C207.952 79.292 207.892 79.3978 207.854 79.5124L205.03 86.4649C204.988 86.58 204.971 86.7025 204.978 86.8247C204.986 86.9469 205.018 87.0664 205.073 87.1756Z" fill="#E0E0E0"/>
<path d="M200.433 87.1385C200.523 87.3207 200.672 87.4669 200.856 87.5531C201.04 87.6393 201.248 87.6605 201.446 87.613C201.643 87.5656 201.819 87.4525 201.944 87.2921C202.069 87.1318 202.135 86.9338 202.133 86.7306L202.04 78.0786C202.021 77.8546 201.919 77.6457 201.754 77.4935C201.588 77.3413 201.372 77.2568 201.147 77.2568C200.922 77.2568 200.706 77.3413 200.54 77.4935C200.375 77.6457 200.273 77.8546 200.254 78.0786L200.34 86.7306C200.339 86.8719 200.37 87.0117 200.433 87.1385Z" fill="#E0E0E0"/>
<path d="M192.565 82.3239L192.621 82.429L196.879 88.609C197.011 88.8046 197.215 88.9403 197.446 88.9866C197.678 89.0329 197.918 88.986 198.115 88.8562C198.307 88.7212 198.439 88.5171 198.484 88.2867C198.529 88.0563 198.483 87.8174 198.356 87.6202L194.098 81.4402C193.974 81.2485 193.781 81.1118 193.559 81.0584C193.337 81.005 193.103 81.0389 192.905 81.1532C192.708 81.2675 192.562 81.4534 192.497 81.6725C192.433 81.8915 192.455 82.127 192.559 82.3301L192.565 82.3239Z" fill="#E0E0E0"/>
</svg>
