<svg width="200" height="200" viewBox="0 0 200 200" fill="none" xmlns="http://www.w3.org/2000/svg">
<path d="M170.745 29.2563C131.738 -9.75017 68.2666 -9.75402 29.2563 29.2563C-9.75402 68.2666 -9.75017 131.734 29.2563 170.745C68.2628 209.755 131.734 209.755 170.745 170.745C209.751 131.734 209.751 68.2628 170.745 29.2563ZM139.453 139.453C136.448 142.459 131.577 142.459 128.571 139.453L100 110.882L70.0713 140.812C67.066 143.817 62.1946 143.817 59.1893 140.812C56.1841 137.806 56.1841 132.935 59.1893 129.93L89.1185 100L60.5477 71.4296C57.5424 68.4244 57.5424 63.549 60.5477 60.5477C63.5529 57.5424 68.4244 57.5424 71.4296 60.5477L100 89.1185L127.209 61.9098C130.214 58.9046 135.086 58.9046 138.091 61.9098C141.096 64.9151 141.096 69.7865 138.091 72.7918L110.882 100L139.453 128.571C142.459 131.577 142.459 136.448 139.453 139.453Z" fill="#E96464"/>
</svg>
