<svg width="26" height="26" viewBox="0 0 26 26" fill="none" xmlns="http://www.w3.org/2000/svg">
<path d="M25.8348 12.4939C25.6025 12.1761 20.0682 4.71387 12.9999 4.71387C5.93157 4.71387 0.397009 12.1761 0.164989 12.4936C-0.0549962 12.795 -0.0549962 13.2038 0.164989 13.5053C0.397009 13.823 5.93157 21.2853 12.9999 21.2853C20.0682 21.2853 25.6025 13.823 25.8348 13.5055C26.055 13.2042 26.055 12.795 25.8348 12.4939ZM12.9999 19.571C7.79331 19.571 3.28388 14.6182 1.94899 12.999C3.28215 11.3784 7.78214 6.42814 12.9999 6.42814C18.2062 6.42814 22.7153 11.3801 24.0508 13.0002C22.7176 14.6207 18.2176 19.571 12.9999 19.571Z" fill="#5C7C8A"/>
<path d="M12.9983 7.85742C10.1626 7.85742 7.85547 10.1646 7.85547 13.0003C7.85547 15.836 10.1626 18.1432 12.9983 18.1432C15.8341 18.1432 18.1412 15.836 18.1412 13.0003C18.1412 10.1646 15.8341 7.85742 12.9983 7.85742ZM12.9983 16.4289C11.1078 16.4289 9.56979 14.8908 9.56979 13.0003C9.56979 11.1098 11.1078 9.57175 12.9983 9.57175C14.8889 9.57175 16.4269 11.1098 16.4269 13.0003C16.4269 14.8908 14.8889 16.4289 12.9983 16.4289Z" fill="#5C7C8A"/>
</svg>
