<svg width="36" height="36" viewBox="0 0 36 36" fill="none" xmlns="http://www.w3.org/2000/svg">
<g clipPath="url(#clip0)">
<path d="M7.97836 21.7559L6.72525 26.434L2.14516 26.5309C0.776391 23.9921 0 21.0874 0 18.0007C0 15.0159 0.725906 12.2011 2.01262 9.72266H2.01361L6.09117 10.4702L7.87739 14.5233C7.50354 15.6132 7.29977 16.7832 7.29977 18.0007C7.29991 19.322 7.53926 20.588 7.97836 21.7559Z" fill="#FBBB00"/>
<path d="M35.6843 14.6377C35.891 15.7266 35.9988 16.8511 35.9988 18.0003C35.9988 19.289 35.8633 20.5461 35.6052 21.7586C34.729 25.8847 32.4394 29.4877 29.2677 32.0374L29.2667 32.0364L24.1308 31.7743L23.4039 27.2367C25.5085 26.0024 27.1532 24.0709 28.0196 21.7586H18.3945V14.6377H28.16H35.6843Z" fill="#518EF8"/>
<path d="M29.2672 32.0356L29.2681 32.0366C26.1835 34.516 22.2649 35.9996 17.9994 35.9996C11.1445 35.9996 5.18477 32.1682 2.14453 26.5298L7.97773 21.7549C9.49781 25.8118 13.4113 28.6997 17.9994 28.6997C19.9714 28.6997 21.819 28.1666 23.4043 27.236L29.2672 32.0356Z" fill="#28B446"/>
<path d="M29.4884 4.14394L23.6572 8.91788C22.0165 7.8923 20.077 7.29984 17.9991 7.29984C13.3072 7.29984 9.32049 10.3203 7.87655 14.5226L2.0127 9.72197H2.01172C5.00745 3.94615 11.0424 0 17.9991 0C22.3666 0 26.3711 1.55573 29.4884 4.14394Z" fill="#F14336"/>
</g>
<defs>
<clipPath id="clip0">
<rect width="36" height="36" fill="white"/>
</clipPath>
</defs>
</svg>
