<svg width="99" height="99" viewBox="0 0 99 99" fill="none" xmlns="http://www.w3.org/2000/svg">
<g clip-path="url(#clip0)">
<path d="M72.1875 99C57.4035 99 45.375 86.9715 45.375 72.1875C45.375 57.4035 57.4035 45.375 72.1875 45.375C86.9715 45.375 99 57.4035 99 72.1875C99 86.9715 86.9715 99 72.1875 99ZM72.1875 49.5C59.6764 49.5 49.5 59.6805 49.5 72.1875C49.5 84.6945 59.6764 94.875 72.1875 94.875C84.6986 94.875 94.875 84.6945 94.875 72.1875C94.875 59.6805 84.6986 49.5 72.1875 49.5Z" fill="#00587F"/>
<path d="M68.0635 82.5003C67.519 82.5003 66.991 82.2817 66.6033 81.8981L58.3533 73.6481C57.5489 72.8437 57.5489 71.5361 58.3533 70.7317C59.1577 69.9273 60.4653 69.9273 61.2697 70.7317L67.9604 77.4225L80.9459 62.5807C81.6966 61.7186 83.0001 61.6361 83.8581 62.3868C84.7161 63.1376 84.8028 64.437 84.052 65.295L69.6145 81.795C69.2391 82.224 68.6988 82.4797 68.1295 82.5003C68.1089 82.5003 68.0842 82.5003 68.0635 82.5003Z" fill="#00587F"/>
<path d="M39.1875 86.625H10.3125C4.62825 86.625 0 82.0009 0 76.3125V22.6875C0 16.9991 4.62825 12.375 10.3125 12.375H18.5625C19.701 12.375 20.625 13.299 20.625 14.4375C20.625 15.576 19.701 16.5 18.5625 16.5H10.3125C6.90113 16.5 4.125 19.2761 4.125 22.6875V76.3125C4.125 79.7239 6.90113 82.5 10.3125 82.5H39.1875C40.326 82.5 41.25 83.424 41.25 84.5625C41.25 85.701 40.326 86.625 39.1875 86.625Z" fill="#00587F"/>
<path d="M68.0625 37.125C66.924 37.125 66 36.201 66 35.0625V22.6875C66 19.2761 63.2239 16.5 59.8125 16.5H51.5625C50.424 16.5 49.5 15.576 49.5 14.4375C49.5 13.299 50.424 12.375 51.5625 12.375H59.8125C65.4967 12.375 70.125 16.9991 70.125 22.6875V35.0625C70.125 36.201 69.201 37.125 68.0625 37.125Z" fill="#00587F"/>
<path d="M47.4375 24.75H22.6875C19.2761 24.75 16.5 21.9739 16.5 18.5625V10.3125C16.5 9.174 17.424 8.25 18.5625 8.25H24.9563C25.9174 3.5475 30.0795 0 35.0625 0C40.0455 0 44.2076 3.5475 45.1687 8.25H51.5625C52.701 8.25 53.625 9.174 53.625 10.3125V18.5625C53.625 21.9739 50.8489 24.75 47.4375 24.75ZM20.625 12.375V18.5625C20.625 19.6969 21.549 20.625 22.6875 20.625H47.4375C48.576 20.625 49.5 19.6969 49.5 18.5625V12.375H43.3125C42.174 12.375 41.25 11.451 41.25 10.3125C41.25 6.90112 38.4739 4.125 35.0625 4.125C31.6511 4.125 28.875 6.90112 28.875 10.3125C28.875 11.451 27.951 12.375 26.8125 12.375H20.625Z" fill="#00587F"/>
<path d="M55.6875 37.125H14.4375C13.299 37.125 12.375 36.201 12.375 35.0625C12.375 33.924 13.299 33 14.4375 33H55.6875C56.826 33 57.75 33.924 57.75 35.0625C57.75 36.201 56.826 37.125 55.6875 37.125Z" fill="#00587F"/>
<path d="M43.3125 49.5H14.4375C13.299 49.5 12.375 48.576 12.375 47.4375C12.375 46.299 13.299 45.375 14.4375 45.375H43.3125C44.451 45.375 45.375 46.299 45.375 47.4375C45.375 48.576 44.451 49.5 43.3125 49.5Z" fill="#00587F"/>
<path d="M35.0625 61.875H14.4375C13.299 61.875 12.375 60.951 12.375 59.8125C12.375 58.674 13.299 57.75 14.4375 57.75H35.0625C36.201 57.75 37.125 58.674 37.125 59.8125C37.125 60.951 36.201 61.875 35.0625 61.875Z" fill="#00587F"/>
</g>
<defs>
<clipPath id="clip0">
<rect width="99" height="99" fill="white"/>
</clipPath>
</defs>
</svg>
