<svg width="178" height="178" viewBox="0 0 178 178" fill="none" xmlns="http://www.w3.org/2000/svg">
<path d="M142.704 71.0218C141.834 66.4285 140.722 61.8843 139.372 57.4084C135.313 44.4536 127.236 31.3456 113.362 26.9384C103.12 23.6881 92.0665 25.9309 83.4121 32.556C69.8378 42.9441 59.9588 57.12 45.1065 66.1162C32.707 73.6313 26.2172 85.7709 30.3859 102.93C34.5547 120.089 48.4814 130.086 63.7218 128.872C76.3882 127.85 89.6314 128.943 100.582 135.091C110.368 140.584 127.659 135.803 141.963 120.798C150.297 112.051 149.489 100.929 146.773 90.5378C145.093 84.1013 144.003 77.5366 142.704 71.0218Z" fill="#008DCC"/>
<path opacity="0.7" d="M142.704 71.0218C141.834 66.4285 140.722 61.8843 139.372 57.4084C135.313 44.4536 127.236 31.3456 113.362 26.9384C103.12 23.6881 92.0665 25.9309 83.4121 32.556C69.8378 42.9441 59.9588 57.12 45.1065 66.1162C32.707 73.6313 26.2172 85.7709 30.3859 102.93C34.5547 120.089 48.4814 130.086 63.7218 128.872C76.3882 127.85 89.6314 128.943 100.582 135.091C110.368 140.584 127.659 135.803 141.963 120.798C150.297 112.051 149.489 100.929 146.773 90.5378C145.093 84.1013 144.003 77.5366 142.704 71.0218Z" fill="white"/>
<path d="M157.136 150.76C157.136 151.87 126.876 152.775 89.56 152.775C52.244 152.775 21.9805 151.87 21.9805 150.76C21.9805 149.649 52.2405 148.745 89.56 148.745C126.879 148.745 157.136 149.649 157.136 150.76Z" fill="#008DCC"/>
<path opacity="0.3" d="M157.136 150.76C157.136 151.87 126.876 152.775 89.56 152.775C52.244 152.775 21.9805 151.87 21.9805 150.76C21.9805 149.649 52.2405 148.745 89.56 148.745C126.879 148.745 157.136 149.649 157.136 150.76Z" fill="white"/>
<path d="M144.214 111.965C144.214 111.983 145.129 111.021 145.179 110.954C145.759 110.178 146.425 108.334 145.795 107.447C145.686 107.303 145.549 107.184 145.391 107.097C145.233 107.009 145.059 106.956 144.879 106.941C144.7 106.925 144.519 106.948 144.348 107.007C144.178 107.066 144.022 107.16 143.89 107.283C143.314 107.789 143.178 108.725 143.228 109.448C143.289 110.295 144.214 111.961 144.214 111.965Z" fill="#008DCC"/>
<path d="M152.526 108.654C151.636 108.031 149.799 108.711 149.027 109.295C148.959 109.349 148.005 110.26 148.023 110.267H148.044C147.752 110.374 147.442 110.488 147.104 110.623C146.485 110.872 145.787 111.164 145.046 111.527C144.247 111.916 143.47 112.349 142.718 112.823C141.876 113.352 141.082 113.955 140.347 114.624C140.338 114.632 140.33 114.64 140.322 114.649C140.479 114.375 140.895 113.581 140.92 113.524C141.276 112.62 141.429 110.676 140.589 109.982C140.446 109.873 140.28 109.794 140.105 109.753C139.929 109.711 139.746 109.707 139.568 109.741C139.391 109.774 139.222 109.845 139.074 109.948C138.925 110.051 138.8 110.184 138.706 110.338C138.286 110.979 138.4 111.915 138.642 112.599C138.913 113.371 140.141 114.646 140.24 114.735C139.507 115.434 138.822 116.182 138.19 116.974C137.834 117.433 137.46 117.907 137.122 118.398C137.25 118.156 137.364 117.935 137.375 117.903C137.731 117.003 137.884 115.055 137.044 114.361C136.9 114.251 136.735 114.173 136.56 114.132C136.384 114.09 136.202 114.086 136.024 114.12C135.847 114.153 135.679 114.224 135.53 114.327C135.382 114.43 135.257 114.563 135.164 114.717C134.74 115.354 134.858 116.294 135.096 116.974C135.335 117.654 136.367 118.779 136.641 119.067L136.225 119.616C135.584 120.509 134.95 121.396 134.299 122.257C134.071 122.56 133.836 122.852 133.587 123.14C133.701 122.923 133.797 122.741 133.808 122.713C134.164 121.809 134.317 119.865 133.476 119.153C133.333 119.043 133.168 118.964 132.992 118.922C132.816 118.88 132.633 118.876 132.455 118.909C132.277 118.943 132.109 119.014 131.96 119.117C131.812 119.22 131.687 119.354 131.593 119.509C131.17 120.15 131.287 121.086 131.529 121.769C131.771 122.453 132.697 123.464 133.021 123.809C132.772 124.101 132.522 124.39 132.266 124.66C132.088 124.842 131.931 125.016 131.739 125.198L131.194 125.71C130.838 126.024 130.482 126.351 130.109 126.65C129.859 126.86 129.621 127.052 129.397 127.248C129.625 126.953 130.066 126.358 130.109 126.305C130.51 125.552 130.711 124.708 130.693 123.856C130.74 123.774 130.78 123.688 130.814 123.599C130.88 123.431 130.911 123.251 130.903 123.071C130.896 122.89 130.85 122.714 130.77 122.552C130.69 122.39 130.577 122.247 130.437 122.132C130.298 122.017 130.137 121.932 129.963 121.883C128.895 121.623 127.435 122.916 126.926 123.742C126.898 123.791 126.627 124.354 126.467 124.713C126.527 124.489 126.595 124.268 126.655 124.037C126.784 123.578 126.898 123.115 127.011 122.613C127.061 122.371 127.115 122.125 127.168 121.88C127.222 121.634 127.254 121.371 127.3 121.114C127.389 120.516 127.453 119.907 127.506 119.292C127.909 119.402 129.343 119.776 130.062 119.648C130.782 119.519 131.661 119.199 132.024 118.526C132.116 118.371 132.174 118.198 132.194 118.018C132.215 117.839 132.197 117.657 132.142 117.485C132.087 117.313 131.997 117.154 131.876 117.019C131.756 116.885 131.609 116.777 131.444 116.703C130.44 116.283 128.791 117.341 128.161 118.078C128.122 118.124 127.731 118.704 127.521 119.028C127.549 118.672 127.578 118.288 127.595 117.91C127.638 116.842 127.652 115.728 127.67 114.632C127.67 114.297 127.67 113.962 127.691 113.628C127.834 113.667 129.532 114.147 130.337 114.023C131.049 113.916 131.935 113.578 132.302 112.901C132.392 112.745 132.449 112.572 132.469 112.393C132.488 112.213 132.47 112.032 132.415 111.86C132.36 111.688 132.269 111.53 132.149 111.395C132.029 111.261 131.882 111.153 131.718 111.079C130.717 110.662 129.066 111.719 128.435 112.456C128.389 112.51 127.827 113.346 127.691 113.567C127.709 112.83 127.734 112.093 127.788 111.371C127.856 110.394 127.987 109.422 128.179 108.462C128.247 108.462 130.016 108.989 130.842 108.861C131.554 108.754 132.437 108.416 132.804 107.739C132.894 107.584 132.952 107.411 132.971 107.231C132.991 107.052 132.973 106.871 132.918 106.699C132.864 106.527 132.774 106.369 132.654 106.234C132.534 106.099 132.387 105.991 132.223 105.917C131.219 105.5 129.568 106.554 128.941 107.294C128.898 107.341 128.468 107.978 128.272 108.284L128.215 108.263C128.435 107.301 128.741 106.361 129.13 105.454C129.336 104.952 129.56 104.486 129.792 104.03C130.112 104.158 131.572 104.742 132.334 104.699C133.096 104.656 133.971 104.429 134.409 103.798C134.517 103.654 134.593 103.488 134.632 103.312C134.671 103.136 134.673 102.953 134.638 102.777C134.602 102.6 134.53 102.432 134.425 102.285C134.321 102.138 134.187 102.014 134.032 101.922C133.081 101.399 131.323 102.278 130.618 102.93C130.579 102.965 130.23 103.375 129.977 103.677C130.084 103.478 130.191 103.268 130.297 103.076C130.696 102.364 131.102 101.723 131.469 101.164C131.679 100.851 131.874 100.57 132.063 100.306C132.44 100.271 133.971 100.096 134.616 99.7294C135.26 99.3627 135.944 98.7361 136.04 97.9743C136.069 97.7963 136.06 97.614 136.014 97.4395C135.968 97.2651 135.886 97.1023 135.773 96.9618C135.66 96.8213 135.518 96.7063 135.357 96.6244C135.196 96.5424 135.02 96.4954 134.84 96.4862C133.754 96.4577 132.597 98.0348 132.277 98.9497C132.248 99.0316 131.956 100.317 131.974 100.313H131.999C131.814 100.551 131.618 100.821 131.412 101.125C131.031 101.677 130.607 102.303 130.194 103.015C129.74 103.779 129.33 104.568 128.966 105.379C128.556 106.286 128.226 107.227 127.98 108.192C127.982 108.203 127.982 108.215 127.98 108.227C127.98 107.91 127.873 107.024 127.859 106.956C127.659 106.009 126.709 104.293 125.63 104.187C125.45 104.173 125.269 104.197 125.099 104.258C124.929 104.319 124.774 104.415 124.644 104.54C124.514 104.665 124.411 104.816 124.343 104.983C124.275 105.151 124.243 105.33 124.249 105.511C124.249 106.276 124.865 106.995 125.442 107.43C126.093 107.924 127.82 108.313 127.958 108.341C127.735 109.33 127.577 110.332 127.485 111.342C127.432 111.93 127.392 112.52 127.36 113.122C127.335 112.848 127.311 112.602 127.303 112.57C127.1 111.62 126.15 109.907 125.071 109.797C124.891 109.783 124.71 109.808 124.54 109.869C124.371 109.93 124.215 110.026 124.085 110.151C123.955 110.276 123.852 110.427 123.784 110.594C123.716 110.761 123.684 110.941 123.69 111.121C123.69 111.887 124.306 112.606 124.883 113.044C125.459 113.482 126.937 113.845 127.325 113.937C127.325 114.165 127.303 114.393 127.296 114.621C127.254 115.717 127.218 116.814 127.15 117.885C127.125 118.263 127.086 118.637 127.051 119.007C127.029 118.765 127.004 118.558 127.001 118.53C126.798 117.579 125.847 115.867 124.769 115.757C124.589 115.743 124.408 115.767 124.238 115.828C124.068 115.889 123.913 115.985 123.782 116.11C123.652 116.235 123.55 116.386 123.482 116.553C123.413 116.721 123.381 116.9 123.387 117.081C123.387 117.85 124.003 118.565 124.58 119.003C125.157 119.441 126.492 119.772 126.951 119.879C126.905 120.26 126.855 120.641 126.791 121.004C126.741 121.253 126.712 121.499 126.648 121.744L126.477 122.456C126.349 122.916 126.225 123.393 126.089 123.838C125.997 124.147 125.904 124.443 125.812 124.742C125.84 124.365 125.879 123.628 125.876 123.564C125.822 122.599 125.142 120.758 124.096 120.488C123.92 120.448 123.738 120.445 123.561 120.479C123.384 120.514 123.217 120.586 123.069 120.69C122.922 120.793 122.798 120.927 122.706 121.082C122.613 121.236 122.554 121.409 122.533 121.588C122.416 122.346 122.914 123.147 123.419 123.667C123.925 124.187 125.555 124.867 125.755 124.945C125.598 125.436 125.445 125.91 125.292 126.369C124.762 127.917 124.263 129.188 123.904 130.071C123.904 130.103 123.879 130.132 123.864 130.16L124.512 130.516C124.534 130.459 124.559 130.402 124.58 130.342C124.936 129.441 125.402 128.145 125.901 126.568C126.061 126.07 126.221 125.536 126.381 124.984C126.925 125.052 127.471 125.088 128.019 125.091C128.215 125.885 129.123 127.188 129.24 127.355C128.841 127.679 128.45 127.992 128.076 128.281C126.78 129.281 125.662 130.061 124.872 130.602L124.779 130.666L125.491 131.057C126.26 130.506 127.271 129.74 128.471 128.786C128.877 128.459 129.308 128.099 129.742 127.718C129.902 127.853 131.202 128.957 131.971 129.178C132.665 129.377 133.608 129.441 134.22 128.982C134.368 128.879 134.493 128.746 134.586 128.591C134.679 128.437 134.739 128.265 134.761 128.086C134.783 127.907 134.767 127.725 134.715 127.552C134.662 127.38 134.574 127.221 134.455 127.084C133.722 126.283 131.782 126.55 130.895 126.956C130.846 126.981 130.312 127.312 129.977 127.512C130.155 127.359 130.333 127.213 130.507 127.052C130.863 126.743 131.219 126.419 131.597 126.07L132.131 125.547C132.312 125.372 132.487 125.169 132.665 124.98C133.071 124.532 133.459 124.058 133.84 123.574C134.117 123.888 135.11 124.998 135.769 125.297C136.428 125.596 137.35 125.803 138.026 125.443C138.188 125.363 138.331 125.25 138.446 125.112C138.561 124.973 138.646 124.812 138.695 124.638C138.744 124.465 138.756 124.283 138.73 124.105C138.705 123.926 138.642 123.755 138.546 123.603C137.941 122.702 135.983 122.67 135.05 122.937C134.989 122.955 134.338 123.222 133.982 123.375C134.206 123.083 134.438 122.791 134.655 122.485C135.292 121.606 135.908 120.705 136.527 119.794L137.101 118.968C137.197 119.078 138.35 120.417 139.091 120.748C139.746 121.05 140.668 121.257 141.344 120.894C141.506 120.815 141.65 120.702 141.766 120.563C141.882 120.425 141.967 120.263 142.016 120.09C142.065 119.916 142.077 119.734 142.051 119.555C142.024 119.376 141.961 119.205 141.864 119.053C141.259 118.152 139.301 118.12 138.368 118.391C138.3 118.409 137.368 118.797 137.136 118.907C137.556 118.302 137.983 117.7 138.428 117.127C139.022 116.348 139.666 115.61 140.358 114.916C140.404 114.97 141.6 116.369 142.355 116.718C143.014 117.024 143.936 117.227 144.612 116.867C144.774 116.788 144.917 116.675 145.033 116.536C145.148 116.398 145.233 116.236 145.282 116.063C145.332 115.889 145.343 115.707 145.318 115.529C145.292 115.35 145.228 115.179 145.132 115.027C144.527 114.122 142.569 114.094 141.636 114.361C141.575 114.379 140.867 114.674 140.532 114.82L140.497 114.767C141.211 114.089 141.984 113.475 142.807 112.933C143.259 112.627 143.704 112.36 144.146 112.115C144.342 112.396 145.249 113.681 145.897 114.073C146.545 114.464 147.41 114.753 148.122 114.468C148.292 114.406 148.448 114.309 148.578 114.183C148.708 114.057 148.81 113.905 148.877 113.737C148.944 113.569 148.975 113.389 148.968 113.208C148.96 113.027 148.915 112.85 148.834 112.688C148.332 111.723 146.389 111.481 145.434 111.645C145.381 111.645 144.861 111.801 144.488 111.915L145.086 111.588C145.815 111.21 146.51 110.904 147.118 110.641C147.474 110.495 147.788 110.367 148.087 110.253C148.425 110.431 149.792 111.132 150.532 111.178C151.273 111.225 152.191 111.082 152.69 110.502C152.804 110.371 152.89 110.219 152.944 110.054C152.997 109.89 153.017 109.716 153.002 109.543C152.987 109.371 152.937 109.203 152.855 109.05C152.773 108.897 152.661 108.763 152.526 108.654Z" fill="#008DCC"/>
<path d="M127.523 102.3C128.039 102.976 129.73 103.856 129.734 103.856C129.737 103.856 129.976 102.567 129.979 102.481C130.036 101.513 129.573 99.6121 128.555 99.2205C128.385 99.1601 128.204 99.1363 128.024 99.1505C127.844 99.1647 127.669 99.2166 127.511 99.303C127.352 99.3893 127.214 99.508 127.104 99.6514C126.995 99.7949 126.917 99.9598 126.875 100.135C126.676 100.872 127.099 101.727 127.523 102.3Z" fill="#008DCC"/>
<g opacity="0.5">
<path opacity="0.5" d="M144.21 111.965C144.21 111.983 145.125 111.021 145.175 110.954C145.756 110.178 146.421 108.334 145.791 107.447C145.683 107.303 145.545 107.184 145.387 107.097C145.229 107.009 145.055 106.956 144.875 106.941C144.696 106.925 144.515 106.948 144.344 107.007C144.174 107.066 144.018 107.16 143.887 107.283C143.31 107.789 143.175 108.725 143.224 109.448C143.285 110.295 144.21 111.961 144.21 111.965Z" fill="white"/>
<path opacity="0.5" d="M152.526 108.654C151.636 108.031 149.799 108.711 149.027 109.295C148.959 109.348 148.005 110.259 148.023 110.266H148.044C147.752 110.373 147.442 110.487 147.104 110.622C146.485 110.872 145.787 111.164 145.046 111.527C144.247 111.915 143.47 112.348 142.718 112.823C141.876 113.351 141.082 113.954 140.347 114.624C140.338 114.631 140.33 114.64 140.322 114.649C140.479 114.375 140.895 113.581 140.92 113.524C141.276 112.62 141.429 110.676 140.589 109.982C140.446 109.872 140.28 109.794 140.105 109.752C139.929 109.711 139.746 109.707 139.568 109.74C139.391 109.774 139.222 109.844 139.074 109.947C138.925 110.05 138.8 110.183 138.706 110.338C138.286 110.978 138.4 111.915 138.642 112.598C138.913 113.371 140.141 114.645 140.24 114.734C139.507 115.434 138.822 116.182 138.19 116.974C137.834 117.433 137.46 117.906 137.122 118.398C137.25 118.155 137.364 117.935 137.375 117.903C137.731 117.002 137.884 115.055 137.044 114.36C136.9 114.251 136.735 114.173 136.56 114.131C136.384 114.09 136.202 114.085 136.024 114.119C135.847 114.153 135.679 114.223 135.53 114.326C135.382 114.429 135.257 114.562 135.164 114.716C134.74 115.354 134.858 116.294 135.096 116.974C135.335 117.653 136.367 118.778 136.641 119.067L136.225 119.615C135.584 120.509 134.95 121.395 134.299 122.257C134.071 122.559 133.836 122.851 133.587 123.139C133.701 122.922 133.797 122.741 133.808 122.712C134.164 121.808 134.317 119.864 133.476 119.152C133.333 119.042 133.168 118.963 132.992 118.922C132.816 118.88 132.633 118.875 132.455 118.909C132.277 118.942 132.109 119.013 131.96 119.117C131.812 119.22 131.687 119.353 131.593 119.508C131.17 120.149 131.287 121.085 131.529 121.769C131.771 122.452 132.697 123.463 133.021 123.809C132.772 124.101 132.522 124.389 132.266 124.66C132.088 124.841 131.931 125.016 131.739 125.197L131.194 125.71C130.838 126.023 130.482 126.351 130.109 126.65C129.859 126.86 129.621 127.052 129.397 127.248C129.625 126.952 130.066 126.358 130.109 126.304C130.51 125.551 130.711 124.708 130.693 123.855C130.74 123.773 130.78 123.687 130.814 123.599C130.88 123.431 130.911 123.251 130.903 123.07C130.896 122.89 130.85 122.713 130.77 122.551C130.69 122.39 130.577 122.246 130.437 122.131C130.298 122.016 130.137 121.931 129.963 121.883C128.895 121.623 127.435 122.915 126.926 123.741C126.898 123.791 126.627 124.353 126.467 124.713C126.527 124.489 126.595 124.268 126.655 124.037C126.784 123.577 126.898 123.115 127.011 122.613C127.061 122.371 127.115 122.125 127.168 121.879C127.222 121.634 127.254 121.37 127.3 121.114C127.389 120.516 127.453 119.907 127.506 119.291C127.909 119.401 129.343 119.775 130.062 119.647C130.782 119.519 131.661 119.199 132.024 118.526C132.116 118.37 132.174 118.197 132.194 118.018C132.215 117.838 132.197 117.656 132.142 117.484C132.087 117.312 131.997 117.154 131.876 117.019C131.756 116.884 131.609 116.777 131.444 116.703C130.44 116.283 128.791 117.34 128.161 118.077C128.122 118.123 127.731 118.704 127.521 119.028C127.549 118.672 127.578 118.287 127.595 117.91C127.638 116.842 127.652 115.728 127.67 114.631C127.67 114.296 127.67 113.962 127.691 113.627C127.834 113.666 129.532 114.147 130.337 114.022C131.049 113.915 131.935 113.577 132.302 112.901C132.392 112.745 132.449 112.572 132.469 112.392C132.488 112.213 132.47 112.032 132.415 111.86C132.36 111.688 132.269 111.53 132.149 111.395C132.029 111.26 131.882 111.152 131.718 111.078C130.717 110.662 129.066 111.719 128.435 112.456C128.389 112.509 127.827 113.346 127.691 113.567C127.709 112.83 127.734 112.093 127.788 111.37C127.856 110.393 127.987 109.422 128.179 108.462C128.247 108.462 130.016 108.988 130.842 108.86C131.554 108.753 132.437 108.415 132.804 107.739C132.894 107.583 132.952 107.41 132.971 107.231C132.991 107.052 132.973 106.87 132.918 106.699C132.864 106.527 132.774 106.368 132.654 106.234C132.534 106.099 132.387 105.991 132.223 105.916C131.219 105.5 129.568 106.553 128.941 107.294C128.898 107.34 128.468 107.977 128.272 108.284L128.215 108.262C128.435 107.3 128.741 106.36 129.13 105.453C129.336 104.951 129.56 104.485 129.792 104.029C130.112 104.158 131.572 104.741 132.334 104.699C133.096 104.656 133.971 104.428 134.409 103.798C134.517 103.653 134.593 103.487 134.632 103.311C134.671 103.135 134.673 102.953 134.638 102.776C134.602 102.599 134.53 102.432 134.425 102.285C134.321 102.138 134.187 102.014 134.032 101.922C133.081 101.399 131.323 102.278 130.618 102.929C130.579 102.965 130.23 103.374 129.977 103.677C130.084 103.478 130.191 103.268 130.297 103.075C130.696 102.363 131.102 101.722 131.469 101.164C131.679 100.85 131.874 100.569 132.063 100.306C132.44 100.27 133.971 100.096 134.616 99.7289C135.26 99.3622 135.944 98.7356 136.04 97.9738C136.069 97.7958 136.06 97.6135 136.014 97.4391C135.968 97.2646 135.886 97.1018 135.773 96.9613C135.66 96.8208 135.518 96.7059 135.357 96.6239C135.196 96.542 135.02 96.4949 134.84 96.4857C133.754 96.4573 132.597 98.0343 132.277 98.9493C132.248 99.0311 131.956 100.316 131.974 100.313H131.999C131.814 100.55 131.618 100.821 131.412 101.124C131.031 101.676 130.607 102.303 130.194 103.015C129.74 103.778 129.33 104.568 128.966 105.379C128.556 106.286 128.226 107.227 127.98 108.191C127.982 108.203 127.982 108.215 127.98 108.227C127.98 107.91 127.873 107.023 127.859 106.956C127.659 106.009 126.709 104.293 125.63 104.186C125.45 104.172 125.269 104.197 125.099 104.258C124.929 104.319 124.774 104.415 124.644 104.54C124.514 104.665 124.411 104.816 124.343 104.983C124.275 105.15 124.243 105.33 124.249 105.51C124.249 106.276 124.865 106.995 125.442 107.429C126.093 107.924 127.82 108.312 127.958 108.341C127.735 109.329 127.577 110.332 127.485 111.342C127.432 111.929 127.392 112.52 127.36 113.122C127.335 112.847 127.311 112.602 127.303 112.57C127.1 111.619 126.15 109.907 125.071 109.797C124.891 109.783 124.71 109.807 124.54 109.868C124.371 109.929 124.215 110.025 124.085 110.15C123.955 110.275 123.852 110.426 123.784 110.594C123.716 110.761 123.684 110.94 123.69 111.121C123.69 111.886 124.306 112.605 124.883 113.043C125.459 113.481 126.937 113.844 127.325 113.937C127.325 114.165 127.303 114.393 127.296 114.62C127.254 115.717 127.218 116.813 127.15 117.885C127.125 118.262 127.086 118.636 127.051 119.006C127.029 118.764 127.004 118.558 127.001 118.529C126.798 117.579 125.847 115.866 124.769 115.756C124.589 115.742 124.408 115.767 124.238 115.828C124.068 115.889 123.913 115.985 123.782 116.11C123.652 116.235 123.55 116.386 123.482 116.553C123.413 116.72 123.381 116.9 123.387 117.08C123.387 117.849 124.003 118.565 124.58 119.003C125.157 119.441 126.492 119.772 126.951 119.878C126.905 120.259 126.855 120.64 126.791 121.003C126.741 121.253 126.712 121.498 126.648 121.744L126.477 122.456C126.349 122.915 126.225 123.392 126.089 123.837C125.997 124.147 125.904 124.442 125.812 124.741C125.84 124.364 125.879 123.627 125.876 123.563C125.822 122.598 125.142 120.758 124.096 120.487C123.92 120.447 123.738 120.444 123.561 120.479C123.384 120.514 123.217 120.585 123.069 120.689C122.922 120.793 122.798 120.926 122.706 121.081C122.613 121.236 122.554 121.408 122.533 121.587C122.416 122.346 122.914 123.147 123.419 123.666C123.925 124.186 125.555 124.866 125.755 124.944C125.598 125.436 125.445 125.909 125.292 126.368C124.762 127.917 124.263 129.188 123.904 130.071C123.904 130.103 123.879 130.131 123.864 130.16L124.512 130.516C124.534 130.459 124.559 130.402 124.58 130.341C124.936 129.441 125.402 128.145 125.901 126.568C126.061 126.069 126.221 125.535 126.381 124.984C126.925 125.052 127.471 125.087 128.019 125.09C128.215 125.884 129.123 127.187 129.24 127.354C128.841 127.678 128.45 127.992 128.076 128.28C126.78 129.28 125.662 130.06 124.872 130.601L124.779 130.665L125.491 131.057C126.26 130.505 127.271 129.74 128.471 128.786C128.877 128.458 129.308 128.099 129.742 127.718C129.902 127.853 131.202 128.956 131.971 129.177C132.665 129.377 133.608 129.441 134.22 128.981C134.368 128.878 134.493 128.745 134.586 128.591C134.679 128.436 134.739 128.264 134.761 128.085C134.783 127.906 134.767 127.724 134.715 127.552C134.662 127.38 134.574 127.22 134.455 127.084C133.722 126.283 131.782 126.55 130.895 126.956C130.846 126.981 130.312 127.312 129.977 127.511C130.155 127.358 130.333 127.212 130.507 127.052C130.863 126.742 131.219 126.418 131.597 126.069L132.131 125.546C132.312 125.372 132.487 125.169 132.665 124.98C133.071 124.531 133.459 124.058 133.84 123.574C134.117 123.887 135.11 124.998 135.769 125.297C136.428 125.596 137.35 125.802 138.026 125.443C138.188 125.363 138.331 125.25 138.446 125.111C138.561 124.973 138.646 124.811 138.695 124.638C138.744 124.465 138.756 124.283 138.73 124.104C138.705 123.926 138.642 123.755 138.546 123.602C137.941 122.702 135.983 122.67 135.05 122.937C134.989 122.954 134.338 123.221 133.982 123.374C134.206 123.082 134.438 122.791 134.655 122.484C135.292 121.605 135.908 120.704 136.527 119.793L137.101 118.967C137.197 119.077 138.35 120.416 139.091 120.747C139.746 121.05 140.668 121.256 141.344 120.893C141.506 120.814 141.65 120.702 141.766 120.563C141.882 120.424 141.967 120.263 142.016 120.089C142.065 119.915 142.077 119.733 142.051 119.555C142.024 119.376 141.961 119.205 141.864 119.053C141.259 118.152 139.301 118.12 138.368 118.39C138.3 118.408 137.368 118.796 137.136 118.907C137.556 118.301 137.983 117.7 138.428 117.127C139.022 116.348 139.666 115.609 140.358 114.916C140.404 114.969 141.6 116.368 142.355 116.717C143.014 117.023 143.936 117.226 144.612 116.867C144.774 116.787 144.917 116.675 145.033 116.536C145.148 116.397 145.233 116.236 145.282 116.062C145.332 115.889 145.343 115.707 145.318 115.528C145.292 115.35 145.228 115.179 145.132 115.026C144.527 114.122 142.569 114.093 141.636 114.36C141.575 114.378 140.867 114.674 140.532 114.82L140.497 114.766C141.211 114.088 141.984 113.475 142.807 112.933C143.259 112.627 143.704 112.36 144.146 112.114C144.342 112.395 145.249 113.681 145.897 114.072C146.545 114.464 147.41 114.752 148.122 114.467C148.292 114.406 148.448 114.308 148.578 114.183C148.708 114.057 148.81 113.905 148.877 113.737C148.944 113.569 148.975 113.388 148.968 113.207C148.96 113.027 148.915 112.849 148.834 112.687C148.332 111.723 146.389 111.48 145.434 111.644C145.381 111.644 144.861 111.801 144.488 111.915L145.086 111.587C145.815 111.21 146.51 110.904 147.118 110.64C147.474 110.494 147.788 110.366 148.087 110.252C148.425 110.43 149.792 111.132 150.532 111.178C151.273 111.224 152.191 111.082 152.69 110.501C152.804 110.371 152.89 110.219 152.944 110.054C152.997 109.889 153.017 109.715 153.002 109.543C152.987 109.37 152.937 109.202 152.855 109.05C152.773 108.897 152.661 108.762 152.526 108.654Z" fill="white"/>
<path opacity="0.5" d="M127.523 102.299C128.039 102.976 129.73 103.855 129.734 103.855C129.737 103.855 129.976 102.566 129.979 102.481C130.036 101.513 129.573 99.6116 128.555 99.22C128.385 99.1596 128.204 99.1358 128.024 99.15C127.844 99.1642 127.669 99.2162 127.511 99.3025C127.352 99.3888 127.214 99.5075 127.104 99.6509C126.995 99.7944 126.917 99.9593 126.875 100.135C126.676 100.872 127.099 101.726 127.523 102.299Z" fill="white"/>
</g>
<path d="M58.033 84.3001C58.0544 84.3001 57.7553 82.8085 57.7233 82.7195C57.3673 81.6515 56.0857 79.7967 54.8326 79.8003C54.6244 79.8068 54.42 79.8571 54.2325 79.9477C54.0451 80.0384 53.8788 80.1675 53.7445 80.3267C53.6102 80.4858 53.5109 80.6714 53.453 80.8715C53.3951 81.0715 53.38 81.2815 53.4086 81.4877C53.5011 82.3671 54.2914 83.1182 55.007 83.549C55.84 84.0581 58.033 84.3001 58.033 84.3001Z" fill="#008DCC"/>
<path d="M60.4592 74.2571C59.2773 74.6808 58.6792 76.8666 58.729 77.9845C58.729 78.0806 58.9533 79.5865 58.9747 79.5758H58.9996C58.9035 79.9318 58.8074 80.2878 58.7077 80.6972C58.5297 81.4483 58.3517 82.2992 58.1879 83.239C58.0189 84.2512 57.9071 85.2722 57.8533 86.2971C57.7908 87.4434 57.8301 88.593 57.9708 89.7325C57.9725 89.7466 57.9725 89.761 57.9708 89.7752C57.8177 89.4405 57.3549 88.5256 57.3086 88.458C56.6963 87.5217 54.959 86.0728 53.7486 86.4074C53.5497 86.469 53.3659 86.5716 53.2092 86.7087C53.0524 86.8457 52.9262 87.0142 52.8386 87.2031C52.751 87.392 52.7041 87.5972 52.7008 87.8053C52.6975 88.0135 52.7379 88.2201 52.8194 88.4117C53.1398 89.2341 54.101 89.7503 54.9056 89.9781C55.8134 90.238 57.8355 89.9318 57.9957 89.9069C58.1667 91.0639 58.4153 92.208 58.7397 93.3316C58.9248 93.9867 59.1313 94.6417 59.3485 95.2967C59.2061 95.0119 59.0744 94.7592 59.053 94.7271C58.4371 93.7909 56.7034 92.3419 55.493 92.6766C55.2939 92.7373 55.1098 92.8392 54.9528 92.9758C54.7957 93.1124 54.6692 93.2806 54.5816 93.4694C54.4939 93.6582 54.447 93.8633 54.444 94.0715C54.4409 94.2796 54.4817 94.486 54.5638 94.6773C54.8842 95.5032 55.8454 96.0194 56.65 96.2472C57.4546 96.4751 59.1918 96.2473 59.6511 96.1867C59.7365 96.4359 59.8184 96.6887 59.9038 96.9379C60.3168 98.1341 60.7369 99.3302 61.1107 100.498C61.2424 100.914 61.3563 101.331 61.4667 101.744C61.3385 101.491 61.2317 101.281 61.2104 101.253C60.598 100.316 58.8608 98.8674 57.6504 99.2021C57.4513 99.2627 57.2672 99.3647 57.1101 99.5013C56.9531 99.6379 56.8266 99.8061 56.7389 99.9949C56.6513 100.184 56.6044 100.389 56.6013 100.597C56.5983 100.805 56.6391 101.011 56.7212 101.203C57.0416 102.029 58.0028 102.545 58.8074 102.773C59.6119 103.001 61.1819 102.801 61.7266 102.723C61.8334 103.154 61.9402 103.581 62.022 104.001C62.0754 104.289 62.1431 104.563 62.1787 104.859C62.2143 105.154 62.257 105.432 62.2997 105.713C62.3567 106.262 62.4172 106.828 62.4599 107.365C62.492 107.721 62.5133 108.077 62.5382 108.433C62.4136 108.017 62.1466 107.205 62.1182 107.141C61.6749 106.261 61.0144 105.509 60.1993 104.955C60.1539 104.855 60.099 104.76 60.0356 104.67C59.9228 104.495 59.7744 104.345 59.6001 104.231C59.4258 104.117 59.2294 104.04 59.0236 104.007C58.8179 103.973 58.6074 103.983 58.4058 104.036C58.2042 104.089 58.0159 104.184 57.8533 104.314C56.9063 105.137 57.1413 107.383 57.5792 108.415C57.6041 108.476 57.9601 109.102 58.1879 109.483C58.017 109.273 57.8568 109.067 57.6788 108.85C57.3228 108.426 56.9668 108.009 56.5824 107.561L55.995 106.924C55.8027 106.707 55.5749 106.504 55.3613 106.29C54.8629 105.806 54.3289 105.339 53.7842 104.866C54.1402 104.56 55.4645 103.442 55.8419 102.705C56.2192 101.968 56.4827 100.9 56.0911 100.106C56.0055 99.9165 55.8808 99.7468 55.7251 99.6085C55.5695 99.4701 55.3864 99.3661 55.1879 99.3033C54.9893 99.2404 54.7798 99.2202 54.5729 99.2439C54.366 99.2675 54.1664 99.3345 53.9871 99.4406C52.9191 100.106 52.8194 102.363 53.0936 103.449C53.1114 103.517 53.3962 104.271 53.5599 104.684C53.2288 104.414 52.9013 104.14 52.5596 103.873C51.5663 103.107 50.541 102.363 49.5193 101.616C49.206 101.388 48.8963 101.153 48.5866 100.925C48.7219 100.815 50.3061 99.5367 50.7226 98.6965C51.0964 97.9489 51.367 96.8916 50.9754 96.0977C50.8897 95.9079 50.765 95.7383 50.6094 95.5999C50.4538 95.4615 50.2707 95.3575 50.0722 95.2947C49.8736 95.2319 49.664 95.2116 49.4571 95.2353C49.2502 95.259 49.0506 95.326 48.8714 95.432C47.8034 96.0977 47.7002 98.3548 47.9778 99.4406C47.9778 99.5224 48.4086 100.612 48.5261 100.882C47.8426 100.373 47.1697 99.8607 46.5218 99.3267C45.6428 98.6117 44.8104 97.8411 44.0298 97.0198C44.0939 96.9699 45.7528 95.6421 46.1658 94.7805C46.5396 94.0329 46.8102 92.9756 46.4186 92.1817C46.3329 91.9919 46.2082 91.8223 46.0526 91.6839C45.897 91.5455 45.7139 91.4415 45.5154 91.3787C45.3168 91.3159 45.1072 91.2956 44.9003 91.3193C44.6934 91.343 44.4938 91.41 44.3146 91.516C43.2466 92.1817 43.1434 94.4388 43.421 95.5246C43.421 95.5958 43.7521 96.4253 43.9088 96.8169L43.8482 96.8525C43.0887 96.0041 42.4072 95.089 41.8119 94.1184C41.4773 93.5915 41.1889 93.0504 40.9184 92.5484C41.2494 92.3313 42.7696 91.3309 43.243 90.5975C43.7165 89.8642 44.0796 88.8745 43.777 88.045C43.7128 87.8468 43.6075 87.6644 43.4681 87.5096C43.3287 87.3547 43.1582 87.231 42.9678 87.1463C42.7774 87.0617 42.5714 87.0181 42.363 87.0184C42.1547 87.0187 41.9487 87.0628 41.7585 87.1479C40.63 87.6961 40.2776 89.9283 40.4306 91.0354C40.4306 91.0959 40.5908 91.7011 40.7083 92.139C40.5908 91.9041 40.4662 91.662 40.3523 91.427C39.9394 90.5726 39.6154 89.7681 39.3306 89.0489C39.174 88.6395 39.0422 88.2693 38.9212 87.9169C39.1384 87.5359 39.9892 85.9802 40.0746 85.1294C40.1601 84.2785 40.0284 83.2141 39.3626 82.616C39.2142 82.47 39.0367 82.3569 38.8417 82.2839C38.6467 82.211 38.4385 82.1799 38.2307 82.1926C38.0229 82.2054 37.82 82.2617 37.6354 82.358C37.4508 82.4542 37.2885 82.5882 37.159 82.7513C36.4114 83.7552 37.127 85.9019 37.7749 86.8133C37.8283 86.8916 38.8429 88.0272 38.8429 88.0059V87.9809C38.9532 88.3369 39.0743 88.6929 39.1989 89.0774C39.4659 89.7894 39.7756 90.6189 40.1708 91.484C40.5852 92.4223 41.0548 93.3352 41.577 94.2181C42.1585 95.2095 42.8255 96.1481 43.5706 97.0233L43.599 97.0518C43.2858 96.8596 42.3958 96.3398 42.321 96.3185C41.2922 95.877 39.0458 95.6278 38.2199 96.5712C38.0877 96.7324 37.9909 96.9195 37.9356 97.1204C37.8803 97.3214 37.8679 97.5317 37.8991 97.7378C37.9303 97.9439 38.0045 98.1411 38.1168 98.3167C38.2291 98.4922 38.377 98.6423 38.551 98.7571C39.263 99.2661 40.3594 99.1665 41.1533 98.9137C42.054 98.6289 43.5706 97.2583 43.6916 97.1337C44.4673 98.0031 45.2998 98.8202 46.1836 99.5794C46.6998 100.024 47.2338 100.459 47.7749 100.882L47.216 100.569C46.1872 100.128 43.9408 99.8785 43.1149 100.825C42.9826 100.986 42.8856 101.173 42.8301 101.373C42.7746 101.574 42.7619 101.784 42.7927 101.989C42.8236 102.195 42.8974 102.392 43.0093 102.568C43.1213 102.743 43.2688 102.893 43.4424 103.008C44.1544 103.52 45.2509 103.417 46.0483 103.164C46.8458 102.912 48.1843 101.769 48.519 101.459L49.1455 101.947C50.153 102.716 51.1605 103.481 52.1252 104.261C52.4634 104.535 52.7874 104.82 53.1149 105.101C52.8693 104.962 52.6628 104.845 52.6272 104.83C51.6019 104.389 49.352 104.14 48.5296 105.083C48.3973 105.244 48.3002 105.431 48.2447 105.632C48.1892 105.833 48.1764 106.043 48.2073 106.249C48.2382 106.455 48.312 106.652 48.4239 106.828C48.5359 107.004 48.6835 107.154 48.8572 107.269C49.5692 107.778 50.6656 107.678 51.4631 107.426C52.2605 107.173 53.4602 106.137 53.8696 105.774C54.1972 106.073 54.5211 106.372 54.8237 106.678C55.0266 106.888 55.2331 107.08 55.4254 107.305L55.9985 107.953C56.3545 108.38 56.7105 108.818 57.0416 109.241C57.273 109.533 57.4902 109.818 57.7073 110.103C57.3727 109.825 56.7034 109.295 56.6393 109.259C55.6888 108.665 53.5065 108.077 52.5489 108.903C52.3937 109.042 52.2695 109.212 52.1845 109.402C52.0994 109.592 52.0555 109.798 52.0555 110.007C52.0555 110.215 52.0994 110.421 52.1845 110.611C52.2695 110.801 52.3937 110.971 52.5489 111.11C53.1861 111.726 54.2755 111.79 55.1014 111.662C56.0092 111.52 57.6575 110.445 57.8604 110.309C58.2164 110.783 58.5724 111.246 58.8821 111.691C59.9928 113.221 60.8579 114.539 61.4489 115.468L61.5094 115.564L62.2748 115.19L62.1538 115.008C61.5343 114.083 60.6336 112.769 59.4802 111.249C59.1242 110.765 58.7219 110.259 58.309 109.743C58.7328 109.275 59.1298 108.783 59.498 108.269C60.3773 108.625 62.2143 108.625 62.4492 108.625C62.4884 109.22 62.5204 109.797 62.5418 110.341C62.6201 112.228 62.6166 113.805 62.5952 114.909V115.037L63.4354 114.628C63.4354 113.531 63.3962 112.054 63.2823 110.302C63.2467 109.7 63.1968 109.056 63.1363 108.398C63.3713 108.341 65.2723 107.849 65.9843 107.276C66.6358 106.753 67.3229 105.906 67.3015 105.023C67.3031 104.814 67.2607 104.608 67.1772 104.417C67.0936 104.226 66.9707 104.054 66.8166 103.914C66.6624 103.774 66.4804 103.667 66.2824 103.602C66.0845 103.536 65.8749 103.514 65.6675 103.535C64.425 103.695 63.382 105.699 63.1755 106.803C63.1755 106.867 63.1114 107.586 63.0829 108.038C63.058 107.771 63.0366 107.508 63.0082 107.23C62.9512 106.685 62.88 106.137 62.8052 105.553L62.6664 104.695C62.6272 104.41 62.5489 104.115 62.4884 103.819C62.3389 103.136 62.1538 102.456 61.9508 101.769C62.4279 101.723 64.1296 101.52 64.8594 101.103C65.5892 100.687 66.3902 99.9532 66.5005 99.0739C66.5338 98.8683 66.5234 98.6579 66.4699 98.4566C66.4163 98.2553 66.3209 98.0675 66.1899 97.9056C66.0589 97.7436 65.8951 97.6112 65.7094 97.5168C65.5237 97.4224 65.3202 97.3683 65.1121 97.358C63.859 97.3259 62.524 99.138 62.1573 100.206C62.1324 100.27 61.9544 101.06 61.8618 101.495C61.7372 101.085 61.6162 100.676 61.4774 100.263C61.0715 99.0775 60.6265 97.892 60.1851 96.7029L59.7899 95.6136C59.9608 95.5958 61.99 95.4035 62.8052 94.9336C63.5172 94.5171 64.336 93.7837 64.4464 92.908C64.4797 92.7022 64.4692 92.4916 64.4157 92.2901C64.3622 92.0886 64.2669 91.9006 64.1359 91.7384C64.0049 91.5762 63.8413 91.4434 63.6555 91.3486C63.4698 91.2539 63.2662 91.1993 63.058 91.1885C61.8049 91.16 60.4699 92.9685 60.1032 94.0365C60.0747 94.1184 59.8184 95.2505 59.765 95.5424C59.4766 94.7414 59.1954 93.9404 58.9533 93.1394C58.6154 92.0604 58.349 90.9604 58.1559 89.8464C58.2342 89.8464 60.3524 89.647 61.189 89.1664C61.901 88.7499 62.7198 88.0165 62.8302 87.1372C62.8629 86.9317 62.852 86.7215 62.7983 86.5204C62.7445 86.3193 62.6491 86.1318 62.5182 85.97C62.3872 85.8082 62.2238 85.6757 62.0383 85.5812C61.8529 85.4867 61.6496 85.4322 61.4418 85.4213C60.1886 85.3893 58.8536 87.2013 58.487 88.2693C58.462 88.3405 58.2662 89.202 58.1808 89.615H58.1096C57.9462 88.4883 57.8831 87.3494 57.9209 86.2116C57.9209 85.5851 57.9814 84.987 58.0384 84.4067C58.4371 84.4067 60.2563 84.4067 61.0537 84.0507C61.8512 83.6947 62.7056 83.0788 62.912 82.2173C62.9678 82.0165 62.9805 81.8061 62.9494 81.6001C62.9182 81.394 62.844 81.1968 62.7314 81.0214C62.6188 80.846 62.4705 80.6963 62.2961 80.5822C62.1217 80.468 61.9252 80.392 61.7194 80.359C60.477 80.1881 58.9498 81.8577 58.4692 82.851C58.4407 82.9079 58.2378 83.4953 58.0918 83.919C58.1238 83.6555 58.1523 83.385 58.1844 83.1358C58.3125 82.1959 58.487 81.3558 58.6472 80.5904C58.7433 80.1632 58.8358 79.7787 58.9284 79.4191C59.32 79.2198 60.8935 78.3974 61.4204 77.7281C61.9473 77.0589 62.435 76.1048 62.2214 75.2361C62.1048 74.8811 61.8586 74.5831 61.532 74.4017C61.2053 74.2202 60.8222 74.1686 60.4592 74.2571Z" fill="#008DCC"/>
<path d="M37.7947 93.5809C38.7737 93.5417 40.7317 92.5378 40.7352 92.5378C40.7388 92.5378 39.6672 91.4484 39.6032 91.3879C38.7274 90.6759 36.627 89.8571 35.5839 90.5478C35.4132 90.6674 35.2698 90.8218 35.1628 91.0007C35.0559 91.1796 34.9879 91.3791 34.9634 91.5861C34.9389 91.7931 34.9583 92.003 35.0205 92.2019C35.0826 92.4009 35.1861 92.5845 35.324 92.7407C35.8865 93.4278 36.9581 93.6272 37.7947 93.5809Z" fill="#008DCC"/>
<g opacity="0.5">
<path opacity="0.5" d="M58.0369 84.3001C58.0583 84.3001 57.7592 82.8085 57.7272 82.7195C57.3712 81.6515 56.0896 79.7967 54.8365 79.8003C54.6283 79.8068 54.4239 79.8571 54.2365 79.9477C54.049 80.0384 53.8827 80.1675 53.7484 80.3267C53.6141 80.4858 53.5148 80.6714 53.4569 80.8715C53.3991 81.0715 53.3839 81.2815 53.4125 81.4877C53.505 82.3671 54.2954 83.1182 55.0109 83.549C55.844 84.0581 58.0369 84.3001 58.0369 84.3001Z" fill="white"/>
<path opacity="0.5" d="M60.4631 74.2571C59.2812 74.6808 58.6831 76.8666 58.7329 77.9845C58.7329 78.0806 58.9572 79.5865 58.9786 79.5758H59.0035C58.9074 79.9318 58.8113 80.2878 58.7116 80.6972C58.5336 81.4483 58.3556 82.2992 58.1918 83.239C58.0228 84.2512 57.9111 85.2722 57.8572 86.2971C57.7947 87.4434 57.834 88.593 57.9747 89.7325C57.9764 89.7466 57.9764 89.761 57.9747 89.7752C57.8216 89.4405 57.3588 88.5256 57.3125 88.458C56.7002 87.5217 54.9629 86.0728 53.7525 86.4074C53.5536 86.469 53.3698 86.5716 53.2131 86.7087C53.0563 86.8457 52.9301 87.0142 52.8425 87.2031C52.7549 87.392 52.708 87.5972 52.7047 87.8053C52.7014 88.0135 52.7418 88.2201 52.8234 88.4117C53.1438 89.2341 54.105 89.7503 54.9095 89.9781C55.8173 90.238 57.8394 89.9318 57.9996 89.9069C58.1706 91.0639 58.4192 92.208 58.7436 93.3316C58.9287 93.9867 59.1352 94.6417 59.3524 95.2967C59.21 95.0119 59.0783 94.7592 59.0569 94.7271C58.441 93.7909 56.7073 92.3419 55.4969 92.6766C55.2978 92.7373 55.1137 92.8392 54.9567 92.9758C54.7996 93.1124 54.6732 93.2806 54.5855 93.4694C54.4978 93.6582 54.4509 93.8633 54.4479 94.0715C54.4448 94.2796 54.4857 94.486 54.5677 94.6773C54.8881 95.5032 55.8493 96.0194 56.6539 96.2472C57.4585 96.4751 59.1957 96.2473 59.655 96.1867C59.7404 96.4359 59.8223 96.6887 59.9077 96.9379C60.3207 98.1341 60.7408 99.3302 61.1146 100.498C61.2463 100.914 61.3602 101.331 61.4706 101.744C61.3424 101.491 61.2356 101.281 61.2143 101.253C60.6019 100.316 58.8647 98.8674 57.6543 99.2021C57.4552 99.2627 57.2711 99.3647 57.114 99.5013C56.957 99.6379 56.8305 99.8061 56.7428 99.9949C56.6552 100.184 56.6083 100.389 56.6052 100.597C56.6022 100.805 56.643 101.011 56.7251 101.203C57.0455 102.029 58.0067 102.545 58.8113 102.773C59.6158 103.001 61.1858 102.801 61.7305 102.723C61.8373 103.154 61.9441 103.581 62.0259 104.001C62.0793 104.289 62.147 104.563 62.1826 104.859C62.2182 105.154 62.2609 105.432 62.3036 105.713C62.3606 106.262 62.4211 106.828 62.4638 107.365C62.4959 107.721 62.5172 108.077 62.5421 108.433C62.4175 108.017 62.1505 107.205 62.1221 107.141C61.6788 106.261 61.0183 105.509 60.2032 104.955C60.1578 104.855 60.1029 104.76 60.0395 104.67C59.9267 104.495 59.7783 104.345 59.604 104.231C59.4297 104.117 59.2333 104.04 59.0275 104.007C58.8218 103.973 58.6113 103.983 58.4097 104.036C58.2081 104.089 58.0198 104.184 57.8572 104.314C56.9102 105.137 57.1452 107.383 57.5831 108.415C57.608 108.476 57.964 109.102 58.1918 109.483C58.0209 109.273 57.8607 109.067 57.6827 108.85C57.3267 108.426 56.9707 108.009 56.5863 107.561L55.9989 106.924C55.8066 106.707 55.5788 106.504 55.3652 106.29C54.8668 105.806 54.3328 105.339 53.7881 104.866C54.1441 104.56 55.4684 103.442 55.8458 102.705C56.2231 101.968 56.4866 100.9 56.095 100.106C56.0094 99.9165 55.8847 99.7468 55.729 99.6085C55.5734 99.4701 55.3903 99.3661 55.1918 99.3033C54.9932 99.2404 54.7837 99.2202 54.5768 99.2439C54.3699 99.2675 54.1703 99.3345 53.991 99.4406C52.923 100.106 52.8233 102.363 53.0975 103.449C53.1153 103.517 53.4001 104.271 53.5638 104.684C53.2327 104.414 52.9052 104.14 52.5635 103.873C51.5702 103.107 50.545 102.363 49.5232 101.616C49.21 101.388 48.9002 101.153 48.5905 100.925C48.7258 100.815 50.31 99.5367 50.7265 98.6965C51.1003 97.9489 51.3709 96.8916 50.9793 96.0977C50.8936 95.9079 50.7689 95.7383 50.6133 95.5999C50.4577 95.4615 50.2746 95.3575 50.0761 95.2947C49.8775 95.2319 49.6679 95.2116 49.461 95.2353C49.2541 95.259 49.0545 95.326 48.8753 95.432C47.8073 96.0977 47.7041 98.3548 47.9817 99.4406C47.9817 99.5224 48.4125 100.612 48.53 100.882C47.8465 100.373 47.1736 99.8607 46.5257 99.3267C45.6467 98.6117 44.8143 97.8411 44.0337 97.0198C44.0978 96.9699 45.7568 95.6421 46.1697 94.7805C46.5435 94.0329 46.8141 92.9756 46.4225 92.1817C46.3368 91.9919 46.2121 91.8223 46.0565 91.6839C45.9009 91.5455 45.7178 91.4415 45.5193 91.3787C45.3207 91.3159 45.1111 91.2956 44.9042 91.3193C44.6973 91.343 44.4978 91.41 44.3185 91.516C43.2505 92.1817 43.1473 94.4388 43.4249 95.5246C43.4249 95.5958 43.756 96.4253 43.9127 96.8169L43.8522 96.8525C43.0926 96.0041 42.4111 95.089 41.8158 94.1184C41.4812 93.5915 41.1928 93.0504 40.9223 92.5484C41.2533 92.3313 42.7735 91.3309 43.2469 90.5975C43.7204 89.8642 44.0835 88.8745 43.7809 88.045C43.7167 87.8468 43.6114 87.6644 43.472 87.5096C43.3326 87.3547 43.1621 87.231 42.9717 87.1463C42.7813 87.0617 42.5753 87.0181 42.3669 87.0184C42.1586 87.0187 41.9526 87.0628 41.7624 87.1479C40.6339 87.6961 40.2815 89.9283 40.4346 91.0354C40.4346 91.0959 40.5948 91.7011 40.7122 92.139C40.5948 91.9041 40.4702 91.662 40.3562 91.427C39.9433 90.5726 39.6193 89.7681 39.3345 89.0489C39.1779 88.6395 39.0461 88.2693 38.9251 87.9169C39.1423 87.5359 39.9931 85.9802 40.0786 85.1294C40.164 84.2785 40.0323 83.2141 39.3666 82.616C39.2181 82.47 39.0406 82.3569 38.8456 82.2839C38.6506 82.211 38.4424 82.1799 38.2346 82.1926C38.0268 82.2054 37.824 82.2617 37.6393 82.358C37.4547 82.4542 37.2924 82.5882 37.1629 82.7513C36.4153 83.7552 37.1309 85.9019 37.7788 86.8133C37.8322 86.8916 38.8468 88.0272 38.8468 88.0059V87.9809C38.9571 88.3369 39.0782 88.6929 39.2028 89.0774C39.4698 89.7894 39.7795 90.6189 40.1747 91.484C40.5891 92.4223 41.0587 93.3352 41.5809 94.2181C42.1624 95.2095 42.8294 96.1481 43.5745 97.0233L43.6029 97.0518C43.2897 96.8596 42.3997 96.3398 42.3249 96.3185C41.2961 95.877 39.0497 95.6278 38.2238 96.5712C38.0916 96.7324 37.9948 96.9195 37.9395 97.1204C37.8843 97.3214 37.8718 97.5317 37.903 97.7378C37.9343 97.9439 38.0084 98.1411 38.1207 98.3167C38.233 98.4922 38.3809 98.6423 38.5549 98.7571C39.2669 99.2661 40.3634 99.1665 41.1572 98.9137C42.0579 98.6289 43.5745 97.2583 43.6955 97.1337C44.4712 98.0031 45.3037 98.8202 46.1875 99.5794C46.7037 100.024 47.2377 100.459 47.7788 100.882L47.2199 100.569C46.1911 100.128 43.9447 99.8785 43.1188 100.825C42.9865 100.986 42.8895 101.173 42.834 101.373C42.7785 101.574 42.7658 101.784 42.7966 101.989C42.8275 102.195 42.9013 102.392 43.0132 102.568C43.1252 102.743 43.2727 102.893 43.4463 103.008C44.1583 103.52 45.2548 103.417 46.0522 103.164C46.8497 102.912 48.1882 101.769 48.5229 101.459L49.1494 101.947C50.1569 102.716 51.1644 103.481 52.1291 104.261C52.4673 104.535 52.7913 104.82 53.1188 105.101C52.8732 104.962 52.6667 104.845 52.6311 104.83C51.6058 104.389 49.3559 104.14 48.5336 105.083C48.4012 105.244 48.3041 105.431 48.2486 105.632C48.1931 105.833 48.1803 106.043 48.2112 106.249C48.2421 106.455 48.3159 106.652 48.4278 106.828C48.5398 107.004 48.6874 107.154 48.8611 107.269C49.5731 107.778 50.6695 107.678 51.467 107.426C52.2644 107.173 53.4642 106.137 53.8736 105.774C54.2011 106.073 54.525 106.372 54.8276 106.678C55.0305 106.888 55.237 107.08 55.4293 107.305L56.0024 107.953C56.3584 108.38 56.7144 108.818 57.0455 109.241C57.2769 109.533 57.4941 109.818 57.7112 110.103C57.3766 109.825 56.7073 109.295 56.6432 109.259C55.6927 108.665 53.5104 108.077 52.5528 108.903C52.3976 109.042 52.2734 109.212 52.1884 109.402C52.1034 109.592 52.0594 109.798 52.0594 110.007C52.0594 110.215 52.1034 110.421 52.1884 110.611C52.2734 110.801 52.3976 110.971 52.5528 111.11C53.19 111.726 54.2794 111.79 55.1053 111.662C56.0131 111.52 57.6614 110.445 57.8643 110.309C58.2203 110.783 58.5763 111.246 58.886 111.691C59.9967 113.221 60.8618 114.539 61.4528 115.468L61.5133 115.564L62.2787 115.19L62.1577 115.008C61.5382 114.083 60.6375 112.769 59.4841 111.249C59.1281 110.765 58.7258 110.259 58.3129 109.743C58.7367 109.275 59.1337 108.783 59.5019 108.269C60.3812 108.625 62.2182 108.625 62.4531 108.625C62.4923 109.22 62.5243 109.797 62.5457 110.341C62.624 112.228 62.6205 113.805 62.5991 114.909V115.037L63.4393 114.628C63.4393 113.531 63.4001 112.054 63.2862 110.302C63.2506 109.7 63.2007 109.056 63.1402 108.398C63.3752 108.341 65.2762 107.849 65.9882 107.276C66.6397 106.753 67.3268 105.906 67.3054 105.023C67.307 104.814 67.2646 104.608 67.1811 104.417C67.0975 104.226 66.9747 104.054 66.8205 103.914C66.6663 103.774 66.4843 103.667 66.2864 103.602C66.0884 103.536 65.8788 103.514 65.6714 103.535C64.4289 103.695 63.3859 105.699 63.1794 106.803C63.1794 106.867 63.1153 107.586 63.0868 108.038C63.0619 107.771 63.0405 107.508 63.0121 107.23C62.9551 106.685 62.8839 106.137 62.8091 105.553L62.6703 104.695C62.6311 104.41 62.5528 104.115 62.4923 103.819C62.3428 103.136 62.1577 102.456 61.9547 101.769C62.4318 101.723 64.1335 101.52 64.8633 101.103C65.5931 100.687 66.3941 99.9532 66.5044 99.0739C66.5377 98.8683 66.5273 98.6579 66.4738 98.4566C66.4202 98.2553 66.3248 98.0675 66.1938 97.9056C66.0628 97.7436 65.8991 97.6112 65.7133 97.5168C65.5276 97.4224 65.3241 97.3683 65.116 97.358C63.8629 97.3259 62.5279 99.138 62.1612 100.206C62.1363 100.27 61.9583 101.06 61.8657 101.495C61.7411 101.085 61.6201 100.676 61.4813 100.263C61.0754 99.0775 60.6304 97.892 60.189 96.7029L59.7938 95.6136C59.9647 95.5958 61.9939 95.4035 62.8091 94.9336C63.5211 94.5171 64.3399 93.7837 64.4503 92.908C64.4836 92.7022 64.4731 92.4916 64.4196 92.2901C64.3662 92.0886 64.2708 91.9006 64.1398 91.7384C64.0088 91.5762 63.8452 91.4434 63.6594 91.3486C63.4737 91.2539 63.2701 91.1993 63.0619 91.1885C61.8088 91.16 60.4738 92.9685 60.1071 94.0365C60.0786 94.1184 59.8223 95.2505 59.7689 95.5424C59.4805 94.7414 59.1993 93.9404 58.9572 93.1394C58.6193 92.0604 58.3529 90.9604 58.1598 89.8464C58.2381 89.8464 60.3563 89.647 61.1929 89.1664C61.9049 88.7499 62.7237 88.0165 62.8341 87.1372C62.8668 86.9317 62.8559 86.7215 62.8022 86.5204C62.7484 86.3193 62.653 86.1318 62.5221 85.97C62.3911 85.8082 62.2277 85.6757 62.0422 85.5812C61.8568 85.4867 61.6535 85.4322 61.4457 85.4213C60.1926 85.3893 58.8575 87.2013 58.4909 88.2693C58.466 88.3405 58.2702 89.202 58.1847 89.615H58.1135C57.9501 88.4883 57.887 87.3494 57.9248 86.2116C57.9248 85.5851 57.9853 84.987 58.0423 84.4067C58.441 84.4067 60.2602 84.4067 61.0576 84.0507C61.8551 83.6947 62.7095 83.0788 62.9159 82.2173C62.9717 82.0165 62.9844 81.8061 62.9533 81.6001C62.9221 81.394 62.8479 81.1968 62.7353 81.0214C62.6227 80.846 62.4744 80.6963 62.3 80.5822C62.1256 80.468 61.9291 80.392 61.7234 80.359C60.4809 80.1881 58.9537 81.8577 58.4731 82.851C58.4446 82.9079 58.2417 83.4953 58.0957 83.919C58.1278 83.6555 58.1562 83.385 58.1883 83.1358C58.3164 82.1959 58.4909 81.3558 58.6511 80.5904C58.7472 80.1632 58.8397 79.7787 58.9323 79.4191C59.3239 79.2198 60.8974 78.3974 61.4243 77.7281C61.9512 77.0589 62.4389 76.1048 62.2253 75.2361C62.1087 74.8811 61.8625 74.5831 61.5359 74.4017C61.2092 74.2202 60.8261 74.1686 60.4631 74.2571Z" fill="white"/>
<path opacity="0.5" d="M37.7986 93.5809C38.7776 93.5417 40.7356 92.5378 40.7392 92.5378C40.7427 92.5378 39.6712 91.4484 39.6071 91.3879C38.7313 90.6759 36.6309 89.8571 35.5878 90.5478C35.4172 90.6674 35.2737 90.8218 35.1667 91.0007C35.0598 91.1796 34.9919 91.3791 34.9673 91.5861C34.9428 91.7931 34.9622 92.003 35.0244 92.2019C35.0865 92.4009 35.19 92.5845 35.328 92.7407C35.8904 93.4278 36.962 93.6272 37.7986 93.5809Z" fill="white"/>
</g>
<path d="M49.7592 120.466C49.7592 120.466 55.7044 106.137 59.033 106.76C62.3616 107.383 53.337 129.604 53.337 129.604C53.337 129.604 63.7963 109.875 70.9306 109.875C78.0648 109.875 68.314 131.68 59.2822 138.949C59.2822 138.949 73.5436 123.581 81.8633 126.906C90.183 130.231 65.2239 145.802 65.2239 145.802C65.2239 145.802 79.7238 141.235 78.0612 144.767C76.3987 148.298 71.8811 148.917 71.8811 148.917L88.282 149.751H31.2188L44.0561 148.505C44.0561 148.505 30.7417 141.858 34.3088 139.16C37.876 136.461 45.7186 142.275 45.7186 142.275C45.7186 142.275 32.1693 127.323 34.7823 121.712C37.3954 116.101 49.0472 131.89 49.0472 131.89C49.0472 131.89 39.5385 111.744 41.4395 108.223C43.3406 104.702 49.7592 120.466 49.7592 120.466Z" fill="#008DCC"/>
<path opacity="0.5" d="M49.7592 120.466C49.7592 120.466 55.7044 106.137 59.033 106.76C62.3616 107.383 53.337 129.604 53.337 129.604C53.337 129.604 63.7963 109.875 70.9306 109.875C78.0648 109.875 68.314 131.68 59.2822 138.949C59.2822 138.949 73.5436 123.581 81.8633 126.906C90.183 130.231 65.2239 145.802 65.2239 145.802C65.2239 145.802 79.7238 141.235 78.0612 144.767C76.3987 148.298 71.8811 148.917 71.8811 148.917L88.282 149.751H31.2188L44.0561 148.505C44.0561 148.505 30.7417 141.858 34.3088 139.16C37.876 136.461 45.7186 142.275 45.7186 142.275C45.7186 142.275 32.1693 127.323 34.7823 121.712C37.3954 116.101 49.0472 131.89 49.0472 131.89C49.0472 131.89 39.5385 111.744 41.4395 108.223C43.3406 104.702 49.7592 120.466 49.7592 120.466Z" fill="white"/>
<path d="M47.8536 121.221C53.0832 136.675 53.0832 147.611 53.0832 147.611C53.0832 147.611 46.9031 147.846 40.4844 143.093" stroke="#263238" stroke-width="0.356" stroke-linecap="round" stroke-linejoin="round"/>
<path d="M50.4727 129.544C51.5477 124.924 52.9759 120.393 54.7447 115.991" stroke="#263238" stroke-width="0.356" stroke-linecap="round" stroke-linejoin="round"/>
<path d="M65.9206 120.509L52.6097 140.242C52.6097 140.242 43.5745 132.634 40.4844 128.355" stroke="#263238" stroke-width="0.356" stroke-linecap="round" stroke-linejoin="round"/>
<path d="M52.8516 144.995C52.8516 144.995 66.8744 138.338 72.5811 134.536" stroke="#263238" stroke-width="0.356" stroke-linecap="round" stroke-linejoin="round"/>
<path d="M126.453 120.466C126.453 120.466 120.512 106.137 117.197 106.76C113.883 107.383 122.893 129.604 122.893 129.604C122.893 129.604 112.434 109.875 105.303 109.875C98.1725 109.875 107.916 131.68 116.951 138.949C116.951 138.949 102.687 123.581 94.3669 126.906C86.0471 130.231 111.01 145.802 111.01 145.802C111.01 145.802 96.5064 141.235 98.1725 144.767C99.8386 148.298 104.353 148.917 104.353 148.917L87.9375 149.751H144.997L132.16 148.505C132.16 148.505 145.471 141.858 141.907 139.16C138.344 136.461 130.494 142.275 130.494 142.275C130.494 142.275 144.047 127.323 141.43 121.712C138.813 116.101 127.165 131.89 127.165 131.89C127.165 131.89 136.677 111.744 134.773 108.212C132.868 104.681 126.453 120.466 126.453 120.466Z" fill="#008DCC"/>
<path opacity="0.5" d="M126.453 120.466C126.453 120.466 120.512 106.137 117.197 106.76C113.883 107.383 122.893 129.604 122.893 129.604C122.893 129.604 112.434 109.875 105.303 109.875C98.1725 109.875 107.916 131.68 116.951 138.949C116.951 138.949 102.687 123.581 94.3669 126.906C86.0471 130.231 111.01 145.802 111.01 145.802C111.01 145.802 96.5064 141.235 98.1725 144.767C99.8386 148.298 104.353 148.917 104.353 148.917L87.9375 149.751H144.997L132.16 148.505C132.16 148.505 145.471 141.858 141.907 139.16C138.344 136.461 130.494 142.275 130.494 142.275C130.494 142.275 144.047 127.323 141.43 121.712C138.813 116.101 127.165 131.89 127.165 131.89C127.165 131.89 136.677 111.744 134.773 108.212C132.868 104.681 126.453 120.466 126.453 120.466Z" fill="white"/>
<path d="M128.355 121.221C123.125 136.675 123.125 147.611 123.125 147.611C123.125 147.611 129.305 147.846 135.724 143.093" stroke="#263238" stroke-width="0.356" stroke-linecap="round" stroke-linejoin="round"/>
<path d="M125.741 129.544C124.666 124.924 123.237 120.393 121.469 115.991" stroke="#263238" stroke-width="0.356" stroke-linecap="round" stroke-linejoin="round"/>
<path d="M110.285 120.509L123.6 140.242C123.6 140.242 132.631 132.634 135.721 128.355" stroke="#263238" stroke-width="0.356" stroke-linecap="round" stroke-linejoin="round"/>
<path d="M123.362 144.995C123.362 144.995 109.336 138.338 103.629 134.536" stroke="#263238" stroke-width="0.356" stroke-linecap="round" stroke-linejoin="round"/>
<path d="M116.85 43.2539H61.8835C60.5563 43.2539 59.4805 44.3298 59.4805 45.6569V148.573C59.4805 149.9 60.5563 150.976 61.8835 150.976H116.85C118.177 150.976 119.253 149.9 119.253 148.573V45.6569C119.253 44.3298 118.177 43.2539 116.85 43.2539Z" fill="#263238" stroke="#263238" stroke-width="0.356" stroke-miterlimit="10"/>
<path d="M93.5027 49.6898H86.0623C85.9618 49.6898 85.8622 49.67 85.7694 49.6316C85.6765 49.5931 85.5921 49.5367 85.5211 49.4657C85.45 49.3946 85.3936 49.3102 85.3551 49.2174C85.3167 49.1245 85.2969 49.025 85.2969 48.9244C85.2969 48.8241 85.3167 48.7247 85.3552 48.6321C85.3937 48.5394 85.4501 48.4553 85.5213 48.3845C85.5924 48.3137 85.6768 48.2576 85.7696 48.2196C85.8625 48.1815 85.9619 48.1621 86.0623 48.1626H93.5027C93.7047 48.1626 93.8985 48.2429 94.0414 48.3857C94.1842 48.5286 94.2645 48.7224 94.2645 48.9244C94.265 49.0248 94.2456 49.1242 94.2076 49.2171C94.1695 49.3099 94.1134 49.3943 94.0426 49.4655C93.9719 49.5366 93.8877 49.593 93.795 49.6315C93.7024 49.67 93.603 49.6899 93.5027 49.6898Z" fill="#008DCC"/>
<path d="M115.472 141.35H63.2539V49.7793H75.632L77.024 50.9327C77.5092 51.3384 78.1217 51.5602 78.7541 51.5593H100.591C101.247 51.5557 101.879 51.3155 102.371 50.8829L103.628 49.7793H115.461L115.472 141.35Z" fill="white" stroke="#263238" stroke-width="0.334148" stroke-linecap="round" stroke-linejoin="round"/>
<path d="M84.1124 56.5285L83.4004 54.1362H65.6289V56.5285V136.486V138.882H113.265V56.5285H84.1124Z" fill="#008DCC"/>
<path d="M111.591 60.8398H67.3047V136.248H111.591V60.8398Z" fill="white"/>
<path d="M91.0382 144.179C91.0389 143.944 90.9698 143.714 90.8396 143.518C90.7093 143.322 90.5239 143.169 90.3067 143.078C90.0895 142.988 89.8503 142.964 89.6194 143.009C89.3885 143.055 89.1763 143.168 89.0097 143.334C88.843 143.5 88.7294 143.712 88.6833 143.943C88.6371 144.173 88.6604 144.413 88.7503 144.63C88.8402 144.848 88.9926 145.033 89.1882 145.164C89.3838 145.295 89.6139 145.365 89.8492 145.365C90.1636 145.364 90.465 145.239 90.6877 145.017C90.9104 144.795 91.0364 144.494 91.0382 144.179Z" fill="#008DCC"/>
<path d="M86.1208 132.955C94.1741 132.955 100.703 123.666 100.703 112.207C100.703 100.749 94.1741 91.4595 86.1208 91.4595C78.0675 91.4595 71.5391 100.749 71.5391 112.207C71.5391 123.666 78.0675 132.955 86.1208 132.955Z" fill="#008DCC"/>
<path opacity="0.5" d="M86.1208 132.955C94.1741 132.955 100.703 123.666 100.703 112.207C100.703 100.749 94.1741 91.4595 86.1208 91.4595C78.0675 91.4595 71.5391 100.749 71.5391 112.207C71.5391 123.666 78.0675 132.955 86.1208 132.955Z" fill="white"/>
<path d="M88.1917 89.0493C88.1917 89.0493 87.2803 87.5256 86.4437 87.4509C85.6071 87.3761 75.6463 93.6275 74.1226 96.8813C72.5989 100.135 71.1571 106.664 75.1906 112.948C79.1244 119.06 85.2903 118.857 88.4872 118.551C91.6841 118.245 93.8272 117.205 97.0668 114.607C100.306 112.008 103.279 108.181 103.71 105.582C104.141 102.983 102.556 101.538 101.545 101.178C100.534 100.819 94.6851 100.89 90.4238 96.5502C86.1625 92.2106 88.1917 89.0493 88.1917 89.0493Z" fill="#263238" stroke="#263238" stroke-width="0.356" stroke-linecap="round" stroke-linejoin="round"/>
<path d="M89.486 87.0703C89.486 87.0703 86.9014 88.06 85.303 89.808C83.7045 91.5559 82.7184 94.2971 82.6436 98.327C82.5689 102.357 83.8612 106.917 88.8772 108.897C93.8932 110.876 98.3824 109.352 99.8278 107.982C101.273 106.611 103.032 102.738 103.032 102.738C103.032 102.738 95.0502 104.874 91.2482 100.378C87.4461 95.8813 89.486 87.0703 89.486 87.0703Z" fill="white" stroke="#263238" stroke-width="0.356" stroke-linecap="round" stroke-linejoin="round"/>
<path d="M134.156 89.8789C132.205 86.9525 127.548 86.0875 123.867 84.8949C120.186 83.7023 118.018 81.3349 118.994 75.4751C119.969 69.6153 125.046 60.0959 124.95 58.3622C124.854 56.6285 107.406 56.7388 105.779 57.2942C104.152 57.8495 103.832 57.7249 102.315 59.6758C101.475 60.7294 100.714 61.8444 100.04 63.0115L101.92 59.0599H102.059C102.263 58.5406 102.553 58.0592 102.917 57.6359C104.571 55.717 105.508 53.2837 105.569 50.7509C105.64 47.0236 102.988 47.3831 102.486 48.5295C101.984 49.6758 99.0471 53.6203 98.1856 54.6954C97.324 55.7705 95.5334 58.7111 95.5334 58.7111L93.5433 65.6103C93.5433 65.6103 93.109 67.668 90.617 75.468C88.125 83.2679 89.2108 86.8635 89.2108 86.8635C89.2108 86.8635 88.5593 86.5396 87.0428 91.1961C85.5262 95.8525 86.1777 101.808 88.8833 104.624C91.5889 107.44 95.1667 107.334 99.1752 105.71C101.641 104.654 103.695 102.821 105.024 100.491C105.024 100.491 109.25 99.4232 112.39 97.0273C115.53 94.6315 117.912 92.1537 122.468 92.3709C127.025 92.588 132.216 95.1868 133.949 95.0765C135.683 94.9661 136.107 92.8016 134.156 89.8789Z" fill="white"/>
<path d="M106.218 79.744C94.1678 81.5418 90.3799 84.4183 91.5832 88.377C91.8329 89.162 92.2386 89.8885 92.7758 90.513C92.7758 90.5878 92.7758 90.6696 92.7972 90.7551C92.7972 90.7551 93.0108 90.8832 93.3312 91.1111C93.753 91.5186 94.2092 91.889 94.6946 92.2183C95.485 92.9694 96.1934 93.9092 96.0475 94.7814C95.7377 96.6398 91.4195 99.8865 89.2372 100.043C87.0549 100.2 86.2966 98.0317 85.9869 100.353C85.6772 102.674 90.476 108.398 95.1183 107.779C99.7605 107.16 103.63 100.659 103.63 100.659C103.63 100.659 103.011 99.591 106.122 96.3265C108.166 94.1905 111.088 93.2471 113.328 92.3713C115.442 91.7495 117.502 90.9591 119.49 90.0075C124.997 87.309 131.541 89.1104 131.541 89.1104C131.541 89.1104 118.269 77.9248 106.218 79.744Z" fill="#008DCC"/>
<path opacity="0.5" d="M106.218 79.744C94.1678 81.5418 90.3799 84.4183 91.5832 88.377C91.8329 89.162 92.2386 89.8885 92.7758 90.513C92.7758 90.5878 92.7758 90.6696 92.7972 90.7551C92.7972 90.7551 93.0108 90.8832 93.3312 91.1111C93.753 91.5186 94.2092 91.889 94.6946 92.2183C95.485 92.9694 96.1934 93.9092 96.0475 94.7814C95.7377 96.6398 91.4195 99.8865 89.2372 100.043C87.0549 100.2 86.2966 98.0317 85.9869 100.353C85.6772 102.674 90.476 108.398 95.1183 107.779C99.7605 107.16 103.63 100.659 103.63 100.659C103.63 100.659 103.011 99.591 106.122 96.3265C108.166 94.1905 111.088 93.2471 113.328 92.3713C115.442 91.7495 117.502 90.9591 119.49 90.0075C124.997 87.309 131.541 89.1104 131.541 89.1104C131.541 89.1104 118.269 77.9248 106.218 79.744Z" fill="white"/>
<path d="M134.156 89.8789C132.205 86.9525 127.548 86.0875 123.867 84.8949C120.186 83.7023 118.018 81.3349 118.994 75.4751C119.969 69.6153 125.046 60.0959 124.95 58.3622C124.854 56.6285 107.406 56.7388 105.779 57.2942C104.152 57.8495 103.832 57.7249 102.315 59.6758C101.475 60.7294 100.714 61.8444 100.04 63.0115L101.92 59.0599H102.059C102.263 58.5406 102.553 58.0592 102.917 57.6359C104.571 55.717 105.508 53.2837 105.569 50.7509C105.64 47.0236 102.988 47.3831 102.486 48.5295C101.984 49.6758 99.0471 53.6203 98.1856 54.6954C97.324 55.7705 95.5334 58.7111 95.5334 58.7111L93.5433 65.6103C93.5433 65.6103 93.109 67.668 90.617 75.468C88.125 83.2679 89.2108 86.8635 89.2108 86.8635C89.2108 86.8635 88.5593 86.5396 87.0428 91.1961C85.5262 95.8525 86.1777 101.808 88.8833 104.624C91.5889 107.44 95.1667 107.334 99.1752 105.71C101.641 104.654 103.695 102.821 105.024 100.491C105.024 100.491 109.25 99.4232 112.39 97.0273C115.53 94.6315 117.912 92.1537 122.468 92.3709C127.025 92.588 132.216 95.1868 133.949 95.0765C135.683 94.9661 136.107 92.8016 134.156 89.8789Z" stroke="#263238" stroke-width="0.356" stroke-linecap="round" stroke-linejoin="round"/>
<path d="M134.213 95.0512C134.213 95.0512 134.441 94.1398 131.856 92.9152C129.271 91.6905 128.207 92.5343 128.207 93.143C128.207 93.7518 133.814 95.0512 134.213 95.0512Z" fill="white" stroke="#263238" stroke-width="0.356" stroke-linecap="round" stroke-linejoin="round"/>
<path d="M109.725 53.3384L103.203 58.358H111.95C111.95 58.358 111.95 52.1921 109.725 53.3384Z" fill="white" stroke="#263238" stroke-width="0.356" stroke-linecap="round" stroke-linejoin="round"/>
<path d="M101.539 89.5438C102.465 88.4969 103.62 87.6772 104.914 87.1479" stroke="#263238" stroke-width="0.356" stroke-linecap="round" stroke-linejoin="round"/>
<path d="M100.355 91.4911C100.455 91.2018 100.585 90.9238 100.744 90.6616" stroke="#263238" stroke-width="0.356" stroke-linecap="round" stroke-linejoin="round"/>
<path d="M97.7606 98.255C97.4118 97.948 97.0857 97.6161 96.7852 97.2617" stroke="#263238" stroke-width="0.356" stroke-linecap="round" stroke-linejoin="round"/>
<path d="M105.018 100.491C103.006 100.72 100.974 100.304 99.2148 99.3022" stroke="#263238" stroke-width="0.356" stroke-linecap="round" stroke-linejoin="round"/>
<path d="M129.407 57.9282H96.5407C92.0017 57.9282 88.3242 61.4419 88.3242 65.7602V81.2462C88.3242 85.0127 91.1046 88.1597 94.8141 88.918L93.0804 94.048L101.105 89.1067H129.407C133.942 89.1067 137.623 85.593 137.623 81.2747V65.7887C137.623 61.4419 133.942 57.9282 129.407 57.9282Z" fill="#008DCC" stroke="#263238" stroke-width="0.712" stroke-miterlimit="10"/>
<path d="M93.6758 68.3545H130.621" stroke="#263238" stroke-width="0.734816" stroke-miterlimit="10" stroke-linecap="round"/>
<path d="M93.6758 72.1606H130.621" stroke="#263238" stroke-width="0.734816" stroke-miterlimit="10" stroke-linecap="round"/>
<path d="M93.6758 75.9629H130.621" stroke="#263238" stroke-width="0.734816" stroke-miterlimit="10" stroke-linecap="round"/>
<path d="M93.6758 79.7651H130.621" stroke="#263238" stroke-width="0.734816" stroke-miterlimit="10" stroke-linecap="round"/>
<path d="M137.328 71.5019C139.858 71.5019 141.91 69.5431 141.91 67.1267C141.91 64.7103 139.858 62.7515 137.328 62.7515C134.797 62.7515 132.746 64.7103 132.746 67.1267C132.746 69.5431 134.797 71.5019 137.328 71.5019Z" fill="#263238"/>
<path d="M136.965 70.2175C136.815 69.9167 136.747 69.5812 136.77 69.2456V65.6856L135.965 66.1341C135.878 66.1842 135.78 66.2112 135.68 66.2125C135.605 66.2132 135.531 66.1981 135.462 66.168C135.393 66.1379 135.332 66.0936 135.281 66.038C135.177 65.9291 135.119 65.7833 135.121 65.6322C135.119 65.5295 135.149 65.4286 135.207 65.3438C135.29 65.2444 135.388 65.1591 135.499 65.0911L137.058 64.2936C137.232 64.1687 137.436 64.0914 137.649 64.0693C138.179 64.0693 138.443 64.4681 138.443 65.2655V69.3702C138.443 70.1498 138.165 70.5379 137.606 70.5379C137.48 70.549 137.353 70.5249 137.24 70.4683C137.127 70.4118 137.032 70.3249 136.965 70.2175Z" fill="white"/>
<path d="M119.742 55.6354C119.742 55.6354 119.888 58.5012 122.469 59.8647C125.05 61.2282 128.346 60.9327 128.418 59.2203C128.489 57.508 126.481 55.7066 125.121 53.4104C123.761 51.1142 120.746 52.41 119.457 53.9871" fill="white"/>
<path d="M119.742 55.6354C119.742 55.6354 119.888 58.5012 122.469 59.8647C125.05 61.2282 128.346 60.9327 128.418 59.2203C128.489 57.508 126.481 55.7066 125.121 53.4104C123.761 51.1142 120.746 52.41 119.457 53.9871" stroke="#263238" stroke-width="0.356" stroke-linecap="round" stroke-linejoin="round"/>
<path d="M124.193 57.9284C123.976 59.0747 124.766 59.7084 125.482 60.0644C126.197 60.4204 127.618 60.2104 128.422 59.2064C128.458 58.3663 127.998 57.5119 127.354 56.5898C126.457 56.7038 124.36 57.0313 124.193 57.9284Z" fill="white" stroke="#263238" stroke-width="0.356" stroke-linecap="round" stroke-linejoin="round"/>
<path d="M114.37 55.6354C114.37 55.6354 114.513 58.5012 117.094 59.8647C119.675 61.2282 122.975 60.9327 123.046 59.2203C123.117 57.508 121.109 55.7066 119.746 53.4104C118.383 51.1142 115.374 52.41 114.082 53.9871" fill="white"/>
<path d="M114.37 55.6354C114.37 55.6354 114.513 58.5012 117.094 59.8647C119.675 61.2282 122.975 60.9327 123.046 59.2203C123.117 57.508 121.109 55.7066 119.746 53.4104C118.383 51.1142 115.374 52.41 114.082 53.9871" stroke="#263238" stroke-width="0.356" stroke-linecap="round" stroke-linejoin="round"/>
<path d="M118.814 57.9284C118.597 59.0747 119.387 59.7084 120.103 60.0644C120.818 60.4204 122.239 60.2104 123.043 59.2064C123.075 58.3663 122.616 57.5119 121.975 56.5898C121.078 56.7038 118.981 57.0313 118.814 57.9284Z" fill="white" stroke="#263238" stroke-width="0.356" stroke-linecap="round" stroke-linejoin="round"/>
<path d="M109.366 55.6354C109.366 55.6354 109.509 58.5012 112.09 59.8647C114.671 61.2282 117.967 60.9327 118.039 59.2203C118.11 57.508 116.106 55.7066 114.742 53.4104C113.379 51.1142 110.367 52.41 109.078 53.9871" fill="white"/>
<path d="M109.366 55.6354C109.366 55.6354 109.509 58.5012 112.09 59.8647C114.671 61.2282 117.967 60.9327 118.039 59.2203C118.11 57.508 116.106 55.7066 114.742 53.4104C113.379 51.1142 110.367 52.41 109.078 53.9871" stroke="#263238" stroke-width="0.356" stroke-linecap="round" stroke-linejoin="round"/>
<path d="M113.809 57.9284C113.595 59.0747 114.382 59.7084 115.101 60.0644C115.82 60.4204 117.237 60.2104 118.038 59.2064C118.074 58.3663 117.615 57.5119 116.97 56.5898C116.073 56.7038 113.976 57.0313 113.809 57.9284Z" fill="white" stroke="#263238" stroke-width="0.356" stroke-linecap="round" stroke-linejoin="round"/>
<path d="M89.2109 86.8633C89.2109 86.8633 89.4103 91.2706 91.8418 94.236" stroke="#263238" stroke-width="0.356" stroke-linecap="round" stroke-linejoin="round"/>
<path d="M82.127 105.259C82.127 106.156 81.529 106.882 80.792 106.882C80.0551 106.882 79.457 106.17 79.457 105.259C79.457 104.347 80.0551 103.635 80.792 103.635C81.529 103.635 82.127 104.362 82.127 105.259Z" fill="white"/>
<path d="M78.8106 107.28C78.8106 108.177 78.2125 108.904 77.4756 108.904C76.7387 108.904 76.1406 108.192 76.1406 107.28C76.1406 106.369 76.7387 105.653 77.4756 105.653C78.2125 105.653 78.8106 106.383 78.8106 107.28Z" stroke="#263238" stroke-width="0.356" stroke-linecap="round" stroke-linejoin="round"/>
</svg>
