<svg width="99" height="99" viewBox="0 0 99 99" fill="none" xmlns="http://www.w3.org/2000/svg">
<g clip-path="url(#clip0)">
<path d="M49.0617 98.9998C48.5213 98.9998 47.9933 98.7853 47.6014 98.3976C47.1147 97.9108 46.9002 97.2095 47.0363 96.5372L49.9527 81.9553C50.0352 81.5511 50.2249 81.1839 50.5178 80.8993L82.6021 48.8151C85.0111 46.4061 88.9422 46.4061 91.3512 48.8151L97.184 54.6478C99.5971 57.0609 99.5971 60.9838 97.184 63.3969L65.0997 95.4812C64.8151 95.7699 64.448 95.9638 64.0437 96.0463L49.4618 98.9627C49.3298 98.9874 49.1937 98.9998 49.0617 98.9998ZM53.8797 83.3702L51.6934 94.3055L62.6288 92.1193L94.2717 60.4764C95.0761 59.6721 95.0761 58.3644 94.2717 57.5601L88.439 51.7273C87.6346 50.9229 86.327 50.9229 85.5226 51.7273L53.8797 83.3702ZM63.6436 94.0209H63.6848H63.6436Z" fill="#00587F"/>
<path d="M39.1875 86.625H10.3125C4.62413 86.625 0 82.0009 0 76.3125V22.6875C0 16.9991 4.62413 12.375 10.3125 12.375H18.5625C19.701 12.375 20.625 13.299 20.625 14.4375C20.625 15.576 19.701 16.5 18.5625 16.5H10.3125C6.90113 16.5 4.125 19.2761 4.125 22.6875V76.3125C4.125 79.7239 6.90113 82.5 10.3125 82.5H39.1875C40.326 82.5 41.25 83.424 41.25 84.5625C41.25 85.701 40.326 86.625 39.1875 86.625Z" fill="#00587F"/>
<path d="M68.0625 49.5C66.924 49.5 66 48.576 66 47.4375V22.6875C66 19.2761 63.2239 16.5 59.8125 16.5H51.5625C50.424 16.5 49.5 15.576 49.5 14.4375C49.5 13.299 50.424 12.375 51.5625 12.375H59.8125C65.5009 12.375 70.125 16.9991 70.125 22.6875V47.4375C70.125 48.576 69.201 49.5 68.0625 49.5Z" fill="#00587F"/>
<path d="M47.4375 24.75H22.6875C19.2761 24.75 16.5 21.9739 16.5 18.5625V10.3125C16.5 9.174 17.424 8.25 18.5625 8.25H24.9563C25.9133 3.5475 30.0836 0 35.0625 0C40.0414 0 44.2118 3.5475 45.1688 8.25H51.5625C52.701 8.25 53.625 9.174 53.625 10.3125V18.5625C53.625 21.9739 50.8489 24.75 47.4375 24.75ZM20.625 12.375V18.5625C20.625 19.6969 21.5531 20.625 22.6875 20.625H47.4375C48.5719 20.625 49.5 19.6969 49.5 18.5625V12.375H43.3125C42.174 12.375 41.25 11.451 41.25 10.3125C41.25 6.90112 38.4739 4.125 35.0625 4.125C31.6511 4.125 28.875 6.90112 28.875 10.3125C28.875 11.451 27.951 12.375 26.8125 12.375H20.625Z" fill="#00587F"/>
<path d="M55.6875 37.125H14.4375C13.299 37.125 12.375 36.201 12.375 35.0625C12.375 33.924 13.299 33 14.4375 33H55.6875C56.826 33 57.75 33.924 57.75 35.0625C57.75 36.201 56.826 37.125 55.6875 37.125Z" fill="#00587F"/>
<path d="M55.6875 49.5H14.4375C13.299 49.5 12.375 48.576 12.375 47.4375C12.375 46.299 13.299 45.375 14.4375 45.375H55.6875C56.826 45.375 57.75 46.299 57.75 47.4375C57.75 48.576 56.826 49.5 55.6875 49.5Z" fill="#00587F"/>
<path d="M55.6875 61.875H14.4375C13.299 61.875 12.375 60.951 12.375 59.8125C12.375 58.674 13.299 57.75 14.4375 57.75H55.6875C56.826 57.75 57.75 58.674 57.75 59.8125C57.75 60.951 56.826 61.875 55.6875 61.875Z" fill="#00587F"/>
</g>
<defs>
<clipPath id="clip0">
<rect width="99" height="99" fill="white"/>
</clipPath>
</defs>
</svg>
