<svg width="148" height="148" viewBox="0 0 148 148" fill="none" xmlns="http://www.w3.org/2000/svg">
<path d="M134.318 51.8003C129.751 41.976 122.922 33.2174 116.52 24.4587C107.119 11.5828 81.3845 2.92179 60.5994 12.82C39.8143 22.7183 41.7916 38.8029 35.3595 51.67C28.9274 64.5371 10.3652 77.1556 7.64501 90.2803C3.45365 110.467 6.62085 124.646 30.1617 133.079C48.0283 139.478 67.3689 127.39 84.8477 124.418C96.442 122.447 109.12 123.953 120.276 119.303C133.975 113.587 138.61 96.0967 139.697 82.5991C140.203 76.475 139.823 70.3099 138.569 64.2944C137.631 59.9818 136.205 55.7901 134.318 51.8003Z" fill="#008DCC"/>
<path opacity="0.7" d="M134.318 51.8003C129.751 41.976 122.922 33.2174 116.52 24.4587C107.119 11.5828 81.3845 2.92179 60.5994 12.82C39.8143 22.7183 41.7916 38.8029 35.3595 51.67C28.9274 64.5371 10.3652 77.1556 7.64501 90.2803C3.45365 110.467 6.62085 124.646 30.1617 133.079C48.0283 139.478 67.3689 127.39 84.8477 124.418C96.442 122.447 109.12 123.953 120.276 119.303C133.975 113.587 138.61 96.0967 139.697 82.5991C140.203 76.475 139.823 70.3099 138.569 64.2944C137.631 59.9818 136.205 55.7901 134.318 51.8003Z" fill="white"/>
<g opacity="0.2">
<path opacity="0.2" d="M129.254 14.3564H89.0242C87.8243 14.3564 86.8516 15.3292 86.8516 16.5291V17.6332C86.8516 18.8331 87.8243 19.8058 89.0242 19.8058H129.254C130.453 19.8058 131.426 18.8331 131.426 17.6332V16.5291C131.426 15.3292 130.453 14.3564 129.254 14.3564Z" stroke="black" stroke-width="0.296" stroke-linejoin="round"/>
<path opacity="0.2" d="M124.555 15.6143V18.1628" stroke="black" stroke-width="0.148" stroke-linejoin="round"/>
<path opacity="0.2" d="M122.572 15.6387L120.184 18.0274" stroke="black" stroke-width="0.296" stroke-linejoin="round"/>
<path opacity="0.2" d="M120.184 15.6387L122.572 18.0274" stroke="black" stroke-width="0.296" stroke-linejoin="round"/>
<path opacity="0.2" d="M128.725 18.0941C128.708 18.1162 128.686 18.1344 128.662 18.1477C128.637 18.1609 128.61 18.1689 128.582 18.1711C128.554 18.1734 128.526 18.1698 128.5 18.1606C128.474 18.1514 128.449 18.1368 128.429 18.1178L127.449 17.2298L127.636 17.0078L128.686 17.8129C128.729 17.8452 128.757 17.8929 128.764 17.9456C128.771 17.9983 128.757 18.0517 128.725 18.0941Z" fill="#263238" stroke="black" stroke-width="0.296" stroke-linejoin="round"/>
<path opacity="0.2" d="M126.214 16.005C126.098 16.1459 126.027 16.318 126.009 16.4996C125.99 16.6813 126.026 16.8642 126.112 17.0253C126.198 17.1865 126.329 17.3186 126.49 17.4051C126.651 17.4915 126.833 17.5284 127.015 17.5111C127.197 17.4937 127.369 17.4229 127.511 17.3076C127.652 17.1923 127.756 17.0377 127.81 16.8632C127.864 16.6888 127.865 16.5023 127.812 16.3275C127.76 16.1526 127.657 15.9971 127.517 15.8806C127.423 15.8027 127.315 15.7441 127.199 15.7081C127.083 15.6722 126.961 15.6596 126.84 15.6712C126.718 15.6827 126.601 15.7182 126.494 15.7755C126.386 15.8328 126.291 15.9108 126.214 16.005V16.005ZM127.537 17.0972C127.438 17.2177 127.305 17.306 127.155 17.3509C127.005 17.3958 126.846 17.3954 126.696 17.3496C126.547 17.3038 126.414 17.2147 126.316 17.0936C126.217 16.9725 126.156 16.8249 126.141 16.6693C126.126 16.5137 126.158 16.3572 126.232 16.2196C126.306 16.0819 126.419 15.9693 126.557 15.896C126.695 15.8227 126.852 15.7919 127.007 15.8076C127.163 15.8233 127.31 15.8848 127.431 15.9842C127.511 16.0503 127.577 16.1315 127.626 16.2232C127.675 16.3149 127.705 16.4153 127.715 16.5186C127.725 16.622 127.714 16.7263 127.684 16.8256C127.653 16.9248 127.604 17.0171 127.537 17.0972V17.0972Z" stroke="black" stroke-width="0.296" stroke-linejoin="round"/>
</g>
<path d="M45.6661 24.21C45.5757 24.3193 45.4644 24.4093 45.3386 24.4748C45.2129 24.5402 45.0753 24.5798 44.934 24.5911C44.7926 24.6024 44.6505 24.5852 44.5159 24.5406C44.3814 24.496 44.2571 24.4249 44.1505 24.3314L39.3672 19.9802C39.567 19.8074 39.7522 19.6183 39.9207 19.4148C40.0902 19.214 40.2408 18.998 40.3706 18.7695L45.5003 22.6975C45.6124 22.7846 45.7058 22.8933 45.775 23.0172C45.8442 23.141 45.8879 23.2776 45.9033 23.4186C45.9188 23.5597 45.9057 23.7025 45.865 23.8384C45.8242 23.9743 45.7566 24.1007 45.6661 24.21V24.21Z" stroke="#CCCCCC" stroke-width="0.296" stroke-linejoin="round"/>
<path d="M39.2588 12.5861C39.8429 13.0519 40.3084 13.6494 40.6175 14.3295C40.934 15.0393 41.0758 15.8147 41.031 16.5905C40.9862 17.3664 40.7561 18.1203 40.3599 18.7889C39.9638 19.4576 39.4132 20.0215 38.7543 20.4336C38.0953 20.8457 37.3472 21.0938 36.5726 21.1572C35.7981 21.2206 35.0196 21.0975 34.3024 20.7981C33.5852 20.4987 32.9502 20.0318 32.4505 19.4365C31.9509 18.8412 31.6013 18.1348 31.4309 17.3766C31.2604 16.6183 31.2742 15.8302 31.4711 15.0784C31.6747 14.2874 32.0756 13.561 32.6362 12.9671C33.1968 12.3731 33.8989 11.931 34.6768 11.682C35.4547 11.4331 36.283 11.3854 37.0843 11.5435C37.8856 11.7016 38.6338 12.0603 39.2588 12.5861V12.5861ZM39.3684 18.9678C38.8432 19.6016 38.142 20.0655 37.3533 20.3007C36.5646 20.536 35.7238 20.5321 34.9373 20.2896C34.1508 20.0471 33.4538 19.5768 32.9346 18.9382C32.4153 18.2996 32.0971 17.5213 32.0201 16.7019C31.9432 15.8824 32.1109 15.0585 32.5021 14.3344C32.8933 13.6103 33.4905 13.0184 34.2181 12.6336C34.9457 12.2489 35.771 12.0885 36.5897 12.1727C37.4085 12.257 38.1838 12.5821 38.8178 13.107C39.2392 13.4554 39.5877 13.8835 39.8435 14.3667C40.0993 14.85 40.2573 15.3789 40.3084 15.9233C40.3595 16.4676 40.3028 17.0167 40.1415 17.5392C39.9802 18.0616 39.7175 18.5471 39.3684 18.9678Z" stroke="#CCCCCC" stroke-width="0.296" stroke-linejoin="round"/>
<path d="M115.869 131.425C115.792 131.341 115.731 131.243 115.692 131.136C115.653 131.029 115.636 130.915 115.642 130.801C115.648 130.687 115.676 130.575 115.726 130.472C115.776 130.369 115.846 130.278 115.932 130.202L119.907 126.837C120.023 127.015 120.155 127.182 120.3 127.337C120.443 127.494 120.6 127.638 120.768 127.766L117.095 131.455C117.014 131.535 116.917 131.599 116.81 131.641C116.704 131.683 116.59 131.704 116.476 131.701C116.361 131.698 116.249 131.672 116.144 131.625C116.04 131.577 115.947 131.509 115.869 131.425V131.425Z" stroke="#CCCCCC" stroke-width="0.296" stroke-linejoin="round"/>
<path d="M125.827 127.528C125.391 127.94 124.865 128.244 124.291 128.416C123.348 128.709 122.33 128.644 121.432 128.234C120.534 127.824 119.819 127.097 119.423 126.193C119.027 125.288 118.978 124.27 119.286 123.332C119.594 122.394 120.236 121.602 121.091 121.108C121.946 120.614 122.953 120.452 123.919 120.654C124.885 120.855 125.744 121.406 126.33 122.2C126.916 122.995 127.188 123.977 127.096 124.96C127.003 125.943 126.551 126.857 125.827 127.528ZM120.715 126.954C120.263 126.468 119.965 125.859 119.86 125.204C119.754 124.549 119.845 123.877 120.121 123.274C120.397 122.671 120.846 122.163 121.411 121.815C121.975 121.467 122.631 121.294 123.294 121.318C123.957 121.343 124.598 121.563 125.136 121.952C125.673 122.341 126.083 122.88 126.314 123.502C126.545 124.124 126.586 124.801 126.433 125.447C126.279 126.092 125.937 126.677 125.451 127.129C125.128 127.428 124.75 127.661 124.338 127.815C123.925 127.968 123.486 128.038 123.047 128.022C122.607 128.006 122.175 127.903 121.775 127.72C121.374 127.537 121.014 127.276 120.715 126.954V126.954Z" stroke="#CCCCCC" stroke-width="0.296" stroke-linejoin="round"/>
<g opacity="0.2">
<path opacity="0.2" d="M26.5637 120.396L19.7734 127.189" stroke="black" stroke-width="0.296" stroke-linejoin="round"/>
<path opacity="0.2" d="M19.7734 120.396L26.5637 127.189" stroke="black" stroke-width="0.296" stroke-linejoin="round"/>
</g>
<g opacity="0.2">
<path opacity="0.2" d="M139.931 56.459L133.141 63.2522" stroke="black" stroke-width="0.296" stroke-linejoin="round"/>
<path opacity="0.2" d="M133.141 56.459L139.931 63.2522" stroke="black" stroke-width="0.296" stroke-linejoin="round"/>
</g>
<g opacity="0.2">
<path opacity="0.2" d="M15.9074 17.6826L9.11719 24.4758" stroke="black" stroke-width="0.296" stroke-linejoin="round"/>
<path opacity="0.2" d="M9.11719 17.6826L15.9074 24.4758" stroke="black" stroke-width="0.296" stroke-linejoin="round"/>
</g>
<path d="M22.0742 60.6149C22.092 60.6149 21.8226 59.4872 21.799 59.4161C21.503 58.614 20.4758 57.2346 19.5198 57.2672C19.3613 57.2769 19.2067 57.3199 19.066 57.3935C18.9253 57.4671 18.8018 57.5695 18.7034 57.6941C18.6051 57.8188 18.5342 57.9627 18.4953 58.1166C18.4564 58.2706 18.4505 58.431 18.4778 58.5873C18.5696 59.2563 19.1912 59.8098 19.7447 60.1206C20.3989 60.4847 22.0713 60.6149 22.0742 60.6149Z" fill="#263238"/>
<path d="M23.6835 52.9006C22.7955 53.2528 22.4047 54.9311 22.461 55.7836C22.461 55.8576 22.6741 57.0002 22.6889 56.9913H22.7067C22.6445 57.2547 22.5764 57.5389 22.5113 57.8527C22.3959 58.4447 22.2715 59.081 22.1827 59.8033C22.0781 60.5776 22.0188 61.3575 22.0051 62.1387C21.9882 63.0144 22.0476 63.89 22.1827 64.7554C22.1841 64.7662 22.1841 64.7771 22.1827 64.7879C22.0584 64.5363 21.6795 63.8496 21.647 63.7993C21.1527 63.1037 19.794 62.044 18.8823 62.3193C18.7322 62.3711 18.5947 62.454 18.4786 62.5624C18.3626 62.6708 18.2706 62.8024 18.2086 62.9486C18.1467 63.0948 18.1161 63.2524 18.119 63.4112C18.1219 63.57 18.158 63.7264 18.2252 63.8703C18.4887 64.489 19.2346 64.859 19.8532 65.0129C20.5488 65.1846 22.0821 64.9004 22.2035 64.8797C22.3653 65.7565 22.5848 66.6218 22.8606 67.4697C23.0175 67.964 23.1921 68.4554 23.3727 68.9497C23.2572 68.7366 23.1507 68.5471 23.1329 68.5235C22.6415 67.8249 21.2829 66.7652 20.3683 67.0435C20.2182 67.095 20.0808 67.1775 19.9647 67.2856C19.8487 67.3937 19.7567 67.5251 19.6947 67.6711C19.6327 67.8171 19.6022 67.9745 19.605 68.133C19.6078 68.2916 19.644 68.4478 19.7111 68.5915C19.9775 69.2131 20.7235 69.5802 21.3421 69.7341C21.9607 69.888 23.2809 69.6749 23.6272 69.6127C23.6983 69.7992 23.7663 69.9886 23.8403 70.1781C24.1837 71.0661 24.533 71.9778 24.8497 72.8687C24.9622 73.1825 25.0599 73.4963 25.1457 73.81C25.0421 73.6206 24.9533 73.4637 24.9385 73.44C24.4471 72.7444 23.0855 71.6847 22.1739 71.96C22.0235 72.0115 21.8856 72.0941 21.7693 72.2024C21.653 72.3107 21.5608 72.4424 21.4988 72.5887C21.4368 72.7351 21.4063 72.8929 21.4094 73.0518C21.4125 73.2107 21.4491 73.3672 21.5167 73.5111C21.7802 74.1297 22.5261 74.4997 23.1447 74.6536C23.7634 74.8075 24.9563 74.6122 25.3677 74.5411C25.4595 74.8667 25.5542 75.1894 25.6282 75.5091C25.6726 75.7251 25.7347 75.9323 25.7673 76.1543C25.7999 76.3763 25.8443 76.5895 25.8798 76.8055C25.939 77.2199 26.0011 77.6491 26.0455 78.0576C26.0781 78.3536 26.1047 78.6111 26.1343 78.8834C26.0278 78.5697 25.8028 77.957 25.7791 77.9096C25.421 77.2583 24.9037 76.7084 24.2755 76.3112C24.2367 76.2368 24.1922 76.1655 24.1423 76.0981C24.051 75.9685 23.9336 75.8595 23.7977 75.778C23.6617 75.6966 23.5102 75.6446 23.3529 75.6253C23.1956 75.6061 23.036 75.6201 22.8844 75.6663C22.7328 75.7126 22.5926 75.7901 22.4728 75.8938C21.7713 76.5421 22.0081 78.2619 22.3663 79.0255C22.3899 79.0699 22.6623 79.5406 22.8576 79.8336L22.4551 79.3659C22.1768 79.0492 21.8927 78.7414 21.5878 78.4098L21.1231 77.9422C20.9721 77.7794 20.7915 77.6314 20.6258 77.4745C20.2291 77.1163 19.8118 76.7759 19.3855 76.4385C19.6608 76.1958 20.6287 75.3226 20.8981 74.7395C21.1675 74.1563 21.3421 73.3482 21.0224 72.7533C20.9521 72.6112 20.8526 72.4855 20.7305 72.3844C20.6084 72.2832 20.4664 72.2089 20.3137 72.1662C20.1611 72.1235 20.0011 72.1134 19.8442 72.1365C19.6874 72.1596 19.5372 72.2155 19.4033 72.3004C18.61 72.8332 18.5863 74.5589 18.8113 75.3788C18.8261 75.4291 19.0629 75.9974 19.1991 76.3082C18.9415 76.107 18.684 75.9087 18.4147 75.7163C17.6391 75.1598 16.8399 74.6181 16.0467 74.0735L15.3185 73.5732C15.4191 73.4874 16.5943 72.4721 16.8932 71.8179C17.1596 71.2259 17.3372 70.4297 17.0175 69.8347C16.9481 69.6914 16.8491 69.5644 16.7271 69.4621C16.6051 69.3598 16.4627 69.2845 16.3095 69.2411C16.1563 69.1978 15.9956 69.1874 15.838 69.2106C15.6805 69.2339 15.5297 69.2902 15.3955 69.3759C14.6022 69.9117 14.5785 71.6344 14.8035 72.4543C14.8212 72.5165 15.1646 73.3423 15.2623 73.5377C14.7265 73.1677 14.1996 72.7947 13.6935 72.404C13.0087 71.8819 12.3581 71.3163 11.7458 70.7109C11.7902 70.6695 13.0215 69.6157 13.3264 68.9349C13.5928 68.3429 13.7734 67.5467 13.4537 66.9517C13.3821 66.8119 13.2822 66.6886 13.1604 66.5895C13.0386 66.4903 12.8975 66.4176 12.7461 66.3759C12.5948 66.3341 12.4363 66.3243 12.281 66.347C12.1256 66.3697 11.9766 66.4244 11.8435 66.5077C11.0531 67.0435 11.0295 68.7662 11.2515 69.5861C11.2692 69.6512 11.6392 70.5303 11.7162 70.6843C11.6807 70.6487 11.6392 70.6162 11.6067 70.5807C11.009 69.955 10.4681 69.2775 9.9905 68.556C9.7241 68.1623 9.4873 67.7687 9.26826 67.372C9.5169 67.1974 10.6476 66.3952 10.991 65.8239C11.3343 65.2527 11.583 64.4919 11.3343 63.8644C11.28 63.7151 11.1948 63.5789 11.0843 63.4647C10.9738 63.3505 10.8405 63.2608 10.693 63.2016C10.5456 63.1424 10.3873 63.115 10.2285 63.121C10.0697 63.1271 9.91397 63.1666 9.77146 63.2369C8.9249 63.6809 8.71474 65.3918 8.85978 66.2324C8.85978 66.2768 8.9989 66.7327 9.09954 67.0642C9.00482 66.8866 8.90122 66.706 8.80354 66.5373C8.4661 65.8979 8.21154 65.2911 7.96586 64.7613C7.83562 64.4653 7.72314 64.1693 7.6225 63.9088C7.77938 63.6128 8.3921 62.4051 8.43354 61.7539C8.47498 61.1027 8.34474 60.2947 7.84154 59.8566C7.72496 59.7486 7.58689 59.6665 7.43636 59.6156C7.28583 59.5647 7.12624 59.5462 6.96806 59.5613C6.80988 59.5764 6.65667 59.6247 6.51848 59.7031C6.38029 59.7816 6.26023 59.8883 6.16618 60.0164C5.61858 60.8008 6.21946 62.417 6.7345 63.0948C6.7789 63.154 7.58402 63.9828 7.5929 63.9828V63.9651C7.68466 64.2196 7.78826 64.4919 7.90666 64.7879C8.12866 65.3355 8.38322 65.9483 8.70586 66.5995C9.04743 67.3024 9.42891 67.9853 9.84842 68.6448C10.3177 69.3806 10.8506 70.074 11.4409 70.7168L11.4616 70.7375C11.2189 70.5984 10.5263 70.2343 10.47 70.2106C9.67378 69.8999 7.95698 69.7696 7.35314 70.5066C7.25584 70.6318 7.18593 70.776 7.14795 70.9298C7.10997 71.0837 7.10477 71.2439 7.13268 71.3999C7.16059 71.5559 7.22099 71.7043 7.30997 71.8355C7.39894 71.9667 7.5145 72.0777 7.64914 72.1613C8.21154 72.5313 9.03738 72.4277 9.63826 72.2146C10.3161 71.9748 11.4379 70.8944 11.5267 70.8056C12.1445 71.4484 12.804 72.0496 13.5011 72.6053C13.9066 72.9309 14.3239 73.2476 14.7472 73.5584C14.5311 73.443 14.3387 73.3453 14.3121 73.3335C13.5159 73.0226 11.7991 72.8895 11.1952 73.6294C11.0979 73.7546 11.028 73.8988 10.99 74.0526C10.9521 74.2065 10.9469 74.3667 10.9748 74.5227C11.0027 74.6787 11.0631 74.8271 11.152 74.9583C11.241 75.0895 11.3566 75.2005 11.4912 75.2841C12.0536 75.6541 12.8795 75.5505 13.4803 75.3374C14.0812 75.1243 15.0995 74.2362 15.3629 73.9995C15.5287 74.1179 15.6885 74.2363 15.8543 74.3517C16.6387 74.9141 17.426 75.4706 18.1808 76.0389C18.4472 76.2402 18.7018 76.4474 18.9563 76.6546C18.7669 76.5539 18.6071 76.4711 18.5804 76.4622C17.7842 76.1514 16.0674 76.0182 15.4635 76.7582C15.3662 76.8835 15.2962 77.0279 15.2582 77.1821C15.2202 77.3362 15.215 77.4965 15.2429 77.6528C15.2708 77.809 15.3312 77.9577 15.4202 78.0891C15.5092 78.2206 15.6248 78.3319 15.7595 78.4158C16.3249 78.7858 17.1478 78.6822 17.7487 78.4691C18.3495 78.2559 19.2287 77.436 19.5424 77.1489C19.797 77.3679 20.0545 77.587 20.2913 77.8119C20.4511 77.9688 20.6139 78.1079 20.7649 78.2767C20.9159 78.4454 21.0609 78.5963 21.2178 78.7562C21.496 79.0699 21.7831 79.3955 22.0466 79.7093C22.2301 79.9254 22.4018 80.1355 22.5764 80.3487C22.313 80.1444 21.7891 79.7566 21.7417 79.733C21.0047 79.3038 19.3263 78.913 18.6159 79.5554C18.5013 79.6651 18.4111 79.7977 18.3511 79.9446C18.2912 80.0915 18.2628 80.2493 18.2678 80.4079C18.2728 80.5665 18.3111 80.7222 18.3803 80.865C18.4495 81.0078 18.5479 81.1344 18.6692 81.2367C19.1695 81.6895 20.0012 81.7102 20.6258 81.5918C21.3155 81.4586 22.5409 80.6003 22.6978 80.4937C22.9938 80.843 23.2572 81.1893 23.5118 81.5178C23.8463 81.947 24.1541 82.3555 24.4294 82.7344C24.6129 82.7048 24.8349 82.6634 25.0954 82.616C24.7579 82.172 24.3791 81.6866 23.9558 81.1656C23.6598 80.8074 23.3638 80.4315 23.0234 80.0467C23.3347 79.6794 23.6252 79.295 23.8936 78.8953C24.5715 79.1351 25.9656 79.0995 26.1521 79.0936C26.1965 79.5435 26.235 79.9816 26.2646 80.396C26.3179 81.1123 26.3563 81.7665 26.38 82.3496L26.972 82.2075C26.9335 81.6481 26.8862 81.0235 26.8211 80.3487C26.7767 79.8899 26.7204 79.4014 26.6583 78.9012C26.8359 78.8509 28.2774 78.4276 28.8102 77.9718C29.2956 77.5574 29.7959 76.8943 29.7574 76.2224C29.7529 76.0637 29.7152 75.9077 29.6467 75.7646C29.5781 75.6214 29.4803 75.4942 29.3595 75.3912C29.2386 75.2883 29.0975 75.2118 28.9453 75.1669C28.7931 75.1219 28.6331 75.1094 28.4757 75.1302C27.5315 75.2841 26.7885 76.8381 26.6612 77.6817C26.6612 77.732 26.6316 78.2737 26.6227 78.6289C26.5961 78.4247 26.5754 78.2263 26.5458 78.0162C26.4895 77.5988 26.4215 77.1844 26.3475 76.7404C26.306 76.5273 26.2646 76.3112 26.2202 76.0922C26.1758 75.8731 26.1166 75.6511 26.0633 75.4262C25.9301 74.9111 25.7673 74.3961 25.5986 73.8811C25.9627 73.8307 27.2532 73.6354 27.7979 73.2891C28.3425 72.9427 28.9375 72.3744 28.9996 71.7025C29.0191 71.5451 29.0054 71.3853 28.9593 71.2335C28.9131 71.0818 28.8357 70.9414 28.7319 70.8214C28.6281 70.7014 28.5003 70.6046 28.3568 70.5371C28.2132 70.4696 28.0571 70.433 27.8985 70.4297C26.9424 70.4297 25.9715 71.8623 25.717 72.6763C25.717 72.7267 25.5838 73.3335 25.5275 73.6679C25.421 73.3719 25.3174 73.0493 25.199 72.7385C24.8615 71.8505 24.4915 70.9625 24.1275 70.0597C24.015 69.7874 23.9084 69.5121 23.7989 69.2398C23.9262 69.222 25.4654 69.0237 26.0751 68.6478C26.6168 68.3103 27.2147 67.7331 27.2769 67.0612C27.2964 66.9038 27.2826 66.744 27.2365 66.5923C27.1904 66.4405 27.113 66.3001 27.0092 66.1801C26.9054 66.0602 26.7776 65.9633 26.634 65.8958C26.4905 65.8284 26.3344 65.7918 26.1758 65.7884C25.2197 65.7884 24.2488 67.2211 23.9943 68.0351C23.9765 68.0972 23.8078 68.9674 23.7782 69.1924C23.5355 68.6004 23.3016 67.9847 23.0944 67.3809C22.8105 66.567 22.5802 65.7355 22.4047 64.8915C22.4669 64.8915 24.0742 64.6843 24.6958 64.2995C25.2375 63.965 25.8354 63.3849 25.8975 62.713C25.9175 62.5555 25.9041 62.3955 25.8582 62.2436C25.8122 62.0916 25.7348 61.951 25.6309 61.8309C25.5271 61.7109 25.3991 61.614 25.2553 61.5467C25.1115 61.4794 24.9552 61.4431 24.7964 61.4402C23.8403 61.4402 22.8695 62.8728 22.6149 63.6868C22.5971 63.7519 22.4166 64.6903 22.3959 64.8708C22.3959 64.8205 22.3722 64.7702 22.3633 64.7228C22.2099 63.872 22.1327 63.0092 22.1324 62.1447C22.1324 61.6651 22.1324 61.2093 22.1768 60.7653C22.4728 60.7653 23.867 60.712 24.4679 60.4249C25.0687 60.1378 25.6992 59.6405 25.8324 58.9804C25.8699 58.8262 25.8745 58.6658 25.8458 58.5097C25.817 58.3536 25.7557 58.2053 25.6657 58.0746C25.5757 57.9438 25.4592 57.8335 25.3237 57.7509C25.1882 57.6683 25.0367 57.6152 24.8793 57.5951C23.9291 57.4975 22.8073 58.8087 22.4639 59.5902C22.4462 59.6316 22.3041 60.0845 22.2064 60.416C22.2242 60.2177 22.236 60.0105 22.2567 59.824C22.3307 59.1047 22.4403 58.4506 22.5527 57.8734C22.6149 57.5448 22.6771 57.2488 22.7363 56.9854C23.0323 56.8226 24.2163 56.1536 24.6011 55.6327C24.9859 55.1117 25.3322 54.3687 25.1487 53.7205C25.1135 53.5662 25.0464 53.421 24.9516 53.2942C24.8568 53.1675 24.7364 53.0621 24.5983 52.9848C24.4602 52.9075 24.3074 52.8601 24.1498 52.8456C23.9922 52.8311 23.8334 52.8498 23.6835 52.9006Z" fill="#263238"/>
<path d="M6.89405 68.2044C7.63997 68.1482 9.10813 67.3312 9.10813 67.3312C9.10813 67.3312 8.27637 66.529 8.22013 66.4846C7.53637 65.9755 5.91429 65.3924 5.13581 65.9489C5.00938 66.0446 4.90449 66.1658 4.82796 66.3046C4.75142 66.4435 4.70494 66.5969 4.69154 66.7549C4.67815 66.9129 4.69813 67.0719 4.75019 67.2217C4.80225 67.3715 4.88522 67.5086 4.99373 67.6242C5.43477 68.1334 6.25765 68.2488 6.89405 68.2044Z" fill="#263238"/>
<path d="M71.084 21.9039C71.084 21.9187 71.901 20.8738 71.9454 20.7998C72.4456 19.9681 72.9281 18.0648 72.2118 17.2478C72.0889 17.1151 71.9395 17.0097 71.7732 16.9384C71.607 16.8671 71.4276 16.8316 71.2468 16.8341C71.0659 16.8366 70.8876 16.8771 70.7234 16.953C70.5592 17.0288 70.4128 17.1384 70.2937 17.2745C69.7698 17.8339 69.7283 18.7811 69.8497 19.4945C69.9947 20.3173 71.081 21.9039 71.084 21.9039Z" fill="#263238"/>
<path d="M79.0513 17.7601C78.1012 17.2273 76.337 18.0857 75.6237 18.7487C75.5615 18.805 74.7001 19.8084 74.7209 19.8173H74.7416C74.4456 19.9505 74.1496 20.0955 73.8388 20.2613C73.2468 20.575 72.5778 20.9332 71.8763 21.3713C71.1158 21.8347 70.3834 22.3427 69.6829 22.8927C68.8926 23.5081 68.1595 24.1937 67.4925 24.941L67.4689 24.9677C67.5991 24.6717 67.9365 23.8518 67.9543 23.7837C68.2207 22.8483 68.1793 20.8858 67.2735 20.282C67.1199 20.1863 66.9478 20.1239 66.7685 20.099C66.5892 20.0741 66.4066 20.0872 66.2327 20.1375C66.0588 20.1877 65.8974 20.274 65.759 20.3907C65.6206 20.5074 65.5083 20.6519 65.4294 20.8148C65.0713 21.4926 65.2814 22.4162 65.5893 23.0733C65.9356 23.8162 67.2883 24.9677 67.3949 25.0594C66.7337 25.8305 66.1256 26.6454 65.5745 27.4985C65.2489 27.9928 64.9381 28.5019 64.6332 29.014C64.7368 28.7594 64.8285 28.5315 64.8374 28.496C65.1009 27.5606 65.0624 25.5982 64.1566 24.9943C64.003 24.8989 63.8312 24.8368 63.6521 24.812C63.473 24.7871 63.2907 24.8 63.117 24.85C62.9432 24.8999 62.7819 24.9857 62.6433 25.1018C62.5047 25.2179 62.3921 25.3618 62.3125 25.5242C61.9544 26.205 62.1645 27.1285 62.4724 27.7856C62.7802 28.4427 63.9169 29.458 64.2188 29.7214C64.1033 29.9198 63.9849 30.1151 63.8725 30.3134C63.3219 31.2695 62.7773 32.2226 62.2149 33.1402C62.0165 33.4658 61.8093 33.7766 61.6051 34.0904C61.6969 33.8625 61.7738 33.6701 61.7827 33.6405C62.0461 32.7051 62.0076 30.7426 61.0989 30.1388C60.9458 30.0425 60.7741 29.9797 60.5951 29.9543C60.416 29.929 60.2336 29.9418 60.0598 29.9918C59.886 30.0418 59.7247 30.1279 59.5865 30.2446C59.4483 30.3612 59.3363 30.5057 59.2578 30.6686C58.8967 31.3494 59.1069 32.273 59.4147 32.9301C59.7225 33.5872 60.7496 34.5048 61.1078 34.8186C60.8888 35.1323 60.6668 35.4461 60.4389 35.7391C60.279 35.9374 60.1429 36.1387 59.9682 36.3311L59.4739 36.8994C59.1453 37.2487 58.8108 37.6098 58.4823 37.9414C58.2573 38.1752 58.0383 38.3942 57.8163 38.6133C58.0176 38.2936 58.4083 37.6572 58.4231 37.601C58.7497 36.8104 58.8669 35.9489 58.7635 35.0998C58.8051 35.0138 58.8369 34.9235 58.8582 34.8304C58.9083 34.6565 58.9211 34.4741 58.8959 34.2949C58.8707 34.1157 58.808 33.9438 58.712 33.7905C58.6159 33.6372 58.4886 33.5058 58.3383 33.405C58.1881 33.3042 58.0183 33.2362 57.84 33.2054C56.7625 33.0514 55.4216 34.487 54.9954 35.3602C54.9717 35.4106 54.7586 35.9996 54.6313 36.3755C54.6728 36.1417 54.7172 35.9197 54.7557 35.6799C54.8356 35.2093 54.9037 34.7357 54.9777 34.2266C55.0073 33.9809 55.0339 33.7322 55.0605 33.4806C55.0872 33.229 55.099 32.9656 55.1168 32.7051C55.1493 32.1131 55.1523 31.4826 55.1434 30.864C55.5548 30.935 57.026 31.16 57.7305 30.9824C58.4349 30.8048 59.2815 30.3904 59.5775 29.6682C59.6534 29.504 59.6938 29.3257 59.696 29.1449C59.6983 28.9641 59.6623 28.7848 59.5905 28.6188C59.5187 28.4529 59.4127 28.3039 59.2793 28.1818C59.146 28.0596 58.9884 27.967 58.8168 27.9099C57.7749 27.5932 56.2327 28.7979 55.6792 29.606C55.6436 29.6563 55.3121 30.275 55.1345 30.6154C55.1345 30.2454 55.1168 29.8724 55.096 29.4965C55.0339 28.4102 54.9392 27.312 54.8474 26.2168C54.8178 25.8823 54.7941 25.5478 54.7675 25.2134C54.9155 25.24 56.656 25.5508 57.4493 25.3466C58.1508 25.166 58.9973 24.7546 59.2963 24.0323C59.3717 23.8679 59.4115 23.6895 59.4134 23.5087C59.4152 23.3278 59.3789 23.1487 59.3068 22.9828C59.2348 22.8169 59.1286 22.6681 58.9952 22.546C58.8618 22.4239 58.7042 22.3312 58.5326 22.2741C57.4936 21.9544 55.9515 23.1621 55.395 23.9702C55.3536 24.0294 54.874 24.9203 54.7645 25.1542C54.7083 24.4171 54.6609 23.6742 54.6432 22.9549C54.6122 21.973 54.6459 20.9901 54.7438 20.0126C54.8119 20.0126 56.6264 20.359 57.4374 20.1488C58.1419 19.9712 58.9885 19.5568 59.2845 18.8375C59.3604 18.6732 59.4008 18.4947 59.4031 18.3136C59.4053 18.1326 59.3694 17.9532 59.2976 17.787C59.2258 17.6208 59.1198 17.4716 58.9864 17.3491C58.8531 17.2267 58.6954 17.1337 58.5237 17.0763C57.4818 16.7596 55.9397 17.9643 55.3861 18.7724C55.3417 18.8375 54.8267 19.7936 54.7468 19.9742C54.7468 19.9179 54.7468 19.8587 54.7468 19.8025C54.8713 18.8245 55.0833 17.8596 55.3802 16.9194C55.5371 16.3985 55.7147 15.9101 55.9012 15.4394C56.2327 15.5371 57.7541 15.9604 58.503 15.8538C59.2519 15.7473 60.1103 15.4246 60.4833 14.7527C60.5765 14.5976 60.6361 14.4245 60.6581 14.2449C60.6801 14.0652 60.664 13.8829 60.611 13.7098C60.558 13.5367 60.4691 13.3767 60.3502 13.2402C60.2313 13.1038 60.085 12.9938 59.9208 12.9175C58.9204 12.4883 57.2568 13.5273 56.6145 14.2614C56.579 14.2998 56.2712 14.7438 56.0521 15.0724C56.138 14.8593 56.2238 14.6402 56.3096 14.439C56.6353 13.6812 56.9786 13.0093 57.2894 12.4173C57.47 12.0798 57.6357 11.7809 57.7985 11.4997C58.1715 11.4257 59.6781 11.103 60.2849 10.6709C60.8917 10.2387 61.5133 9.54904 61.534 8.77944C61.5466 8.59936 61.5212 8.41865 61.4595 8.249C61.3978 8.07934 61.3012 7.92452 61.176 7.79452C61.0507 7.66452 60.8996 7.56225 60.7323 7.49431C60.5651 7.42637 60.3854 7.39427 60.205 7.40008C59.1187 7.48 58.133 9.17608 57.8903 10.1144C57.8696 10.1973 57.7068 11.5086 57.7245 11.5056H57.7482C57.5884 11.772 57.4196 12.0591 57.242 12.3758C56.9194 12.9678 56.5583 13.6309 56.2179 14.3827C55.8383 15.1921 55.5072 16.0234 55.2263 16.8721C54.906 17.8173 54.6703 18.789 54.5218 19.7758C54.5233 19.7876 54.5233 19.7996 54.5218 19.8114C54.4715 19.4976 54.2969 18.6274 54.2761 18.5563C53.9801 17.6298 52.8642 16.0137 51.7749 16.0107C51.5943 16.0151 51.4167 16.0573 51.2534 16.1346C51.0902 16.212 50.945 16.3227 50.8273 16.4597C50.7095 16.5967 50.6219 16.7569 50.5699 16.9299C50.518 17.1029 50.503 17.2849 50.5258 17.4641C50.6028 18.2278 51.2865 18.8849 51.9052 19.2638C52.6037 19.69 54.3679 19.9061 54.507 19.9209C54.382 20.9292 54.3247 21.9448 54.3353 22.9608C54.3353 23.5528 54.3561 24.1448 54.3856 24.7368C54.3324 24.4645 54.2821 24.2247 54.2702 24.1892C53.9742 23.2657 52.8583 21.6495 51.769 21.6466C51.5882 21.6512 51.4104 21.6938 51.2472 21.7717C51.084 21.8496 50.939 21.9611 50.8217 22.0987C50.7044 22.2364 50.6175 22.3972 50.5665 22.5708C50.5155 22.7443 50.5016 22.9266 50.5258 23.1058C50.5998 23.8695 51.2865 24.5237 51.9052 24.9026C52.5238 25.2814 54.0334 25.4946 54.43 25.5538C54.43 25.7817 54.4537 26.0096 54.4685 26.2405C54.5366 27.3386 54.6077 28.4338 54.6461 29.4965C54.6609 29.8754 54.6461 30.2513 54.6609 30.6242C54.6106 30.3845 54.5692 30.1832 54.5603 30.1506C54.2643 29.2242 53.1484 27.611 52.0591 27.608C51.8781 27.6122 51.7001 27.6545 51.5367 27.7323C51.3732 27.81 51.228 27.9214 51.1107 28.0592C50.9933 28.197 50.9064 28.358 50.8556 28.5318C50.8047 28.7055 50.7912 28.888 50.8159 29.0673C50.8899 29.831 51.5737 30.4851 52.1953 30.864C52.8169 31.2429 54.1755 31.456 54.6491 31.5034C54.6491 31.8882 54.6254 32.273 54.5988 32.643C54.5751 32.8975 54.5692 33.1402 54.5277 33.3948C54.4863 33.6494 54.4626 33.895 54.43 34.1407C54.3501 34.6114 54.2702 35.0998 54.1814 35.5556C54.1192 35.8753 54.0571 36.1802 53.9949 36.485C53.9949 36.1062 53.9505 35.3662 53.9416 35.301C53.7907 34.342 52.9323 32.5749 51.8548 32.4091C51.6756 32.3862 51.4935 32.4014 51.3204 32.4535C51.1474 32.5056 50.9872 32.5936 50.8504 32.7117C50.7136 32.8298 50.6032 32.9754 50.5263 33.139C50.4495 33.3026 50.408 33.4805 50.4045 33.6612C50.363 34.4308 50.9402 35.1797 51.4967 35.6474C52.1065 36.1624 53.7463 36.633 53.9535 36.6893C53.8469 37.1954 53.7404 37.6838 53.6308 38.1456C53.4888 38.7534 53.3496 39.3158 53.2135 39.8328C53.3704 39.9719 53.5657 40.1288 53.8055 40.333C53.9564 39.7203 54.1015 39.0366 54.2732 38.2877C54.3827 37.7756 54.4892 37.225 54.5928 36.6597C55.1411 36.6715 55.6896 36.6518 56.2357 36.6005C56.5109 37.373 57.5469 38.5866 57.6801 38.7406C57.3161 39.1047 56.9549 39.4539 56.6086 39.7766C56.0166 40.339 55.4631 40.8392 54.9628 41.2803C55.1434 41.4194 55.3269 41.5762 55.5193 41.7094C55.99 41.2743 56.505 40.7859 57.0585 40.2295C57.4315 39.8624 57.8222 39.4628 58.2218 39.0455C58.3935 39.1668 59.7995 40.1377 60.5898 40.2827C61.3061 40.413 62.2504 40.3834 62.8187 39.8624C62.9556 39.7448 63.0664 39.5997 63.1438 39.4365C63.2211 39.2734 63.2634 39.0959 63.2679 38.9154C63.2724 38.7349 63.2389 38.5555 63.1697 38.3887C63.1005 38.2219 62.997 38.0716 62.866 37.9473C62.052 37.2221 60.1428 37.6809 59.314 38.1723C59.2637 38.2019 58.7635 38.5778 58.4497 38.8205C58.6125 38.6488 58.7724 38.486 58.9352 38.3084C59.2637 37.9591 59.5804 37.6039 59.9238 37.2191C60.0807 37.0297 60.2435 36.8373 60.4033 36.6271C60.5632 36.417 60.7201 36.2157 60.8799 36.0114C61.241 35.523 61.5814 35.0139 61.9159 34.49C62.2119 34.786 63.3189 35.7776 64.0086 36.0174C64.6983 36.2571 65.6366 36.3666 66.273 35.9404C66.427 35.8452 66.5592 35.7187 66.661 35.569C66.7628 35.4193 66.8318 35.2498 66.8637 35.0716C66.8955 34.8934 66.8894 34.7104 66.8458 34.5347C66.8022 34.3591 66.722 34.1945 66.6105 34.0519C65.9178 33.2142 63.9613 33.377 63.0585 33.7382C63.0022 33.7589 62.3836 34.0904 62.0491 34.2798C62.2445 33.9631 62.4457 33.6494 62.6411 33.3238C63.1887 32.3854 63.7126 31.4146 64.2395 30.4526C64.4023 30.1566 64.5681 29.8606 64.7309 29.5646C64.8374 29.6682 66.1191 30.8877 66.8917 31.1541C67.5784 31.3938 68.5167 31.5063 69.156 31.0771C69.3097 30.9816 69.4415 30.8549 69.543 30.7052C69.6445 30.5555 69.7134 30.3861 69.7453 30.208C69.7771 30.03 69.7711 29.8472 69.7277 29.6716C69.6844 29.496 69.6046 29.3314 69.4935 29.1886C68.7979 28.351 66.8295 28.5138 65.9415 28.8749C65.8734 28.9015 64.9824 29.3781 64.7575 29.5113C65.1186 28.866 65.4827 28.2266 65.8675 27.608C66.3858 26.7737 66.9562 25.9729 67.5754 25.2104C67.6257 25.2607 68.9577 26.5365 69.7481 26.8118C70.4348 27.0515 71.3731 27.164 72.0125 26.7348C72.1665 26.6396 72.2987 26.5131 72.4004 26.3634C72.5022 26.2137 72.5713 26.0442 72.6031 25.866C72.6349 25.6878 72.6289 25.5048 72.5852 25.3291C72.5416 25.1535 72.4614 24.9889 72.3499 24.8463C71.6573 24.0086 69.6859 24.1714 68.7979 24.5326C68.7269 24.5592 67.7708 25.0742 67.6139 25.1808C67.6524 25.1364 67.6849 25.0861 67.7205 25.0446C68.3635 24.2984 69.0717 23.6109 69.8369 22.9904C70.2572 22.6411 70.6745 22.3303 71.0889 22.0402C71.3139 22.3037 72.3499 23.4966 73.0337 23.8162C73.7174 24.1359 74.6113 24.3431 75.2921 23.9879C75.4436 23.9046 75.5767 23.7916 75.6837 23.6559C75.7906 23.5201 75.8692 23.3641 75.9148 23.1974C75.9603 23.0306 75.9719 22.8564 75.9489 22.6851C75.9258 22.5138 75.8686 22.3489 75.7805 22.2001C75.1885 21.2914 73.2201 21.2381 72.2848 21.4986C72.2315 21.4986 71.7313 21.7117 71.3672 21.8626C71.5566 21.7354 71.749 21.5962 71.9325 21.4778C72.6193 21.025 73.2793 20.655 73.8654 20.3294C74.1999 20.1488 74.5048 19.9919 74.7919 19.8469C75.1471 19.9919 76.5827 20.5543 77.3257 20.5277C78.0686 20.501 78.9685 20.2672 79.3977 19.6397C79.5068 19.4966 79.5848 19.3322 79.6267 19.1571C79.6685 18.9821 79.6733 18.8002 79.6407 18.6232C79.6081 18.4462 79.5388 18.278 79.4373 18.1293C79.3358 17.9807 79.2043 17.8549 79.0513 17.7601Z" fill="#263238"/>
<path d="M53.4797 13.9126C54.0717 14.5342 55.8477 15.2446 55.8477 15.2476C55.8477 15.2505 55.9601 13.9333 55.9572 13.8504C55.9157 12.8796 55.2675 11.0266 54.2167 10.7365C54.0413 10.6934 53.8588 10.6876 53.681 10.7196C53.5032 10.7516 53.3341 10.8206 53.1847 10.9223C53.0354 11.0239 52.9091 11.1558 52.814 11.3094C52.719 11.463 52.6574 11.6349 52.6331 11.814C52.494 12.5658 52.9913 13.3798 53.4797 13.9126Z" fill="#263238"/>
<path d="M139.217 88.2679C139.217 88.2679 139.809 87.5071 139.854 87.4539C140.221 86.8411 140.576 85.4381 140.049 84.8343C139.959 84.7361 139.849 84.658 139.727 84.6051C139.604 84.5522 139.472 84.5257 139.339 84.5274C139.206 84.5291 139.074 84.5589 138.953 84.6148C138.832 84.6708 138.725 84.7516 138.637 84.852C138.249 85.2664 138.217 85.962 138.308 86.4889C138.415 87.1075 139.217 88.2679 139.217 88.2679Z" fill="#263238"/>
<path d="M145.089 85.2276C144.39 84.8339 143.088 85.4673 142.564 85.9557C142.517 85.9972 141.883 86.7372 141.898 86.7431H141.913C141.706 86.8408 141.487 86.9503 141.25 87.0716C140.812 87.3025 140.32 87.566 139.802 87.8886C139.241 88.2291 138.701 88.6038 138.186 89.0104C137.604 89.4602 137.065 89.9615 136.573 90.5082L136.555 90.5289C136.653 90.3128 136.902 89.7061 136.916 89.6557C137.109 88.9661 137.082 87.5216 136.413 87.0776C136.3 87.0068 136.174 86.9605 136.042 86.9417C135.91 86.923 135.776 86.9322 135.647 86.9688C135.519 87.0053 135.4 87.0684 135.298 87.154C135.196 87.2395 135.113 87.3456 135.054 87.4653C134.791 87.9685 134.945 88.6493 135.173 89.1318C135.427 89.6794 136.422 90.5289 136.502 90.594C136.017 91.1633 135.569 91.7635 135.161 92.3908C134.92 92.7578 134.688 93.1308 134.465 93.5096L134.619 93.1278C134.812 92.4381 134.782 90.9936 134.116 90.5467C134.003 90.476 133.876 90.4299 133.744 90.4113C133.612 90.3928 133.478 90.4023 133.35 90.4391C133.222 90.476 133.103 90.5394 133.001 90.6252C132.899 90.7111 132.816 90.8174 132.758 90.9374C132.494 91.4406 132.648 92.1214 132.873 92.6039C133.098 93.0864 133.939 93.8382 134.164 94.0306L133.906 94.4687C133.5 95.1702 133.101 95.8717 132.686 96.5407C132.538 96.7804 132.39 97.0084 132.237 97.2393C132.305 97.0735 132.361 96.9432 132.367 96.9107C132.562 96.221 132.533 94.7736 131.864 94.3296C131.751 94.2589 131.624 94.2127 131.492 94.1942C131.36 94.1757 131.225 94.1851 131.097 94.222C130.969 94.2589 130.85 94.3223 130.748 94.4081C130.646 94.494 130.563 94.6003 130.505 94.7203C130.242 95.2205 130.395 95.9043 130.623 96.3868C130.851 96.8692 131.606 97.5441 131.87 97.775C131.707 98.0089 131.547 98.2397 131.378 98.4558C131.26 98.6008 131.156 98.7518 131.029 98.8909L130.665 99.3083C130.425 99.5658 130.176 99.8322 129.937 100.078C129.771 100.25 129.608 100.409 129.445 100.572C129.593 100.335 129.874 99.8677 129.892 99.8263C130.132 99.2432 130.219 98.6083 130.144 97.9822C130.174 97.9187 130.196 97.8522 130.212 97.7839C130.247 97.6567 130.255 97.5237 130.235 97.3932C130.216 97.2628 130.17 97.1378 130.099 97.0264C130.029 96.9149 129.936 96.8194 129.826 96.746C129.717 96.6725 129.593 96.6228 129.463 96.5999C128.667 96.4844 127.687 97.5412 127.367 98.1864C127.347 98.222 127.193 98.6571 127.098 98.9324C127.128 98.7637 127.16 98.5979 127.19 98.4233C127.249 98.074 127.299 97.7277 127.353 97.3517C127.374 97.1722 127.395 96.9886 127.415 96.8012C127.438 96.6176 127.441 96.4193 127.456 96.2299C127.48 95.7829 127.483 95.3419 127.474 94.8742C127.77 94.9245 128.862 95.0932 129.383 94.96C129.904 94.8268 130.523 94.5161 130.742 93.9921C130.798 93.8712 130.828 93.7398 130.829 93.6065C130.831 93.4733 130.805 93.3412 130.752 93.2188C130.699 93.0964 130.621 92.9866 130.523 92.8964C130.425 92.8063 130.309 92.7379 130.182 92.6956C129.416 92.4618 128.279 93.3587 127.871 93.9477C127.844 93.9833 127.598 94.4391 127.468 94.6907C127.468 94.4154 127.468 94.1431 127.441 93.8648C127.394 93.0656 127.323 92.2576 127.255 91.4495C127.234 91.2038 127.219 90.9552 127.199 90.7095C127.308 90.7302 128.59 90.9581 129.173 90.8072C129.691 90.674 130.316 90.3632 130.535 89.8392C130.59 89.7181 130.619 89.5866 130.621 89.4533C130.622 89.32 130.595 89.1879 130.542 89.0657C130.489 88.9434 130.411 88.8337 130.313 88.7436C130.215 88.6535 130.099 88.5851 129.972 88.5428C129.206 88.3089 128.069 89.2058 127.66 89.7948C127.631 89.8392 127.279 90.4934 127.196 90.6651C127.154 90.1204 127.119 89.5788 127.107 89.043C127.084 88.3199 127.108 87.5961 127.181 86.8763C127.231 86.8763 128.569 87.1308 129.167 86.9769C129.685 86.8437 130.307 86.53 130.526 86.009C130.582 85.8881 130.612 85.7567 130.613 85.6234C130.615 85.4902 130.589 85.358 130.536 85.2357C130.483 85.1133 130.405 85.0035 130.307 84.9133C130.209 84.8232 130.093 84.7547 129.966 84.7125C129.2 84.4787 128.063 85.3756 127.654 85.9616C127.622 86.009 127.243 86.7135 127.184 86.8496C127.184 86.8082 127.184 86.7638 127.184 86.7224C127.275 86.0025 127.431 85.2923 127.649 84.6C127.764 84.2152 127.897 83.8541 128.033 83.5078C128.276 83.5788 129.398 83.8896 129.951 83.8038C130.505 83.718 131.135 83.4871 131.411 82.9898C131.479 82.8755 131.523 82.748 131.539 82.6156C131.556 82.4832 131.544 82.3489 131.504 82.2215C131.465 82.0941 131.399 81.9764 131.311 81.8762C131.223 81.776 131.115 81.6955 130.993 81.64C130.256 81.3233 129.031 82.09 128.56 82.6287C128.534 82.6583 128.306 82.9868 128.143 83.2207C128.208 83.0638 128.27 82.901 128.335 82.753C128.575 82.1965 128.83 81.7022 129.058 81.273C129.188 81.0244 129.312 80.8053 129.43 80.5981C129.706 80.5419 130.816 80.3021 131.263 79.9884C131.71 79.6746 132.168 79.1596 132.183 78.5942C132.192 78.4612 132.172 78.328 132.126 78.2031C132.079 78.0782 132.007 77.9645 131.914 77.8693C131.821 77.7741 131.708 77.6996 131.584 77.6506C131.461 77.6016 131.328 77.5792 131.195 77.5848C130.392 77.644 129.655 78.8902 129.487 79.5858C129.487 79.645 129.354 80.6129 129.365 80.61H129.383C129.265 80.8073 129.14 81.0204 129.01 81.2493C128.773 81.6844 128.507 82.1758 128.255 82.7293C127.976 83.3234 127.732 83.9332 127.524 84.5556C127.29 85.2526 127.116 85.9687 127.006 86.6957C127.008 86.7046 127.008 86.7135 127.006 86.7224C126.968 86.4915 126.84 85.8344 126.826 85.7959C126.607 85.1151 125.784 83.9252 124.982 83.9222C124.849 83.9261 124.718 83.9578 124.598 84.0153C124.478 84.0727 124.371 84.1547 124.285 84.256C124.198 84.3572 124.134 84.4754 124.096 84.603C124.058 84.7305 124.047 84.8647 124.064 84.9967C124.12 85.562 124.626 86.0445 125.082 86.3228C125.597 86.6365 126.897 86.7964 126.997 86.8082C126.907 87.5506 126.864 88.2981 126.87 89.046C126.87 89.484 126.888 89.934 126.909 90.3632C126.87 90.1619 126.832 89.9843 126.826 89.9606C126.607 89.2769 125.784 88.0869 124.982 88.0869C124.848 88.0903 124.717 88.1217 124.597 88.1791C124.477 88.2364 124.37 88.3184 124.283 88.4197C124.197 88.5211 124.133 88.6395 124.095 88.7672C124.057 88.895 124.047 89.0293 124.064 89.1614C124.12 89.7238 124.623 90.2063 125.082 90.4845C125.541 90.7628 126.648 90.9256 126.941 90.964C126.941 91.1328 126.959 91.3015 126.971 91.4702C127.018 92.2783 127.071 93.0864 127.101 93.8796C127.101 94.1608 127.101 94.4361 127.101 94.7114C127.065 94.5338 127.036 94.3858 127.027 94.3621C126.811 93.6813 125.988 92.4914 125.186 92.4884C125.053 92.4923 124.922 92.524 124.802 92.5815C124.682 92.639 124.575 92.721 124.489 92.8222C124.402 92.9234 124.338 93.0416 124.3 93.1692C124.262 93.2968 124.251 93.4309 124.268 93.5629C124.324 94.1283 124.828 94.6108 125.284 94.889C125.739 95.1672 126.746 95.3123 127.092 95.3596C127.092 95.6556 127.077 95.925 127.057 96.2003C127.039 96.3868 127.033 96.5673 127.006 96.7538C126.98 96.9403 126.956 97.1208 126.932 97.3014C126.873 97.6507 126.814 98.0088 126.749 98.3463C126.704 98.5801 126.657 98.8051 126.613 99.03C126.613 98.7518 126.58 98.2072 126.574 98.1598C126.462 97.4524 125.828 96.1529 125.035 96.0286C124.903 96.012 124.769 96.0233 124.641 96.0619C124.514 96.1005 124.396 96.1654 124.295 96.2525C124.194 96.3395 124.113 96.4468 124.056 96.5674C124 96.6879 123.969 96.819 123.966 96.9521C123.937 97.5175 124.36 98.071 124.771 98.4144C125.183 98.7577 126.429 99.1425 126.58 99.184C126.503 99.554 126.423 99.9181 126.343 100.255C126.24 100.702 126.136 101.117 126.047 101.499C126.163 101.599 126.308 101.727 126.476 101.869C126.587 101.415 126.701 100.912 126.82 100.359C126.9 99.9832 126.98 99.5776 127.054 99.1603C127.459 99.1704 127.864 99.1555 128.267 99.1159C128.468 99.6872 129.232 100.581 129.33 100.694C129.06 100.963 128.797 101.22 128.542 101.457C128.104 101.872 127.696 102.242 127.329 102.564C127.459 102.668 127.598 102.774 127.74 102.881C128.084 102.561 128.466 102.203 128.871 101.801C129.146 101.531 129.436 101.235 129.729 100.93C129.857 101.019 130.893 101.735 131.473 101.842C132 101.937 132.695 101.916 133.113 101.531C133.214 101.445 133.297 101.338 133.354 101.218C133.412 101.098 133.443 100.967 133.446 100.833C133.45 100.7 133.425 100.567 133.373 100.444C133.322 100.321 133.245 100.211 133.148 100.119C132.556 99.5865 131.141 99.924 130.526 100.288C130.487 100.309 130.12 100.584 129.889 100.762L130.247 100.386C130.487 100.131 130.721 99.8677 130.976 99.5836L131.328 99.1603C131.449 99.0182 131.562 98.8643 131.68 98.7044C131.944 98.3463 132.195 97.9704 132.441 97.5856C132.666 97.7957 133.477 98.5328 133.986 98.7104C134.495 98.888 135.185 98.9679 135.655 98.6541C135.768 98.5836 135.865 98.4901 135.94 98.3797C136.014 98.2693 136.065 98.1444 136.088 98.0133C136.111 97.8821 136.107 97.7475 136.074 97.6182C136.042 97.4889 135.983 97.3679 135.901 97.2629C135.392 96.6443 133.947 96.7656 133.284 97.0291C133.243 97.0468 132.784 97.2896 132.538 97.4287C132.684 97.1948 132.834 96.964 132.971 96.7242C133.373 96.0316 133.761 95.3182 134.155 94.6078C134.273 94.3917 134.394 94.1756 134.516 93.9596C134.596 94.0365 135.54 94.9334 136.108 95.1436C136.614 95.3182 137.292 95.4011 137.778 95.0873C137.891 95.0168 137.988 94.9233 138.062 94.8129C138.137 94.7025 138.187 94.5776 138.21 94.4464C138.234 94.3153 138.229 94.1807 138.197 94.0514C138.164 93.9221 138.105 93.8011 138.023 93.6961C137.514 93.0775 136.073 93.1959 135.407 93.4623C135.356 93.483 134.699 93.8352 134.536 93.9329C134.803 93.4564 135.072 92.9857 135.356 92.5299C135.737 91.9117 136.158 91.3185 136.614 90.7539C136.653 90.7894 137.633 91.7307 138.216 91.9379C138.722 92.1125 139.4 92.1954 139.885 91.8816C139.998 91.8111 140.095 91.7176 140.17 91.6072C140.244 91.4968 140.295 91.372 140.318 91.2408C140.341 91.1096 140.336 90.975 140.304 90.8457C140.272 90.7165 140.213 90.5954 140.131 90.4904C139.622 89.8718 138.18 89.9932 137.514 90.2566C137.461 90.2773 136.756 90.6562 136.626 90.7332C136.653 90.7036 136.677 90.6651 136.706 90.6325C137.18 90.0839 137.701 89.5778 138.263 89.12C138.574 88.8624 138.882 88.6345 139.187 88.4214C139.352 88.6138 140.113 89.4929 140.619 89.7327C141.125 89.9724 141.783 90.1204 142.283 89.86C142.403 89.8026 142.51 89.7205 142.597 89.619C142.683 89.5175 142.747 89.3988 142.784 89.2709C142.822 89.1429 142.832 89.0085 142.814 88.8764C142.796 88.7443 142.75 88.6175 142.679 88.5043C142.238 87.8353 140.794 87.7968 140.101 87.9863C140.066 87.9863 139.696 88.1432 139.426 88.2556C139.566 88.1609 139.722 88.0603 139.844 87.9596C140.35 87.6281 140.835 87.3528 141.268 87.116C141.513 86.9799 141.738 86.8644 141.951 86.7579C142.212 86.8644 143.268 87.2788 143.819 87.2611C144.37 87.2433 145.03 87.0687 145.355 86.604C145.434 86.4981 145.49 86.377 145.519 86.2484C145.548 86.1198 145.55 85.9866 145.525 85.8571C145.5 85.7276 145.448 85.6048 145.373 85.4964C145.298 85.388 145.201 85.2965 145.089 85.2276Z" fill="#263238"/>
<path d="M126.239 82.3827C126.671 82.8415 127.98 83.3654 127.98 83.3654C127.98 83.3654 128.062 82.4004 128.059 82.3383C128.03 81.6219 127.55 80.2663 126.778 80.0413C126.648 80.0093 126.514 80.0051 126.383 80.0287C126.251 80.0524 126.127 80.1035 126.017 80.1786C125.907 80.2538 125.814 80.3513 125.744 80.4648C125.674 80.5784 125.629 80.7054 125.612 80.8375C125.508 81.3999 125.875 81.9919 126.239 82.3827Z" fill="#263238"/>
<path d="M87.3802 120.276C87.3802 120.276 86.6254 121.227 86.5839 121.295C86.1222 122.061 85.6782 123.819 86.3382 124.577C86.451 124.702 86.589 124.801 86.743 124.868C86.8971 124.935 87.0636 124.969 87.2316 124.966C87.3996 124.964 87.5652 124.926 87.7173 124.855C87.8695 124.784 88.0048 124.681 88.1142 124.554C88.5997 124.036 88.6382 123.162 88.5227 122.502C88.3836 121.727 87.3802 120.276 87.3802 120.276Z" fill="#263238"/>
<path d="M80.0336 124.083C80.9216 124.574 82.5378 123.787 83.1979 123.171C83.2541 123.118 84.0474 122.192 84.0296 122.186H84.0119C84.2694 122.064 84.5447 121.928 84.8407 121.774C85.3912 121.478 86.0069 121.159 86.6522 120.753C87.354 120.326 88.0301 119.857 88.6768 119.35C89.403 118.784 90.0784 118.156 90.6956 117.473L90.7163 117.447C90.5979 117.716 90.2841 118.477 90.2664 118.539C90.0236 119.403 90.0592 121.203 90.8968 121.768C91.038 121.857 91.1964 121.916 91.3617 121.939C91.527 121.963 91.6954 121.951 91.8558 121.905C92.0163 121.859 92.1651 121.779 92.2927 121.672C92.4202 121.564 92.5236 121.43 92.5959 121.28C92.9274 120.652 92.735 119.8 92.4508 119.208C92.1312 118.524 90.885 117.459 90.7844 117.376C91.3935 116.664 91.9551 115.912 92.4656 115.126C92.7616 114.67 93.0576 114.2 93.3329 113.726C93.2382 113.963 93.1524 114.173 93.1435 114.206C92.9008 115.067 92.9363 116.87 93.774 117.435C93.9151 117.524 94.0736 117.582 94.2388 117.606C94.4041 117.629 94.5725 117.618 94.7329 117.572C94.8934 117.525 95.0423 117.446 95.1698 117.338C95.2974 117.23 95.4007 117.097 95.473 116.947C95.8045 116.319 95.6121 115.467 95.328 114.875C95.0438 114.283 93.993 113.332 93.7148 113.099L94.0344 112.551C94.5406 111.663 95.0438 110.793 95.5618 109.943C95.7453 109.647 95.9377 109.351 96.1271 109.07C96.0413 109.277 95.9703 109.455 95.9614 109.484C95.7187 110.346 95.7542 112.148 96.5919 112.714C96.7331 112.803 96.8915 112.861 97.0568 112.885C97.222 112.908 97.3904 112.896 97.5509 112.85C97.7113 112.804 97.8602 112.725 97.9877 112.617C98.1153 112.509 98.2186 112.376 98.2909 112.225C98.6224 111.598 98.43 110.745 98.1459 110.139C97.8617 109.532 96.9145 108.688 96.583 108.398C96.7872 108.102 96.9915 107.806 97.2016 107.546C97.3467 107.365 97.4769 107.179 97.6367 107.004L98.0926 106.48C98.3886 106.16 98.7023 105.826 99.0043 105.518C99.2144 105.302 99.4157 105.104 99.62 104.899C99.4335 105.195 99.0842 105.787 99.0605 105.832C98.7617 106.562 98.6537 107.357 98.7467 108.141C98.7097 108.221 98.68 108.304 98.658 108.389C98.6114 108.55 98.5993 108.718 98.6225 108.884C98.6457 109.049 98.7036 109.208 98.7925 109.349C98.8815 109.491 98.9993 109.612 99.1383 109.704C99.2774 109.797 99.4344 109.859 99.5992 109.887C100.594 110.032 101.828 108.703 102.222 107.901C102.245 107.853 102.441 107.309 102.559 106.965C102.521 107.179 102.479 107.386 102.444 107.605C102.37 108.04 102.308 108.475 102.24 108.946C102.213 109.171 102.186 109.402 102.163 109.635C102.139 109.869 102.127 110.109 102.109 110.352C102.08 110.908 102.077 111.476 102.089 112.048C101.707 111.983 100.351 111.77 99.6999 111.938C99.0487 112.107 98.2702 112.495 97.9949 113.149C97.9242 113.3 97.8864 113.465 97.8839 113.632C97.8815 113.8 97.9145 113.965 97.9808 114.119C98.047 114.272 98.1451 114.41 98.2684 114.523C98.3918 114.636 98.5377 114.721 98.6964 114.774C99.6584 115.07 101.079 113.945 101.591 113.208C101.624 113.161 101.932 112.592 102.095 112.276C102.095 112.619 102.109 112.962 102.13 113.309C102.186 114.309 102.275 115.324 102.361 116.334C102.388 116.63 102.408 116.952 102.432 117.26C102.296 117.237 100.691 116.95 99.9604 117.136C99.3121 117.302 98.5307 117.695 98.2554 118.35C98.1852 118.501 98.1479 118.666 98.1459 118.833C98.144 119 98.1773 119.165 98.2439 119.319C98.3104 119.472 98.4086 119.609 98.532 119.722C98.6554 119.834 98.8012 119.919 98.9599 119.972C99.9189 120.268 101.343 119.143 101.855 118.406C101.893 118.353 102.334 117.518 102.447 117.317C102.5 117.997 102.544 118.675 102.559 119.347C102.589 120.252 102.558 121.158 102.467 122.058C102.405 122.058 100.73 121.742 99.9811 121.934C99.3328 122.1 98.5514 122.491 98.2791 123.145C98.2083 123.296 98.1705 123.461 98.1681 123.628C98.1656 123.795 98.1986 123.961 98.2649 124.115C98.3312 124.268 98.4292 124.406 98.5526 124.519C98.6759 124.632 98.8218 124.717 98.9806 124.77C99.9396 125.066 101.363 123.941 101.875 123.204C101.914 123.145 102.391 122.263 102.467 122.097C102.467 122.147 102.467 122.203 102.467 122.254C102.349 123.158 102.151 124.049 101.875 124.918C101.73 125.4 101.565 125.85 101.396 126.285C101.1 126.197 99.6851 125.806 98.9924 125.903C98.2998 126.001 97.5124 126.303 97.1661 126.922C97.0796 127.065 97.0243 127.224 97.0039 127.39C96.9834 127.556 96.9983 127.724 97.0475 127.884C97.0967 128.043 97.1791 128.191 97.2894 128.316C97.3996 128.442 97.5351 128.542 97.6871 128.612C98.6106 129.009 100.147 128.05 100.736 127.375C100.768 127.339 101.053 126.928 101.257 126.626C101.177 126.821 101.097 127.025 101.017 127.218C100.721 127.913 100.398 128.535 100.114 129.083C99.9485 129.393 99.7916 129.675 99.6466 129.926C99.3003 129.997 97.9091 130.293 97.3496 130.693C96.7902 131.092 96.2189 131.729 96.1982 132.436C96.1871 132.603 96.2115 132.77 96.2696 132.927C96.3277 133.083 96.4183 133.226 96.5355 133.345C96.6526 133.464 96.7936 133.557 96.9493 133.618C97.1049 133.678 97.2716 133.705 97.4384 133.697C98.4389 133.626 99.3624 132.066 99.5726 131.193C99.5933 131.119 99.7443 129.908 99.7236 129.911H99.7028C99.8508 129.669 99.9988 129.402 100.171 129.112C100.467 128.567 100.801 127.955 101.118 127.259C101.466 126.515 101.771 125.751 102.029 124.971C102.326 124.104 102.544 123.213 102.681 122.307C102.679 122.296 102.679 122.285 102.681 122.275C102.728 122.571 102.888 123.373 102.909 123.435C103.181 124.287 104.211 125.779 105.214 125.782C105.382 125.779 105.546 125.74 105.697 125.668C105.848 125.597 105.983 125.494 106.091 125.367C106.2 125.239 106.28 125.091 106.327 124.93C106.374 124.77 106.386 124.601 106.363 124.435C106.292 123.731 105.661 123.127 105.09 122.775C104.445 122.381 102.82 122.183 102.689 122.168C102.806 121.238 102.859 120.302 102.849 119.365C102.849 118.82 102.829 118.27 102.805 117.719C102.852 117.968 102.9 118.193 102.909 118.222C103.181 119.078 104.211 120.567 105.214 120.57C105.382 120.566 105.546 120.527 105.697 120.456C105.848 120.384 105.983 120.281 106.091 120.154C106.2 120.027 106.28 119.878 106.327 119.718C106.374 119.557 106.386 119.388 106.363 119.223C106.295 118.518 105.661 117.914 105.09 117.565C104.519 117.216 103.128 117.012 102.761 116.973C102.761 116.763 102.74 116.553 102.728 116.34C102.663 115.327 102.598 114.315 102.562 113.324C102.562 112.974 102.562 112.628 102.562 112.282C102.607 112.504 102.645 112.69 102.654 112.717C102.926 113.572 103.956 115.064 104.96 115.064C105.127 115.061 105.291 115.022 105.442 114.95C105.593 114.879 105.727 114.776 105.835 114.649C105.944 114.523 106.024 114.374 106.071 114.214C106.118 114.054 106.131 113.886 106.108 113.72C106.04 113.013 105.407 112.409 104.835 112.06C104.264 111.71 103.009 111.53 102.574 111.468C102.574 111.112 102.592 110.76 102.618 110.417C102.642 110.183 102.645 109.958 102.684 109.724C102.722 109.49 102.743 109.262 102.772 109.037C102.846 108.602 102.92 108.149 103.003 107.729C103.059 107.433 103.119 107.155 103.175 106.874C103.175 107.223 103.213 107.904 103.225 107.96C103.364 108.848 104.155 110.476 105.149 110.624C105.315 110.646 105.483 110.632 105.643 110.584C105.803 110.537 105.95 110.455 106.077 110.346C106.203 110.237 106.305 110.103 106.376 109.952C106.446 109.801 106.484 109.636 106.487 109.47C106.526 108.759 105.993 108.07 105.481 107.637C104.918 107.161 103.409 106.729 103.213 106.675C103.311 106.211 103.412 105.758 103.509 105.332C103.64 104.775 103.77 104.254 103.894 103.778C103.749 103.647 103.569 103.481 103.358 103.313C103.22 103.881 103.076 104.511 102.926 105.201C102.826 105.675 102.728 106.181 102.63 106.705C102.124 106.693 101.616 106.711 101.112 106.758C100.86 106.045 99.9041 104.926 99.7798 104.784C100.117 104.449 100.449 104.127 100.768 103.828C101.316 103.31 101.825 102.848 102.287 102.443C102.121 102.312 101.949 102.179 101.772 102.046C101.34 102.445 100.863 102.895 100.354 103.399C100.011 103.736 99.6496 104.106 99.2796 104.488C99.1227 104.378 97.8232 103.481 97.098 103.348C96.4379 103.227 95.5677 103.257 95.0438 103.733C94.9152 103.841 94.811 103.976 94.7383 104.127C94.6656 104.279 94.626 104.444 94.622 104.612C94.6181 104.78 94.65 104.947 94.7156 105.101C94.7812 105.256 94.8789 105.395 95.0024 105.509C95.7512 106.178 97.5124 105.755 98.285 105.299C98.3294 105.272 98.7941 104.926 99.0812 104.707C98.9332 104.864 98.7852 105.003 98.6343 105.178C98.3383 105.497 98.0423 105.829 97.7226 106.181L97.2786 106.714C97.1276 106.888 96.9826 107.093 96.8405 107.285C96.509 107.732 96.1923 108.203 95.8844 108.685C95.5884 108.422 94.5879 107.501 93.9545 107.276C93.3211 107.051 92.4538 106.954 91.8647 107.347C91.7232 107.436 91.602 107.553 91.5091 107.692C91.4162 107.831 91.3537 107.988 91.3258 108.153C91.2978 108.317 91.305 108.486 91.3469 108.648C91.3888 108.809 91.4644 108.96 91.5688 109.091C92.2081 109.863 94.0137 109.712 94.8455 109.387C94.8988 109.366 95.47 109.061 95.7808 108.886C95.5973 109.182 95.4138 109.478 95.2391 109.774C94.733 110.642 94.2505 111.533 93.7591 112.424C93.6111 112.696 93.4632 112.965 93.3092 113.235C93.2086 113.14 92.0276 112.015 91.3142 111.77C90.6808 111.55 89.8135 111.447 89.2244 111.841C89.0833 111.929 88.9625 112.047 88.8699 112.185C88.7773 112.324 88.715 112.48 88.6871 112.645C88.6592 112.809 88.6662 112.977 88.7078 113.139C88.7494 113.3 88.8246 113.451 88.9284 113.581C89.5678 114.357 91.3734 114.206 92.2051 113.877C92.2673 113.85 93.0932 113.409 93.2915 113.285C92.96 113.877 92.6225 114.469 92.2673 115.04C91.7893 115.81 91.2633 116.548 90.6926 117.251C90.6452 117.207 89.4168 116.029 88.6887 115.771C88.0552 115.552 87.1879 115.449 86.5989 115.842C86.4574 115.931 86.3362 116.049 86.2433 116.187C86.1504 116.326 86.0879 116.483 86.0599 116.648C86.032 116.812 86.0392 116.981 86.0811 117.143C86.1229 117.305 86.1985 117.456 86.3029 117.586C86.9423 118.358 88.7479 118.207 89.5826 117.882C89.6477 117.855 90.5298 117.382 90.6837 117.29C90.6512 117.331 90.6215 117.376 90.586 117.417C89.9922 118.104 89.3395 118.738 88.6354 119.312C88.2476 119.631 87.8628 119.918 87.478 120.2C87.2738 119.954 86.3177 118.856 85.6872 118.554C85.0568 118.252 84.2309 118.068 83.6152 118.397C83.4642 118.468 83.3299 118.571 83.2213 118.697C83.1126 118.824 83.032 118.973 82.9848 119.133C82.9375 119.293 82.9247 119.461 82.9472 119.627C82.9696 119.792 83.0268 119.951 83.115 120.093C83.6656 120.934 85.483 120.981 86.3414 120.741C86.3887 120.741 86.8505 120.546 87.188 120.404C87.0133 120.525 86.8357 120.65 86.664 120.762C86.0306 121.176 85.4238 121.52 84.888 121.819C84.592 121.984 84.296 122.132 84.0326 122.266C83.704 122.132 82.3809 121.611 81.6971 121.635C81.0134 121.659 80.1787 121.875 79.7731 122.455C79.5965 122.707 79.5248 123.018 79.5735 123.322C79.6221 123.626 79.7871 123.899 80.0336 124.083Z" fill="#263238"/>
<path d="M103.631 127.644C103.092 127.07 101.455 126.413 101.455 126.413C101.455 126.413 101.349 127.624 101.352 127.701C101.39 128.589 101.988 130.305 102.956 130.575C103.118 130.616 103.287 130.621 103.451 130.592C103.616 130.563 103.772 130.499 103.91 130.405C104.048 130.312 104.165 130.189 104.252 130.047C104.34 129.905 104.396 129.746 104.418 129.58C104.54 128.879 104.09 128.13 103.631 127.644Z" fill="#263238"/>
<path d="M128.229 29.9707H22.0625V115.275H128.229V29.9707Z" fill="white" stroke="#263238" stroke-width="0.296" stroke-linejoin="round"/>
<path d="M114.417 104.33H101.173C100.828 104.33 100.497 104.193 100.253 103.948C100.008 103.704 99.8711 103.373 99.8711 103.027V87.8516" fill="white"/>
<path d="M114.417 104.33H101.173C100.828 104.33 100.497 104.193 100.253 103.948C100.008 103.704 99.8711 103.373 99.8711 103.027V87.8516" stroke="#263238" stroke-width="0.296" stroke-linejoin="round"/>
<path d="M122.759 72.9014V103.028C122.758 103.374 122.62 103.705 122.375 103.949C122.131 104.194 121.799 104.331 121.453 104.331H115.711" fill="white"/>
<path d="M122.759 72.9014V103.028C122.758 103.374 122.62 103.705 122.375 103.949C122.131 104.194 121.799 104.331 121.453 104.331H115.711" stroke="#263238" stroke-width="0.296" stroke-linejoin="round"/>
<path d="M99.8711 86.8318V63.8385C99.8711 63.6676 99.9048 63.4984 99.9703 63.3405C100.036 63.1827 100.132 63.0393 100.253 62.9186C100.374 62.7979 100.517 62.7023 100.675 62.6371C100.833 62.572 101.003 62.5387 101.173 62.5391H121.458C121.629 62.5387 121.799 62.572 121.957 62.6371C122.115 62.7022 122.259 62.7978 122.38 62.9184C122.501 63.0391 122.598 63.1825 122.663 63.3403C122.729 63.4982 122.763 63.6675 122.764 63.8385V72.0673" fill="white"/>
<path d="M99.8711 86.8318V63.8385C99.8711 63.6676 99.9048 63.4984 99.9703 63.3405C100.036 63.1827 100.132 63.0393 100.253 62.9186C100.374 62.7979 100.517 62.7023 100.675 62.6371C100.833 62.572 101.003 62.5387 101.173 62.5391H121.458C121.629 62.5387 121.799 62.572 121.957 62.6371C122.115 62.7022 122.259 62.7978 122.38 62.9184C122.501 63.0391 122.598 63.1825 122.663 63.3403C122.729 63.4982 122.763 63.6675 122.764 63.8385V72.0673" stroke="#263238" stroke-width="0.296" stroke-linejoin="round"/>
<path d="M122.764 63.8385V70.8626H99.8711V63.8385C99.8711 63.6676 99.9048 63.4984 99.9703 63.3405C100.036 63.1827 100.132 63.0393 100.253 62.9186C100.374 62.7979 100.517 62.7023 100.675 62.6371C100.833 62.572 101.003 62.5387 101.173 62.5391H121.458C121.629 62.5387 121.799 62.572 121.957 62.6371C122.115 62.7022 122.259 62.7978 122.38 62.9184C122.501 63.0391 122.598 63.1825 122.663 63.3403C122.729 63.4982 122.763 63.6675 122.764 63.8385Z" fill="white" stroke="#263238" stroke-width="0.296" stroke-linejoin="round"/>
<path d="M128.229 29.9707H22.0625V58.8544H128.229V29.9707Z" fill="white" stroke="#263238" stroke-width="0.296" stroke-linejoin="round"/>
<path d="M120.31 52.0033C121.651 51.6727 122.47 50.3173 122.139 48.9761C121.809 47.6349 120.453 46.8157 119.112 47.1464C117.771 47.4771 116.952 48.8324 117.282 50.1736C117.613 51.5148 118.968 52.334 120.31 52.0033Z" fill="#D9D9D9" stroke="#263238" stroke-width="0.296" stroke-linejoin="round"/>
<path d="M112.194 48.5293C112.379 48.5293 112.528 48.3796 112.528 48.1948C112.528 48.0101 112.379 47.8604 112.194 47.8604C112.009 47.8604 111.859 48.0101 111.859 48.1948C111.859 48.3796 112.009 48.5293 112.194 48.5293Z" fill="#263238"/>
<path d="M113.837 48.1948C113.837 48.1287 113.817 48.064 113.781 48.009C113.744 47.954 113.692 47.9111 113.63 47.8858C113.569 47.8605 113.502 47.8539 113.437 47.8668C113.372 47.8797 113.313 47.9115 113.266 47.9583C113.219 48.0051 113.187 48.0647 113.174 48.1296C113.161 48.1945 113.168 48.2617 113.193 48.3228C113.219 48.3839 113.262 48.4362 113.317 48.4729C113.372 48.5097 113.436 48.5293 113.502 48.5293C113.591 48.5285 113.676 48.4931 113.738 48.4305C113.801 48.3679 113.836 48.2833 113.837 48.1948Z" fill="#263238"/>
<path d="M115.146 48.1948C115.146 48.1287 115.126 48.064 115.089 48.009C115.052 47.954 115 47.9111 114.939 47.8858C114.878 47.8605 114.811 47.8539 114.746 47.8668C114.681 47.8797 114.621 47.9115 114.575 47.9583C114.528 48.0051 114.496 48.0647 114.483 48.1296C114.47 48.1945 114.477 48.2617 114.502 48.3228C114.527 48.3839 114.57 48.4362 114.625 48.4729C114.68 48.5097 114.745 48.5293 114.811 48.5293C114.9 48.5285 114.984 48.4931 115.047 48.4305C115.109 48.3679 115.145 48.2833 115.146 48.1948Z" fill="#263238"/>
<path d="M112.524 49.5571C112.524 49.4908 112.505 49.4261 112.468 49.371C112.431 49.3159 112.379 49.2731 112.317 49.2478C112.256 49.2226 112.189 49.2162 112.124 49.2293C112.059 49.2425 111.999 49.2746 111.952 49.3217C111.906 49.3688 111.874 49.4286 111.862 49.4937C111.849 49.5588 111.856 49.6261 111.882 49.6872C111.908 49.7483 111.951 49.8003 112.006 49.8367C112.062 49.8731 112.127 49.8922 112.193 49.8916C112.281 49.8908 112.365 49.8552 112.428 49.7926C112.49 49.73 112.524 49.6453 112.524 49.5571Z" fill="#263238"/>
<path d="M113.837 49.5571C113.837 49.491 113.817 49.4263 113.781 49.3713C113.744 49.3163 113.692 49.2734 113.63 49.2481C113.569 49.2228 113.502 49.2162 113.437 49.2291C113.372 49.242 113.313 49.2738 113.266 49.3206C113.219 49.3674 113.187 49.427 113.174 49.4919C113.161 49.5568 113.168 49.624 113.193 49.6851C113.219 49.7463 113.262 49.7985 113.317 49.8352C113.372 49.872 113.436 49.8916 113.502 49.8916C113.591 49.8908 113.676 49.8554 113.738 49.7928C113.801 49.7302 113.836 49.6456 113.837 49.5571Z" fill="#263238"/>
<path d="M115.146 49.5571C115.146 49.491 115.126 49.4263 115.089 49.3713C115.052 49.3163 115 49.2734 114.939 49.2481C114.878 49.2228 114.811 49.2162 114.746 49.2291C114.681 49.242 114.621 49.2738 114.575 49.3206C114.528 49.3674 114.496 49.427 114.483 49.4919C114.47 49.5568 114.477 49.624 114.502 49.6851C114.527 49.7463 114.57 49.7985 114.625 49.8352C114.68 49.872 114.745 49.8916 114.811 49.8916C114.9 49.8908 114.984 49.8554 115.047 49.7928C115.109 49.7302 115.145 49.6456 115.146 49.5571Z" fill="#263238"/>
<path d="M112.524 50.9116C112.524 50.8453 112.505 50.7806 112.468 50.7255C112.431 50.6704 112.379 50.6275 112.317 50.6023C112.256 50.5771 112.189 50.5706 112.124 50.5838C112.059 50.5969 111.999 50.6291 111.952 50.6762C111.906 50.7232 111.874 50.7831 111.862 50.8482C111.849 50.9133 111.856 50.9806 111.882 51.0417C111.908 51.1027 111.951 51.1548 112.006 51.1912C112.062 51.2276 112.127 51.2467 112.193 51.2461C112.281 51.2453 112.365 51.2097 112.428 51.1471C112.49 51.0844 112.524 50.9998 112.524 50.9116Z" fill="#263238"/>
<path d="M113.837 50.9116C113.837 50.8455 113.817 50.7808 113.781 50.7258C113.744 50.6708 113.692 50.6279 113.63 50.6026C113.569 50.5773 113.502 50.5707 113.437 50.5836C113.372 50.5965 113.313 50.6283 113.266 50.6751C113.219 50.7219 113.187 50.7815 113.174 50.8464C113.161 50.9113 113.168 50.9785 113.193 51.0396C113.219 51.1007 113.262 51.153 113.317 51.1897C113.372 51.2265 113.436 51.2461 113.502 51.2461C113.591 51.2453 113.676 51.2098 113.738 51.1473C113.801 51.0847 113.836 51.0001 113.837 50.9116Z" fill="#263238"/>
<path d="M115.146 50.9116C115.146 50.8455 115.126 50.7808 115.089 50.7258C115.052 50.6708 115 50.6279 114.939 50.6026C114.878 50.5773 114.811 50.5707 114.746 50.5836C114.681 50.5965 114.621 50.6283 114.575 50.6751C114.528 50.7219 114.496 50.7815 114.483 50.8464C114.47 50.9113 114.477 50.9785 114.502 51.0396C114.527 51.1007 114.57 51.153 114.625 51.1897C114.68 51.2265 114.745 51.2461 114.811 51.2461C114.9 51.2453 114.984 51.2098 115.047 51.1473C115.109 51.0847 115.145 51.0001 115.146 50.9116Z" fill="#263238"/>
<path d="M96.4657 50.5654C96.2197 51.3265 95.7388 51.9901 95.0921 52.4607C94.4454 52.9314 93.6662 53.185 92.8663 53.185H58.4297" fill="white"/>
<path d="M96.4657 50.5654C96.2197 51.3265 95.7388 51.9901 95.0921 52.4607C94.4454 52.9314 93.6662 53.185 92.8663 53.185H58.4297" stroke="#263238" stroke-width="0.296" stroke-linejoin="round"/>
<path d="M66.0117 45.6289H92.8737C93.37 45.6285 93.8614 45.7259 94.32 45.9156C94.7786 46.1052 95.1953 46.3833 95.5463 46.7341C95.8974 47.0849 96.1759 47.5014 96.3659 47.9598C96.5559 48.4182 96.6536 48.9096 96.6536 49.4059" fill="white"/>
<path d="M66.0117 45.6289H92.8737C93.37 45.6285 93.8614 45.7259 94.32 45.9156C94.7786 46.1052 95.1953 46.3833 95.5463 46.7341C95.8974 47.0849 96.1759 47.5014 96.3659 47.9598C96.5559 48.4182 96.6536 48.9096 96.6536 49.4059" stroke="#263238" stroke-width="0.296" stroke-linejoin="round"/>
<path d="M56.5358 53.1858H38.6012C38.1049 53.1858 37.6136 53.088 37.1551 52.898C36.6967 52.708 36.2802 52.4295 35.9294 52.0785C35.5787 51.7275 35.3005 51.3107 35.1109 50.8522C34.9212 50.3936 34.8238 49.9021 34.8242 49.4059C34.8242 48.4042 35.2221 47.4435 35.9305 46.7352C36.6388 46.0268 37.5995 45.6289 38.6012 45.6289H64.6877" fill="white"/>
<path d="M56.5358 53.1858H38.6012C38.1049 53.1858 37.6136 53.088 37.1551 52.898C36.6967 52.708 36.2802 52.4295 35.9294 52.0785C35.5787 51.7275 35.3005 51.3107 35.1109 50.8522C34.9212 50.3936 34.8238 49.9021 34.8242 49.4059V49.4059C34.8242 48.4042 35.2221 47.4435 35.9305 46.7352C36.6388 46.0268 37.5995 45.6289 38.6012 45.6289H64.6877" stroke="#263238" stroke-width="0.296" stroke-linejoin="round"/>
<path d="M87.1133 47.3711V50.9053" stroke="#263238" stroke-width="0.148" stroke-linejoin="round"/>
<path d="M84.3621 47.4043L81.0469 50.7195" stroke="#263238" stroke-width="0.296" stroke-linejoin="round"/>
<path d="M81.0469 47.4043L84.3621 50.7195" stroke="#263238" stroke-width="0.296" stroke-linejoin="round"/>
<path d="M38.7785 50.3766H38.4203L38.0977 48.0293H38.3522L38.6275 50.0273L38.8909 48.0323H39.1485L39.406 50.0303L39.6724 48.0293H39.9003L39.5806 50.3766H39.2225L39.0005 48.7841L38.7785 50.3766Z" fill="#263238"/>
<path d="M40.9363 49.0683V49.3051H40.362V50.1398H41.0665V50.3766H40.1016V48.0293H41.0665V48.2661H40.362V49.0683H40.9363Z" fill="#263238"/>
<path d="M41.8316 48.0293C42.1956 48.0293 42.3407 48.2039 42.3407 48.5503V48.6598C42.3407 48.9084 42.2696 49.0623 42.0654 49.1275C42.2933 49.1896 42.3792 49.3702 42.3792 49.6277V49.826C42.3902 49.8996 42.3841 49.9747 42.3613 50.0455C42.3385 50.1163 42.2997 50.1809 42.2478 50.2342C42.1959 50.2875 42.1325 50.3281 42.0623 50.3528C41.9921 50.3775 41.9172 50.3856 41.8434 50.3766H41.3047V48.0293H41.8316ZM41.7664 49.0268C41.9736 49.0268 42.0832 48.9587 42.0832 48.7131V48.5769C42.0832 48.3667 42.0121 48.2661 41.8227 48.2661H41.5652V49.0268H41.7664ZM41.8434 50.1398C42.0358 50.1398 42.1216 50.0391 42.1216 49.8201V49.6129C42.1216 49.3495 42.018 49.2636 41.7931 49.2636H41.5652V50.1516L41.8434 50.1398Z" fill="#263238"/>
<path d="M44.1592 48.591V48.6561H43.9106V48.5792C43.9106 48.3661 43.8307 48.2417 43.6442 48.2417C43.4577 48.2417 43.3748 48.3661 43.3748 48.5762C43.3748 49.1031 44.1622 49.1534 44.1622 49.8135C44.1622 50.1687 43.9905 50.4055 43.6323 50.4055C43.2742 50.4055 43.1055 50.1746 43.1055 49.8135V49.6773H43.3511V49.8253C43.3511 50.0385 43.437 50.1628 43.6264 50.1628C43.8159 50.1628 43.9017 50.0385 43.9017 49.8253C43.9017 49.3044 43.1173 49.2541 43.1173 48.591C43.1173 48.2299 43.2831 47.999 43.6353 47.999C43.9876 47.999 44.1592 48.2477 44.1592 48.591Z" fill="#263238"/>
<path d="M45.2243 49.0683V49.3051H44.65V50.1398H45.3545V50.3766H44.3984V48.0293H45.3664V48.2661H44.6619V49.0683H45.2243Z" fill="#263238"/>
<path d="M45.8628 49.903L45.774 50.3766H45.5312L45.9812 48.0293H46.36L46.81 50.3766H46.5465L46.4577 49.903H45.8628ZM45.8953 49.678H46.4192L46.1558 48.3253L45.8953 49.678Z" fill="#263238"/>
<path d="M47.5416 48.0293C47.9086 48.0293 48.0625 48.2158 48.0625 48.5651V48.7575C48.0625 49.015 47.9737 49.1778 47.7665 49.2399C47.9796 49.3051 48.0625 49.4767 48.0625 49.7283V50.0954C48.055 50.1913 48.0702 50.2876 48.1069 50.3766H47.8435C47.8048 50.283 47.7895 50.1814 47.7991 50.0806V49.7283C47.7991 49.4649 47.6748 49.3791 47.4587 49.3791H47.2722V50.3825H47.0117V48.0352L47.5416 48.0293ZM47.4735 49.1363C47.6807 49.1363 47.805 49.0683 47.805 48.8137V48.5887C47.805 48.3786 47.728 48.2661 47.5327 48.2661H47.2781V49.1363H47.4735Z" fill="#263238"/>
<path d="M49.3691 48.5938V48.8069H49.1323V48.582C49.1323 48.3718 49.0494 48.2416 48.857 48.2416C48.6646 48.2416 48.5817 48.3718 48.5817 48.582V49.8222C48.5817 50.0354 48.6705 50.1626 48.857 50.1626C49.0435 50.1626 49.1323 50.0354 49.1323 49.8222V49.5262H49.3809V49.8222C49.3809 50.1774 49.2122 50.4142 48.8511 50.4142C48.49 50.4142 48.3242 50.1804 48.3242 49.8222V48.6057C48.3242 48.2505 48.49 48.0137 48.8511 48.0137C49.2122 48.0137 49.3691 48.2475 49.3691 48.5938Z" fill="#263238"/>
<path d="M49.8767 49.3199V50.3766H49.6133V48.0293H49.8767V49.086H50.4539V48.0293H50.7144V50.3766H50.4539V49.3199H49.8767Z" fill="#263238"/>
<path d="M92.8989 50.8114C92.8485 50.866 92.7794 50.8996 92.7054 50.9057C92.6314 50.9117 92.5578 50.8897 92.4993 50.844L91.1406 49.6067L91.3981 49.2959L92.8545 50.4118C92.9108 50.4606 92.9467 50.5288 92.9549 50.6029C92.9631 50.677 92.9431 50.7515 92.8989 50.8114Z" fill="#263238" stroke="#263238" stroke-width="0.296" stroke-linejoin="round"/>
<path d="M89.4103 47.9134C89.249 48.1088 89.1493 48.3477 89.1237 48.5999C89.0982 48.852 89.1479 49.106 89.2667 49.3299C89.3855 49.5538 89.568 49.7374 89.7911 49.8576C90.0142 49.9778 90.2679 50.0291 90.5202 50.0051C90.7725 49.9811 91.012 49.8829 91.2084 49.7228C91.4049 49.5627 91.5495 49.348 91.624 49.1058C91.6984 48.8635 91.6994 48.6047 91.6268 48.3619C91.5542 48.1191 91.4112 47.9033 91.2159 47.7417C91.0863 47.634 90.9367 47.5529 90.7756 47.5032C90.6145 47.4535 90.4452 47.4361 90.2774 47.452C90.1096 47.468 89.9466 47.517 89.7978 47.5961C89.649 47.6753 89.5173 47.7831 89.4103 47.9134ZM91.2426 49.4289C91.1042 49.5953 90.9196 49.717 90.7121 49.7785C90.5046 49.8401 90.2836 49.8388 90.0768 49.7748C89.8701 49.7109 89.6869 49.5871 89.5504 49.4191C89.414 49.2511 89.3304 49.0464 89.3102 48.8309C89.2899 48.6155 89.334 48.3988 89.4368 48.2084C89.5396 48.0179 89.6965 47.8622 89.8878 47.7609C90.079 47.6595 90.296 47.6171 90.5113 47.639C90.7266 47.6609 90.9306 47.7461 91.0975 47.8838C91.2092 47.9756 91.3016 48.0886 91.3693 48.2162C91.4371 48.3439 91.479 48.4837 91.4925 48.6276C91.5059 48.7715 91.4908 48.9167 91.4479 49.0547C91.405 49.1928 91.3352 49.3209 91.2426 49.4319V49.4289Z" fill="#263238" stroke="#263238" stroke-width="0.296" stroke-linejoin="round"/>
<path d="M128.223 29.9697H124.984V115.274H128.223V29.9697Z" fill="#D9D9D9" stroke="#263238" stroke-width="0.296" stroke-linejoin="round"/>
<path d="M128.223 46.9775H124.984V55.3455H128.223V46.9775Z" fill="#8F8F8F" stroke="#263238" stroke-width="0.296" stroke-linejoin="round"/>
<path d="M128.229 29.9707H22.0625V39.9577H128.229V29.9707Z" fill="#008DCC" stroke="#263238" stroke-width="0.296" stroke-linejoin="round"/>
<path d="M128.23 29.9697H40.2266V33.4803H128.23V29.9697Z" fill="#263238" stroke="#263238" stroke-width="0.296" stroke-linejoin="round"/>
<path d="M126.192 30.8516L124.336 32.7104" stroke="white" stroke-width="0.296" stroke-linejoin="round"/>
<path d="M124.336 30.8516L126.192 32.7104" stroke="white" stroke-width="0.296" stroke-linejoin="round"/>
<path d="M120.797 31.0088H119.43V32.3763H120.797V31.0088Z" fill="#263238" stroke="white" stroke-width="0.296" stroke-linejoin="round"/>
<path d="M120.137 31.3369H118.77V32.7044H120.137V31.3369Z" fill="#263238" stroke="white" stroke-width="0.296" stroke-linejoin="round"/>
<path d="M114.502 31.8496H112.137" stroke="white" stroke-width="0.296" stroke-linejoin="round"/>
<path d="M42.0977 30.7871V32.9094" stroke="white" stroke-width="0.296" stroke-linejoin="round"/>
<path d="M43.1614 31.8457H41.0391" stroke="white" stroke-width="0.296" stroke-linejoin="round"/>
<path d="M35.5352 64.791H57.3829" stroke="#263238" stroke-width="0.296" stroke-linejoin="round"/>
<path d="M35.5352 66.7002H63.2792" stroke="#263238" stroke-width="0.296" stroke-linejoin="round"/>
<path d="M35.5352 68.9531H92.7579" stroke="#263238" stroke-width="0.296" stroke-linejoin="round"/>
<path d="M35.5352 71.0332H92.7579" stroke="#263238" stroke-width="0.296" stroke-linejoin="round"/>
<path d="M35.5352 73.1152H92.7579" stroke="#263238" stroke-width="0.296" stroke-linejoin="round"/>
<path d="M35.5352 77.9727H57.3829" stroke="#263238" stroke-width="0.296" stroke-linejoin="round"/>
<path d="M35.5352 79.8789H63.2792" stroke="#263238" stroke-width="0.296" stroke-linejoin="round"/>
<path d="M35.5352 82.1338H92.7579" stroke="#263238" stroke-width="0.296" stroke-linejoin="round"/>
<path d="M35.5352 84.2148H92.7579" stroke="#263238" stroke-width="0.296" stroke-linejoin="round"/>
<path d="M35.5352 86.2959H92.7579" stroke="#263238" stroke-width="0.296" stroke-linejoin="round"/>
<path d="M35.5352 91.1494H57.3829" stroke="#263238" stroke-width="0.296" stroke-linejoin="round"/>
<path d="M35.5352 93.0596H63.2792" stroke="#263238" stroke-width="0.296" stroke-linejoin="round"/>
<path d="M35.5352 95.3115H92.7579" stroke="#263238" stroke-width="0.296" stroke-linejoin="round"/>
<path d="M35.5352 97.3916H92.7579" stroke="#263238" stroke-width="0.296" stroke-linejoin="round"/>
<path d="M35.5352 99.4736H92.7579" stroke="#263238" stroke-width="0.296" stroke-linejoin="round"/>
<path d="M35.5352 104.327H57.3829" stroke="#263238" stroke-width="0.296" stroke-linejoin="round"/>
<path d="M35.5352 106.237H63.2792" stroke="#263238" stroke-width="0.296" stroke-linejoin="round"/>
<path d="M35.5352 108.49H92.7579" stroke="#263238" stroke-width="0.296" stroke-linejoin="round"/>
<path d="M35.5352 110.57H92.7579" stroke="#263238" stroke-width="0.296" stroke-linejoin="round"/>
<path d="M35.5352 112.652H92.7579" stroke="#263238" stroke-width="0.296" stroke-linejoin="round"/>
<path d="M101.367 73.3096H111.656" stroke="#263238" stroke-width="0.296" stroke-linejoin="round"/>
<path d="M101.367 74.6914H111.656" stroke="#263238" stroke-width="0.296" stroke-linejoin="round"/>
<path d="M101.367 76.0781H121.448" stroke="#263238" stroke-width="0.296" stroke-linejoin="round"/>
<path d="M101.367 77.4629H121.448" stroke="#263238" stroke-width="0.296" stroke-linejoin="round"/>
<path d="M101.367 78.8477H121.448" stroke="#263238" stroke-width="0.296" stroke-linejoin="round"/>
<path d="M101.367 80.2344H121.448" stroke="#263238" stroke-width="0.296" stroke-linejoin="round"/>
<path d="M101.367 81.6191H121.448" stroke="#263238" stroke-width="0.296" stroke-linejoin="round"/>
<path d="M101.367 83.0049H121.448" stroke="#263238" stroke-width="0.296" stroke-linejoin="round"/>
<path d="M101.367 84.3896H121.448" stroke="#263238" stroke-width="0.296" stroke-linejoin="round"/>
<path d="M101.367 85.7744H121.448" stroke="#263238" stroke-width="0.296" stroke-linejoin="round"/>
<path d="M101.367 89.04H111.656" stroke="#263238" stroke-width="0.296" stroke-linejoin="round"/>
<path d="M101.367 90.4219H111.656" stroke="#263238" stroke-width="0.296" stroke-linejoin="round"/>
<path d="M101.367 91.8066H121.448" stroke="#263238" stroke-width="0.296" stroke-linejoin="round"/>
<path d="M101.367 93.1914H121.448" stroke="#263238" stroke-width="0.296" stroke-linejoin="round"/>
<path d="M101.367 94.5781H121.448" stroke="#263238" stroke-width="0.296" stroke-linejoin="round"/>
<path d="M101.367 95.9629H121.448" stroke="#263238" stroke-width="0.296" stroke-linejoin="round"/>
<path d="M101.367 97.3477H121.448" stroke="#263238" stroke-width="0.296" stroke-linejoin="round"/>
<path d="M101.367 98.7344H121.448" stroke="#263238" stroke-width="0.296" stroke-linejoin="round"/>
<path d="M101.367 100.119H121.448" stroke="#263238" stroke-width="0.296" stroke-linejoin="round"/>
<path d="M101.367 101.505H121.448" stroke="#263238" stroke-width="0.296" stroke-linejoin="round"/>
<path d="M130.613 135.251H134.325" stroke="#263238" stroke-width="0.296" stroke-linejoin="round"/>
<path d="M34.1094 135.251H128.137" stroke="#263238" stroke-width="0.296" stroke-linejoin="round"/>
<path d="M13.3242 135.252H31.6348" stroke="#263238" stroke-width="0.296" stroke-linejoin="round"/>
<path d="M74.6855 129.477C74.6855 129.477 77.8527 129.663 78.5986 129.477C79.3445 129.29 80.8364 128.08 81.0229 129.012C81.2093 129.944 80.1852 131.25 79.5428 131.993C78.9005 132.736 76.2869 133.393 75.535 133.769C74.7832 134.145 73.6702 135.074 72.7378 135.074C71.8054 135.074 71.2578 131.996 71.2578 131.996C71.2578 131.996 74.0521 130.32 74.8098 129.107" fill="white"/>
<path d="M74.6855 129.477C74.6855 129.477 77.8527 129.663 78.5986 129.477C79.3445 129.29 80.8364 128.08 81.0228 129.012C81.2093 129.944 80.1852 131.25 79.5428 131.993C78.9005 132.736 76.2869 133.393 75.535 133.769C74.7832 134.145 73.6702 135.074 72.7378 135.074C71.8054 135.074 71.2578 131.996 71.2578 131.996C71.2578 131.996 74.0521 130.32 74.8098 129.107" stroke="#263238" stroke-width="0.296" stroke-linejoin="round"/>
<path d="M80.8656 128.73C78.9653 132.235 75.8336 132.83 75.8336 132.83L71.8672 134.153C72.0981 134.665 72.3881 135.071 72.7226 135.071C73.655 135.071 74.7739 134.138 75.5198 133.765C76.2657 133.392 78.8765 132.738 79.5277 131.989C80.1789 131.241 81.206 129.941 81.0077 129.009C80.9981 128.901 80.9472 128.801 80.8656 128.73Z" fill="white" stroke="#263238" stroke-width="0.296" stroke-linejoin="round"/>
<path d="M41.0819 127.111C41.0819 127.111 38.6547 129.861 38.4475 130.663C38.2551 131.433 40.1081 132.552 40.5876 132.889C41.8499 133.759 43.2266 134.451 44.6783 134.943C45.1934 135.121 47.7212 135.716 47.3897 134.464C47.144 133.537 45.2023 132.469 44.9566 131.924C44.7109 131.38 44.3054 130.317 44.3054 130.317L41.0819 127.111Z" fill="white" stroke="#263238" stroke-width="0.296" stroke-linejoin="round"/>
<path d="M40.5876 132.903C41.8499 133.773 43.2266 134.465 44.6783 134.957C45.1253 135.111 47.0907 135.579 47.3838 134.88C46.4958 134.83 44.7908 134.549 42.6093 133.303C41.1636 132.497 39.7883 131.571 38.4979 130.535C38.4785 130.582 38.4618 130.629 38.4475 130.677C38.2551 131.444 40.1081 132.563 40.5876 132.903Z" fill="white" stroke="#263238" stroke-width="0.296" stroke-linejoin="round"/>
<path d="M47.653 92.5978L48.6624 100.048L49.5178 115.769C49.5178 115.769 46.9071 118.285 45.4182 119.963C43.9293 121.641 40.5312 127.493 40.5312 127.493C40.5312 127.493 40.8006 128.958 42.4701 129.956C44.1395 130.953 45.0452 130.8 45.0452 130.8L46.25 128.701L46.6821 127.754C46.6821 127.754 56.4176 118.379 56.604 117.166C56.7905 115.952 57.7555 102.833 57.7555 102.833L65.3656 113.999C65.3656 113.999 66.301 121.36 67.041 123.136C67.781 124.912 70.8653 130.687 70.8653 130.687L71.2383 131.989C71.634 132.117 72.0557 132.141 72.4634 132.06C72.8712 131.979 73.2513 131.794 73.5678 131.525C74.2117 130.927 74.7776 130.251 75.252 129.512L74.219 128.263L74.0325 127.422C74.0325 127.422 71.5165 112.415 70.9571 110.645C70.3976 108.875 63.5778 93.5361 63.5778 93.5361L62.0978 89.4365C62.0978 89.4365 60.7007 90.366 56.4116 91.6713C52.1226 92.9767 47.653 92.5978 47.653 92.5978Z" fill="#263238" stroke="#263238" stroke-width="0.296" stroke-linejoin="round"/>
<path d="M57.1491 94.1844C60.2749 92.7577 61.7519 91.3339 62.4416 90.4015L62.0893 89.4307C62.0893 89.4307 60.6922 90.3601 56.4032 91.6655C52.5552 92.8317 48.5917 92.66 47.7896 92.6097L47.6445 92.6304L47.9198 94.6225C49.4106 95.1641 50.9941 95.4043 52.5784 95.3291C54.1627 95.2539 55.7163 94.8648 57.1491 94.1844Z" fill="#008DCC" stroke="#263238" stroke-width="0.296" stroke-linejoin="round"/>
<path d="M46.0127 70.8088L38.6719 76.2611L46.9895 91.8514C47.0721 92.4334 47.3726 92.9624 47.8301 93.3314C48.5997 93.9619 53.6317 93.8228 55.4492 93.2633C57.3174 92.6198 59.1203 91.8002 60.8334 90.8154C61.603 90.327 62.6508 89.2762 62.3696 88.3675C62.1816 87.7805 61.9243 87.2181 61.603 86.6921L60.123 82.4268C60.123 82.4268 65.9246 82.7761 66.6942 82.7761C67.4638 82.7761 70.1189 76.0657 70.1189 76.0657C70.1189 76.0657 69.3493 75.9947 69.0711 75.5063C68.8965 75.1694 68.7633 74.8126 68.6744 74.4437C67.8623 74.915 67.0221 75.3361 66.1584 75.7046C64.6784 76.3321 63.1511 76.4713 62.5236 76.193C61.896 75.9148 58.1872 72.5581 57.3495 71.5073C56.5118 70.4565 56.3697 70.0273 56.0915 70.0273C55.8132 70.0273 50.6392 70.3796 50.0087 70.3796C49.3782 70.3796 46.0127 70.8088 46.0127 70.8088Z" fill="#008DCC" stroke="#263238" stroke-width="0.296" stroke-linejoin="round"/>
<path d="M69.0809 75.4948C68.9044 75.172 68.7673 74.8291 68.6724 74.4736L68.4533 74.7252C68.4533 74.7252 67.3344 75.5629 67.6156 76.7528C67.7903 77.4958 68.6487 77.7474 69.4064 77.8125C69.8327 76.8091 70.1316 76.0543 70.1316 76.0543C70.1316 76.0543 69.3591 75.9832 69.0809 75.4948Z" fill="#008DCC" stroke="#263238" stroke-width="0.296" stroke-linejoin="round"/>
<path d="M57.2275 74.056L56.8516 72.9756" stroke="#263238" stroke-width="0.296" stroke-linejoin="round"/>
<path d="M60.1358 82.4157L57.5547 75.0039" stroke="#263238" stroke-width="0.296" stroke-linejoin="round"/>
<path d="M46.0816 97.5401C45.675 97.2036 45.34 96.7889 45.0966 96.3206C44.8532 95.8523 44.7063 95.3399 44.6647 94.8138C44.623 94.2876 44.6874 93.7585 44.854 93.2577C45.0206 92.7569 45.2861 92.2946 45.6347 91.8983L74.2993 59.0098L78.6801 62.6358L51.7086 96.9244C51.3842 97.3408 50.9796 97.6878 50.5187 97.945C50.0577 98.2022 49.5499 98.3642 49.0252 98.4217C48.5006 98.4791 47.9697 98.4306 47.4641 98.2792C46.9585 98.1278 46.4884 97.8764 46.0816 97.5401Z" fill="#263238" stroke="#263238" stroke-width="0.296" stroke-linejoin="round"/>
<path d="M66.677 67.7598L45.6373 91.8986C45.3069 92.2974 45.0583 92.7574 44.9056 93.2523C44.753 93.7472 44.6993 94.2673 44.7477 94.7829C44.7961 95.2986 44.9455 95.7996 45.1876 96.2575C45.4296 96.7154 45.7594 97.1211 46.1582 97.4515C46.5571 97.7819 47.0171 98.0306 47.512 98.1832C48.0069 98.3358 48.527 98.3895 49.0426 98.3411C49.5583 98.2927 50.0593 98.1433 50.5172 97.9012C50.9751 97.6592 51.3808 97.3294 51.7112 96.9306L71.6083 71.6314L66.677 67.7598Z" fill="white" stroke="#263238" stroke-width="0.296" stroke-linejoin="round"/>
<path d="M98.2075 34.5964C95.453 32.3148 92.0838 30.9013 88.526 30.5347C84.9682 30.1681 81.3815 30.8648 78.2197 32.5367C75.0579 34.2087 72.4629 36.7807 70.7629 39.9276C69.0629 43.0744 68.3344 46.6547 68.6693 50.2157C69.0043 53.7766 70.3878 57.1582 72.6448 59.9329C74.9018 62.7075 77.9309 64.7505 81.3491 65.8034C84.7673 66.8563 88.4209 66.872 91.8479 65.8483C95.275 64.8246 98.3215 62.8076 100.602 60.0524C103.659 56.3588 105.125 51.6022 104.676 46.8286C104.227 42.0549 101.9 37.655 98.2075 34.5964ZM76.8037 60.4431C74.4462 58.4913 72.7204 55.8842 71.8446 52.9515C70.9688 50.0189 70.9823 46.8924 71.8833 43.9674C72.7844 41.0424 74.5326 38.4503 76.9068 36.5189C79.2811 34.5874 82.1748 33.4034 85.2219 33.1165C88.2691 32.8297 91.3329 33.4528 94.0259 34.9072C96.7189 36.3616 98.9201 38.5819 100.351 41.2873C101.782 43.9927 102.379 47.0618 102.066 50.1064C101.753 53.1509 100.544 56.0343 98.5923 58.3918C97.2963 59.9572 95.7047 61.2519 93.9084 62.2022C92.112 63.1524 90.1461 63.7396 88.1228 63.9301C86.0996 64.1205 84.0586 63.9106 82.1165 63.3123C80.1744 62.7141 78.3691 61.7391 76.8037 60.4431Z" fill="#263238" stroke="#263238" stroke-width="0.296" stroke-linejoin="round"/>
<path d="M70.1321 76.054L72.7961 71.8597C72.7961 71.8597 73.7729 69.9712 74.0541 69.6219C74.3353 69.2726 75.4512 68.8523 74.5425 68.8523C73.6338 68.8523 73.3585 69.4117 73.3585 69.4117V67.9317C73.3585 67.5114 73.3585 66.4725 72.802 66.5435C72.2455 66.6145 72.4439 67.4315 72.3373 68.2307C72.2899 68.5829 71.8903 70.1784 71.8903 70.1784L71.2983 67.8252C71.2715 67.7108 71.2037 67.6103 71.1077 67.5426C71.0116 67.475 70.8941 67.4449 70.7774 67.4581C70.6619 67.4759 70.5731 67.5292 70.5731 67.6594C70.6574 68.2944 70.774 68.9248 70.9224 69.5479L70.7063 70.7319C70.7063 70.7319 70.4103 68.8819 69.9811 68.3905C69.7917 68.1745 69.4602 68.5741 69.5993 68.9234C69.7384 69.2726 69.8035 71.2381 69.8035 71.2381L69.7325 72.0757C69.7325 72.0757 69.2441 71.2381 68.9659 70.8177C68.6876 70.3974 68.2643 70.6076 68.4745 71.2381C68.6847 71.8685 69.1731 72.9164 69.1731 72.9164L68.6758 74.4437C68.6758 74.4437 67.8943 76.8206 70.1321 76.054Z" fill="white" stroke="#263238" stroke-width="0.296" stroke-linejoin="round"/>
<path d="M73.3439 69.4121L72.8555 70.8092" stroke="#263238" stroke-width="0.296" stroke-linejoin="round"/>
<path d="M39.9907 75.4033C39.9907 75.4033 38.3213 75.8444 38.3213 76.5429C38.3213 77.2415 38.3213 91.784 38.2502 92.2724C38.1792 92.7608 53.4913 90.594 53.4913 90.594L53.8406 88.226L44.4722 86.3376L44.4011 79.6243" fill="#008DCC"/>
<path d="M39.9907 75.4033C39.9907 75.4033 38.3213 75.8444 38.3213 76.5429C38.3213 77.2415 38.3213 91.784 38.2502 92.2724C38.1792 92.7608 53.4913 90.594 53.4913 90.594L53.8406 88.226L44.4722 86.3376L44.4011 79.6243" stroke="#263238" stroke-width="0.296" stroke-linejoin="round"/>
<path d="M52.2985 87.9121L52.2305 90.7389L52.2778 90.7685L53.4885 90.5998L53.8377 88.2318L52.2985 87.9121Z" fill="#008DCC" stroke="#263238" stroke-width="0.296" stroke-linejoin="round"/>
<path d="M53.8391 88.2074C53.8391 88.2074 55.7956 85.6914 56.6363 85.6914C57.4769 85.6914 58.7319 85.7624 59.0043 85.7624C59.2766 85.7624 59.913 85.6204 59.5637 86.1117C59.2144 86.6031 58.0245 86.5291 58.0245 86.5291L59.5815 87.3786C59.6882 87.436 59.7802 87.5172 59.8505 87.6159C59.9209 87.7145 59.9675 87.8281 59.987 87.9476C60.0065 88.0672 59.9982 88.1897 59.9627 88.3056C59.9273 88.4214 59.8657 88.5276 59.7827 88.6159C59.4305 88.9652 58.5218 88.9652 58.5218 88.9652C58.5218 88.9652 57.545 90.5724 56.9145 90.7116C56.284 90.8507 53.6289 90.2232 53.6289 90.2232L53.8391 88.2074Z" fill="white" stroke="#263238" stroke-width="0.296" stroke-linejoin="round"/>
<path d="M52.202 75.3968L52.3825 70.8147L50.5977 70.2197L50.8937 72.0638L52.202 75.3968Z" fill="#008DCC" stroke="#263238" stroke-width="0.296" stroke-linejoin="round"/>
<path d="M52.3825 70.8145L53.6908 73.4932L52.3203 73.3719L52.3825 70.8145Z" fill="#008DCC" stroke="#263238" stroke-width="0.296" stroke-linejoin="round"/>
<path d="M53.2137 67.3067C52.6217 67.4843 51.1891 70.9356 51.1891 70.9356L52.2014 75.3964L50.5971 73.1349L50.156 70.9623L46.3732 69.3876L46.4324 66.8893C46.0887 66.7032 45.7584 66.4935 45.4437 66.2618C44.7703 65.7948 44.1959 65.1993 43.7536 64.5095C42.9218 63.0828 41.7319 60.8835 43.576 58.5036C45.352 56.2067 47.1931 56.0705 49.2 55.9551H49.419C49.419 55.9551 51.7396 57.3848 51.787 58.0981C51.8344 58.8115 52.1452 59.8238 52.7993 60.2382C53.4535 60.6526 54.3444 60.179 54.3444 61.07C54.3292 61.3518 54.258 61.6278 54.135 61.8819C54.012 62.136 53.8397 62.3631 53.6281 62.55C53.6281 62.55 54.2201 65.288 54.5161 66.1789C54.8121 67.0699 53.8087 67.1261 53.2137 67.3067Z" fill="white" stroke="#263238" stroke-width="0.296" stroke-linejoin="round"/>
<path d="M51.4533 60.3044C51.6073 60.5382 51.6428 60.7869 51.5303 60.8579C51.4178 60.9289 51.2077 60.7987 51.0567 60.5619C50.9057 60.3251 50.8673 60.0794 50.9768 60.0084C51.0863 59.9373 51.2994 60.0705 51.4533 60.3044Z" fill="#263238"/>
<path d="M50.0586 60.1676C50.0586 60.1676 50.1178 59.1553 51.068 59.1553" stroke="#263238" stroke-width="0.296" stroke-linejoin="round"/>
<path d="M52.7939 63.7375C52.7939 63.7375 51.1896 64.0927 50.8906 63.1455" stroke="#263238" stroke-width="0.296" stroke-linejoin="round"/>
<path d="M48.8714 58.0863C49.4072 58.6191 47.4417 59.9274 47.1457 60.5253C46.8497 61.1232 47.3855 62.0704 47.4417 62.4878C47.498 62.9052 46.0772 64.0921 46.0772 64.0921L45.5384 64.6279L45.9558 66.2944C45.9558 66.2944 45.7664 66.2944 45.4437 66.2618C44.7703 65.7948 44.1959 65.1993 43.7536 64.5095C42.9218 63.0828 41.7319 60.8835 43.576 58.5036C45.352 56.2067 47.1931 56.0705 49.2 55.9551C48.8536 56.1889 48.4156 56.2925 48.1669 56.5471C47.7999 56.8934 48.3356 57.5476 48.8714 58.0863Z" fill="#A6A6A6" stroke="#263238" stroke-width="0.296" stroke-linejoin="round"/>
<path d="M46.7886 64.333C46.7886 64.333 45.9006 62.9655 44.8232 63.741C43.7457 64.5165 45.7112 66.2984 46.0723 66.5944C46.4334 66.8904 47.5523 65.7627 47.5523 65.7627C47.7581 66.0599 48.0212 66.3131 48.3262 66.5072C48.6312 66.7014 48.9719 66.8327 49.3283 66.8934" fill="white"/>
<path d="M46.7886 64.333C46.7886 64.333 45.9006 62.9655 44.8232 63.741C43.7457 64.5165 45.7112 66.2984 46.0723 66.5944C46.4334 66.8904 47.5523 65.7627 47.5523 65.7627C47.7581 66.0599 48.0212 66.3131 48.3262 66.5072C48.6312 66.7014 48.9719 66.8327 49.3283 66.8934" stroke="#263238" stroke-width="0.296" stroke-linejoin="round"/>
<path d="M47.8607 57.0158C47.8607 57.0158 45.3033 59.8722 44.6491 61.1805C44.2055 62.1038 43.8277 63.0573 43.5184 64.0339C43.5184 64.0339 42.2101 63.9155 41.4464 63.0838C40.6827 62.252 41.5056 58.9782 42.9915 57.3739C43.9186 56.3863 45.0053 55.5617 46.2061 54.9349C46.2061 54.9349 44.3028 54.9941 45.0221 54.4583C45.7414 53.9226 47.5203 53.6858 48.7102 54.2807C48.8674 54.3417 49.0108 54.4334 49.1321 54.5505C49.2534 54.6675 49.35 54.8076 49.4165 54.9626C49.4829 55.1175 49.5178 55.2841 49.519 55.4527C49.5202 55.6213 49.4878 55.7884 49.4236 55.9442L47.8607 57.0158Z" fill="#263238" stroke="#263238" stroke-width="0.296" stroke-linejoin="round"/>
<path d="M46.0184 69.0303L44.793 71.6321L49.5882 74.3849L50.3992 70.7856L46.0184 69.0303Z" fill="#008DCC" stroke="#263238" stroke-width="0.296" stroke-linejoin="round"/>
</svg>
