<svg width="99" height="99" viewBox="0 0 99 99" fill="none" xmlns="http://www.w3.org/2000/svg">
<path d="M66 41.25C54.6274 41.25 45.375 31.9976 45.375 20.625C45.375 9.25238 54.6274 0 66 0C77.3726 0 86.625 9.25238 86.625 20.625C86.625 31.9976 77.3726 41.25 66 41.25ZM66 4.125C56.9003 4.125 49.5 11.5253 49.5 20.625C49.5 29.7248 56.9003 37.125 66 37.125C75.0998 37.125 82.5 29.7248 82.5 20.625C82.5 11.5253 75.0998 4.125 66 4.125Z" fill="#00587F"/>
<path d="M92.8128 49.5001C92.2848 49.5001 91.7568 49.2979 91.3525 48.8978L78.697 36.2423C77.8927 35.4379 77.8927 34.1303 78.697 33.3259C79.5014 32.5216 80.809 32.5216 81.6134 33.3259L94.2689 45.9814C95.0733 46.7858 95.0733 48.0934 94.2689 48.8978C93.8688 49.2979 93.3408 49.5001 92.8128 49.5001Z" fill="#00587F"/>
<path d="M6.1875 74.25C5.049 74.25 4.125 73.326 4.125 72.1875V10.3125C4.125 4.62825 8.75325 0 14.4375 0H43.3125C44.451 0 45.375 0.924 45.375 2.0625C45.375 3.201 44.451 4.125 43.3125 4.125H14.4375C11.0261 4.125 8.25 6.90112 8.25 10.3125V72.1875C8.25 73.326 7.326 74.25 6.1875 74.25Z" fill="#00587F"/>
<path d="M30.9375 82.5H14.4375C8.75325 82.5 4.125 77.8717 4.125 72.1875C4.125 66.5033 8.75325 61.875 14.4375 61.875H74.25V51.5625C74.25 50.424 75.174 49.5 76.3125 49.5C77.451 49.5 78.375 50.424 78.375 51.5625V63.9375C78.375 65.076 77.451 66 76.3125 66H14.4375C11.0261 66 8.25 68.7761 8.25 72.1875C8.25 75.5989 11.0261 78.375 14.4375 78.375H30.9375C32.076 78.375 33 79.299 33 80.4375C33 81.576 32.076 82.5 30.9375 82.5Z" fill="#00587F"/>
<path d="M76.3125 82.5H51.5625C50.424 82.5 49.5 81.576 49.5 80.4375C49.5 79.299 50.424 78.375 51.5625 78.375H74.25V63.9375C74.25 62.799 75.174 61.875 76.3125 61.875C77.451 61.875 78.375 62.799 78.375 63.9375V80.4375C78.375 81.576 77.451 82.5 76.3125 82.5Z" fill="#00587F"/>
<path d="M51.5625 99C51.1046 99 50.6468 98.8474 50.2714 98.5504L41.25 91.3275L32.2245 98.5463C31.6057 99.0413 30.7601 99.1361 30.0424 98.7938C29.3287 98.4514 28.875 97.7295 28.875 96.9375V72.1875C28.875 71.049 29.799 70.125 30.9375 70.125C32.076 70.125 33 71.049 33 72.1875V92.6434L39.963 87.0746C40.7179 86.4724 41.7862 86.4724 42.5411 87.0746L49.5 92.6434V72.1875C49.5 71.049 50.424 70.125 51.5625 70.125C52.701 70.125 53.625 71.049 53.625 72.1875V96.9375C53.625 97.7295 53.1712 98.4514 52.4576 98.7979C52.173 98.934 51.8678 99 51.5625 99Z" fill="#00587F"/>
<path d="M59.8125 74.25H22.6875C21.549 74.25 20.625 73.326 20.625 72.1875C20.625 71.049 21.549 70.125 22.6875 70.125H59.8125C60.951 70.125 61.875 71.049 61.875 72.1875C61.875 73.326 60.951 74.25 59.8125 74.25Z" fill="#00587F"/>
</svg>
