<svg width="171" height="171" viewBox="0 0 171 171" fill="none" xmlns="http://www.w3.org/2000/svg">
<path d="M129.275 52.1756C123.953 49.2618 118.409 48.0922 112.359 48.8411C104.907 49.7611 99.0212 50.8453 91.8905 48.0682C85.8952 45.7358 80.4198 42.2542 74.7016 39.3677C63.0052 33.434 51.3943 31.5975 42.6254 43.3007C37.9605 49.5286 34.4174 56.6798 31.9721 64.2243C28.0186 76.3961 24.7696 89.8743 26.5514 102.586C28.8052 118.701 42.6254 126.267 59.1577 120.429C65.8438 118.069 72.2973 114.615 79.428 113.626C94.3495 111.554 106.648 125.254 124.541 121.923C155.383 116.191 153.105 65.2229 129.275 52.1756Z" fill="#008DCC"/>
<path opacity="0.7" d="M129.275 52.1756C123.953 49.2618 118.409 48.0922 112.359 48.8411C104.907 49.7611 99.0212 50.8453 91.8905 48.0682C85.8952 45.7358 80.4198 42.2542 74.7016 39.3677C63.0052 33.434 51.3943 31.5975 42.6254 43.3007C37.9605 49.5286 34.4174 56.6798 31.9721 64.2243C28.0186 76.3961 24.7696 89.8743 26.5514 102.586C28.8052 118.701 42.6254 126.267 59.1577 120.429C65.8438 118.069 72.2973 114.615 79.428 113.626C94.3495 111.554 106.648 125.254 124.541 121.923C155.383 116.191 153.105 65.2229 129.275 52.1756Z" fill="white"/>
<path d="M133.944 39.046C131.772 37.8592 130.787 38.8476 129.997 37.8592C129.207 36.8709 132.169 34.3059 126.235 31.7409C126.235 31.7409 125.842 26.2141 117.747 26.0158C109.652 25.8174 111.833 31.5425 109.662 32.9242C107.49 34.3059 106.898 32.1478 104.727 33.5158C102.555 34.8838 103.543 37.6609 101.768 38.0542C99.9934 38.4475 97.6199 36.2792 95.4482 37.6609C93.2765 39.0426 93.2765 40.2259 92.2916 40.2259C91.3066 40.2259 89.3299 39.4359 88.1465 40.2259C86.9632 41.0159 85.5781 42.0043 85.5781 42.0043H135.51C135.51 42.0043 136.115 40.2293 133.944 39.046Z" fill="#008DCC"/>
<path opacity="0.5" d="M133.944 39.046C131.772 37.8592 130.787 38.8476 129.997 37.8592C129.207 36.8709 132.169 34.3059 126.235 31.7409C126.235 31.7409 125.842 26.2141 117.747 26.0158C109.652 25.8174 111.833 31.5425 109.662 32.9242C107.49 34.3059 106.898 32.1478 104.727 33.5158C102.555 34.8838 103.543 37.6609 101.768 38.0542C99.9934 38.4475 97.6199 36.2792 95.4482 37.6609C93.2765 39.0426 93.2765 40.2259 92.2916 40.2259C91.3066 40.2259 89.3299 39.4359 88.1465 40.2259C86.9632 41.0159 85.5781 42.0043 85.5781 42.0043H135.51C135.51 42.0043 136.115 40.2293 133.944 39.046Z" fill="white"/>
<path d="M77.3175 83.4133C75.7922 82.5822 75.098 83.2731 74.5439 82.5822C73.9899 81.8914 76.0692 80.0856 71.9105 78.2833C71.9105 78.2833 71.6335 74.4016 65.946 74.2614C60.2586 74.1212 61.7873 78.1431 60.262 79.1144C58.7367 80.0857 58.3229 78.5603 56.7975 79.5316C55.2722 80.5029 55.9631 82.442 54.7182 82.719C53.4733 82.9961 51.8043 81.4707 50.2722 82.442C48.74 83.4133 48.7469 84.2444 48.056 84.2444C47.3652 84.2444 45.9732 83.6903 45.1422 84.2444C44.3111 84.7984 43.3398 85.4927 43.3398 85.4927H78.4256C78.4256 85.4927 78.8429 84.2444 77.3175 83.4133Z" fill="white"/>
<path opacity="0.5" d="M77.3175 83.4133C75.7922 82.5822 75.098 83.2731 74.5439 82.5822C73.9899 81.8914 76.0692 80.0856 71.9105 78.2833C71.9105 78.2833 71.6335 74.4016 65.946 74.2614C60.2586 74.1212 61.7873 78.1431 60.262 79.1144C58.7367 80.0857 58.3229 78.5603 56.7975 79.5316C55.2722 80.5029 55.9631 82.442 54.7182 82.719C53.4733 82.9961 51.8043 81.4707 50.2722 82.442C48.74 83.4133 48.7469 84.2444 48.056 84.2444C47.3652 84.2444 45.9732 83.6903 45.1422 84.2444C44.3111 84.7984 43.3398 85.4927 43.3398 85.4927H78.4256C78.4256 85.4927 78.8429 84.2444 77.3175 83.4133Z" fill="white"/>
<path d="M120.682 141.203H142.297C141.883 138.559 140.183 139.024 139.958 134.927C139.845 132.875 141.757 130.31 141.589 127.601C141.452 125.368 139.253 123.08 139.082 120.525C138.928 118.22 140.792 115.662 140.624 113.179C140.45 110.833 138.23 108.579 138.022 106.137C137.83 103.743 139.67 101.175 139.451 98.7672C139.233 96.3596 136.965 94.1468 136.715 91.7733C136.466 89.3349 138.248 86.7083 137.974 84.3759C137.687 81.8964 135.347 79.7555 135.029 77.4709C134.687 74.9298 136.332 72.2144 135.946 70.0187C135.471 67.3306 132.967 65.3846 132.44 63.401C131.459 59.704 131.582 56.1438 130.423 55.9112C129.188 55.665 128.904 59.1568 127.967 63.059C127.495 65.0187 125.05 67.0057 124.646 69.6972C124.321 71.8758 126.052 74.5263 125.768 77.0571C125.515 79.3245 123.234 81.5031 123.011 83.9689C122.803 86.2877 124.653 88.8424 124.472 91.2672C124.294 93.6236 122.078 95.8705 121.931 98.2645C121.784 100.659 123.685 103.162 123.555 105.525C123.422 107.947 121.25 110.235 121.137 112.564C121.021 115.029 122.967 117.516 122.871 119.8C122.765 122.334 120.624 124.653 120.546 126.869C120.45 129.558 122.423 132.037 122.362 134.086C122.232 138.532 120.197 137.605 120.125 141.182L120.682 141.203Z" fill="#008DCC"/>
<path d="M129.961 63.0151V140.205" stroke="black" stroke-width="0.342" stroke-miterlimit="10"/>
<path d="M133.332 71.1059L129.813 74.1463L126.934 70.3057" stroke="black" stroke-width="0.342" stroke-miterlimit="10"/>
<path d="M133.332 84.543L129.813 87.5799L126.934 83.7427" stroke="black" stroke-width="0.342" stroke-miterlimit="10"/>
<path d="M133.332 97.1772L129.813 100.218L126.934 96.377" stroke="black" stroke-width="0.342" stroke-miterlimit="10"/>
<path d="M133.332 112.214L129.813 115.251L126.934 111.414" stroke="black" stroke-width="0.342" stroke-miterlimit="10"/>
<path d="M133.332 127.41L129.813 130.447L126.934 126.609" stroke="black" stroke-width="0.342" stroke-miterlimit="10"/>
<path d="M105.96 141.203H122.646C122.324 139.151 121.015 139.52 120.84 136.36C120.751 134.766 122.225 132.796 122.099 130.703C121.993 128.993 120.296 127.211 120.163 125.231C120.043 123.453 121.493 121.469 121.353 119.561C121.22 117.748 119.5 116.011 119.346 114.126C119.192 112.242 120.618 110.293 120.45 108.436C120.283 106.578 118.528 104.868 118.344 103.039C118.152 101.154 119.527 99.1297 119.315 97.3239C119.093 95.4122 117.287 93.7603 117.044 91.999C116.77 90.0359 118.049 87.9395 117.748 86.2466C117.383 84.1706 115.45 82.6658 115.047 81.1371C114.287 78.2848 114.383 75.5317 113.487 75.3539C112.533 75.1623 112.314 77.8573 111.592 80.8737C111.23 82.3854 109.339 83.921 109.027 86.0037C108.778 87.6864 110.112 89.7315 109.893 91.6844C109.698 93.4354 107.94 95.1044 107.765 97.0196C107.605 98.8082 109.034 100.782 108.894 102.652C108.757 104.472 107.051 106.206 106.931 108.052C106.811 109.899 108.299 111.835 108.186 113.658C108.073 115.481 106.408 117.293 106.322 119.092C106.23 120.994 107.731 122.912 107.659 124.677C107.577 126.633 105.926 128.439 105.864 130.149C105.789 132.222 107.314 134.14 107.266 135.717C107.164 139.137 105.594 138.436 105.539 141.189L105.96 141.203Z" fill="#008DCC"/>
<path d="M113.125 80.8491V140.432" stroke="black" stroke-width="0.342" stroke-miterlimit="10"/>
<path d="M115.724 87.0946L113.008 89.4407L110.785 86.4756" stroke="black" stroke-width="0.342" stroke-miterlimit="10"/>
<path d="M115.724 97.4638L113.008 99.8099L110.785 96.8481" stroke="black" stroke-width="0.342" stroke-miterlimit="10"/>
<path d="M115.724 107.218L113.008 109.564L110.785 106.602" stroke="black" stroke-width="0.342" stroke-miterlimit="10"/>
<path d="M115.724 118.826L113.008 121.172L110.785 118.207" stroke="black" stroke-width="0.342" stroke-miterlimit="10"/>
<path d="M115.724 130.556L113.008 132.898L110.785 129.937" stroke="black" stroke-width="0.342" stroke-miterlimit="10"/>
<path d="M91.0859 141.042V71.896H94.7351V141.042" fill="#2E353A"/>
<path d="M91.0859 141.042V71.896H94.7351V141.042" stroke="#2E353A" stroke-width="0.342" stroke-linecap="round" stroke-linejoin="round"/>
<path d="M89.2617 141.042V71.896H92.9109V141.042" fill="#008DCC"/>
<path d="M89.2617 141.042V71.896H92.9109V141.042" stroke="#2E353A" stroke-width="0.342" stroke-linecap="round" stroke-linejoin="round"/>
<g style="mix-blend-mode:multiply" opacity="0.3">
<path d="M92.9109 71.896H89.2617V80.104H92.9109V71.896Z" fill="#2E353A"/>
</g>
<path d="M104.831 44.9023H77.793L89.5783 73.8492H116.62V56.6877C116.62 55.1397 116.315 53.6069 115.723 52.1768C115.13 50.7467 114.262 49.4474 113.167 48.353C112.072 47.2586 110.773 46.3905 109.343 45.7985C107.912 45.2064 106.379 44.9019 104.831 44.9023Z" fill="#008DCC" stroke="#2E353A" stroke-width="0.342" stroke-linecap="round" stroke-linejoin="round"/>
<g style="mix-blend-mode:multiply" opacity="0.3">
<path d="M87.5156 68.7806L89.5676 73.849H116.62V56.6875C116.62 56.4276 116.62 56.1676 116.592 55.9111H87.5225L87.5156 68.7806Z" fill="black"/>
</g>
<path d="M104.638 55.9111H101.793" stroke="#2E353A" stroke-width="0.342" stroke-linecap="round" stroke-linejoin="round"/>
<path d="M116.588 55.9111H107.977" stroke="#2E353A" stroke-width="0.342" stroke-linecap="round" stroke-linejoin="round"/>
<path d="M77.7926 44.9023C80.9192 44.9023 83.9177 46.1444 86.1285 48.3552C88.3394 50.566 89.5814 53.5645 89.5814 56.6911V73.8526H66.0039V56.6877C66.0048 53.5617 67.2472 50.5641 69.458 48.354C71.6687 46.1439 74.6667 44.9023 77.7926 44.9023Z" fill="#2E353A" stroke="#2E353A" stroke-width="0.342" stroke-linecap="round" stroke-linejoin="round"/>
<path d="M89.5843 71.896H69.2695V73.8488H89.5843V71.896Z" fill="#008DCC" stroke="#2E353A" stroke-width="0.342" stroke-linecap="round" stroke-linejoin="round"/>
<path d="M89.5811 71.896H47.5391V73.8488H89.5811V71.896Z" fill="#008DCC" stroke="#2E353A" stroke-width="0.342" stroke-linecap="round" stroke-linejoin="round"/>
<path opacity="0.3" d="M89.5843 71.896H69.2695V73.8488H89.5843V71.896Z" fill="black"/>
<path d="M106.593 37.9253H98.1562V43.8522H106.593V37.9253Z" fill="#2E353A" stroke="#2E353A" stroke-width="0.342" stroke-linecap="round" stroke-linejoin="round"/>
<path d="M98.8385 37.9253H97.0156V56.3933H98.8385V37.9253Z" fill="white" stroke="#2E353A" stroke-width="0.342" stroke-linecap="round" stroke-linejoin="round"/>
<path d="M97.9231 58.8999C99.0564 58.8999 99.9751 57.9812 99.9751 56.8479C99.9751 55.7146 99.0564 54.7959 97.9231 54.7959C96.7898 54.7959 95.8711 55.7146 95.8711 56.8479C95.8711 57.9812 96.7898 58.8999 97.9231 58.8999Z" fill="#2E353A" stroke="#2E353A" stroke-width="0.342" stroke-linecap="round" stroke-linejoin="round"/>
<path d="M67.8359 49.6406C72.5966 52.0586 80.873 55.9334 88.5064 57.8828" stroke="white" stroke-width="0.342" stroke-linecap="round" stroke-linejoin="round" stroke-dasharray="0.68 1.37"/>
<path d="M63.8398 47.5371C63.8398 47.5371 65.3652 48.399 67.8344 49.6541" stroke="#2E353A" stroke-width="0.342" stroke-linecap="round" stroke-linejoin="round" stroke-dasharray="0.68 1.37"/>
<path d="M62.1289 47.4113L65.5523 39.2785L40.7266 33.2217L62.1289 47.4113Z" fill="white" stroke="#2E353A" stroke-width="0.431912" stroke-linecap="round" stroke-linejoin="round"/>
<path d="M63.7979 40.2635L62.1289 47.4113L40.7266 33.2217L63.7979 40.2635Z" fill="#008DCC" stroke="#2E353A" stroke-width="0.431912" stroke-linecap="round" stroke-linejoin="round"/>
<path d="M63.7979 40.2635L59.9025 43.6014L40.7266 33.2217L63.7979 40.2635Z" fill="white" stroke="#2E353A" stroke-width="0.431912" stroke-linecap="round" stroke-linejoin="round"/>
<path d="M65.5523 39.2785L69.0202 37.8695L40.7266 33.2217L65.5523 39.2785Z" fill="white" stroke="#2E353A" stroke-width="0.431912" stroke-linecap="round" stroke-linejoin="round"/>
<path d="M57.3008 46.146L58.1045 46.6385" stroke="#2E353A" stroke-width="0.342" stroke-linecap="round" stroke-linejoin="round"/>
<path d="M52.9219 43.4585L55.6134 45.1069" stroke="#2E353A" stroke-width="0.342" stroke-linecap="round" stroke-linejoin="round"/>
<path d="M49.8945 62.9794V54.1592L75.1273 58.2153L49.8945 62.9794Z" fill="white" stroke="#2E353A" stroke-width="0.431912" stroke-linecap="round" stroke-linejoin="round"/>
<path d="M51.1292 55.7461L49.8945 62.9794L75.1273 58.2153L51.1292 55.7461Z" fill="#008DCC" stroke="#2E353A" stroke-width="0.431912" stroke-linecap="round" stroke-linejoin="round"/>
<path d="M51.1328 55.7461L53.4276 60.3323L75.131 58.2153L51.1328 55.7461Z" fill="white" stroke="#2E353A" stroke-width="0.431912" stroke-linecap="round" stroke-linejoin="round"/>
<path d="M49.9049 54.1583L47.2578 51.5112L75.1377 58.2144L49.9049 54.1583Z" fill="white" stroke="#2E353A" stroke-width="0.431912" stroke-linecap="round" stroke-linejoin="round"/>
<path d="M58.9336 62.8152L61.1224 62.3706" stroke="#2E353A" stroke-width="0.342" stroke-linecap="round" stroke-linejoin="round"/>
<path d="M51.25 64.3781L56.7528 63.2598" stroke="#2E353A" stroke-width="0.342" stroke-linecap="round" stroke-linejoin="round"/>
<path d="M46.8595 62.4355C46.8595 62.4355 27.0235 65.8555 23.2615 83.6395C19.4995 101.424 39.3355 102.45 42.7555 93.8996C46.1755 85.3495 31.1275 81.9295 27.7075 90.1375C24.2875 98.3456 34.5475 112.368 48.5695 113.052C60.2215 113.619 92.8893 100.018 113.208 96.5808C113.208 96.5808 128.256 92.4153 151.512 93.3284" stroke="#2E353A" stroke-width="0.342" stroke-linecap="round" stroke-linejoin="round" stroke-dasharray="0.68 1.37"/>
<path d="M144.773 118.181H150.475" stroke="#2E353A" stroke-width="0.342" stroke-linecap="round" stroke-linejoin="round"/>
<path d="M144.773 126.615H150.475" stroke="#2E353A" stroke-width="0.342" stroke-linecap="round" stroke-linejoin="round"/>
<path d="M24.7344 126.389H144.092V118.406H24.7344" fill="white"/>
<path d="M24.7344 126.389H144.092V118.406H24.7344" stroke="#2E353A" stroke-width="0.342" stroke-linecap="round" stroke-linejoin="round"/>
<path d="M33.0352 141.095V100.937C33.0352 100.839 33.0553 100.741 33.0941 100.651C33.1329 100.56 33.1896 100.478 33.2609 100.41L36.3799 97.4727C36.5204 97.3414 36.7071 97.2709 36.8993 97.2767C37.0915 97.2825 37.2736 97.364 37.4059 97.5035L40.1419 100.414C40.266 100.549 40.3355 100.726 40.3369 100.91V141.095" fill="#2E353A"/>
<path d="M33.0352 141.095V100.937C33.0352 100.839 33.0553 100.741 33.0941 100.651C33.1329 100.56 33.1896 100.478 33.2609 100.41L36.3799 97.4727C36.5204 97.3414 36.7071 97.2709 36.8993 97.2767C37.0915 97.2825 37.2736 97.364 37.4059 97.5035L40.1419 100.414C40.266 100.549 40.3355 100.726 40.3369 100.91V141.095" stroke="#2E353A" stroke-width="0.342" stroke-linecap="round" stroke-linejoin="round"/>
<path d="M32.1523 141.437V100.938C32.1522 100.839 32.1725 100.741 32.212 100.65C32.2514 100.56 32.3091 100.478 32.3815 100.411L35.5005 97.4731C35.5699 97.4077 35.6514 97.3566 35.7406 97.3227C35.8297 97.2888 35.9246 97.2729 36.0199 97.2757C36.1152 97.2786 36.209 97.3002 36.2959 97.3394C36.3829 97.3785 36.4612 97.4344 36.5265 97.5039L39.2625 100.414C39.3881 100.549 39.4578 100.726 39.4575 100.91V141.437" fill="white"/>
<path d="M32.1523 141.437V100.938C32.1522 100.839 32.1725 100.741 32.212 100.65C32.2514 100.56 32.3091 100.478 32.3815 100.411L35.5005 97.4731C35.5699 97.4077 35.6514 97.3566 35.7406 97.3227C35.8297 97.2888 35.9246 97.2729 36.0199 97.2757C36.1152 97.2786 36.209 97.3002 36.2959 97.3394C36.3829 97.3785 36.4612 97.4344 36.5265 97.5039L39.2625 100.414C39.3881 100.549 39.4578 100.726 39.4575 100.91V141.437" stroke="#2E353A" stroke-width="0.342" stroke-linecap="round" stroke-linejoin="round"/>
<path d="M59.332 141.095V100.938C59.3321 100.839 59.3521 100.742 59.3909 100.651C59.4297 100.561 59.4865 100.479 59.5577 100.411L62.6802 97.4731C62.7495 97.4077 62.8311 97.3566 62.9202 97.3227C63.0094 97.2888 63.1043 97.2729 63.1996 97.2757C63.2949 97.2786 63.3887 97.3002 63.4756 97.3394C63.5626 97.3785 63.6409 97.4344 63.7062 97.5039L66.4422 100.414C66.5678 100.549 66.6375 100.726 66.6372 100.91V141.095" fill="#2E353A"/>
<path d="M59.332 141.095V100.938C59.3321 100.839 59.3521 100.742 59.3909 100.651C59.4297 100.561 59.4865 100.479 59.5577 100.411L62.6802 97.4731C62.7495 97.4077 62.8311 97.3566 62.9202 97.3227C63.0094 97.2888 63.1043 97.2729 63.1996 97.2757C63.2949 97.2786 63.3887 97.3002 63.4756 97.3394C63.5626 97.3785 63.6409 97.4344 63.7062 97.5039L66.4422 100.414C66.5678 100.549 66.6375 100.726 66.6372 100.91V141.095" stroke="#2E353A" stroke-width="0.342" stroke-linecap="round" stroke-linejoin="round"/>
<path d="M58.5938 141.437V100.937C58.5937 100.838 58.6139 100.741 58.6534 100.65C58.6928 100.559 58.7505 100.478 58.8229 100.41L61.9419 97.4727C62.0824 97.3414 62.2691 97.2709 62.4613 97.2767C62.6535 97.2825 62.8356 97.364 62.9679 97.5035L65.7039 100.414C65.8304 100.548 65.9013 100.725 65.9023 100.91V141.437" fill="white"/>
<path d="M58.5938 141.437V100.937C58.5937 100.838 58.6139 100.741 58.6534 100.65C58.6928 100.559 58.7505 100.478 58.8229 100.41L61.9419 97.4727C62.0824 97.3414 62.2691 97.2709 62.4613 97.2767C62.6535 97.2825 62.8356 97.364 62.9679 97.5035L65.7039 100.414C65.8304 100.548 65.9013 100.725 65.9023 100.91V141.437" stroke="#2E353A" stroke-width="0.342" stroke-linecap="round" stroke-linejoin="round"/>
<path d="M85.7734 141.095V100.937C85.7733 100.838 85.7936 100.741 85.8331 100.65C85.8725 100.559 85.9302 100.478 86.0026 100.41L89.1216 97.4727C89.2621 97.3414 89.4488 97.2709 89.641 97.2767C89.8332 97.2825 90.0153 97.364 90.1476 97.5035L92.8836 100.414C93.0101 100.548 93.081 100.725 93.082 100.91V141.437" fill="#2E353A"/>
<path d="M85.7734 141.095V100.937C85.7733 100.838 85.7936 100.741 85.8331 100.65C85.8725 100.559 85.9302 100.478 86.0026 100.41L89.1216 97.4727C89.2621 97.3414 89.4488 97.2709 89.641 97.2767C89.8332 97.2825 90.0153 97.364 90.1476 97.5035L92.8836 100.414C93.0101 100.548 93.081 100.725 93.082 100.91V141.437" stroke="#2E353A" stroke-width="0.342" stroke-linecap="round" stroke-linejoin="round"/>
<path d="M85.043 141.437V100.938C85.043 100.839 85.0631 100.742 85.1019 100.651C85.1407 100.561 85.1974 100.479 85.2687 100.411L88.3911 97.4731C88.4605 97.4077 88.5421 97.3566 88.6312 97.3227C88.7203 97.2888 88.8152 97.2729 88.9105 97.2757C89.0058 97.2786 89.0996 97.3002 89.1866 97.3394C89.2735 97.3785 89.3519 97.4344 89.4171 97.5039L92.1531 100.414C92.2787 100.549 92.3484 100.726 92.3481 100.91V141.437" fill="white"/>
<path d="M85.043 141.437V100.938C85.043 100.839 85.0631 100.742 85.1019 100.651C85.1407 100.561 85.1974 100.479 85.2687 100.411L88.3911 97.4731C88.4605 97.4077 88.5421 97.3566 88.6312 97.3227C88.7203 97.2888 88.8152 97.2729 88.9105 97.2757C89.0058 97.2786 89.0996 97.3002 89.1866 97.3394C89.2735 97.3785 89.3519 97.4344 89.4171 97.5039L92.1531 100.414C92.2787 100.549 92.3484 100.726 92.3481 100.91V141.437" stroke="#2E353A" stroke-width="0.342" stroke-linecap="round" stroke-linejoin="round"/>
<path d="M112.23 141.095V100.937C112.231 100.839 112.251 100.741 112.289 100.651C112.328 100.56 112.385 100.478 112.456 100.41L115.575 97.4727C115.716 97.3414 115.902 97.2709 116.095 97.2767C116.287 97.2825 116.469 97.364 116.601 97.5035L119.337 100.414C119.461 100.549 119.531 100.726 119.532 100.91V141.095" fill="#2E353A"/>
<path d="M112.23 141.095V100.937C112.231 100.839 112.251 100.741 112.289 100.651C112.328 100.56 112.385 100.478 112.456 100.41L115.575 97.4727C115.716 97.3414 115.902 97.2709 116.095 97.2767C116.287 97.2825 116.469 97.364 116.601 97.5035L119.337 100.414C119.461 100.549 119.531 100.726 119.532 100.91V141.095" stroke="#2E353A" stroke-width="0.342" stroke-linecap="round" stroke-linejoin="round"/>
<path d="M111.492 141.437V100.938C111.492 100.839 111.512 100.741 111.552 100.65C111.591 100.56 111.649 100.478 111.721 100.411L114.84 97.4731C114.91 97.4077 114.991 97.3566 115.08 97.3227C115.17 97.2888 115.264 97.2729 115.36 97.2757C115.455 97.2786 115.549 97.3002 115.636 97.3394C115.723 97.3785 115.801 97.4344 115.866 97.5039L118.602 100.414C118.728 100.549 118.798 100.726 118.797 100.91V141.437" fill="white"/>
<path d="M111.492 141.437V100.938C111.492 100.839 111.512 100.741 111.552 100.65C111.591 100.56 111.649 100.478 111.721 100.411L114.84 97.4731C114.91 97.4077 114.991 97.3566 115.08 97.3227C115.17 97.2888 115.264 97.2729 115.36 97.2757C115.455 97.2786 115.549 97.3002 115.636 97.3394C115.723 97.3785 115.801 97.4344 115.866 97.5039L118.602 100.414C118.728 100.549 118.798 100.726 118.797 100.91V141.437" stroke="#2E353A" stroke-width="0.342" stroke-linecap="round" stroke-linejoin="round"/>
<path d="M138.672 141.095V100.938C138.672 100.839 138.692 100.742 138.731 100.651C138.77 100.561 138.826 100.479 138.898 100.411L142.02 97.4731C142.089 97.4077 142.171 97.3566 142.26 97.3227C142.349 97.2888 142.444 97.2729 142.539 97.2757C142.635 97.2786 142.729 97.3002 142.815 97.3394C142.902 97.3785 142.981 97.4344 143.046 97.5039L145.782 100.414C145.908 100.549 145.977 100.726 145.977 100.91V141.095" fill="#2E353A"/>
<path d="M138.672 141.095V100.938C138.672 100.839 138.692 100.742 138.731 100.651C138.77 100.561 138.826 100.479 138.898 100.411L142.02 97.4731C142.089 97.4077 142.171 97.3566 142.26 97.3227C142.349 97.2888 142.444 97.2729 142.539 97.2757C142.635 97.2786 142.729 97.3002 142.815 97.3394C142.902 97.3785 142.981 97.4344 143.046 97.5039L145.782 100.414C145.908 100.549 145.977 100.726 145.977 100.91V141.095" stroke="#2E353A" stroke-width="0.342" stroke-linecap="round" stroke-linejoin="round"/>
<path d="M137.934 141.437V100.937C137.933 100.838 137.954 100.741 137.993 100.65C138.033 100.559 138.09 100.478 138.163 100.41L141.282 97.4727C141.422 97.3414 141.609 97.2709 141.801 97.2767C141.993 97.2825 142.175 97.364 142.308 97.5035L145.044 100.414C145.17 100.548 145.241 100.725 145.242 100.91V141.437" fill="white"/>
<path d="M137.934 141.437V100.937C137.933 100.838 137.954 100.741 137.993 100.65C138.033 100.559 138.09 100.478 138.163 100.41L141.282 97.4727C141.422 97.3414 141.609 97.2709 141.801 97.2767C141.993 97.2825 142.175 97.364 142.308 97.5035L145.044 100.414C145.17 100.548 145.241 100.725 145.242 100.91V141.437" stroke="#2E353A" stroke-width="0.342" stroke-linecap="round" stroke-linejoin="round"/>
<path d="M36.5156 97.5034V100.431" stroke="#2E353A" stroke-width="0.342" stroke-linecap="round" stroke-linejoin="round"/>
<path d="M37.6875 99.0151V105.944" stroke="#2E353A" stroke-width="0.342" stroke-linecap="round" stroke-linejoin="round"/>
<path d="M60.0312 99.5835V108.349" stroke="#2E353A" stroke-width="0.342" stroke-linecap="round" stroke-linejoin="round"/>
<path d="M61.168 98.4507V102.267" stroke="#2E353A" stroke-width="0.342" stroke-linecap="round" stroke-linejoin="round"/>
<path d="M88.3867 97.4727V106.088" stroke="#2E353A" stroke-width="0.342" stroke-linecap="round" stroke-linejoin="round"/>
<path d="M90.0156 98.1675V110.897" stroke="#2E353A" stroke-width="0.342" stroke-linecap="round" stroke-linejoin="round"/>
<path d="M112.781 99.5835V109.197" stroke="#2E353A" stroke-width="0.342" stroke-linecap="round" stroke-linejoin="round"/>
<path d="M116.457 98.4507V100.855" stroke="#2E353A" stroke-width="0.342" stroke-linecap="round" stroke-linejoin="round"/>
<path d="M140.363 98.3076V103.4" stroke="#2E353A" stroke-width="0.342" stroke-linecap="round" stroke-linejoin="round"/>
<path d="M143.473 98.8755V113.581" stroke="#2E353A" stroke-width="0.342" stroke-linecap="round" stroke-linejoin="round"/>
<path d="M137.819 120.371H134.707" stroke="#2E353A" stroke-width="0.342" stroke-linecap="round" stroke-linejoin="round"/>
<path d="M137.815 122.774H126.926" stroke="#2E353A" stroke-width="0.342" stroke-linecap="round" stroke-linejoin="round"/>
<path d="M97.2222 122.774H92.2734" stroke="#2E353A" stroke-width="0.342" stroke-linecap="round" stroke-linejoin="round"/>
<path d="M71.2066 122.774H66.2578" stroke="#2E353A" stroke-width="0.342" stroke-linecap="round" stroke-linejoin="round"/>
<path d="M32.0347 121.502H27.0859" stroke="#2E353A" stroke-width="0.342" stroke-linecap="round" stroke-linejoin="round"/>
<path d="M32.0388 123.763H30.0586" stroke="#2E353A" stroke-width="0.342" stroke-linecap="round" stroke-linejoin="round"/>
<path d="M94.6777 121.502H92.2734" stroke="#2E353A" stroke-width="0.342" stroke-linecap="round" stroke-linejoin="round"/>
<path d="M68.373 124.187H65.9688" stroke="#2E353A" stroke-width="0.342" stroke-linecap="round" stroke-linejoin="round"/>
<path d="M58.3379 124.187H55.9336" stroke="#2E353A" stroke-width="0.342" stroke-linecap="round" stroke-linejoin="round"/>
<path d="M147.433 122.774H145.312" stroke="#2E353A" stroke-width="0.342" stroke-linecap="round" stroke-linejoin="round"/>
<path d="M150.257 122.774H148.984" stroke="#2E353A" stroke-width="0.342" stroke-linecap="round" stroke-linejoin="round"/>
<path d="M39.323 108.072C39.323 108.072 38.468 115.421 37.442 122.942C36.416 130.463 38.297 138.158 38.81 138.842" stroke="#2E353A" stroke-width="0.342" stroke-linecap="round" stroke-linejoin="round"/>
<path d="M35.9453 122.949C36.1095 121.482 36.2463 120.555 36.2463 120.555" stroke="#2E353A" stroke-width="0.342" stroke-linecap="round" stroke-linejoin="round"/>
<path d="M38.4686 137.986C38.4686 137.986 35.3906 137.302 35.3906 131.83C35.3906 129.583 35.5343 127.281 35.7053 125.332" stroke="#2E353A" stroke-width="0.342" stroke-linecap="round" stroke-linejoin="round"/>
<path d="M64.2946 99.3506C64.2946 99.3506 64.9786 99.8636 63.7816 105.678C62.5846 111.492 62.7556 120.042 64.2946 124.83" stroke="#2E353A" stroke-width="0.342" stroke-linecap="round" stroke-linejoin="round"/>
<path d="M66.0008 110.124C66.0008 110.124 64.2908 115.254 65.4878 122.436" stroke="#2E353A" stroke-width="0.342" stroke-linecap="round" stroke-linejoin="round"/>
<path d="M85.4952 113.37C85.4952 113.37 86.3502 118.329 87.2052 123.455C88.0602 128.582 87.3762 135.767 86.6922 137.645C86.0082 139.522 85.3242 141.065 85.3242 141.065" stroke="#2E353A" stroke-width="0.342" stroke-linecap="round" stroke-linejoin="round"/>
<path d="M88.7217 138.552C87.9591 140.891 87.0117 138.158 87.0117 138.158" stroke="#2E353A" stroke-width="0.342" stroke-linecap="round" stroke-linejoin="round"/>
<path d="M88.6875 121.068C88.6875 121.068 90.2983 129.382 89.3886 135.64" stroke="#2E353A" stroke-width="0.342" stroke-linecap="round" stroke-linejoin="round"/>
<path d="M85.1523 123.804C85.1523 123.804 86.8623 127.395 85.3233 130.815" stroke="#2E353A" stroke-width="0.342" stroke-linecap="round" stroke-linejoin="round"/>
<path d="M117.062 124.31C117.291 125.355 117.592 126.383 117.962 127.388" stroke="#2E353A" stroke-width="0.342" stroke-linecap="round" stroke-linejoin="round"/>
<path d="M118.477 106.533C117.392 109.977 116.703 113.534 116.425 117.135C116.323 118.956 116.425 120.784 116.729 122.583" stroke="#2E353A" stroke-width="0.342" stroke-linecap="round" stroke-linejoin="round"/>
<path d="M115.227 122.258C115.227 122.258 116.766 128.072 117.621 130.124C118.476 132.176 118.134 137.131 117.108 139.525" stroke="#2E353A" stroke-width="0.342" stroke-linecap="round" stroke-linejoin="round"/>
<path d="M138.301 109.098C138.301 109.098 141.721 115.254 138.472 125.339" stroke="#2E353A" stroke-width="0.342" stroke-linecap="round" stroke-linejoin="round"/>
<path d="M141.444 119.611C141.464 121.533 141.293 123.968 140.524 126.02C138.985 130.124 138.301 131.492 138.301 131.492" stroke="#2E353A" stroke-width="0.342" stroke-linecap="round" stroke-linejoin="round"/>
<path d="M141.207 116.28C141.207 116.28 141.32 117.016 141.388 118.148" stroke="#2E353A" stroke-width="0.342" stroke-linecap="round" stroke-linejoin="round"/>
</svg>
