<svg width="149" height="149" viewBox="0 0 149 149" fill="none" xmlns="http://www.w3.org/2000/svg">
<path d="M138.528 88.7827C134.138 100.533 125.174 113.251 112.56 117.018C93.4879 122.71 91.2231 138.072 57.0842 136.647C52.0975 136.462 47.1456 135.737 42.3153 134.484C39.9555 133.861 37.6374 133.09 35.3749 132.174C15.4357 124.096 5.03255 106.317 4.17133 87.7158C3.03297 63.247 20.1024 51.5863 31.1969 44.7591C42.2915 37.9319 55.6627 11.4695 89.2324 12.6079C94.3589 12.7617 99.4505 13.5057 104.407 14.825C115.704 17.8825 127.186 24.659 133.861 34.5288C134.362 35.2698 134.84 36.0287 135.297 36.8055C144.231 51.9588 144.508 72.7622 138.528 88.7827Z" fill="#008DCC"/>
<path opacity="0.7" d="M138.528 88.7827C134.138 100.533 125.174 113.251 112.56 117.018C93.4879 122.71 91.2231 138.072 57.0842 136.647C52.0975 136.462 47.1456 135.737 42.3153 134.484C39.9555 133.861 37.6374 133.09 35.3749 132.174C15.4357 124.096 5.03255 106.317 4.17133 87.7158C3.03297 63.247 20.1024 51.5863 31.1969 44.7591C42.2915 37.9319 55.6627 11.4695 89.2324 12.6079C94.3589 12.7617 99.4505 13.5057 104.407 14.825C115.704 17.8825 127.186 24.659 133.861 34.5288C134.362 35.2698 134.84 36.0287 135.297 36.8055C144.231 51.9588 144.508 72.7622 138.528 88.7827Z" fill="white"/>
<g opacity="0.2">
<path opacity="0.2" d="M60.0402 12.5156H27.1172V105.152H60.0402V12.5156Z" stroke="black" stroke-width="0.298" stroke-miterlimit="10" stroke-linecap="round"/>
<path opacity="0.2" d="M27.293 15.3311H59.9746L59.2058 12.7861" stroke="black" stroke-width="0.298" stroke-miterlimit="10" stroke-linecap="round"/>
<path opacity="0.2" d="M27.293 18.415H59.9746L59.2058 15.8701" stroke="black" stroke-width="0.298" stroke-miterlimit="10" stroke-linecap="round"/>
<path opacity="0.2" d="M27.293 21.5H59.9746L59.2058 18.9521" stroke="black" stroke-width="0.298" stroke-miterlimit="10" stroke-linecap="round"/>
<path opacity="0.2" d="M27.293 24.585H59.9746L59.2058 22.0371" stroke="black" stroke-width="0.298" stroke-miterlimit="10" stroke-linecap="round"/>
<path opacity="0.2" d="M27.293 27.669H59.9746L59.2058 25.1211" stroke="black" stroke-width="0.298" stroke-miterlimit="10" stroke-linecap="round"/>
<path opacity="0.2" d="M27.293 30.753H59.9746L59.2058 28.2051" stroke="black" stroke-width="0.298" stroke-miterlimit="10" stroke-linecap="round"/>
<path opacity="0.2" d="M27.293 33.837H59.9746L59.2058 31.2891" stroke="black" stroke-width="0.298" stroke-miterlimit="10" stroke-linecap="round"/>
<path opacity="0.2" d="M27.293 36.9209H59.9746L59.2058 34.373" stroke="black" stroke-width="0.298" stroke-miterlimit="10" stroke-linecap="round"/>
<path opacity="0.2" d="M27.293 40.0059H59.9746L59.2058 37.458" stroke="black" stroke-width="0.298" stroke-miterlimit="10" stroke-linecap="round"/>
<path opacity="0.2" d="M27.293 43.0899H59.9746L59.2058 40.542" stroke="black" stroke-width="0.298" stroke-miterlimit="10" stroke-linecap="round"/>
<path opacity="0.2" d="M27.293 46.1739H59.9746L59.2058 43.626" stroke="black" stroke-width="0.298" stroke-miterlimit="10" stroke-linecap="round"/>
<path opacity="0.2" d="M27.293 49.2588H59.9746L59.2058 46.7109" stroke="black" stroke-width="0.298" stroke-miterlimit="10" stroke-linecap="round"/>
<path opacity="0.2" d="M27.293 52.3428H59.9746L59.2058 49.7949" stroke="black" stroke-width="0.298" stroke-miterlimit="10" stroke-linecap="round"/>
<path opacity="0.2" d="M27.293 55.4278H59.9746L59.2058 52.8799" stroke="black" stroke-width="0.298" stroke-miterlimit="10" stroke-linecap="round"/>
<path opacity="0.2" d="M27.293 58.5088H59.9746L59.2058 55.9639" stroke="black" stroke-width="0.298" stroke-miterlimit="10" stroke-linecap="round"/>
<path opacity="0.2" d="M27.293 61.5928H59.9746L59.2058 59.0479" stroke="black" stroke-width="0.298" stroke-miterlimit="10" stroke-linecap="round"/>
<path opacity="0.2" d="M27.293 64.6768H59.9746L59.2058 62.1318" stroke="black" stroke-width="0.298" stroke-miterlimit="10" stroke-linecap="round"/>
<path opacity="0.2" d="M27.293 67.7607H59.9746L59.2058 65.2158" stroke="black" stroke-width="0.298" stroke-miterlimit="10" stroke-linecap="round"/>
<path opacity="0.2" d="M27.293 70.8457H59.9746L59.2058 68.3008" stroke="black" stroke-width="0.298" stroke-miterlimit="10" stroke-linecap="round"/>
<path opacity="0.2" d="M27.293 73.9307H59.9746L59.2058 71.3857" stroke="black" stroke-width="0.298" stroke-miterlimit="10" stroke-linecap="round"/>
<path opacity="0.2" d="M27.293 77.0146H59.9746L59.2058 74.4697" stroke="black" stroke-width="0.298" stroke-miterlimit="10" stroke-linecap="round"/>
<path opacity="0.2" d="M27.293 80.0986H59.9746L59.2058 77.5537" stroke="black" stroke-width="0.298" stroke-miterlimit="10" stroke-linecap="round"/>
<path opacity="0.2" d="M27.293 83.1827H59.9746L59.2058 80.6348" stroke="black" stroke-width="0.298" stroke-miterlimit="10" stroke-linecap="round"/>
<path opacity="0.2" d="M27.293 86.2676H59.9746L59.2058 83.7197" stroke="black" stroke-width="0.298" stroke-miterlimit="10" stroke-linecap="round"/>
<path opacity="0.2" d="M27.293 89.3516H59.9746L59.2058 86.8037" stroke="black" stroke-width="0.298" stroke-miterlimit="10" stroke-linecap="round"/>
<path opacity="0.2" d="M27.293 92.4356H59.9746L59.2058 89.8877" stroke="black" stroke-width="0.298" stroke-miterlimit="10" stroke-linecap="round"/>
<path opacity="0.2" d="M27.293 95.5196H59.9746L59.2058 92.9717" stroke="black" stroke-width="0.298" stroke-miterlimit="10" stroke-linecap="round"/>
<path opacity="0.2" d="M27.293 98.6045H59.9746L59.2058 96.0566" stroke="black" stroke-width="0.298" stroke-miterlimit="10" stroke-linecap="round"/>
<path opacity="0.2" d="M27.293 101.689H59.9746L59.2058 99.1406" stroke="black" stroke-width="0.298" stroke-miterlimit="10" stroke-linecap="round"/>
</g>
<g opacity="0.2">
<path opacity="0.2" d="M95.4465 12.5156H62.5234V105.152H95.4465V12.5156Z" stroke="black" stroke-width="0.298" stroke-miterlimit="10" stroke-linecap="round"/>
<path opacity="0.2" d="M62.6992 15.332H95.3809L94.615 12.7871" stroke="black" stroke-width="0.298" stroke-miterlimit="10" stroke-linecap="round"/>
<path opacity="0.2" d="M62.6992 18.415H95.3809L94.615 15.8701" stroke="black" stroke-width="0.298" stroke-miterlimit="10" stroke-linecap="round"/>
<path opacity="0.2" d="M62.6992 21.5H95.3809L94.615 18.9521" stroke="black" stroke-width="0.298" stroke-miterlimit="10" stroke-linecap="round"/>
<path opacity="0.2" d="M62.6992 24.585H95.3809L94.615 22.0371" stroke="black" stroke-width="0.298" stroke-miterlimit="10" stroke-linecap="round"/>
<path opacity="0.2" d="M62.6992 27.669H95.3809L94.615 25.1211" stroke="black" stroke-width="0.298" stroke-miterlimit="10" stroke-linecap="round"/>
<path opacity="0.2" d="M62.6992 30.753H95.3809L94.615 28.2051" stroke="black" stroke-width="0.298" stroke-miterlimit="10" stroke-linecap="round"/>
<path opacity="0.2" d="M62.6992 33.837H95.3809L94.615 31.2891" stroke="black" stroke-width="0.298" stroke-miterlimit="10" stroke-linecap="round"/>
<path opacity="0.2" d="M62.6992 36.9219H95.3809L94.615 34.374" stroke="black" stroke-width="0.298" stroke-miterlimit="10" stroke-linecap="round"/>
<path opacity="0.2" d="M62.6992 40.0059H95.3809L94.615 37.458" stroke="black" stroke-width="0.298" stroke-miterlimit="10" stroke-linecap="round"/>
<path opacity="0.2" d="M62.6992 43.0909H95.3809L94.615 40.543" stroke="black" stroke-width="0.298" stroke-miterlimit="10" stroke-linecap="round"/>
<path opacity="0.2" d="M62.6992 46.1739H95.3809L94.615 43.626" stroke="black" stroke-width="0.298" stroke-miterlimit="10" stroke-linecap="round"/>
<path opacity="0.2" d="M62.6992 49.2588H95.3809L94.615 46.7109" stroke="black" stroke-width="0.298" stroke-miterlimit="10" stroke-linecap="round"/>
<path opacity="0.2" d="M62.6992 52.3428H95.3809L94.615 49.7949" stroke="black" stroke-width="0.298" stroke-miterlimit="10" stroke-linecap="round"/>
<path opacity="0.2" d="M62.6992 55.4278H95.3809L94.615 52.8799" stroke="black" stroke-width="0.298" stroke-miterlimit="10" stroke-linecap="round"/>
<path opacity="0.2" d="M62.6992 58.5088H95.3809L94.615 55.9639" stroke="black" stroke-width="0.298" stroke-miterlimit="10" stroke-linecap="round"/>
<path opacity="0.2" d="M62.6992 61.5928H95.3809L94.615 59.0479" stroke="black" stroke-width="0.298" stroke-miterlimit="10" stroke-linecap="round"/>
<path opacity="0.2" d="M62.6992 64.6777H95.3809L94.615 62.1328" stroke="black" stroke-width="0.298" stroke-miterlimit="10" stroke-linecap="round"/>
<path opacity="0.2" d="M62.6992 67.7607H95.3809L94.615 65.2158" stroke="black" stroke-width="0.298" stroke-miterlimit="10" stroke-linecap="round"/>
<path opacity="0.2" d="M62.6992 70.8457H95.3809L94.615 68.3008" stroke="black" stroke-width="0.298" stroke-miterlimit="10" stroke-linecap="round"/>
<path opacity="0.2" d="M62.6992 73.9307H95.3809L94.615 71.3857" stroke="black" stroke-width="0.298" stroke-miterlimit="10" stroke-linecap="round"/>
<path opacity="0.2" d="M62.6992 77.0146H95.3809L94.615 74.4697" stroke="black" stroke-width="0.298" stroke-miterlimit="10" stroke-linecap="round"/>
<path opacity="0.2" d="M62.6992 80.0986H95.3809L94.615 77.5537" stroke="black" stroke-width="0.298" stroke-miterlimit="10" stroke-linecap="round"/>
<path opacity="0.2" d="M62.6992 83.1827H95.3809L94.615 80.6348" stroke="black" stroke-width="0.298" stroke-miterlimit="10" stroke-linecap="round"/>
<path opacity="0.2" d="M62.6992 86.2676H95.3809L94.615 83.7197" stroke="black" stroke-width="0.298" stroke-miterlimit="10" stroke-linecap="round"/>
<path opacity="0.2" d="M62.6992 89.3516H95.3809L94.615 86.8037" stroke="black" stroke-width="0.298" stroke-miterlimit="10" stroke-linecap="round"/>
<path opacity="0.2" d="M62.6992 92.4366H95.3809L94.615 89.8887" stroke="black" stroke-width="0.298" stroke-miterlimit="10" stroke-linecap="round"/>
<path opacity="0.2" d="M62.6992 95.5206H95.3809L94.615 92.9727" stroke="black" stroke-width="0.298" stroke-miterlimit="10" stroke-linecap="round"/>
<path opacity="0.2" d="M62.6992 98.6045H95.3809L94.615 96.0566" stroke="black" stroke-width="0.298" stroke-miterlimit="10" stroke-linecap="round"/>
<path opacity="0.2" d="M62.6992 101.689H95.3809L94.615 99.1406" stroke="black" stroke-width="0.298" stroke-miterlimit="10" stroke-linecap="round"/>
</g>
<g opacity="0.3">
<path opacity="0.3" d="M12.4187 18.3779H7.05469V23.7419H12.4187V18.3779Z" stroke="black" stroke-width="0.298" stroke-miterlimit="10" stroke-linecap="round"/>
<path opacity="0.3" d="M12.4187 27.5146H7.05469V32.8786H12.4187V27.5146Z" stroke="black" stroke-width="0.298" stroke-miterlimit="10" stroke-linecap="round"/>
<path opacity="0.3" d="M14.4062 21.1582H22.5536" stroke="black" stroke-width="0.298" stroke-miterlimit="10" stroke-linecap="round"/>
<path opacity="0.3" d="M14.4062 30.0977H22.5536" stroke="black" stroke-width="0.298" stroke-miterlimit="10" stroke-linecap="round"/>
<path opacity="0.3" d="M8.24609 19.9661L9.03877 21.5544L12.6148 16.1904" stroke="black" stroke-width="0.298" stroke-miterlimit="10" stroke-linecap="round"/>
</g>
<g opacity="0.3">
<path opacity="0.3" d="M91.6882 125.36H86.3242V130.724H91.6882V125.36Z" stroke="black" stroke-width="0.298" stroke-miterlimit="10" stroke-linecap="round"/>
<path opacity="0.3" d="M91.6882 134.497H86.3242V139.861H91.6882V134.497Z" stroke="black" stroke-width="0.298" stroke-miterlimit="10" stroke-linecap="round"/>
<path opacity="0.3" d="M93.6758 128.141H101.823" stroke="black" stroke-width="0.298" stroke-miterlimit="10" stroke-linecap="round"/>
<path opacity="0.3" d="M93.6758 137.08H101.823" stroke="black" stroke-width="0.298" stroke-miterlimit="10" stroke-linecap="round"/>
<path opacity="0.3" d="M87.5156 126.949L88.3083 128.537L91.8843 123.173" stroke="black" stroke-width="0.298" stroke-miterlimit="10" stroke-linecap="round"/>
</g>
<g opacity="0.3">
<path opacity="0.3" d="M109.665 15.4961H104.301V20.8601H109.665V15.4961Z" stroke="black" stroke-width="0.298" stroke-miterlimit="10" stroke-linecap="round"/>
<path opacity="0.3" d="M109.665 24.6367H104.301V30.0007H109.665V24.6367Z" stroke="black" stroke-width="0.298" stroke-miterlimit="10" stroke-linecap="round"/>
<path opacity="0.3" d="M111.656 18.2773H119.801" stroke="black" stroke-width="0.298" stroke-miterlimit="10" stroke-linecap="round"/>
<path opacity="0.3" d="M111.656 27.2168H119.801" stroke="black" stroke-width="0.298" stroke-miterlimit="10" stroke-linecap="round"/>
<path opacity="0.3" d="M105.492 17.0852L106.288 18.6765L109.864 13.3125" stroke="black" stroke-width="0.298" stroke-miterlimit="10" stroke-linecap="round"/>
</g>
<path d="M140.219 133.76H144.653" stroke="#263238" stroke-width="0.298" stroke-linecap="round" stroke-linejoin="round"/>
<path d="M7.45312 133.76H138.153" stroke="#263238" stroke-width="0.298" stroke-linecap="round" stroke-linejoin="round"/>
<path d="M23.6905 113.762C25.6078 113.762 27.1622 109.686 27.1622 104.658C27.1622 99.6297 25.6078 95.5537 23.6905 95.5537C21.7731 95.5537 20.2188 99.6297 20.2188 104.658C20.2188 109.686 21.7731 113.762 23.6905 113.762Z" fill="#008DCC" stroke="#263238" stroke-width="0.298" stroke-miterlimit="10"/>
<path d="M34.4824 99.05C35.5675 95.6353 35.2418 92.4841 33.7549 92.0116C32.2679 91.539 30.1828 93.9241 29.0977 97.3387C28.0125 100.753 28.3382 103.905 29.8252 104.377C31.3121 104.85 33.3972 102.465 34.4824 99.05Z" fill="#008DCC" stroke="#263238" stroke-width="0.298" stroke-miterlimit="10"/>
<path d="M9.01244 119.635C5.47816 119.039 2.82596 117.305 3.0882 115.761C3.35044 114.217 6.42282 113.461 9.9422 114.06C13.4616 114.659 16.1287 116.39 15.8694 117.934C15.6102 119.477 12.5437 120.231 9.01244 119.635Z" fill="#008DCC" stroke="#263238" stroke-width="0.298" stroke-miterlimit="10"/>
<path d="M37.7437 111.223C40.6945 108.297 41.9921 104.821 40.642 103.459C39.2919 102.098 35.8054 103.366 32.8546 106.293C29.9038 109.219 28.6062 112.694 29.9563 114.056C31.3064 115.417 34.7929 114.149 37.7437 111.223Z" fill="#008DCC" stroke="#263238" stroke-width="0.298" stroke-miterlimit="10"/>
<path d="M17.418 103.192C20.2699 107.331 21.1222 111.697 19.3193 112.942C17.5164 114.188 13.7377 111.837 10.8859 107.698C8.034 103.558 7.18172 99.1957 8.98462 97.9501C10.7875 96.7044 14.5662 99.0527 17.418 103.192Z" fill="#008DCC" stroke="#263238" stroke-width="0.298" stroke-miterlimit="10"/>
<path d="M23.9375 113.306L24.2057 125.822" stroke="#263238" stroke-width="0.298" stroke-miterlimit="10" stroke-linecap="round"/>
<path d="M23.6172 101.272L23.942 113.306" stroke="#263238" stroke-width="0.298" stroke-miterlimit="10" stroke-linecap="round"/>
<path d="M23.641 99.3086L23.6172 100.229" stroke="#263238" stroke-width="0.298" stroke-miterlimit="10" stroke-linecap="round"/>
<path d="M19.3008 112.346C21.2912 116.458 22.4565 120.921 22.7308 125.482" stroke="#263238" stroke-width="0.298" stroke-miterlimit="10" stroke-linecap="round"/>
<path d="M13.3398 103.228C15.7221 105.989 17.7263 109.056 19.2998 112.346" stroke="#263238" stroke-width="0.298" stroke-miterlimit="10" stroke-linecap="round"/>
<path d="M11.4609 101.242C11.4609 101.242 11.8215 101.57 12.4116 102.199" stroke="#263238" stroke-width="0.298" stroke-miterlimit="10" stroke-linecap="round"/>
<path d="M30.177 113.634C27.7419 117.046 25.8444 120.812 24.5508 124.8" stroke="#263238" stroke-width="0.298" stroke-miterlimit="10" stroke-linecap="round"/>
<path d="M34.1651 109.044C32.6942 110.446 31.3573 111.983 30.1719 113.633" stroke="#263238" stroke-width="0.298" stroke-miterlimit="10" stroke-linecap="round"/>
<path d="M38.4419 105.79C37.3571 106.401 36.3384 107.123 35.4023 107.945" stroke="#263238" stroke-width="0.298" stroke-miterlimit="10" stroke-linecap="round"/>
<path d="M30.03 103.525C28.1049 109.575 25.5242 118.518 24.3203 126.278" stroke="#263238" stroke-width="0.298" stroke-miterlimit="10" stroke-linecap="round"/>
<path d="M31.1985 99.9346C30.8558 100.957 30.4565 102.167 30.0273 103.511" stroke="#263238" stroke-width="0.298" stroke-miterlimit="10" stroke-linecap="round"/>
<path d="M32.3996 96.4629C32.3996 96.4629 32.0658 97.3897 31.5234 98.978" stroke="#263238" stroke-width="0.298" stroke-miterlimit="10" stroke-linecap="round"/>
<path d="M15.7031 117.097C18.105 118.006 20.4503 119.764 21.5916 123.092" stroke="#263238" stroke-width="0.298" stroke-miterlimit="10" stroke-linecap="round"/>
<path d="M11.2656 116.193C12.7813 116.266 14.2772 116.568 15.7028 117.087" stroke="#263238" stroke-width="0.298" stroke-miterlimit="10" stroke-linecap="round"/>
<path d="M8.39453 116.265C8.39453 116.265 8.82365 116.203 9.52693 116.176" stroke="#263238" stroke-width="0.298" stroke-miterlimit="10" stroke-linecap="round"/>
<path d="M39.2455 119.635C42.7798 119.039 45.432 117.305 45.1697 115.761C44.9075 114.217 41.8351 113.461 38.3157 114.06C34.7963 114.659 32.1292 116.39 32.3885 117.934C32.6478 119.477 35.7142 120.231 39.2455 119.635Z" fill="#008DCC" stroke="#263238" stroke-width="0.298" stroke-miterlimit="10"/>
<path d="M32.6319 117.066C30.2032 117.96 27.8192 119.728 26.6719 123.092" stroke="#263238" stroke-width="0.298" stroke-miterlimit="10" stroke-linecap="round"/>
<path d="M37.3651 116.176C35.7505 116.223 34.1535 116.525 32.6328 117.07" stroke="#263238" stroke-width="0.298" stroke-miterlimit="10" stroke-linecap="round"/>
<path d="M39.8674 116.265C39.8674 116.265 39.5873 116.223 39.1016 116.193" stroke="#263238" stroke-width="0.298" stroke-miterlimit="10" stroke-linecap="round"/>
<path d="M32.5857 133.728C33.6501 131.493 34.2097 129.051 34.2247 126.576C34.228 125.09 34.007 123.612 33.5691 122.192H15.0931C14.6553 123.612 14.4343 125.09 14.4375 126.576C14.4522 129.052 15.0128 131.494 16.0795 133.728H32.5857Z" fill="#263238"/>
<path d="M14.6026 124.23C14.549 124.567 14.5103 124.907 14.4805 125.253H34.1634C34.1336 124.907 34.0919 124.567 34.0382 124.23H14.6026Z" fill="#7A7A7A"/>
<path d="M33.9528 129.463C34.0154 129.123 34.0691 128.783 34.1108 128.44H14.5352C14.5739 128.783 14.6275 129.123 14.6901 129.463H33.9528Z" fill="#7A7A7A"/>
<path d="M16.8082 126.62C16.8082 126.778 16.7613 126.933 16.6734 127.064C16.5855 127.195 16.4606 127.298 16.3145 127.358C16.1684 127.418 16.0077 127.434 15.8527 127.403C15.6977 127.372 15.5554 127.296 15.4438 127.184C15.3322 127.072 15.2564 126.929 15.2259 126.774C15.1954 126.619 15.2117 126.458 15.2726 126.312C15.3335 126.166 15.4363 126.042 15.568 125.954C15.6998 125.867 15.8545 125.821 16.0126 125.821C16.2239 125.822 16.4262 125.907 16.5754 126.056C16.7245 126.206 16.8082 126.409 16.8082 126.62Z" fill="#8C8C8C"/>
<path d="M20.7905 126.62C20.7899 126.777 20.7428 126.931 20.655 127.061C20.5672 127.192 20.4427 127.293 20.2973 127.353C20.1519 127.413 19.992 127.428 19.8378 127.397C19.6837 127.366 19.5422 127.29 19.4312 127.179C19.3202 127.067 19.2448 126.925 19.2143 126.771C19.1838 126.617 19.1998 126.457 19.2601 126.312C19.3204 126.167 19.4224 126.042 19.5531 125.955C19.6839 125.868 19.8376 125.821 19.9949 125.821C20.0996 125.821 20.2033 125.842 20.3 125.882C20.3968 125.922 20.4846 125.981 20.5585 126.055C20.6325 126.13 20.691 126.218 20.7308 126.315C20.7706 126.411 20.7909 126.515 20.7905 126.62Z" fill="#8C8C8C"/>
<path d="M24.777 126.62C24.777 126.778 24.7301 126.933 24.6422 127.064C24.5543 127.195 24.4294 127.298 24.2833 127.358C24.1372 127.418 23.9764 127.434 23.8214 127.403C23.6664 127.372 23.5241 127.296 23.4125 127.184C23.301 127.072 23.2252 126.929 23.1947 126.774C23.1642 126.619 23.1804 126.458 23.2413 126.312C23.3022 126.166 23.4051 126.042 23.5368 125.954C23.6685 125.867 23.8232 125.821 23.9813 125.821C24.1926 125.822 24.395 125.907 24.5441 126.056C24.6932 126.206 24.777 126.409 24.777 126.62Z" fill="#8C8C8C"/>
<path d="M28.7554 126.62C28.7548 126.777 28.7076 126.931 28.6198 127.061C28.5321 127.192 28.4076 127.293 28.2621 127.353C28.1167 127.413 27.9568 127.428 27.8027 127.397C27.6485 127.366 27.507 127.29 27.3961 127.179C27.2851 127.067 27.2096 126.925 27.1791 126.771C27.1487 126.617 27.1646 126.457 27.2249 126.312C27.2852 126.167 27.3872 126.042 27.518 125.955C27.6488 125.868 27.8025 125.821 27.9597 125.821C28.0645 125.821 28.1682 125.842 28.2649 125.882C28.3616 125.922 28.4495 125.981 28.5234 126.055C28.5973 126.13 28.6559 126.218 28.6957 126.315C28.7355 126.411 28.7558 126.515 28.7554 126.62Z" fill="#8C8C8C"/>
<path d="M32.7457 126.62C32.7457 126.778 32.6988 126.933 32.6109 127.064C32.523 127.195 32.3981 127.298 32.252 127.358C32.1059 127.418 31.9452 127.434 31.7902 127.403C31.6352 127.372 31.4929 127.296 31.3813 127.184C31.2697 127.072 31.1939 126.929 31.1634 126.774C31.1329 126.619 31.1492 126.458 31.2101 126.312C31.271 126.166 31.3738 126.042 31.5055 125.954C31.6373 125.867 31.792 125.821 31.9501 125.821C32.1614 125.822 32.3637 125.907 32.5129 126.056C32.662 126.206 32.7457 126.409 32.7457 126.62Z" fill="#8C8C8C"/>
<path d="M139.593 25.168H69.7773V123.889H139.593V25.168Z" fill="#263238"/>
<path d="M137.87 23.4434H68.0547V122.165H137.87V23.4434Z" fill="white" stroke="#263238" stroke-width="0.298" stroke-linecap="round" stroke-linejoin="round"/>
<path d="M134.443 33.2412H70.9961V51.1242H134.443V33.2412Z" fill="white" stroke="#263238" stroke-width="0.298" stroke-linecap="round" stroke-linejoin="round"/>
<path d="M91.8173 29.5674H70.9961V33.2417H91.8173V29.5674Z" fill="white" stroke="#263238" stroke-width="0.298" stroke-linecap="round" stroke-linejoin="round"/>
<path d="M134.442 29.5674H113.621V33.2417H134.442V29.5674Z" fill="white" stroke="#263238" stroke-width="0.298" stroke-linecap="round" stroke-linejoin="round"/>
<path d="M70.9961 39.1211H134.443" stroke="#263238" stroke-width="0.298" stroke-linecap="round" stroke-linejoin="round"/>
<path d="M70.9961 44.7559H134.443" stroke="#263238" stroke-width="0.298" stroke-linecap="round" stroke-linejoin="round"/>
<path d="M134.443 56.6318H70.9961V74.5148H134.443V56.6318Z" fill="white" stroke="#263238" stroke-width="0.298" stroke-linecap="round" stroke-linejoin="round"/>
<path d="M70.9961 62.5107H134.443" stroke="#263238" stroke-width="0.298" stroke-linecap="round" stroke-linejoin="round"/>
<path d="M70.9961 68.1465H134.443" stroke="#263238" stroke-width="0.298" stroke-linecap="round" stroke-linejoin="round"/>
<path d="M72.0312 34.6777H79.7465" stroke="#263238" stroke-width="0.298" stroke-linecap="round" stroke-linejoin="round"/>
<path d="M111.375 34.6777H119.09" stroke="#263238" stroke-width="0.298" stroke-linecap="round" stroke-linejoin="round"/>
<path d="M72.0312 30.4941H79.7465" stroke="#263238" stroke-width="0.298" stroke-linecap="round" stroke-linejoin="round"/>
<path d="M113.941 30.4941H121.657" stroke="#263238" stroke-width="0.298" stroke-linecap="round" stroke-linejoin="round"/>
<path d="M72.0312 40.2539H79.7465" stroke="#263238" stroke-width="0.298" stroke-linecap="round" stroke-linejoin="round"/>
<path d="M72.0312 46.3867H79.7465" stroke="#263238" stroke-width="0.298" stroke-linecap="round" stroke-linejoin="round"/>
<path d="M95.8555 46.3867H103.568" stroke="#263238" stroke-width="0.298" stroke-linecap="round" stroke-linejoin="round"/>
<path d="M94.6133 29.8447H110.041" stroke="#263238" stroke-width="0.298" stroke-linecap="round" stroke-linejoin="round"/>
<path d="M94.6133 31.4238H110.041" stroke="#263238" stroke-width="0.298" stroke-linecap="round" stroke-linejoin="round"/>
<path d="M93.0586 49.7207H96.5571" stroke="#263238" stroke-width="0.298" stroke-linecap="round" stroke-linejoin="round"/>
<path d="M97.4258 49.7207H100.924" stroke="#263238" stroke-width="0.298" stroke-linecap="round" stroke-linejoin="round"/>
<path d="M101.805 49.7207H105.303" stroke="#263238" stroke-width="0.298" stroke-linecap="round" stroke-linejoin="round"/>
<path d="M134.443 78.2725H70.9961V96.1554H134.443V78.2725Z" fill="white" stroke="#263238" stroke-width="0.298" stroke-linecap="round" stroke-linejoin="round"/>
<path d="M72.3846 82.8737C72.3846 82.8737 73.5767 79.9235 72.8555 80.6297C72.1343 81.336 71.5562 83.8183 73.3263 83.2283C75.0965 82.6382 76.2765 80.0397 75.8057 81.1035C75.3348 82.1674 75.5703 82.9899 76.9977 82.1644C78.4251 81.339 78.6486 81.339 78.7678 81.8098C78.887 82.2806 79.2386 82.1644 80.5379 81.6936C81.8372 81.2227 81.7299 82.0482 81.7299 82.3998C81.7299 82.7515 83.3838 82.6382 83.9739 82.3998C84.5639 82.1614 85.0347 81.4582 85.1659 82.2836C85.297 83.1091 86.4622 83.1091 86.4622 83.1091H89.6478" stroke="#008DCC" stroke-width="0.298" stroke-linecap="round" stroke-linejoin="round"/>
<path d="M70.9961 84.1523H134.443" stroke="#263238" stroke-width="0.298" stroke-linecap="round" stroke-linejoin="round"/>
<path d="M70.9961 89.7871H134.443" stroke="#263238" stroke-width="0.298" stroke-linecap="round" stroke-linejoin="round"/>
<path d="M72.0312 79.709H79.7465" stroke="#263238" stroke-width="0.298" stroke-linecap="round" stroke-linejoin="round"/>
<path d="M111.375 79.709H119.09" stroke="#263238" stroke-width="0.298" stroke-linecap="round" stroke-linejoin="round"/>
<path d="M72.0312 85.2842H79.7465" stroke="#263238" stroke-width="0.298" stroke-linecap="round" stroke-linejoin="round"/>
<path d="M72.0312 91.417H79.7465" stroke="#263238" stroke-width="0.298" stroke-linecap="round" stroke-linejoin="round"/>
<path d="M95.8555 91.417H103.568" stroke="#263238" stroke-width="0.298" stroke-linecap="round" stroke-linejoin="round"/>
<path d="M93.0586 94.752H96.5571" stroke="#263238" stroke-width="0.298" stroke-linecap="round" stroke-linejoin="round"/>
<path d="M97.4258 94.752H100.924" stroke="#263238" stroke-width="0.298" stroke-linecap="round" stroke-linejoin="round"/>
<path d="M101.805 94.752H105.303" stroke="#263238" stroke-width="0.298" stroke-linecap="round" stroke-linejoin="round"/>
<path d="M72.5117 58.4639H90.654" stroke="#263238" stroke-width="0.298" stroke-linecap="round" stroke-linejoin="round"/>
<path d="M72.5117 64.3643H83.6599" stroke="#263238" stroke-width="0.298" stroke-linecap="round" stroke-linejoin="round"/>
<path d="M100.707 64.3643H111.855" stroke="#263238" stroke-width="0.298" stroke-linecap="round" stroke-linejoin="round"/>
<path d="M118.195 71.7998H129.343" stroke="#263238" stroke-width="0.298" stroke-linecap="round" stroke-linejoin="round"/>
<path d="M115.793 64.3643H126.941" stroke="#263238" stroke-width="0.298" stroke-linecap="round" stroke-linejoin="round"/>
<path d="M116.228 70.4854H113.605V73.1078H116.228V70.4854Z" stroke="#263238" stroke-width="0.298" stroke-linecap="round" stroke-linejoin="round"/>
<path d="M100.055 71.7998H111.203" stroke="#263238" stroke-width="0.298" stroke-linecap="round" stroke-linejoin="round"/>
<path d="M98.0872 70.4854H95.4648V73.1078H98.0872V70.4854Z" stroke="#263238" stroke-width="0.298" stroke-linecap="round" stroke-linejoin="round"/>
<path d="M81.9102 71.7998H93.0583" stroke="#263238" stroke-width="0.298" stroke-linecap="round" stroke-linejoin="round"/>
<path d="M79.9427 70.4854H77.3203V73.1078H79.9427V70.4854Z" stroke="#263238" stroke-width="0.298" stroke-linecap="round" stroke-linejoin="round"/>
<path d="M126.844 99.5586H134.154" stroke="#263238" stroke-width="0.298" stroke-linecap="round" stroke-linejoin="round"/>
<path d="M97.8281 99.5586H125.9" stroke="#263238" stroke-width="0.298" stroke-linecap="round" stroke-linejoin="round"/>
<path d="M79.7461 99.5586H96.9854" stroke="#263238" stroke-width="0.298" stroke-linecap="round" stroke-linejoin="round"/>
<path d="M71.418 99.5586H79.0825" stroke="#263238" stroke-width="0.298" stroke-linecap="round" stroke-linejoin="round"/>
<path d="M118.176 101.254H134.152" stroke="#263238" stroke-width="0.298" stroke-linecap="round" stroke-linejoin="round"/>
<path d="M87.6602 101.254H117.427" stroke="#263238" stroke-width="0.298" stroke-linecap="round" stroke-linejoin="round"/>
<path d="M71.418 101.254H86.7143" stroke="#263238" stroke-width="0.298" stroke-linecap="round" stroke-linejoin="round"/>
<path d="M122.32 102.949H134.151" stroke="#263238" stroke-width="0.298" stroke-linecap="round" stroke-linejoin="round"/>
<path d="M96.8867 102.949H121.662" stroke="#263238" stroke-width="0.298" stroke-linecap="round" stroke-linejoin="round"/>
<path d="M82.3789 102.949H95.5654" stroke="#263238" stroke-width="0.298" stroke-linecap="round" stroke-linejoin="round"/>
<path d="M71.418 102.949H81.5321" stroke="#263238" stroke-width="0.298" stroke-linecap="round" stroke-linejoin="round"/>
<path d="M128.824 104.646H134.155" stroke="#263238" stroke-width="0.298" stroke-linecap="round" stroke-linejoin="round"/>
<path d="M75.4062 104.646H127.878" stroke="#263238" stroke-width="0.298" stroke-linecap="round" stroke-linejoin="round"/>
<path d="M71.418 104.646H74.6572" stroke="#263238" stroke-width="0.298" stroke-linecap="round" stroke-linejoin="round"/>
<path d="M130.047 106.341H134.153" stroke="#263238" stroke-width="0.298" stroke-linecap="round" stroke-linejoin="round"/>
<path d="M116.953 106.341H129.201" stroke="#263238" stroke-width="0.298" stroke-linecap="round" stroke-linejoin="round"/>
<path d="M96.8867 106.341H116.292" stroke="#263238" stroke-width="0.298" stroke-linecap="round" stroke-linejoin="round"/>
<path d="M78.1406 106.341H96.1339" stroke="#263238" stroke-width="0.298" stroke-linecap="round" stroke-linejoin="round"/>
<path d="M71.418 106.341H77.1038" stroke="#263238" stroke-width="0.298" stroke-linecap="round" stroke-linejoin="round"/>
<path d="M126.75 108.037H134.152" stroke="#263238" stroke-width="0.298" stroke-linecap="round" stroke-linejoin="round"/>
<path d="M103.012 108.037H125.713" stroke="#263238" stroke-width="0.298" stroke-linecap="round" stroke-linejoin="round"/>
<path d="M87.6602 108.037H101.791" stroke="#263238" stroke-width="0.298" stroke-linecap="round" stroke-linejoin="round"/>
<path d="M71.418 108.037H86.7143" stroke="#263238" stroke-width="0.298" stroke-linecap="round" stroke-linejoin="round"/>
<path d="M115.914 109.735H134.152" stroke="#263238" stroke-width="0.298" stroke-linecap="round" stroke-linejoin="round"/>
<path d="M79.7461 109.735H114.6" stroke="#263238" stroke-width="0.298" stroke-linecap="round" stroke-linejoin="round"/>
<path d="M71.418 109.735H78.707" stroke="#263238" stroke-width="0.298" stroke-linecap="round" stroke-linejoin="round"/>
<path d="M72.0742 114.861H79.9444" stroke="#263238" stroke-width="0.298" stroke-linecap="round" stroke-linejoin="round"/>
<path d="M110.984 114.861H118.855" stroke="#263238" stroke-width="0.298" stroke-linecap="round" stroke-linejoin="round"/>
<path d="M81.9102 114.861H108.361" stroke="#263238" stroke-width="0.298" stroke-linecap="round" stroke-linejoin="round"/>
<path d="M121.039 114.861H133.937" stroke="#263238" stroke-width="0.298" stroke-linecap="round" stroke-linejoin="round"/>
<path d="M73.0586 61.7775C73.0586 61.7775 74.2744 62.0576 74.5486 60.654C74.8228 59.2505 73.7053 59.9985 73.7053 60.7464C73.7053 61.4944 74.0807 62.2364 75.4933 61.1219C76.9058 60.0074 76.5213 60.1862 77.3647 61.0265C78.208 61.8669 77.4571 62.0576 79.1527 61.402C80.8483 60.7464 80.9407 61.0265 80.8364 61.5898C80.7321 62.153 80.3685 61.8699 81.9599 61.3097C83.5512 60.7494 84.2992 60.2786 84.1114 61.0117C83.9237 61.7447 83.2681 61.9474 84.4839 61.107C85.6998 60.2667 86.4507 57.5519 85.4196 59.617C84.3886 61.6822 84.0161 61.405 85.515 61.107C87.0139 60.809 87.4788 59.7958 87.4788 60.5438C87.4788 61.2918 86.263 61.7626 87.4788 61.2948C88.6946 60.8269 89.1625 60.359 89.1625 60.8269C89.1625 61.2947 88.039 62.1351 89.6304 61.3871C91.2217 60.6392 91.6896 59.7958 91.6896 60.4514C91.6896 61.107 91.4065 60.9193 91.6896 61.107C91.9727 61.2948 91.4065 60.7315 92.2498 61.0117C93.0931 61.2918 92.7177 61.855 93.9335 61.3871C95.1493 60.9193 95.057 60.2637 95.7215 60.9193C96.386 61.5749 95.7215 62.5106 97.5095 61.6673C99.2975 60.8239 99.7534 61.2948 100.317 61.3871C100.781 61.4582 101.251 61.4891 101.72 61.4795C102.093 61.4795 102 61.107 102.936 61.4795C103.492 61.7513 104.106 61.8803 104.724 61.855H105.791" stroke="#008DCC" stroke-width="0.298" stroke-linecap="round" stroke-linejoin="round"/>
<path d="M111.504 61.8699C111.952 61.6762 112.389 61.4573 112.812 61.2143C113.655 60.7465 115.807 59.1581 115.899 60.1862C115.992 61.2143 113.56 62.5255 113.843 61.4021C114.126 60.2786 115.807 60.8418 117.023 61.3097C118.239 61.7775 118.513 61.2143 120.018 61.2143C121.523 61.2143 121.326 61.6822 122.074 61.8699C122.822 62.0577 122.542 61.8699 123.862 61.3097C125.182 60.7494 124.234 58.0317 123.394 59.9061C122.554 61.7805 122.271 62.5255 124.234 61.5898C126.198 60.6541 125.638 61.7775 125.918 61.7775C126.198 61.7775 125.73 61.8699 126.854 61.4021C127.977 60.9342 126.574 61.5898 127.417 61.7775C128.26 61.9653 128.725 61.0266 129.473 60.7465C130.221 60.4663 130.317 61.3097 130.317 61.3097H131.065" stroke="#008DCC" stroke-width="0.298" stroke-linecap="round" stroke-linejoin="round"/>
<path d="M72.4922 43.8057C72.4922 43.8057 72.96 43.6179 73.708 42.4975C74.456 41.377 73.2402 41.0074 72.96 42.2173C72.6799 43.4272 72.0243 44.8367 74.0835 43.8057C76.1427 42.7746 75.3917 40.8257 74.7391 42.3157C74.0865 43.8057 74.2712 45.3106 76.2291 44.1871C78.187 43.0636 78.3807 42.3991 78.6608 42.9713C78.9409 43.5434 77.9128 43.7193 79.5965 43.8116C81.2802 43.904 81.5603 43.3438 82.3083 43.0636C83.0563 42.7835 83.4318 43.0636 83.4318 43.0636C83.6444 43.1277 83.8653 43.1599 84.0874 43.159C84.4599 43.159 84.9277 42.861 85.1155 43.159C85.3032 43.457 83.244 43.8116 85.6787 43.4391C88.1133 43.0666 88.6587 41.4723 88.8583 42.6911C89.058 43.91 87.1746 44.9351 87.1746 43.8116C87.1746 42.6882 88.2981 41.5677 90.0742 42.5958C91.8503 43.6239 91.7579 43.907 92.6936 44.0858C93.6293 44.2646 95.1253 43.2454 95.1253 43.2454C95.1253 43.2454 95.0329 43.3378 95.5931 43.6179C96.1534 43.898 95.9686 43.901 96.9967 43.6179C98.0248 43.3348 97.1845 43.5255 98.588 43.3378C99.9916 43.1501 100.644 43.2454 100.078 43.7133C99.5118 44.1812 97.9265 43.5255 99.9857 43.153C102.045 42.7805 102.322 43.4332 102.322 43.7133C102.322 43.9934 102.885 44.0858 103.353 43.901C103.81 43.7588 104.28 43.6639 104.757 43.6179" stroke="#008DCC" stroke-width="0.298" stroke-linecap="round" stroke-linejoin="round"/>
<path d="M74.9258 38.2954C75.6782 38.1703 76.4195 37.986 77.1429 37.7441C77.7598 37.5266 78.3349 37.2405 78.5763 36.8918C79.2289 35.9561 77.2651 36.2362 76.0492 37.4551C74.8334 38.6739 76.7972 38.7633 79.3272 37.9229C81.8573 37.0826 81.7589 34.928 80.0752 36.5193C78.3915 38.1107 79.0471 38.4832 81.6665 37.9229C84.286 37.3627 87.558 36.7041 86.5299 37.6249C85.5018 38.5457 85.2217 38.0928 86.9978 37.7203C88.7738 37.3478 89.8973 36.5044 89.6172 37.1571C89.3371 37.8097 88.5891 38.6471 89.9927 38.0004C91.3962 37.3537 91.2085 38.0004 91.2085 38.0004C93.7326 37.7203 95.1361 34.5376 93.3601 35.6611C91.584 36.7846 91.5721 38.2805 93.1723 38.1881C94.7726 38.0958 96.2596 36.5968 95.5116 37.3448C94.7636 38.0928 93.5478 38.656 96.1642 38.0004C98.7807 37.3448 99.627 35.9412 99.4422 36.8769C99.2575 37.8127 99.1621 37.7203 100.098 37.7203C101.034 37.7203 102.717 36.4091 102.157 37.3448C101.597 38.2805 101.314 38.3729 102.157 38.1881C103 38.0034 104.213 37.3448 104.589 37.3448C104.964 37.3448 103.841 38.3729 104.961 38.2805C106.082 38.1882 108.424 36.7905 108.424 36.7905" stroke="#008DCC" stroke-width="0.298" stroke-linecap="round" stroke-linejoin="round"/>
<path d="M105.789 36.7998C105.789 36.7998 108.128 38.3881 108.689 38.3881" stroke="#008DCC" stroke-width="0.298" stroke-linecap="round" stroke-linejoin="round"/>
<path d="M96.1016 71.1561L96.3787 72.4554L99.2544 69.0254" stroke="#008DCC" stroke-width="0.298" stroke-linecap="round" stroke-linejoin="round"/>
<path d="M64.2976 127.753L66.6399 130.036C66.6399 130.036 71.986 132.017 72.2274 132.378C72.4688 132.738 72.2274 133.761 72.2274 133.761H59.9141L60.2389 128.856L64.2976 127.753Z" fill="white" stroke="#263238" stroke-width="0.298" stroke-linecap="round" stroke-linejoin="round"/>
<path d="M72.3317 132.98H59.9677L59.9141 133.761H72.2274C72.2845 133.504 72.3194 133.243 72.3317 132.98Z" fill="white" stroke="#263238" stroke-width="0.298" stroke-linecap="round" stroke-linejoin="round"/>
<path d="M39.0014 88.569L40.6911 108.535C40.6911 108.535 39.3382 120.559 39.3382 121.751C39.3382 122.943 38.7422 126.817 38.7422 126.817L42.8158 127.315L48.2484 106.753L49.044 98.409L55.6984 113.407L60.2518 128.862L64.3106 127.759L61.1637 107.945L55.3259 89.2693L54.9057 87.085L39.0104 87.2816L39.0014 88.569Z" fill="#263238" stroke="#263238" stroke-width="0.298" stroke-linecap="round" stroke-linejoin="round"/>
<path d="M38.7396 126.817L37.5476 130.072C37.5476 130.072 35.3275 132.652 35.5063 133.135C35.556 133.272 35.6352 133.396 35.7381 133.499C35.8411 133.602 35.9654 133.681 36.1023 133.731H41.6273C41.7669 133.698 41.8932 133.623 41.9895 133.517C42.0858 133.41 42.1476 133.277 42.1666 133.135C42.2449 132.698 42.2848 132.256 42.2858 131.812L42.8073 127.315L38.7396 126.817Z" fill="white" stroke="#263238" stroke-width="0.298" stroke-linecap="round" stroke-linejoin="round"/>
<path d="M42.1621 133.135C42.18 133.057 42.1949 132.977 42.2068 132.894H35.5227C35.4893 132.969 35.4799 133.054 35.4959 133.135C35.5455 133.272 35.6247 133.396 35.7277 133.499C35.8306 133.602 35.955 133.681 36.0919 133.731H41.6168C41.7575 133.699 41.8851 133.625 41.9826 133.518C42.08 133.412 42.1427 133.278 42.1621 133.135Z" fill="white" stroke="#263238" stroke-width="0.298" stroke-linecap="round" stroke-linejoin="round"/>
<path d="M44.6617 59.9854C44.6617 59.9854 39.4468 60.2834 37.8822 61.3264C36.3177 62.3694 28.7188 68.6274 28.7188 68.6274L29.1091 75.1357L37.5098 69.0744L38.7017 90.0834L55.3152 89.2639L54.9427 77.5674L54.7192 77.1949C54.7192 77.1949 60.0832 82.7079 62.0947 82.5589C64.1062 82.4099 64.5532 79.0574 63.0632 76.9714C61.5732 74.8854 59.3382 71.9054 57.7737 69.6704C56.2092 67.4354 56.2092 64.1574 53.8997 62.5929C51.5902 61.0284 47.5672 60.1344 47.5672 60.1344L44.6617 59.9854Z" fill="#008DCC" stroke="#263238" stroke-width="0.298" stroke-linecap="round" stroke-linejoin="round"/>
<path d="M54.942 77.5667L54.6172 70.8408" stroke="#263238" stroke-width="0.298" stroke-linecap="round" stroke-linejoin="round"/>
<path d="M55.6836 73.5195L55.8743 72.3662" stroke="#263238" stroke-width="0.298" stroke-linecap="round" stroke-linejoin="round"/>
<path d="M55.0625 77.2154L55.5423 74.3486" stroke="#263238" stroke-width="0.298" stroke-linecap="round" stroke-linejoin="round"/>
<path d="M48.1211 81.5127L48.8691 82.3292" stroke="#263238" stroke-width="0.298" stroke-linecap="round" stroke-linejoin="round"/>
<path d="M40.082 72.7275L47.6572 80.997" stroke="#263238" stroke-width="0.298" stroke-linecap="round" stroke-linejoin="round"/>
<path d="M42.7969 78.1094L45.7292 80.9851" stroke="#263238" stroke-width="0.298" stroke-linecap="round" stroke-linejoin="round"/>
<path d="M41.332 76.6758L42.1754 77.5012" stroke="#263238" stroke-width="0.298" stroke-linecap="round" stroke-linejoin="round"/>
<path d="M39.9872 67.4326L37.5078 69.0746L39.8978 68.869" stroke="#263238" stroke-width="0.298" stroke-linecap="round" stroke-linejoin="round"/>
<path d="M44.1484 53.9082C44.3132 55.0454 44.4028 56.1922 44.4166 57.3412C44.4046 58.4675 44.315 59.5916 44.1484 60.7056C44.1484 60.7056 47.5129 65.8222 48.1178 66.2245C48.7227 66.6268 49.128 64.8776 49.128 64.1385C49.128 63.3995 49.1966 61.245 49.1966 61.245V58.8222L44.1484 53.9082Z" fill="#B0B0B0" stroke="#263238" stroke-width="0.298" stroke-linecap="round" stroke-linejoin="round"/>
<path d="M49.171 61.5765C49.171 61.3739 49.171 61.2457 49.171 61.2457V58.823L48.0266 57.7115L45.2344 56.582L49.171 61.5765Z" fill="#263238" stroke="#263238" stroke-width="0.298" stroke-linecap="round" stroke-linejoin="round"/>
<path d="M52.3558 47.1767C52.3558 47.1767 53.1634 49.8021 53.232 50.8779C53.3005 51.9537 52.6926 52.7642 52.6926 53.101C52.6926 53.4377 53.6343 54.7817 53.6343 55.2555C53.6343 55.7293 52.4899 56.3313 52.4899 56.3313C52.4899 56.3313 52.0191 58.8226 50.8092 59.6301C49.5993 60.4377 46.8369 58.4858 45.7611 57.4756C44.8614 56.6628 44.2078 55.6138 43.8748 54.4479C43.538 53.3692 43.9433 50.8719 44.6168 48.8604C44.8629 48.0259 45.3418 47.2788 45.9973 46.7067C46.6528 46.1346 47.4578 45.7611 48.3179 45.6301C49.8646 45.3589 52.1502 46.235 52.3558 47.1767Z" fill="#B0B0B0" stroke="#263238" stroke-width="0.298" stroke-linecap="round" stroke-linejoin="round"/>
<path d="M51.3458 53.539C51.3458 53.8548 51.2415 54.1111 51.1104 54.1111C50.9793 54.1111 50.875 53.8548 50.875 53.539C50.875 53.2231 50.9823 52.9668 51.1104 52.9668C51.2386 52.9668 51.3458 53.2231 51.3458 53.539Z" fill="#263238"/>
<path d="M50.6602 52.3584C50.6602 52.3584 51.6048 51.8876 52.1502 52.4955" stroke="#263238" stroke-width="0.298" stroke-linecap="round" stroke-linejoin="round"/>
<path d="M51.2127 57.3416C51.2127 57.3416 49.8001 56.8707 49.7227 55.8516" stroke="#263238" stroke-width="0.298" stroke-linecap="round" stroke-linejoin="round"/>
<path d="M44.4036 53.6614C44.4036 53.6614 45.682 53.8641 45.8161 53.1906C45.9502 52.5171 45.1426 52.383 46.0188 51.7781C46.8949 51.1731 47.5088 51.1821 47.768 50.7678C48.0273 50.3536 47.6607 49.7129 48.1316 48.6371C48.6024 47.5614 49.1686 47.8385 50.5156 48.0411C51.303 48.1513 52.0613 48.4145 52.7476 48.8159C52.7476 48.8159 53.576 47.0637 52.6999 46.0535C51.8238 45.0433 49.0435 44.0181 45.9472 44.9598C42.851 45.9015 41.9123 48.1425 41.6441 50.5652C41.3759 52.9879 42.3176 54.3349 43.2116 54.6031C44.1056 54.8713 44.4036 53.6614 44.4036 53.6614Z" fill="#263238" stroke="#263238" stroke-width="0.298" stroke-linecap="round" stroke-linejoin="round"/>
<path d="M45.0876 53.5038C45.0876 53.5038 44.28 51.0155 43.5976 52.2939C42.9152 53.5724 43.2608 54.6481 43.9343 55.0534C44.0148 55.1087 44.1073 55.1441 44.2041 55.1566C44.3009 55.1692 44.3993 55.1586 44.4912 55.1258C44.5832 55.0929 44.666 55.0387 44.7329 54.9676C44.7998 54.8964 44.8488 54.8105 44.876 54.7167" fill="#B0B0B0"/>
<path d="M45.0876 53.5038C45.0876 53.5038 44.28 51.0155 43.5976 52.2939C42.9152 53.5724 43.2608 54.6481 43.9343 55.0534C44.0148 55.1087 44.1073 55.1441 44.2041 55.1566C44.3009 55.1692 44.3993 55.1586 44.4912 55.1258C44.5832 55.0929 44.666 55.0387 44.7329 54.9676C44.7998 54.8964 44.8488 54.8105 44.876 54.7167" stroke="#263238" stroke-width="0.298" stroke-linecap="round" stroke-linejoin="round"/>
<path d="M59.9648 78.9946C60.8231 77.4182 64.6226 72.7783 64.6226 72.7783L67.099 73.9703C67.099 73.9703 65.2245 80.8005 64.3246 81.7749C63.4246 82.7494 62.4353 83.0802 61.3833 82.3292" fill="#B0B0B0"/>
<path d="M59.9648 78.9946C60.8231 77.4182 64.6226 72.7783 64.6226 72.7783L67.099 73.9703C67.099 73.9703 65.2245 80.8005 64.3246 81.7749C63.4246 82.7494 62.4353 83.0802 61.3833 82.3292" stroke="#263238" stroke-width="0.298" stroke-linecap="round" stroke-linejoin="round"/>
<path d="M61.439 82.2844C61.9175 82.5474 62.4725 82.6359 63.0091 82.5348C63.5456 82.4337 64.0304 82.1492 64.3803 81.7301C64.6515 81.4321 65.012 80.6066 65.3816 79.5964C64.5163 79.7849 63.6125 79.6712 62.8208 79.2742C62.0292 78.8773 61.3974 78.2212 61.0308 77.415C60.5829 77.9858 60.1963 78.602 59.8775 79.2537C59.8477 79.3461 60.095 80.4874 60.0801 80.5709" fill="#008DCC"/>
<path d="M61.439 82.2844C61.9175 82.5474 62.4725 82.6359 63.0091 82.5348C63.5456 82.4337 64.0304 82.1492 64.3803 81.7301C64.6515 81.4321 65.012 80.6066 65.3816 79.5964C64.5163 79.7849 63.6125 79.6712 62.8208 79.2742C62.0292 78.8773 61.3974 78.2212 61.0308 77.415C60.5829 77.9858 60.1963 78.602 59.8775 79.2537C59.8477 79.3461 60.095 80.4874 60.0801 80.5709" stroke="#263238" stroke-width="0.298" stroke-linecap="round" stroke-linejoin="round"/>
<path d="M89.615 83.2048C89.5567 83.2055 89.4989 83.1944 89.4451 83.172L86.2655 81.8519C86.2099 81.8303 86.1593 81.7978 86.1165 81.7564C86.0737 81.715 86.0397 81.6654 86.0163 81.6107C85.9929 81.5559 85.9808 81.497 85.9805 81.4374C85.9802 81.3779 85.9918 81.3189 86.0146 81.2639C86.0375 81.2089 86.0711 81.159 86.1134 81.1172C86.1558 81.0753 86.2061 81.0424 86.2614 81.0203C86.3167 80.9981 86.3759 80.9873 86.4354 80.9884C86.4949 80.9894 86.5537 81.0023 86.6081 81.0264L89.7878 82.3466C89.8824 82.3869 89.9602 82.4585 90.0081 82.5495C90.0561 82.6405 90.0711 82.7453 90.0508 82.8461C90.0305 82.9469 89.9761 83.0376 89.8967 83.1029C89.8173 83.1683 89.7178 83.2043 89.615 83.2048Z" fill="white" stroke="#263238" stroke-width="0.298" stroke-linecap="round" stroke-linejoin="round"/>
<path d="M79.6882 80.8929L9.01457 49.1708C8.47391 48.9274 8.05193 48.4794 7.84129 47.9251C7.63066 47.3709 7.64857 46.7557 7.89111 46.2146C8.13391 45.6742 8.58137 45.2522 9.13514 45.0416C9.68891 44.8309 10.3037 44.8487 10.8443 45.0912L81.518 76.8133L79.6882 80.8929Z" fill="white" stroke="#263238" stroke-width="0.298" stroke-linecap="round" stroke-linejoin="round"/>
<path d="M18.6082 48.575L10.8602 45.0914C10.3192 44.8468 9.70317 44.8271 9.14766 45.0367C8.59216 45.2462 8.14265 45.6679 7.89804 46.2089C7.65343 46.7499 7.63375 47.3659 7.84332 47.9214C8.05289 48.4769 8.47455 48.9264 9.01554 49.171L16.5847 52.5921L18.6082 48.575Z" fill="white" stroke="#263238" stroke-width="0.298" stroke-linecap="round" stroke-linejoin="round"/>
<path d="M81.5172 76.8135L88.5917 81.6589L88.1507 82.6006L79.6875 80.8931L81.5172 76.8135Z" fill="white" stroke="#263238" stroke-width="0.298" stroke-linecap="round" stroke-linejoin="round"/>
<path d="M16.7273 47.7378L10.8418 45.0975C10.3067 44.8848 9.7102 44.8869 9.17657 45.1032C8.64294 45.3195 8.21339 45.7335 7.97746 46.2587C7.74154 46.784 7.71744 47.38 7.9102 47.9226C8.10295 48.4652 8.49768 48.9125 9.01211 49.1712L14.6503 51.7012L16.7273 47.7378Z" fill="#008DCC" stroke="#263238" stroke-width="0.298" stroke-linecap="round" stroke-linejoin="round"/>
<path d="M23.8738 52.3858C23.8738 52.3858 23.2778 55.5893 23.7248 56.1853C24.1718 56.7813 26.6303 59.0163 26.6303 59.0163C26.6303 59.0163 25.6618 72.0538 25.8853 73.2458C26.1088 74.4378 28.6418 75.3318 29.4613 75.1083C30.2808 74.8848 30.8768 73.9908 31.6218 72.3518C32.3668 70.7128 29.0143 59.2398 29.0143 58.7183C29.0143 58.1968 27.4498 54.1738 27.4498 54.1738C27.4498 54.1738 28.7163 53.2798 28.9398 52.9818C29.1633 52.6838 28.0458 52.9073 27.8223 52.9073C27.0903 52.8227 26.3673 52.6732 25.6618 52.4603C25.3638 52.3113 23.8738 52.3858 23.8738 52.3858Z" fill="#B0B0B0" stroke="#263238" stroke-width="0.298" stroke-linecap="round" stroke-linejoin="round"/>
<path d="M27.4821 52.8896C27.4821 52.8896 26.4271 53.1549 26.4659 53.4171C26.5046 53.6793 26.5046 55.3392 26.5046 55.3392" fill="white"/>
<path d="M27.4821 52.8896C27.4821 52.8896 26.4271 53.1549 26.4659 53.4171C26.5046 53.6793 26.5046 55.3392 26.5046 55.3392" stroke="#263238" stroke-width="0.298" stroke-linecap="round" stroke-linejoin="round"/>
<path d="M25.8667 52.6277C25.8667 52.6277 24.9727 52.5889 24.9727 53.0806V55.1517" fill="white"/>
<path d="M25.8667 52.6277C25.8667 52.6277 24.9727 52.5889 24.9727 53.0806V55.1517" stroke="#263238" stroke-width="0.298" stroke-linecap="round" stroke-linejoin="round"/>
<path d="M23.8633 52.5889L24.0153 55.1517" stroke="#263238" stroke-width="0.298" stroke-linecap="round" stroke-linejoin="round"/>
<path d="M29.4648 75.0957C30.2843 74.8722 30.8803 73.9782 31.6253 72.3392C31.9084 71.7223 31.6045 69.7049 31.1217 67.4043C30.3835 67.901 29.5372 68.2143 28.6535 68.3179C27.7697 68.4216 26.874 68.3127 26.0408 68.0003C25.8948 70.5601 25.8024 72.7862 25.8888 73.2481C26.1123 74.4371 28.6453 75.3311 29.4648 75.0957Z" fill="#008DCC" stroke="#263238" stroke-width="0.298" stroke-linecap="round" stroke-linejoin="round"/>
<path d="M64.5938 69.2083C64.9024 68.9481 65.2958 68.8102 65.6993 68.8209C66.2953 68.8775 66.4175 69.7626 66.3609 70.5344C66.3043 71.3062 65.4669 71.4761 65.3656 70.9784C65.2643 70.4807 65.1451 69.7059 65.1451 69.7059L64.5938 69.2083Z" fill="#B0B0B0" stroke="#263238" stroke-width="0.298" stroke-linecap="round" stroke-linejoin="round"/>
<path d="M66.25 69.1543C66.4559 69.0942 66.6766 69.1116 66.8705 69.2033C67.0644 69.295 67.2179 69.4547 67.3019 69.652C67.6327 70.3702 67.2453 71.3089 66.8579 71.3655C66.4705 71.4221 66.3603 70.5341 66.3603 70.5341L66.25 69.1543Z" fill="#B0B0B0" stroke="#263238" stroke-width="0.298" stroke-linecap="round" stroke-linejoin="round"/>
<path d="M67.3008 69.6523C67.3755 69.6142 67.4581 69.5941 67.5419 69.5938C67.6257 69.5934 67.7085 69.6126 67.7835 69.65C67.8586 69.6874 67.9238 69.7418 67.974 69.809C68.0242 69.8761 68.058 69.9541 68.0726 70.0367C68.2961 70.7012 68.5166 71.5267 68.019 71.5267C67.5213 71.5267 67.3544 70.6327 67.3544 70.6327L67.3008 69.6523Z" fill="#B0B0B0" stroke="#263238" stroke-width="0.298" stroke-linecap="round" stroke-linejoin="round"/>
<path d="M68.0781 70.0314C68.0781 70.0314 68.7993 69.9777 68.9721 70.4188C69.145 70.8598 69.4698 71.6912 68.8619 71.6912C68.698 71.6912 68.3106 70.9164 68.3106 70.9164L68.0781 70.0314Z" fill="#B0B0B0" stroke="#263238" stroke-width="0.298" stroke-linecap="round" stroke-linejoin="round"/>
</svg>
