<svg width="153" height="153" viewBox="0 0 153 153" fill="none" xmlns="http://www.w3.org/2000/svg">
<path d="M125.198 31.5175C117.584 14.1581 99.3102 7.62196 84.8914 19.2775C79.261 23.8247 75.7481 31.0616 68.854 33.9655C62.3851 36.6889 54.1904 35.8872 47.1953 37.3621C32.2992 40.4833 12.244 52.3255 13.774 70.5723C14.4441 78.565 19.8358 87.4421 22.5011 94.9207C25.5611 103.525 27.3971 114.29 35.4969 119.434C49.3832 128.266 66.1336 121.047 78.6429 113.926C85.3749 110.098 89.0806 107.745 96.3297 109.058C103.04 110.282 109.084 114.566 115.641 109.483C120.565 105.667 120.972 97.9348 125.106 93.3938C129.763 88.2774 134.485 87.9072 136.905 80.2174C139.84 70.8875 135.516 65.0582 132.594 56.7227C129.671 48.3873 128.784 39.6846 125.198 31.5175Z" fill="#008DCC"/>
<g opacity="0.7">
<path opacity="0.7" d="M125.198 31.5175C117.584 14.1581 99.3102 7.62196 84.8914 19.2775C79.261 23.8247 75.7481 31.0616 68.854 33.9655C62.3851 36.6889 54.1904 35.8872 47.1953 37.3621C32.2992 40.4833 12.244 52.3255 13.774 70.5723C14.4441 78.565 19.8358 87.4421 22.5011 94.9207C25.5611 103.525 27.3971 114.29 35.4969 119.434C49.3832 128.266 66.1336 121.047 78.6429 113.926C85.3749 110.098 89.0806 107.745 96.3297 109.058C103.04 110.282 109.084 114.566 115.641 109.483C120.565 105.667 120.972 97.9348 125.106 93.3938C129.763 88.2774 134.485 87.9072 136.905 80.2174C139.84 70.8875 135.516 65.0582 132.594 56.7227C129.671 48.3873 128.784 39.6846 125.198 31.5175Z" fill="white"/>
</g>
<path d="M67.2624 133.93C93.3863 133.93 114.564 132.61 114.564 130.983C114.564 129.355 93.3863 128.036 67.2624 128.036C41.1385 128.036 19.9609 129.355 19.9609 130.983C19.9609 132.61 41.1385 133.93 67.2624 133.93Z" fill="#008DCC"/>
<path opacity="0.8" d="M67.2624 133.93C93.3863 133.93 114.564 132.61 114.564 130.983C114.564 129.355 93.3863 128.036 67.2624 128.036C41.1385 128.036 19.9609 129.355 19.9609 130.983C19.9609 132.61 41.1385 133.93 67.2624 133.93Z" fill="white"/>
<path d="M102.808 18.9287H55.2464C51.9627 18.9287 49.3008 21.5906 49.3008 24.8743V125.285C49.3008 128.569 51.9627 131.231 55.2464 131.231H102.808C106.092 131.231 108.754 128.569 108.754 125.285V24.8743C108.754 21.5906 106.092 18.9287 102.808 18.9287Z" fill="#263238"/>
<path d="M106.11 31.2607H51.9414V118.899H106.11V31.2607Z" fill="white" stroke="#263238" stroke-width="0.409241" stroke-miterlimit="10"/>
<path d="M87.3288 66.7476C91.914 62.1624 91.914 54.7282 87.3288 50.143C82.7435 45.5578 75.3094 45.5578 70.7242 50.143C66.1389 54.7282 66.1389 62.1624 70.7242 66.7476C75.3094 71.3328 82.7435 71.3328 87.3288 66.7476Z" fill="#008DCC"/>
<path d="M94.4418 113.388H63.6153C63.546 113.388 63.4772 113.375 63.413 113.349C63.3488 113.322 63.2904 113.284 63.2412 113.235C63.192 113.186 63.1529 113.128 63.1263 113.064C63.0997 112.999 63.0859 112.931 63.0859 112.861C63.0855 112.792 63.099 112.723 63.1254 112.658C63.1519 112.594 63.1909 112.535 63.2401 112.486C63.2893 112.437 63.3479 112.398 63.4123 112.372C63.4767 112.345 63.5457 112.332 63.6153 112.332H94.4418C94.5111 112.332 94.5798 112.346 94.6439 112.372C94.7079 112.399 94.7661 112.438 94.815 112.487C94.8639 112.536 94.9026 112.595 94.9289 112.659C94.9552 112.723 94.9685 112.792 94.9681 112.861C94.9681 113.001 94.9126 113.135 94.8139 113.234C94.7152 113.332 94.5814 113.388 94.4418 113.388Z" fill="#008DCC"/>
<path d="M95.4467 76.7881H62.6099C61.9322 76.7881 61.3828 77.3375 61.3828 78.0151V81.886C61.3828 82.5637 61.9322 83.1131 62.6099 83.1131H95.4467C96.1244 83.1131 96.6738 82.5637 96.6738 81.886V78.0151C96.6738 77.3375 96.1244 76.7881 95.4467 76.7881Z" fill="#008DCC"/>
<path d="M95.4467 88.6172H62.6099C61.9322 88.6172 61.3828 89.1666 61.3828 89.8442V93.7151C61.3828 94.3928 61.9322 94.9422 62.6099 94.9422H95.4467C96.1244 94.9422 96.6738 94.3928 96.6738 93.7151V89.8442C96.6738 89.1666 96.1244 88.6172 95.4467 88.6172Z" fill="#008DCC"/>
<path d="M84.8758 64.3021L81.421 62.3131V60.6699C81.9213 60.0647 82.2836 59.3577 82.4829 58.5983C82.6017 58.6405 82.7269 58.6622 82.8531 58.6625C83.2815 58.6625 83.5539 57.3345 83.5997 56.3859C84.0985 55.3302 83.4192 54.7121 83.4192 54.7121C83.4192 54.7121 83.7007 54.4305 83.8874 53.3014C84.0741 52.1723 83.2295 52.6435 82.5716 51.6092C81.9137 50.5749 81.4424 49.4489 79.2821 49.4489C78.6868 49.4293 78.0994 49.5893 77.5963 49.908C77.0931 50.2267 76.6975 50.6894 76.4608 51.2359C75.923 51.2378 75.3872 51.3005 74.8634 51.4226C74.2025 51.6092 74.0158 53.7726 74.5789 54.6203C74.8309 55.0835 74.9654 55.6015 74.9706 56.1288C74.8206 55.9452 74.6646 55.8963 74.5789 56.3124C74.3922 57.2519 75.145 58.5677 75.145 58.5677L75.5336 58.4575C75.7294 59.2692 76.1071 60.0257 76.6383 60.6699V62.3131L73.1835 64.3021C72.7801 64.535 72.445 64.87 72.2119 65.2734C71.9788 65.6767 71.8558 66.1343 71.8555 66.6002V67.7385C73.9102 69.3258 76.4333 70.1868 79.0296 70.1868C81.626 70.1868 84.1491 69.3258 86.2038 67.7385V66.6002C86.2041 66.1342 86.0814 65.6764 85.8482 65.2729C85.6151 64.8694 85.2796 64.5346 84.8758 64.3021Z" fill="#263238"/>
<path d="M65.8507 93.3692C65.7715 93.3681 65.6958 93.3362 65.6395 93.2804C65.6094 93.2535 65.5854 93.2205 65.569 93.1836C65.5527 93.1466 65.5444 93.1066 65.5447 93.0663C65.5456 93.011 65.5615 92.9571 65.5906 92.9102L66.1414 92.0289L65.0673 92.0626C65.0268 92.0651 64.9863 92.0591 64.9483 92.0448C64.9104 92.0306 64.8758 92.0085 64.847 91.9799C64.7971 91.9239 64.7695 91.8515 64.7695 91.7765C64.7695 91.7014 64.7971 91.629 64.847 91.573C64.8752 91.5434 64.9095 91.5204 64.9476 91.5056C64.9857 91.4908 65.0266 91.4845 65.0673 91.4873L66.1261 91.5271L65.5814 90.6488C65.5518 90.601 65.5359 90.546 65.5355 90.4897C65.5352 90.4493 65.5435 90.4093 65.5599 90.3724C65.5762 90.3355 65.6002 90.3025 65.6304 90.2755C65.6866 90.2197 65.7623 90.1879 65.8415 90.1868C65.8936 90.1871 65.9446 90.2023 65.9885 90.2304C66.0324 90.2586 66.0673 90.2986 66.0894 90.3459L66.6126 91.2914L67.1298 90.352C67.1543 90.3019 67.1921 90.2594 67.239 90.2292C67.2859 90.199 67.3402 90.1822 67.396 90.1807C67.4347 90.1809 67.4729 90.1892 67.5082 90.205C67.5435 90.2208 67.5751 90.2438 67.601 90.2725C67.6572 90.3307 67.688 90.4088 67.6867 90.4897C67.6865 90.5423 67.6728 90.5939 67.6469 90.6397L67.093 91.5271L68.1671 91.4873C68.2079 91.4845 68.2487 91.4908 68.2868 91.5056C68.3249 91.5204 68.3592 91.5434 68.3874 91.573C68.4396 91.6271 68.4682 91.6997 68.467 91.7749C68.4668 91.8508 68.4384 91.9238 68.3874 91.9799C68.3586 92.0085 68.3241 92.0306 68.2861 92.0448C68.2481 92.0591 68.2076 92.0651 68.1671 92.0626L67.0869 92.0289L67.6255 92.901C67.6557 92.9497 67.6716 93.0059 67.6714 93.0632C67.6714 93.1443 67.6391 93.2222 67.5818 93.2796C67.5244 93.3369 67.4465 93.3692 67.3654 93.3692C67.3129 93.3685 67.2618 93.3525 67.2183 93.3231C67.1748 93.2938 67.1408 93.2523 67.1206 93.2039L66.6096 92.2859L66.1016 93.2039C66.0791 93.2519 66.0437 93.2928 65.9994 93.3219C65.9551 93.3511 65.9037 93.3674 65.8507 93.3692Z" fill="#263238"/>
<path d="M70.8161 93.3692C70.7369 93.3681 70.6612 93.3362 70.605 93.2804C70.5749 93.2535 70.5508 93.2205 70.5345 93.1836C70.5181 93.1466 70.5098 93.1066 70.5101 93.0663C70.5111 93.011 70.5269 92.9571 70.556 92.9102L71.1068 92.0289L70.0358 92.0626C69.995 92.0644 69.9541 92.0581 69.9158 92.0439C69.8774 92.0297 69.8423 92.008 69.8124 91.9799C69.7718 91.938 69.7448 91.8849 69.7348 91.8274C69.7248 91.7699 69.7323 91.7107 69.7564 91.6576C69.7805 91.6044 69.8201 91.5598 69.8699 91.5294C69.9197 91.499 69.9775 91.4844 70.0358 91.4873L71.0915 91.5271L70.5468 90.6488C70.5172 90.601 70.5013 90.546 70.5009 90.4897C70.5006 90.4493 70.509 90.4093 70.5253 90.3724C70.5417 90.3355 70.5657 90.3025 70.5958 90.2755C70.652 90.2197 70.7277 90.1879 70.8069 90.1868C70.8591 90.1871 70.9101 90.2023 70.9539 90.2304C70.9978 90.2586 71.0328 90.2986 71.0548 90.3459L71.5781 91.2914L72.0952 90.352C72.1197 90.3019 72.1575 90.2594 72.2044 90.2292C72.2513 90.199 72.3056 90.1822 72.3614 90.1807C72.4002 90.1805 72.4385 90.1886 72.4738 90.2044C72.5092 90.2203 72.5408 90.2435 72.5664 90.2725C72.5948 90.3011 72.6172 90.335 72.6325 90.3723C72.6477 90.4095 72.6554 90.4495 72.6552 90.4897C72.6541 90.5426 72.6393 90.5942 72.6123 90.6397L72.0585 91.5271L73.1356 91.4934C73.1759 91.4907 73.2163 91.497 73.2539 91.5118C73.2915 91.5266 73.3253 91.5496 73.3529 91.5791C73.405 91.6333 73.4336 91.7059 73.4324 91.781C73.4322 91.8569 73.4039 91.9299 73.3529 91.9861C73.3246 92.0145 73.2906 92.0366 73.2532 92.0508C73.2157 92.0651 73.1756 92.0712 73.1356 92.0687L72.0524 92.035L72.5909 92.9071C72.6211 92.9558 72.637 93.012 72.6368 93.0693C72.6368 93.1505 72.6046 93.2283 72.5472 93.2857C72.4898 93.3431 72.412 93.3753 72.3308 93.3753C72.2784 93.3746 72.2272 93.3586 72.1837 93.3292C72.1403 93.2999 72.1063 93.2585 72.086 93.2101L71.575 92.2921L71.067 93.2101C71.0437 93.2569 71.0079 93.2965 70.9637 93.3245C70.9195 93.3526 70.8685 93.368 70.8161 93.3692Z" fill="#263238"/>
<path d="M75.781 93.3692C75.7007 93.3689 75.6238 93.337 75.5668 93.2804C75.5367 93.2535 75.5126 93.2205 75.4963 93.1836C75.4799 93.1466 75.4716 93.1066 75.4719 93.0663C75.4728 93.011 75.4887 92.9571 75.5178 92.9102L76.0686 92.0289L74.9976 92.0626C74.9399 92.0649 74.8829 92.05 74.8337 92.0197C74.7845 91.9895 74.7455 91.9453 74.7215 91.8928C74.6976 91.8403 74.6898 91.7818 74.6992 91.7248C74.7086 91.6679 74.7347 91.615 74.7742 91.573C74.8031 91.5435 74.838 91.5206 74.8766 91.5058C74.9151 91.491 74.9564 91.4847 74.9976 91.4873L76.0533 91.5271L75.5086 90.6488C75.479 90.601 75.4631 90.546 75.4627 90.4897C75.4637 90.4495 75.4726 90.4099 75.4888 90.3732C75.5051 90.3364 75.5285 90.3032 75.5576 90.2755C75.6146 90.219 75.6915 90.1871 75.7718 90.1868C75.8234 90.1877 75.8737 90.2031 75.917 90.2312C75.9603 90.2594 75.9948 90.2991 76.0166 90.3459L76.5398 91.2914L77.057 90.352C77.0815 90.3019 77.1193 90.2594 77.1662 90.2292C77.2131 90.199 77.2674 90.1822 77.3232 90.1807C77.3619 90.1805 77.4003 90.1886 77.4356 90.2044C77.471 90.2203 77.5025 90.2435 77.5282 90.2725C77.5566 90.3011 77.579 90.335 77.5943 90.3723C77.6095 90.4095 77.6172 90.4495 77.617 90.4897C77.6159 90.5426 77.6011 90.5942 77.5741 90.6397L77.0203 91.5271L78.0974 91.4873C78.137 91.4833 78.177 91.4879 78.2147 91.5007C78.2523 91.5135 78.2869 91.5342 78.3158 91.5615C78.3448 91.5887 78.3677 91.6219 78.3828 91.6587C78.3979 91.6955 78.4049 91.7352 78.4034 91.7749C78.404 91.8504 78.3768 91.9234 78.3269 91.9799C78.2981 92.0085 78.2635 92.0306 78.2256 92.0448C78.1876 92.0591 78.147 92.0651 78.1066 92.0626L77.0264 92.0289L77.5619 92.901C77.5921 92.9497 77.608 93.0059 77.6078 93.0632C77.6068 93.1034 77.5979 93.143 77.5817 93.1797C77.5654 93.2165 77.542 93.2497 77.5129 93.2774C77.4863 93.306 77.4541 93.3289 77.4183 93.3447C77.3826 93.3605 77.344 93.3688 77.3048 93.3692C77.2528 93.3683 77.2022 93.3522 77.1592 93.3228C77.1163 93.2934 77.0828 93.2521 77.0631 93.2039L76.549 92.2859L76.0411 93.2039C76.0182 93.2536 75.9814 93.2955 75.9353 93.3248C75.8892 93.3541 75.8356 93.3695 75.781 93.3692Z" fill="#263238"/>
<path d="M80.7483 93.3692C80.668 93.3689 80.5911 93.337 80.5341 93.2804C80.4764 93.224 80.4434 93.147 80.4423 93.0663C80.4413 93.0112 80.4562 92.957 80.4851 92.9102L81.0359 92.0289L79.9649 92.0626C79.924 92.0644 79.8832 92.0581 79.8449 92.0439C79.8065 92.0297 79.7713 92.008 79.7415 91.9799C79.6916 91.9239 79.6641 91.8515 79.6641 91.7765C79.6641 91.7014 79.6916 91.629 79.7415 91.573C79.7711 91.5444 79.8061 91.5221 79.8445 91.5074C79.8829 91.4927 79.9238 91.4858 79.9649 91.4873L81.0237 91.5271L80.482 90.6488C80.4524 90.601 80.4365 90.546 80.4362 90.4897C80.4371 90.4495 80.446 90.4099 80.4623 90.3732C80.4785 90.3364 80.5019 90.3032 80.531 90.2755C80.588 90.219 80.6649 90.1871 80.7452 90.1868C80.7973 90.1871 80.8483 90.2023 80.8922 90.2304C80.9361 90.2586 80.9711 90.2986 80.9931 90.3459L81.5133 91.2914L82.0304 90.352C82.0549 90.3019 82.0927 90.2594 82.1396 90.2292C82.1866 90.199 82.2408 90.1822 82.2966 90.1807C82.3354 90.1805 82.3737 90.1886 82.409 90.2044C82.4444 90.2203 82.476 90.2435 82.5017 90.2725C82.53 90.3011 82.5524 90.335 82.5677 90.3723C82.5829 90.4095 82.5906 90.4495 82.5904 90.4897C82.5893 90.5426 82.5745 90.5942 82.5475 90.6397L81.9937 91.5271L83.0708 91.4873C83.1104 91.4833 83.1504 91.4879 83.1881 91.5007C83.2258 91.5135 83.2603 91.5342 83.2893 91.5615C83.3183 91.5887 83.3411 91.6219 83.3562 91.6587C83.3713 91.6955 83.3783 91.7352 83.3768 91.7749C83.3774 91.8504 83.3502 91.9234 83.3003 91.9799C83.2715 92.0085 83.237 92.0306 83.199 92.0448C83.161 92.0591 83.1205 92.0651 83.08 92.0626L81.9998 92.0289L82.5353 92.901C82.5655 92.9497 82.5814 93.0059 82.5812 93.0632C82.5815 93.1036 82.5732 93.1436 82.5568 93.1805C82.5405 93.2174 82.5165 93.2505 82.4863 93.2774C82.4597 93.306 82.4275 93.3289 82.3918 93.3447C82.356 93.3605 82.3174 93.3688 82.2783 93.3692C82.2262 93.3683 82.1756 93.3522 82.1326 93.3228C82.0897 93.2934 82.0563 93.2521 82.0365 93.2039L81.5224 92.2859L81.0145 93.2039C80.9911 93.2545 80.9535 93.2971 80.9062 93.3265C80.8588 93.3559 80.8039 93.3707 80.7483 93.3692Z" fill="#263238"/>
<path d="M85.7131 93.3692C85.6328 93.3689 85.5559 93.337 85.4989 93.2804C85.4515 93.2324 85.4213 93.1701 85.413 93.1031C85.4047 93.0362 85.4188 92.9683 85.453 92.9102L86.0008 92.0289L84.9298 92.0626C84.8889 92.0644 84.8481 92.0581 84.8097 92.0439C84.7713 92.0297 84.7362 92.008 84.7064 91.9799C84.6565 91.9239 84.6289 91.8515 84.6289 91.7765C84.6289 91.7014 84.6565 91.629 84.7064 91.573C84.7359 91.5444 84.771 91.5221 84.8093 91.5074C84.8477 91.4927 84.8887 91.4858 84.9298 91.4873L85.9885 91.5271L85.4438 90.6488C85.4142 90.601 85.3983 90.546 85.3979 90.4897C85.3991 90.409 85.4321 90.332 85.4897 90.2755C85.5467 90.219 85.6237 90.1871 85.7039 90.1868C85.7561 90.1871 85.807 90.2023 85.8509 90.2304C85.8948 90.2586 85.9298 90.2986 85.9518 90.3459L86.472 91.2914L86.9891 90.352C87.0137 90.3019 87.0514 90.2594 87.0984 90.2292C87.1453 90.199 87.1996 90.1822 87.2554 90.1807C87.2945 90.1805 87.3333 90.1885 87.3692 90.2044C87.405 90.2202 87.4372 90.2434 87.4634 90.2725C87.5196 90.3307 87.5504 90.4088 87.5491 90.4897C87.548 90.5426 87.5333 90.5942 87.5063 90.6397L86.9524 91.5271L88.0295 91.4873C88.0691 91.4833 88.1091 91.4879 88.1468 91.5007C88.1845 91.5135 88.219 91.5342 88.248 91.5615C88.277 91.5887 88.2998 91.6219 88.3149 91.6587C88.33 91.6955 88.337 91.7352 88.3355 91.7749C88.3362 91.8504 88.3089 91.9234 88.259 91.9799C88.2302 92.0085 88.1957 92.0306 88.1577 92.0448C88.1197 92.0591 88.0792 92.0651 88.0387 92.0626L86.9585 92.0289L87.494 92.901C87.5242 92.9497 87.5401 93.0059 87.5399 93.0632C87.5402 93.1036 87.5319 93.1436 87.5156 93.1805C87.4992 93.2174 87.4752 93.2505 87.4451 93.2774C87.4184 93.306 87.3863 93.3289 87.3505 93.3447C87.3147 93.3605 87.2761 93.3688 87.237 93.3692C87.185 93.3683 87.1343 93.3522 87.0914 93.3228C87.0484 93.2934 87.015 93.2521 86.9953 93.2039L86.4812 92.2859L85.9732 93.2039C85.9503 93.2536 85.9136 93.2955 85.8675 93.3248C85.8213 93.3541 85.7678 93.3695 85.7131 93.3692Z" fill="#263238"/>
<path d="M90.6675 93.3692C90.5883 93.3681 90.5126 93.3362 90.4564 93.2804C90.4263 93.2535 90.4022 93.2205 90.3859 93.1836C90.3695 93.1466 90.3612 93.1066 90.3615 93.0663C90.3625 93.011 90.3783 92.9571 90.4074 92.9102L90.9552 92.0289L89.8842 92.0626C89.8448 92.0655 89.8052 92.0603 89.7679 92.0471C89.7307 92.034 89.6966 92.0132 89.6678 91.9861C89.639 91.9591 89.6162 91.9263 89.6007 91.89C89.5853 91.8536 89.5776 91.8144 89.5782 91.7749C89.578 91.7375 89.5852 91.7004 89.5993 91.6657C89.6135 91.6311 89.6344 91.5995 89.6608 91.573C89.689 91.5434 89.7233 91.5204 89.7614 91.5056C89.7995 91.4908 89.8403 91.4845 89.8811 91.4873L90.9399 91.5271L90.3952 90.6488C90.3655 90.601 90.3497 90.546 90.3493 90.4897C90.3504 90.409 90.3834 90.332 90.4411 90.2755C90.4981 90.219 90.575 90.1871 90.6553 90.1868C90.7074 90.1871 90.7584 90.2023 90.8023 90.2304C90.8461 90.2586 90.8811 90.2986 90.9031 90.3459L91.4233 91.2914L91.9435 90.352C91.9678 90.3024 92.0051 90.2602 92.0514 90.23C92.0978 90.1998 92.1514 90.1828 92.2067 90.1807C92.2459 90.1805 92.2847 90.1885 92.3205 90.2044C92.3564 90.2202 92.3885 90.2434 92.4148 90.2725C92.4709 90.3307 92.5017 90.4088 92.5004 90.4897C92.5003 90.5423 92.4866 90.5939 92.4607 90.6397L91.9068 91.5271L92.9809 91.4873C93.0216 91.4845 93.0625 91.4908 93.1006 91.5056C93.1387 91.5204 93.173 91.5434 93.2012 91.573C93.2534 91.6271 93.282 91.6997 93.2808 91.7749C93.2806 91.8508 93.2522 91.9238 93.2012 91.9799C93.1724 92.0085 93.1378 92.0306 93.0999 92.0448C93.0619 92.0591 93.0213 92.0651 92.9809 92.0626L91.9007 92.0289L92.4362 92.901C92.4664 92.9497 92.4823 93.0059 92.4821 93.0632C92.4809 93.1439 92.4479 93.2209 92.3903 93.2774C92.3345 93.3343 92.2588 93.3672 92.1792 93.3692C92.1271 93.3683 92.0765 93.3522 92.0335 93.3228C91.9906 93.2934 91.9571 93.2521 91.9374 93.2039L91.4233 92.2859L90.9154 93.2039C90.8934 93.2517 90.8585 93.2924 90.8148 93.3216C90.771 93.3508 90.7201 93.3672 90.6675 93.3692Z" fill="#263238"/>
<g style="mix-blend-mode:multiply">
<path d="M106.11 31.377H51.9414V34.7705H106.11V31.377Z" fill="#008DCC"/>
</g>
<path d="M84.9147 25.1259H73.1337C72.9211 25.1259 72.7172 25.0414 72.5668 24.8911C72.4165 24.7407 72.332 24.5368 72.332 24.3242C72.332 24.1116 72.4165 23.9076 72.5668 23.7573C72.7172 23.6069 72.9211 23.5225 73.1337 23.5225H84.9147C85.1274 23.5225 85.3313 23.6069 85.4817 23.7573C85.632 23.9076 85.7165 24.1116 85.7165 24.3242C85.7165 24.5368 85.632 24.7407 85.4817 24.8911C85.3313 25.0414 85.1274 25.1259 84.9147 25.1259Z" fill="#008DCC" stroke="#263238" stroke-width="0.409241" stroke-linecap="round" stroke-linejoin="round"/>
<path d="M82.2463 123.85C82.2469 123.214 82.0589 122.592 81.7061 122.064C81.3533 121.535 80.8515 121.123 80.2643 120.879C79.6771 120.635 79.0308 120.572 78.4072 120.695C77.7837 120.819 77.2109 121.125 76.7614 121.575C76.3118 122.024 76.0058 122.597 75.8819 123.221C75.758 123.844 75.8219 124.491 76.0655 125.078C76.309 125.665 76.7213 126.167 77.2502 126.52C77.779 126.872 78.4006 127.06 79.0364 127.06C79.8875 127.059 80.7034 126.721 81.3052 126.119C81.907 125.517 82.2455 124.701 82.2463 123.85Z" fill="#008DCC"/>
<path d="M79.6543 122.223H78.3984C77.8462 122.223 77.3984 122.67 77.3984 123.223V124.478C77.3984 125.031 77.8462 125.478 78.3984 125.478H79.6543C80.2066 125.478 80.6543 125.031 80.6543 124.478V123.223C80.6543 122.67 80.2066 122.223 79.6543 122.223Z" fill="#008DCC" stroke="#263238" stroke-width="0.409241" stroke-linecap="round" stroke-linejoin="round"/>
<path d="M117.807 86.9041C117.807 86.9041 113.541 76.0656 117.339 74.7774C121.292 73.434 121.118 80.5914 120.965 84.0798C120.644 91.5339 119.82 92.9201 119.205 91.0994L117.807 86.9041ZM116.525 95.3589C117.697 96.8889 118.027 95.3038 115.913 88.1465C114.921 84.7805 112.767 77.972 109.462 80.5271C106.289 82.9751 113.841 91.8491 113.841 91.8491L116.525 95.3589ZM114.26 101.571C115.377 102.562 115.399 101.311 112.746 96.1423C111.5 93.7218 108.866 88.8228 106.708 91.2463C104.637 93.5841 111.696 99.2665 111.696 99.2665L114.26 101.571ZM111.812 108.958C112.929 109.952 112.951 108.697 110.298 103.532C109.052 101.112 106.418 96.2096 104.26 98.6362C102.201 100.98 109.239 106.663 109.239 106.663L111.812 108.958ZM118.881 93.9207C117.094 94.6184 118.514 95.3773 125.977 95.3559C129.478 95.3559 136.626 95.1967 135.102 91.3075C133.642 87.5712 123.012 92.3295 123.012 92.3295L118.881 93.9207ZM116.846 98.8902C114.955 99.2176 116.197 100.246 123.517 101.708C126.947 102.397 133.982 103.667 133.263 99.5664C132.574 95.6129 121.21 98.1649 121.21 98.1649L116.846 98.8902ZM114.569 104.958C112.96 105.191 113.988 106.087 120.142 107.495C123.027 108.156 128.948 109.395 128.434 105.898C127.945 102.532 118.275 104.435 118.275 104.435L114.569 104.958ZM112.841 110.579C111.265 110.98 112.382 111.764 118.655 112.51C121.592 112.859 127.611 113.465 126.733 110.041C125.885 106.754 116.473 109.664 116.473 109.664L112.841 110.579ZM122.063 87.8221C121.145 89.8785 123.052 89.5663 129.533 83.9115C132.568 81.2584 138.658 75.7076 133.835 72.9444C129.205 70.2883 124.227 83.1036 124.227 83.1036L122.063 87.8221ZM113.079 117.902C112.109 118.468 113.061 118.688 117.51 117.801C119.597 117.388 123.841 116.47 122.406 114.658C121.017 112.914 115.325 116.586 115.325 116.586L113.079 117.902Z" fill="#008DCC"/>
<path opacity="0.3" d="M117.807 86.9041C117.807 86.9041 113.541 76.0656 117.339 74.7774C121.292 73.434 121.118 80.5914 120.965 84.0798C120.644 91.5339 119.82 92.9201 119.205 91.0994L117.807 86.9041ZM116.525 95.3589C117.697 96.8889 118.027 95.3038 115.913 88.1465C114.921 84.7805 112.767 77.972 109.462 80.5271C106.289 82.9751 113.841 91.8491 113.841 91.8491L116.525 95.3589ZM114.26 101.571C115.377 102.562 115.399 101.311 112.746 96.1423C111.5 93.7218 108.866 88.8228 106.708 91.2463C104.637 93.5841 111.696 99.2665 111.696 99.2665L114.26 101.571ZM111.812 108.958C112.929 109.952 112.951 108.697 110.298 103.532C109.052 101.112 106.418 96.2096 104.26 98.6362C102.201 100.98 109.239 106.663 109.239 106.663L111.812 108.958ZM118.881 93.9207C117.094 94.6184 118.514 95.3773 125.977 95.3559C129.478 95.3559 136.626 95.1967 135.102 91.3075C133.642 87.5712 123.012 92.3295 123.012 92.3295L118.881 93.9207ZM116.846 98.8902C114.955 99.2176 116.197 100.246 123.517 101.708C126.947 102.397 133.982 103.667 133.263 99.5664C132.574 95.6129 121.21 98.1649 121.21 98.1649L116.846 98.8902ZM114.569 104.958C112.96 105.191 113.988 106.087 120.142 107.495C123.027 108.156 128.948 109.395 128.434 105.898C127.945 102.532 118.275 104.435 118.275 104.435L114.569 104.958ZM112.841 110.579C111.265 110.98 112.382 111.764 118.655 112.51C121.592 112.859 127.611 113.465 126.733 110.041C125.885 106.754 116.473 109.664 116.473 109.664L112.841 110.579ZM122.063 87.8221C121.145 89.8785 123.052 89.5663 129.533 83.9115C132.568 81.2584 138.658 75.7076 133.835 72.9444C129.205 70.2883 124.227 83.1036 124.227 83.1036L122.063 87.8221ZM113.079 117.902C112.109 118.468 113.061 118.688 117.51 117.801C119.597 117.388 123.841 116.47 122.406 114.658C121.017 112.914 115.325 116.586 115.325 116.586L113.079 117.902Z" fill="white"/>
<path d="M119.69 91.95L118.946 79.5785L119.69 91.95ZM117.336 96.0321L112.636 85.3925L117.336 96.0321ZM129.466 92.9384L118.202 94.5541L129.466 92.9384ZM114.901 101.767L108.802 93.9421L114.901 101.767ZM115.972 99.3675L124.374 99.7898L115.972 99.3675ZM113.983 105.368L120.409 106.005L113.983 105.368ZM112.431 109.181L109.24 104.38L112.431 109.181ZM112.064 110.876L119.619 110.947L112.064 110.876ZM110.534 125.05C110.585 125.046 110.632 125.022 110.665 124.984C110.698 124.946 110.715 124.896 110.712 124.845C110.231 117.63 113.022 105.812 117.499 96.1116C120.36 89.9121 131.575 77.7272 131.694 77.6048C131.73 77.5686 131.75 77.5196 131.75 77.4686C131.75 77.4175 131.73 77.3686 131.694 77.3324C131.676 77.3147 131.655 77.3006 131.632 77.2909C131.609 77.2813 131.584 77.2764 131.559 77.2764C131.534 77.2764 131.51 77.2813 131.486 77.2909C131.463 77.3006 131.442 77.3147 131.425 77.3324C131.312 77.4548 120.051 89.6856 117.165 95.9403C112.606 105.876 109.852 117.48 110.341 124.87C110.345 124.918 110.367 124.964 110.403 124.997C110.438 125.031 110.485 125.049 110.534 125.05ZM119.687 92.1398C119.737 92.1366 119.785 92.1136 119.818 92.0758C119.852 92.038 119.87 91.9885 119.867 91.9378L119.136 79.5601C119.135 79.5349 119.128 79.5102 119.118 79.4874C119.107 79.4646 119.092 79.4442 119.073 79.4274C119.054 79.4106 119.032 79.3977 119.008 79.3895C118.984 79.3813 118.959 79.3779 118.934 79.3796C118.883 79.3827 118.836 79.4057 118.802 79.4435C118.768 79.4813 118.751 79.5309 118.753 79.5815L119.497 91.9531C119.499 92.0018 119.52 92.0477 119.556 92.0814C119.591 92.115 119.638 92.1337 119.687 92.1336V92.1398ZM117.404 96.2065C117.45 96.1857 117.486 96.1479 117.504 96.101C117.522 96.0541 117.521 96.0019 117.502 95.9556L112.799 85.316C112.778 85.2697 112.74 85.2334 112.693 85.215C112.646 85.1967 112.594 85.1978 112.548 85.218C112.501 85.2383 112.465 85.2762 112.447 85.3232C112.428 85.3703 112.429 85.4227 112.45 85.469L117.15 96.1086C117.165 96.1427 117.189 96.1719 117.22 96.1925C117.251 96.2131 117.287 96.2244 117.324 96.2249C117.356 96.2265 117.387 96.2202 117.416 96.2065H117.404ZM118.218 94.7377L129.476 93.1281C129.503 93.1276 129.529 93.1213 129.554 93.1096C129.579 93.098 129.6 93.0813 129.618 93.0606C129.636 93.0399 129.649 93.0158 129.657 92.9897C129.664 92.9636 129.666 92.9362 129.663 92.9092C129.659 92.8823 129.649 92.8564 129.635 92.8334C129.621 92.8103 129.602 92.7905 129.579 92.7754C129.556 92.7602 129.531 92.75 129.504 92.7454C129.477 92.7408 129.45 92.7419 129.423 92.7487L118.166 94.3583C118.115 94.3615 118.068 94.3846 118.035 94.4225C118.002 94.4604 117.985 94.5099 117.988 94.5602C117.992 94.6105 118.015 94.6575 118.052 94.6908C118.09 94.7241 118.14 94.741 118.19 94.7377H118.218ZM115.008 101.92C115.048 101.888 115.074 101.842 115.08 101.792C115.086 101.741 115.073 101.691 115.041 101.65L108.94 93.8105C108.909 93.7699 108.863 93.7434 108.812 93.7368C108.761 93.7302 108.71 93.7441 108.669 93.7753C108.628 93.8066 108.602 93.8527 108.595 93.9035C108.589 93.9542 108.603 94.0056 108.634 94.0461L114.748 101.898C114.765 101.921 114.788 101.939 114.814 101.952C114.84 101.965 114.869 101.972 114.898 101.972C114.943 101.969 114.987 101.951 115.02 101.92H115.008ZM124.543 99.7989C124.544 99.7483 124.526 99.6991 124.492 99.6619C124.457 99.6246 124.41 99.6024 124.359 99.6L115.972 99.1747C115.925 99.1779 115.88 99.1984 115.847 99.2321C115.814 99.2659 115.795 99.3106 115.792 99.3578C115.79 99.405 115.805 99.4514 115.835 99.4881C115.865 99.5249 115.907 99.5495 115.953 99.5572L124.356 99.9825C124.407 99.9842 124.456 99.9659 124.493 99.9315C124.53 99.8972 124.553 99.8495 124.555 99.7989H124.543ZM120.586 106.023C120.589 105.998 120.587 105.972 120.58 105.948C120.573 105.924 120.561 105.901 120.545 105.881C120.529 105.862 120.509 105.845 120.487 105.833C120.465 105.821 120.44 105.814 120.415 105.812L113.989 105.178C113.964 105.176 113.939 105.178 113.915 105.186C113.891 105.193 113.868 105.205 113.849 105.221C113.83 105.237 113.814 105.256 113.802 105.278C113.79 105.301 113.783 105.325 113.781 105.35C113.776 105.4 113.792 105.45 113.824 105.489C113.856 105.528 113.902 105.552 113.952 105.558L120.378 106.194H120.396C120.446 106.198 120.495 106.182 120.532 106.15C120.57 106.118 120.594 106.072 120.598 106.023H120.586ZM112.523 109.34C112.566 109.312 112.595 109.268 112.606 109.218C112.616 109.168 112.606 109.116 112.578 109.074L109.402 104.273C109.373 104.231 109.329 104.203 109.279 104.193C109.23 104.183 109.178 104.193 109.136 104.221C109.093 104.249 109.064 104.293 109.053 104.342C109.043 104.392 109.053 104.444 109.081 104.487L112.257 109.288C112.275 109.314 112.299 109.336 112.328 109.351C112.356 109.366 112.387 109.373 112.419 109.374C112.461 109.376 112.502 109.364 112.535 109.34H112.523ZM119.812 110.947C119.811 110.896 119.791 110.848 119.756 110.812C119.72 110.776 119.673 110.755 119.622 110.754L112.067 110.683C112.017 110.683 111.969 110.703 111.933 110.739C111.897 110.775 111.877 110.823 111.877 110.873C111.877 110.898 111.881 110.924 111.89 110.947C111.899 110.971 111.913 110.992 111.931 111.01C111.949 111.028 111.97 111.042 111.993 111.052C112.017 111.062 112.042 111.066 112.067 111.066L119.622 111.136C119.648 111.137 119.674 111.134 119.698 111.125C119.722 111.116 119.745 111.102 119.764 111.084C119.782 111.066 119.797 111.045 119.808 111.022C119.818 110.998 119.824 110.972 119.824 110.947H119.812ZM109.674 122.244C109.69 122.21 110.978 118.661 114.852 117.813C114.902 117.802 114.945 117.772 114.973 117.729C115 117.686 115.01 117.634 114.999 117.584C114.986 117.535 114.956 117.492 114.913 117.466C114.87 117.439 114.819 117.43 114.769 117.44C110.684 118.333 109.328 122.082 109.313 122.119C109.297 122.167 109.301 122.219 109.323 122.265C109.346 122.311 109.385 122.346 109.433 122.363H109.494C109.534 122.367 109.575 122.357 109.61 122.336C109.645 122.314 109.671 122.282 109.686 122.244H109.674ZM110.534 125.05C110.585 125.046 110.632 125.022 110.665 124.984C110.698 124.946 110.715 124.896 110.712 124.845C110.231 117.63 113.022 105.812 117.499 96.1116C120.36 89.9121 131.575 77.7272 131.694 77.6048C131.73 77.5686 131.75 77.5196 131.75 77.4686C131.75 77.4175 131.73 77.3686 131.694 77.3324C131.676 77.3147 131.655 77.3006 131.632 77.2909C131.609 77.2813 131.584 77.2764 131.559 77.2764C131.534 77.2764 131.51 77.2813 131.486 77.2909C131.463 77.3006 131.442 77.3147 131.425 77.3324C131.312 77.4548 120.051 89.6856 117.165 95.9403C112.606 105.876 109.852 117.48 110.341 124.87C110.345 124.918 110.367 124.964 110.403 124.997C110.438 125.031 110.485 125.049 110.534 125.05ZM119.687 92.1398C119.737 92.1366 119.785 92.1136 119.818 92.0758C119.852 92.038 119.87 91.9885 119.867 91.9378L119.136 79.5601C119.135 79.5349 119.128 79.5102 119.118 79.4874C119.107 79.4646 119.092 79.4442 119.073 79.4274C119.054 79.4106 119.032 79.3977 119.008 79.3895C118.984 79.3813 118.959 79.3779 118.934 79.3796C118.883 79.3827 118.836 79.4057 118.802 79.4435C118.768 79.4813 118.751 79.5309 118.753 79.5815L119.497 91.9531C119.499 92.0018 119.52 92.0477 119.556 92.0814C119.591 92.115 119.638 92.1337 119.687 92.1336V92.1398ZM117.404 96.2065C117.45 96.1857 117.486 96.1479 117.504 96.101C117.522 96.0541 117.521 96.0019 117.502 95.9556L112.799 85.316C112.778 85.2697 112.74 85.2334 112.693 85.215C112.646 85.1967 112.594 85.1978 112.548 85.218C112.501 85.2383 112.465 85.2762 112.447 85.3232C112.428 85.3703 112.429 85.4227 112.45 85.469L117.15 96.1086C117.165 96.1427 117.189 96.1719 117.22 96.1925C117.251 96.2131 117.287 96.2244 117.324 96.2249C117.356 96.2265 117.387 96.2202 117.416 96.2065H117.404ZM118.218 94.7377L129.476 93.1281C129.503 93.1276 129.529 93.1213 129.554 93.1096C129.579 93.098 129.6 93.0813 129.618 93.0606C129.636 93.0399 129.649 93.0158 129.657 92.9897C129.664 92.9636 129.666 92.9362 129.663 92.9092C129.659 92.8823 129.649 92.8564 129.635 92.8334C129.621 92.8103 129.602 92.7905 129.579 92.7754C129.556 92.7602 129.531 92.75 129.504 92.7454C129.477 92.7408 129.45 92.7419 129.423 92.7487L118.166 94.3583C118.115 94.3615 118.068 94.3846 118.035 94.4225C118.002 94.4604 117.985 94.5099 117.988 94.5602C117.992 94.6105 118.015 94.6575 118.052 94.6908C118.09 94.7241 118.14 94.741 118.19 94.7377H118.218ZM115.008 101.92C115.048 101.888 115.074 101.842 115.08 101.792C115.086 101.741 115.073 101.691 115.041 101.65L108.94 93.8105C108.924 93.7904 108.905 93.7736 108.883 93.7609C108.861 93.7483 108.837 93.7401 108.812 93.7368C108.787 93.7336 108.761 93.7353 108.737 93.7419C108.712 93.7485 108.689 93.7599 108.669 93.7753C108.649 93.7908 108.632 93.8101 108.619 93.8321C108.607 93.854 108.599 93.8783 108.595 93.9035C108.592 93.9286 108.594 93.9541 108.6 93.9786C108.607 94.0031 108.618 94.0261 108.634 94.0461L114.748 101.898C114.765 101.921 114.788 101.939 114.814 101.952C114.84 101.965 114.869 101.972 114.898 101.972C114.943 101.969 114.987 101.951 115.02 101.92H115.008ZM124.543 99.7989C124.544 99.7483 124.526 99.6991 124.492 99.6619C124.457 99.6246 124.41 99.6024 124.359 99.6L115.972 99.1747C115.925 99.1779 115.88 99.1984 115.847 99.2321C115.814 99.2659 115.795 99.3106 115.792 99.3578C115.79 99.405 115.805 99.4514 115.835 99.4881C115.865 99.5249 115.907 99.5495 115.953 99.5572L124.356 99.9825C124.407 99.9842 124.456 99.9659 124.493 99.9315C124.53 99.8972 124.553 99.8495 124.555 99.7989H124.543ZM120.586 106.023C120.589 105.998 120.587 105.972 120.58 105.948C120.573 105.924 120.561 105.901 120.545 105.881C120.529 105.862 120.509 105.845 120.487 105.833C120.465 105.821 120.44 105.814 120.415 105.812L113.989 105.178C113.964 105.176 113.939 105.178 113.915 105.186C113.891 105.193 113.868 105.205 113.849 105.221C113.83 105.237 113.814 105.256 113.802 105.278C113.79 105.301 113.783 105.325 113.781 105.35C113.776 105.4 113.792 105.45 113.824 105.489C113.856 105.528 113.902 105.552 113.952 105.558L120.378 106.194H120.396C120.446 106.198 120.495 106.182 120.532 106.15C120.57 106.118 120.594 106.072 120.598 106.023H120.586ZM112.523 109.34C112.566 109.312 112.595 109.268 112.606 109.218C112.616 109.168 112.606 109.116 112.578 109.074L109.402 104.273C109.373 104.231 109.329 104.203 109.279 104.193C109.23 104.183 109.178 104.193 109.136 104.221C109.093 104.249 109.064 104.293 109.053 104.342C109.043 104.392 109.053 104.444 109.081 104.487L112.257 109.288C112.275 109.314 112.299 109.336 112.328 109.351C112.356 109.366 112.387 109.373 112.419 109.374C112.461 109.376 112.502 109.364 112.535 109.34H112.523ZM119.812 110.947C119.811 110.896 119.791 110.848 119.756 110.812C119.72 110.776 119.673 110.755 119.622 110.754L112.067 110.683C112.017 110.683 111.969 110.703 111.933 110.739C111.897 110.775 111.877 110.823 111.877 110.873C111.877 110.898 111.881 110.924 111.89 110.947C111.899 110.971 111.913 110.992 111.931 111.01C111.949 111.028 111.97 111.042 111.993 111.052C112.017 111.062 112.042 111.066 112.067 111.066L119.622 111.136C119.648 111.137 119.674 111.134 119.698 111.125C119.722 111.116 119.745 111.102 119.764 111.084C119.782 111.066 119.797 111.045 119.808 111.022C119.818 110.998 119.824 110.972 119.824 110.947H119.812ZM109.674 122.244C109.69 122.21 110.978 118.661 114.852 117.813C114.902 117.802 114.945 117.772 114.973 117.729C115 117.686 115.01 117.634 114.999 117.584C114.986 117.535 114.956 117.492 114.913 117.466C114.87 117.439 114.819 117.43 114.769 117.44C110.684 118.333 109.328 122.082 109.313 122.119C109.297 122.167 109.301 122.219 109.323 122.265C109.346 122.311 109.385 122.346 109.433 122.363H109.494C109.534 122.367 109.575 122.357 109.61 122.336C109.645 122.314 109.671 122.282 109.686 122.244H109.674Z" fill="#008DCC"/>
<path opacity="0.2" d="M119.69 91.95L118.946 79.5785L119.69 91.95ZM117.336 96.0321L112.636 85.3925L117.336 96.0321ZM129.466 92.9384L118.202 94.5541L129.466 92.9384ZM114.901 101.767L108.802 93.9421L114.901 101.767ZM115.972 99.3675L124.374 99.7898L115.972 99.3675ZM113.983 105.368L120.409 106.005L113.983 105.368ZM112.431 109.181L109.24 104.38L112.431 109.181ZM112.064 110.876L119.619 110.947L112.064 110.876ZM110.534 125.05C110.585 125.046 110.632 125.022 110.665 124.984C110.698 124.946 110.715 124.896 110.712 124.845C110.231 117.63 113.022 105.812 117.499 96.1116C120.36 89.9121 131.575 77.7272 131.694 77.6048C131.73 77.5686 131.75 77.5196 131.75 77.4686C131.75 77.4175 131.73 77.3686 131.694 77.3324C131.676 77.3147 131.655 77.3006 131.632 77.2909C131.609 77.2813 131.584 77.2764 131.559 77.2764C131.534 77.2764 131.51 77.2813 131.486 77.2909C131.463 77.3006 131.442 77.3147 131.425 77.3324C131.312 77.4548 120.051 89.6856 117.165 95.9403C112.606 105.876 109.852 117.48 110.341 124.87C110.345 124.918 110.367 124.964 110.403 124.997C110.438 125.031 110.485 125.049 110.534 125.05ZM119.687 92.1398C119.737 92.1366 119.785 92.1136 119.818 92.0758C119.852 92.038 119.87 91.9885 119.867 91.9378L119.136 79.5601C119.135 79.5349 119.128 79.5102 119.118 79.4874C119.107 79.4646 119.092 79.4442 119.073 79.4274C119.054 79.4106 119.032 79.3977 119.008 79.3895C118.984 79.3813 118.959 79.3779 118.934 79.3796C118.883 79.3827 118.836 79.4057 118.802 79.4435C118.768 79.4813 118.751 79.5309 118.753 79.5815L119.497 91.9531C119.499 92.0018 119.52 92.0477 119.556 92.0814C119.591 92.115 119.638 92.1337 119.687 92.1336V92.1398ZM117.404 96.2065C117.45 96.1857 117.486 96.1479 117.504 96.101C117.522 96.0541 117.521 96.0019 117.502 95.9556L112.799 85.316C112.778 85.2697 112.74 85.2334 112.693 85.215C112.646 85.1967 112.594 85.1978 112.548 85.218C112.501 85.2383 112.465 85.2762 112.447 85.3232C112.428 85.3703 112.429 85.4227 112.45 85.469L117.15 96.1086C117.165 96.1427 117.189 96.1719 117.22 96.1925C117.251 96.2131 117.287 96.2244 117.324 96.2249C117.356 96.2265 117.387 96.2202 117.416 96.2065H117.404ZM118.218 94.7377L129.476 93.1281C129.503 93.1276 129.529 93.1213 129.554 93.1096C129.579 93.098 129.6 93.0813 129.618 93.0606C129.636 93.0399 129.649 93.0158 129.657 92.9897C129.664 92.9636 129.666 92.9362 129.663 92.9092C129.659 92.8823 129.649 92.8564 129.635 92.8334C129.621 92.8103 129.602 92.7905 129.579 92.7754C129.556 92.7602 129.531 92.75 129.504 92.7454C129.477 92.7408 129.45 92.7419 129.423 92.7487L118.166 94.3583C118.115 94.3615 118.068 94.3846 118.035 94.4225C118.002 94.4604 117.985 94.5099 117.988 94.5602C117.992 94.6105 118.015 94.6575 118.052 94.6908C118.09 94.7241 118.14 94.741 118.19 94.7377H118.218ZM115.008 101.92C115.048 101.888 115.074 101.842 115.08 101.792C115.086 101.741 115.073 101.691 115.041 101.65L108.94 93.8105C108.909 93.7699 108.863 93.7434 108.812 93.7368C108.761 93.7302 108.71 93.7441 108.669 93.7753C108.628 93.8066 108.602 93.8527 108.595 93.9035C108.589 93.9542 108.603 94.0056 108.634 94.0461L114.748 101.898C114.765 101.921 114.788 101.939 114.814 101.952C114.84 101.965 114.869 101.972 114.898 101.972C114.943 101.969 114.987 101.951 115.02 101.92H115.008ZM124.543 99.7989C124.544 99.7483 124.526 99.6991 124.492 99.6619C124.457 99.6246 124.41 99.6024 124.359 99.6L115.972 99.1747C115.925 99.1779 115.88 99.1984 115.847 99.2321C115.814 99.2659 115.795 99.3106 115.792 99.3578C115.79 99.405 115.805 99.4514 115.835 99.4881C115.865 99.5249 115.907 99.5495 115.953 99.5572L124.356 99.9825C124.407 99.9842 124.456 99.9659 124.493 99.9315C124.53 99.8972 124.553 99.8495 124.555 99.7989H124.543ZM120.586 106.023C120.589 105.998 120.587 105.972 120.58 105.948C120.573 105.924 120.561 105.901 120.545 105.881C120.529 105.862 120.509 105.845 120.487 105.833C120.465 105.821 120.44 105.814 120.415 105.812L113.989 105.178C113.964 105.176 113.939 105.178 113.915 105.186C113.891 105.193 113.868 105.205 113.849 105.221C113.83 105.237 113.814 105.256 113.802 105.278C113.79 105.301 113.783 105.325 113.781 105.35C113.776 105.4 113.792 105.45 113.824 105.489C113.856 105.528 113.902 105.552 113.952 105.558L120.378 106.194H120.396C120.446 106.198 120.495 106.182 120.532 106.15C120.57 106.118 120.594 106.072 120.598 106.023H120.586ZM112.523 109.34C112.566 109.312 112.595 109.268 112.606 109.218C112.616 109.168 112.606 109.116 112.578 109.074L109.402 104.273C109.373 104.231 109.329 104.203 109.279 104.193C109.23 104.183 109.178 104.193 109.136 104.221C109.093 104.249 109.064 104.293 109.053 104.342C109.043 104.392 109.053 104.444 109.081 104.487L112.257 109.288C112.275 109.314 112.299 109.336 112.328 109.351C112.356 109.366 112.387 109.373 112.419 109.374C112.461 109.376 112.502 109.364 112.535 109.34H112.523ZM119.812 110.947C119.811 110.896 119.791 110.848 119.756 110.812C119.72 110.776 119.673 110.755 119.622 110.754L112.067 110.683C112.017 110.683 111.969 110.703 111.933 110.739C111.897 110.775 111.877 110.823 111.877 110.873C111.877 110.898 111.881 110.924 111.89 110.947C111.899 110.971 111.913 110.992 111.931 111.01C111.949 111.028 111.97 111.042 111.993 111.052C112.017 111.062 112.042 111.066 112.067 111.066L119.622 111.136C119.648 111.137 119.674 111.134 119.698 111.125C119.722 111.116 119.745 111.102 119.764 111.084C119.782 111.066 119.797 111.045 119.808 111.022C119.818 110.998 119.824 110.972 119.824 110.947H119.812ZM109.674 122.244C109.69 122.21 110.978 118.661 114.852 117.813C114.902 117.802 114.945 117.772 114.973 117.729C115 117.686 115.01 117.634 114.999 117.584C114.986 117.535 114.956 117.492 114.913 117.466C114.87 117.439 114.819 117.43 114.769 117.44C110.684 118.333 109.328 122.082 109.313 122.119C109.297 122.167 109.301 122.219 109.323 122.265C109.346 122.311 109.385 122.346 109.433 122.363H109.494C109.534 122.367 109.575 122.357 109.61 122.336C109.645 122.314 109.671 122.282 109.686 122.244H109.674ZM110.534 125.05C110.585 125.046 110.632 125.022 110.665 124.984C110.698 124.946 110.715 124.896 110.712 124.845C110.231 117.63 113.022 105.812 117.499 96.1116C120.36 89.9121 131.575 77.7272 131.694 77.6048C131.73 77.5686 131.75 77.5196 131.75 77.4686C131.75 77.4175 131.73 77.3686 131.694 77.3324C131.676 77.3147 131.655 77.3006 131.632 77.2909C131.609 77.2813 131.584 77.2764 131.559 77.2764C131.534 77.2764 131.51 77.2813 131.486 77.2909C131.463 77.3006 131.442 77.3147 131.425 77.3324C131.312 77.4548 120.051 89.6856 117.165 95.9403C112.606 105.876 109.852 117.48 110.341 124.87C110.345 124.918 110.367 124.964 110.403 124.997C110.438 125.031 110.485 125.049 110.534 125.05ZM119.687 92.1398C119.737 92.1366 119.785 92.1136 119.818 92.0758C119.852 92.038 119.87 91.9885 119.867 91.9378L119.136 79.5601C119.135 79.5349 119.128 79.5102 119.118 79.4874C119.107 79.4646 119.092 79.4442 119.073 79.4274C119.054 79.4106 119.032 79.3977 119.008 79.3895C118.984 79.3813 118.959 79.3779 118.934 79.3796C118.883 79.3827 118.836 79.4057 118.802 79.4435C118.768 79.4813 118.751 79.5309 118.753 79.5815L119.497 91.9531C119.499 92.0018 119.52 92.0477 119.556 92.0814C119.591 92.115 119.638 92.1337 119.687 92.1336V92.1398ZM117.404 96.2065C117.45 96.1857 117.486 96.1479 117.504 96.101C117.522 96.0541 117.521 96.0019 117.502 95.9556L112.799 85.316C112.778 85.2697 112.74 85.2334 112.693 85.215C112.646 85.1967 112.594 85.1978 112.548 85.218C112.501 85.2383 112.465 85.2762 112.447 85.3232C112.428 85.3703 112.429 85.4227 112.45 85.469L117.15 96.1086C117.165 96.1427 117.189 96.1719 117.22 96.1925C117.251 96.2131 117.287 96.2244 117.324 96.2249C117.356 96.2265 117.387 96.2202 117.416 96.2065H117.404ZM118.218 94.7377L129.476 93.1281C129.503 93.1276 129.529 93.1213 129.554 93.1096C129.579 93.098 129.6 93.0813 129.618 93.0606C129.636 93.0399 129.649 93.0158 129.657 92.9897C129.664 92.9636 129.666 92.9362 129.663 92.9092C129.659 92.8823 129.649 92.8564 129.635 92.8334C129.621 92.8103 129.602 92.7905 129.579 92.7754C129.556 92.7602 129.531 92.75 129.504 92.7454C129.477 92.7408 129.45 92.7419 129.423 92.7487L118.166 94.3583C118.115 94.3615 118.068 94.3846 118.035 94.4225C118.002 94.4604 117.985 94.5099 117.988 94.5602C117.992 94.6105 118.015 94.6575 118.052 94.6908C118.09 94.7241 118.14 94.741 118.19 94.7377H118.218ZM115.008 101.92C115.048 101.888 115.074 101.842 115.08 101.792C115.086 101.741 115.073 101.691 115.041 101.65L108.94 93.8105C108.924 93.7904 108.905 93.7736 108.883 93.7609C108.861 93.7483 108.837 93.7401 108.812 93.7368C108.787 93.7336 108.761 93.7353 108.737 93.7419C108.712 93.7485 108.689 93.7599 108.669 93.7753C108.649 93.7908 108.632 93.8101 108.619 93.8321C108.607 93.854 108.599 93.8783 108.595 93.9035C108.592 93.9286 108.594 93.9541 108.6 93.9786C108.607 94.0031 108.618 94.0261 108.634 94.0461L114.748 101.898C114.765 101.921 114.788 101.939 114.814 101.952C114.84 101.965 114.869 101.972 114.898 101.972C114.943 101.969 114.987 101.951 115.02 101.92H115.008ZM124.543 99.7989C124.544 99.7483 124.526 99.6991 124.492 99.6619C124.457 99.6246 124.41 99.6024 124.359 99.6L115.972 99.1747C115.925 99.1779 115.88 99.1984 115.847 99.2321C115.814 99.2659 115.795 99.3106 115.792 99.3578C115.79 99.405 115.805 99.4514 115.835 99.4881C115.865 99.5249 115.907 99.5495 115.953 99.5572L124.356 99.9825C124.407 99.9842 124.456 99.9659 124.493 99.9315C124.53 99.8972 124.553 99.8495 124.555 99.7989H124.543ZM120.586 106.023C120.589 105.998 120.587 105.972 120.58 105.948C120.573 105.924 120.561 105.901 120.545 105.881C120.529 105.862 120.509 105.845 120.487 105.833C120.465 105.821 120.44 105.814 120.415 105.812L113.989 105.178C113.964 105.176 113.939 105.178 113.915 105.186C113.891 105.193 113.868 105.205 113.849 105.221C113.83 105.237 113.814 105.256 113.802 105.278C113.79 105.301 113.783 105.325 113.781 105.35C113.776 105.4 113.792 105.45 113.824 105.489C113.856 105.528 113.902 105.552 113.952 105.558L120.378 106.194H120.396C120.446 106.198 120.495 106.182 120.532 106.15C120.57 106.118 120.594 106.072 120.598 106.023H120.586ZM112.523 109.34C112.566 109.312 112.595 109.268 112.606 109.218C112.616 109.168 112.606 109.116 112.578 109.074L109.402 104.273C109.373 104.231 109.329 104.203 109.279 104.193C109.23 104.183 109.178 104.193 109.136 104.221C109.093 104.249 109.064 104.293 109.053 104.342C109.043 104.392 109.053 104.444 109.081 104.487L112.257 109.288C112.275 109.314 112.299 109.336 112.328 109.351C112.356 109.366 112.387 109.373 112.419 109.374C112.461 109.376 112.502 109.364 112.535 109.34H112.523ZM119.812 110.947C119.811 110.896 119.791 110.848 119.756 110.812C119.72 110.776 119.673 110.755 119.622 110.754L112.067 110.683C112.017 110.683 111.969 110.703 111.933 110.739C111.897 110.775 111.877 110.823 111.877 110.873C111.877 110.898 111.881 110.924 111.89 110.947C111.899 110.971 111.913 110.992 111.931 111.01C111.949 111.028 111.97 111.042 111.993 111.052C112.017 111.062 112.042 111.066 112.067 111.066L119.622 111.136C119.648 111.137 119.674 111.134 119.698 111.125C119.722 111.116 119.745 111.102 119.764 111.084C119.782 111.066 119.797 111.045 119.808 111.022C119.818 110.998 119.824 110.972 119.824 110.947H119.812ZM109.674 122.244C109.69 122.21 110.978 118.661 114.852 117.813C114.902 117.802 114.945 117.772 114.973 117.729C115 117.686 115.01 117.634 114.999 117.584C114.986 117.535 114.956 117.492 114.913 117.466C114.87 117.439 114.819 117.43 114.769 117.44C110.684 118.333 109.328 122.082 109.313 122.119C109.297 122.167 109.301 122.219 109.323 122.265C109.346 122.311 109.385 122.346 109.433 122.363H109.494C109.534 122.367 109.575 122.357 109.61 122.336C109.645 122.314 109.671 122.282 109.686 122.244H109.674Z" fill="black"/>
<path d="M115.53 119.656H106.867V121.449H107.623L109.187 131.232H113.211L114.774 121.449H115.53V119.656Z" fill="#008DCC"/>
<path opacity="0.3" d="M115.53 119.656H106.867V121.449H107.623L109.187 131.232H113.211L114.774 121.449H115.53V119.656Z" fill="white"/>
<path d="M37.5398 65.4309L27.4632 62.1414L26.5667 59.7729L24.5195 59.7087L20.8047 59.0049L21.2514 59.7729L25.9271 63.1665L27.0807 63.7418L37.6194 69.2467L37.5398 65.4309Z" fill="white" stroke="#263238" stroke-width="0.307212" stroke-miterlimit="10"/>
<path d="M26.5709 59.7725L25.61 59.1973L23.6914 59.9011L24.0096 60.2836L26.5709 59.7725Z" fill="white" stroke="#263238" stroke-width="0.307212" stroke-linejoin="round"/>
<path d="M37.5398 65.4309L27.4632 62.1414L26.5667 59.7729L24.5195 59.7087L20.8047 59.0049L21.2514 59.7729L25.9271 63.1665L27.0807 63.7418L37.6194 69.2467L37.5398 65.4309Z" fill="white"/>
<path opacity="0.5" d="M37.5398 65.4309L27.4632 62.1414L26.5667 59.7729L24.5195 59.7087L20.8047 59.0049L21.2514 59.7729L25.9271 63.1665L27.0807 63.7418L37.6194 69.2467L37.5398 65.4309Z" fill="#008DCC" stroke="#263238" stroke-width="0.307212" stroke-miterlimit="10"/>
<path d="M37.5398 65.4309L27.4632 62.1414L26.5667 59.7729L24.5195 59.7087L20.8047 59.0049L21.2514 59.7729L25.9271 63.1665L27.0807 63.7418L37.6194 69.2467L37.5398 65.4309Z" stroke="#263238" stroke-width="0.307212" stroke-miterlimit="10"/>
<path d="M26.5709 59.7725L25.61 59.1973L23.6914 59.9011L24.0096 60.2836L26.5709 59.7725Z" fill="white"/>
<path opacity="0.5" d="M26.5748 59.7725L25.6139 59.1973L23.6953 59.9011L24.0136 60.2836L26.5748 59.7725Z" fill="#008DCC" stroke="#263238" stroke-width="0.307212" stroke-linejoin="round"/>
<path d="M26.5709 59.7725L25.61 59.1973L23.6914 59.9011L24.0096 60.2836L26.5709 59.7725Z" stroke="#263238" stroke-width="0.307212" stroke-linejoin="round"/>
<path d="M39.687 44.0819C39.687 44.0819 39.531 45.4589 39.9196 46.3432C40.3082 47.2275 42.4655 50.2233 42.4655 50.2233L38.4386 53.4516C38.4386 53.4516 36.7678 50.0856 36.4496 49.5409C36.1313 48.9962 35.7488 46.6523 36.7862 44.9723C37.8235 43.2924 39.3168 42.8395 39.687 44.0819Z" fill="white"/>
<g style="mix-blend-mode:multiply" opacity="0.5">
<path d="M37.6113 48.5068L39.3586 52.1299L38.4283 53.4549L36.6719 50.3184L37.6113 48.5068Z" fill="#008DCC"/>
</g>
<path d="M39.687 44.0819C39.687 44.0819 39.531 45.4589 39.9196 46.3432C40.3082 47.2275 42.4655 50.2233 42.4655 50.2233L38.4386 53.4516C38.4386 53.4516 36.7678 50.0856 36.4496 49.5409C36.1313 48.9962 35.7488 46.6523 36.7862 44.9723C37.8235 43.2924 39.3168 42.8395 39.687 44.0819Z" stroke="#263238" stroke-width="0.307212" stroke-miterlimit="10"/>
<path d="M40.9378 41.5602C40.6899 40.0302 38.9366 36.9182 36.155 37.0375C34.3496 37.1171 33.5051 37.4812 32.7217 37.9249C32.0832 38.3011 31.488 38.7465 30.9469 39.253C29.5883 40.8839 29.1109 41.3307 29.3741 42.5792C29.3525 43.0771 29.4305 43.5744 29.6036 44.0419C30.0197 45.1526 30.3043 45.8779 30.6654 46.4072C30.5552 46.9244 30.2676 48.2891 30.2523 48.6013C30.237 48.9134 31.1703 48.6961 31.6415 48.5768C32.5167 50.5352 34.1201 51.8938 34.6189 52.0499C35.4879 52.3222 36.8619 50.8932 37.5902 49.7855C38.3184 48.6778 37.7676 47.4323 37.7707 46.9366C37.7738 46.4409 39.4078 45.3515 40.0137 45.0058C40.6196 44.66 41.1826 43.0871 40.9378 41.5602Z" fill="white"/>
<g style="mix-blend-mode:multiply" opacity="0.5">
<path d="M29.3761 42.579C29.3545 43.077 29.4325 43.5743 29.6056 44.0417C30.0218 45.1525 30.3063 45.8777 30.6674 46.4071C30.5573 46.9242 30.2696 48.289 30.2543 48.6011C30.239 48.9132 31.1723 48.696 31.6436 48.5766C32.5187 50.535 34.1222 51.8937 34.6209 52.0497C35.49 52.3221 36.8639 50.8931 37.5922 49.7853C37.7741 49.5088 37.8923 49.1952 37.938 48.8673C37.8982 48.7235 37.8707 48.6348 37.8707 48.6348C37.8707 48.6348 37.4606 50.2107 36.6467 50.0057C35.8327 49.8006 34.5873 48.1697 33.8927 47.6066C33.198 47.0436 33.4826 46.3031 33.3449 45.4646C33.2072 44.6262 31.1509 43.8887 31.0132 43.4083C30.8755 42.9279 31.3559 40.9389 31.3559 40.9389C31.3559 40.9389 32.1362 39.8985 31.9679 40.3269C31.849 40.6983 31.8058 41.0899 31.841 41.4784C31.8762 41.8668 31.9891 42.2442 32.1729 42.5882C32.3019 42.8597 32.5065 43.0881 32.7622 43.2461C33.0179 43.404 33.3137 43.4848 33.6142 43.4787L34.3608 39.7791L32.7849 38.4756L30.9489 39.2406C29.5781 40.8838 29.1099 41.3306 29.3761 42.579Z" fill="#008DCC"/>
</g>
<path d="M40.9378 41.5602C40.6899 40.0302 38.9366 36.9182 36.155 37.0375C34.3496 37.1171 33.5051 37.4812 32.7217 37.9249C32.0832 38.3011 31.488 38.7465 30.9469 39.253C29.5883 40.8839 29.1109 41.3307 29.3741 42.5792C29.3525 43.0771 29.4305 43.5744 29.6036 44.0419C30.0197 45.1526 30.3043 45.8779 30.6654 46.4072C30.5552 46.9244 30.2676 48.2891 30.2523 48.6013C30.237 48.9134 31.1703 48.6961 31.6415 48.5768C32.5167 50.5352 34.1201 51.8938 34.6189 52.0499C35.4879 52.3222 36.8619 50.8932 37.5902 49.7855C38.3184 48.6778 37.7676 47.4323 37.7707 46.9366C37.7738 46.4409 39.4078 45.3515 40.0137 45.0058C40.6196 44.66 41.1826 43.0871 40.9378 41.5602Z" stroke="#263238" stroke-width="0.306" stroke-miterlimit="10"/>
<path d="M31.0391 45.4834L31.3451 46.3586C31.3451 46.3586 32.003 46.5758 32.8047 45.7007" stroke="#263238" stroke-width="0.306" stroke-miterlimit="10" stroke-linecap="round"/>
<path d="M33.3008 49.5711C33.3008 49.5711 34.0291 49.4976 34.3228 48.4756" stroke="#263238" stroke-width="0.306" stroke-miterlimit="10" stroke-linecap="round"/>
<path d="M30.5273 44.7516C30.5273 44.7516 30.7446 44.0938 32.0573 44.0938" stroke="#263238" stroke-width="0.306" stroke-miterlimit="10" stroke-linecap="round"/>
<path d="M37.2584 35.8198C36.3045 35.6826 35.3426 35.609 34.3789 35.5995C34.3789 35.5995 31.4964 33.9379 28.7271 35.7096C25.9578 37.4814 27.2889 40.5842 27.2889 41.3584C27.2889 42.1326 26.4015 42.1356 26.9554 43.1332C27.5092 44.1308 29.382 43.58 29.382 43.58C29.4017 43.2037 29.5012 42.8359 29.6737 42.501C29.8462 42.166 30.0878 41.8715 30.3826 41.6369C31.3801 40.8627 32.1757 40.6944 32.5062 40.9178C32.5062 40.9178 32.2859 42.5793 32.6164 43.2434C32.6164 43.2434 33.7241 43.7972 34.0576 43.7972C34.3912 43.7972 33.8404 44.2654 34.945 44.6816C35.1463 44.7538 35.3616 44.7785 35.5739 44.7535C35.7863 44.7285 35.99 44.6547 36.169 44.5377C36.3312 43.8645 36.6862 42.8517 37.3471 43.0873C38.3172 43.4331 39.2015 45.8199 37.8888 46.6338C39.4677 46.9215 41.3802 44.1277 41.4934 41.5818C41.6067 39.0359 38.8985 36.1074 37.2584 35.8198Z" fill="#263238"/>
<path d="M32.5547 39.8258C32.5547 39.8258 33.3686 39.3882 34.3662 40.3245C35.3638 41.2609 37.3038 42.5124 39.8742 41.8239" stroke="white" stroke-width="0.153" stroke-linecap="round" stroke-linejoin="round"/>
<path d="M32.4414 39.0754C32.4414 39.0754 33.0014 38.2002 33.9377 38.2002C34.8741 38.2002 37.062 39.5129 38.8093 39.5129" stroke="white" stroke-width="0.153" stroke-linecap="round" stroke-linejoin="round"/>
<path d="M31.8054 40.7617C31.8054 40.7617 30.7436 39.4521 29.746 40.5139C28.7484 41.5757 29.3819 42.5794 29.3819 42.5794" stroke="white" stroke-width="0.153" stroke-linecap="round" stroke-linejoin="round"/>
<path d="M27.5625 41.6362C28.171 41.0874 28.5492 40.3287 28.6213 39.5125C28.7467 38.1386 30.6225 36.9513 31.8067 38.0774" stroke="white" stroke-width="0.153" stroke-linecap="round" stroke-linejoin="round"/>
<path d="M29.4922 36.6403C29.4922 36.6403 31.368 34.8288 32.9286 37.1391" stroke="white" stroke-width="0.153" stroke-linecap="round" stroke-linejoin="round"/>
<path d="M44.7675 125.707C44.7675 125.707 45.9212 127.5 45.7926 128.654L45.6672 129.807C45.6672 129.807 41.4352 130.967 40.5386 130.967C39.642 130.967 34.896 130.517 34.896 130.517L34.691 129.703C34.6766 129.643 34.6834 129.58 34.7101 129.524C34.7369 129.469 34.782 129.424 34.8378 129.397L39.0698 127.424L40.404 125.964L44.7675 125.707Z" fill="white" stroke="#263238" stroke-width="0.307212" stroke-miterlimit="10"/>
<path d="M41.1743 130.065C42.3218 130.153 44.5005 129.453 45.7643 129.006L45.6756 129.808C45.6756 129.808 41.4283 130.967 40.5317 130.967C39.6351 130.967 34.8891 130.518 34.8891 130.518L34.7422 129.936C35.5011 129.939 39.6565 129.948 41.1743 130.065Z" fill="#008DCC" stroke="#263238" stroke-width="0.307212" stroke-miterlimit="10"/>
<path d="M39.0695 127.424L32.9097 130.105C32.9097 130.105 32.3834 131.424 32.9097 131.687C33.436 131.95 44.911 131.687 44.911 131.687C44.911 131.687 45.7036 129.603 44.452 128.204C43.2005 126.806 39.0695 127.424 39.0695 127.424Z" fill="white" stroke="#263238" stroke-width="0.307212" stroke-miterlimit="10"/>
<path d="M44.9115 131.687C44.9115 131.687 33.4365 131.95 32.9102 131.687C32.6562 131.558 32.647 131.188 32.7052 130.836H45.1135C45.0729 131.125 45.0053 131.41 44.9115 131.687Z" fill="#008DCC" stroke="#263238" stroke-width="0.307212" stroke-miterlimit="10"/>
<path d="M36.1572 80.8478C36.1572 80.8478 34.5476 87.9807 33.9387 92.4422C33.3298 96.9036 32.9717 105.842 33.1003 106.867C33.2288 107.892 39.6364 125.068 39.6364 125.068L40.276 126.598L44.7619 125.701C44.7619 125.701 42.7117 119.165 41.9437 115.576C41.1756 111.986 39.4957 106.09 39.4957 105.065C39.4957 104.04 43.4736 84.4617 43.7582 83.1765C44.0428 81.8913 45.3341 79.9176 45.3341 79.9176L36.7447 79.7432L36.1572 80.8478Z" fill="#008DCC" stroke="#263238" stroke-width="0.307212" stroke-miterlimit="10"/>
<path d="M36.1556 80.8486C36.1556 80.8486 35.2132 87.3633 35.6018 91.8921C35.9904 96.4209 36.8258 106.063 36.8258 107.498C36.8258 108.933 39.1422 117.504 39.2738 120.197C39.4788 124.086 39.1912 126.011 39.1912 126.011L39.0535 127.422C39.0535 127.422 41.7554 127.807 42.346 127.976C43.0281 128.151 43.7321 128.228 44.436 128.202C44.436 128.202 45.4183 123.878 45.4183 120.194C45.4183 116.51 44.6012 108.927 44.1943 105.855C43.7873 102.783 45.0694 90.9313 45.7977 88.7189C46.526 86.5065 48.1172 81.8216 47.0462 79.4287C45.9752 77.0358 36.1556 80.8486 36.1556 80.8486Z" fill="#008DCC" stroke="#263238" stroke-width="0.307212" stroke-miterlimit="10"/>
<path d="M48.2371 78.2285L48.1391 81.1416C48.1391 81.1416 46.3949 81.4874 44.0449 81.8944C42.1048 82.231 37.2333 81.8057 35.5931 81.6465C35.4437 81.6333 35.3055 81.5616 35.2086 81.447C35.1118 81.3323 35.0641 81.1841 35.076 81.0345L35.2351 78.4029L48.2371 78.2285Z" fill="#263238"/>
<path d="M41.4192 49.1895C41.4192 49.1895 38.6652 52.1668 37.6279 54.0181C36.5905 55.8694 36.1805 58.706 35.7919 60.9398C35.4032 63.1736 36.4559 68.4185 36.1591 70.8267L35.2196 78.4124C35.2196 78.4124 35.0177 78.9265 35.6939 79.4896C36.3702 80.0526 39.6719 80.2576 42.6554 80.4076C43.7448 80.4626 46.9976 79.7619 47.53 79.7282C48.1726 79.6885 48.194 78.8714 48.2216 78.2288C48.3501 75.2086 48.8948 67.1578 49.2528 63.651C49.9903 56.4998 45.9541 49.5964 41.4192 49.1895Z" fill="white" stroke="#263238" stroke-width="0.307212" stroke-miterlimit="10"/>
<g style="mix-blend-mode:multiply">
<path d="M48.916 67.7172C49.0384 66.1291 49.1608 64.6878 49.2679 63.6505C49.2985 63.3445 49.3169 63.0385 49.3322 62.7325L42.0157 63.9565L35.7305 61.8145C35.7312 63.115 35.8047 64.4145 35.9508 65.7068L42.1167 67.4326L48.916 67.7172Z" fill="#008DCC"/>
</g>
<g style="mix-blend-mode:multiply">
<path d="M41.1499 49.4883C40.7337 49.9503 39.9075 50.8898 39.1211 51.8873L43.7662 56.6089L45.2962 55.9969L41.1499 49.4883Z" fill="#008DCC"/>
</g>
<path d="M41.4216 49.1895C41.4216 49.1895 38.6676 52.1668 37.6303 54.0181C37.3227 54.5808 37.0735 55.1734 36.8867 55.7868L42.4253 49.3884C42.0981 49.2892 41.7619 49.2226 41.4216 49.1895Z" fill="#263238"/>
<g style="mix-blend-mode:multiply">
<path d="M36.0039 59.7338L42.0137 61.7106L49.3118 60.8721C49.1975 59.0541 48.7936 57.266 48.1154 55.5753L42.231 57.9345L36.9709 55.5508C36.5407 56.918 36.2175 58.3165 36.0039 59.7338Z" fill="#008DCC"/>
</g>
<g style="mix-blend-mode:multiply">
<path d="M46.3542 75.2083C43.306 75.7201 40.1784 75.4645 37.2537 74.4647L35.788 73.9629L35.332 77.6349L37.0028 78.1031C40.179 78.9911 43.4986 79.2469 46.7734 78.8558L48.1228 78.6937C48.1931 78.545 48.2326 78.3837 48.2391 78.2193C48.2758 77.4023 48.3401 76.215 48.4227 74.8533L46.3542 75.2083Z" fill="#008DCC"/>
</g>
<g style="mix-blend-mode:multiply">
<path d="M47.1689 70.2084C44.1206 70.7222 40.9922 70.4656 38.0684 69.4618L36.2018 68.8223C36.2481 69.489 36.2389 70.1583 36.1743 70.8235L35.957 72.5891L37.8175 73.1093C40.9925 73.9983 44.3111 74.2551 47.585 73.8651L48.503 73.755C48.5795 72.531 48.6683 71.2274 48.7631 69.9392L47.1689 70.2084Z" fill="#008DCC"/>
</g>
<path d="M18.4623 57.2673L24.3789 62.0244L24.6339 61.7072L18.7173 56.9502L18.4623 57.2673Z" fill="#263238"/>
<path d="M44.2726 52.4912C44.2726 52.4912 46.4421 53.9692 46.4911 57.4607C46.5125 58.9907 46.3534 60.4197 46.0015 62.9258C45.6496 65.432 43.4647 73.593 41.7634 74.5844C40.062 75.5759 37.4212 73.7031 37.4212 73.7031L24.6488 65.2239L21.5612 62.73L20.0312 59.8413L20.5117 58.9233L24.2785 61.812L22.2497 59.9362L22.6476 59.4313L23.3819 59.9423L25.5239 60.744L25.9921 63.804L26.6531 64.2569L38.8717 68.7215C38.8717 68.7215 38.7187 62.1455 38.8319 60.8879C38.9451 59.6302 39.1012 56.4692 40.4476 54.1773" fill="white"/>
<g style="mix-blend-mode:multiply" opacity="0.5">
<path d="M38.7849 63.7515C38.7849 66.0221 38.8614 68.721 38.8614 68.721L26.6551 64.2748L25.9941 63.8219L25.526 60.7619L23.384 59.9602L22.6526 59.44L22.2548 59.9449L24.2775 61.8115L20.5106 58.9229L20.0547 59.8256L21.5847 62.7142L24.6722 65.2234L25.4495 65.7405L42.3254 71.1782L38.7849 63.7515Z" fill="#008DCC"/>
</g>
<path d="M44.2726 52.4912C44.2726 52.4912 46.4421 53.9692 46.4911 57.4607C46.5125 58.9907 46.3534 60.4197 46.0015 62.9258C45.6496 65.432 43.4647 73.593 41.7634 74.5844C40.062 75.5759 37.4212 73.7031 37.4212 73.7031L24.6488 65.2239L21.5612 62.73L20.0312 59.8413L20.5117 58.9233L24.2785 61.812L22.2497 59.9362L22.6476 59.4313L23.3819 59.9423L25.5239 60.744L25.9921 63.804L26.6531 64.2569L38.8717 68.7215C38.8717 68.7215 38.7187 62.1455 38.8319 60.8879C38.9451 59.6302 39.1012 56.4692 40.4476 54.1773" stroke="#263238" stroke-width="0.307212" stroke-miterlimit="10"/>
<path d="M38.868 68.7212L43.5315 72.0872L44.7402 69.9452C44.7402 69.9452 45.5756 69.2873 45.698 68.7916C45.8204 68.2959 45.6643 67.4911 45.7897 66.9954C45.9152 66.4996 46.5394 66.0345 46.5976 64.835C46.6557 63.6355 46.5976 62.6349 46.5976 62.6349C46.5976 62.6349 47.6074 58.4824 47.4972 56.677C47.3871 54.8716 45.6459 51.6801 44.2506 51.6097C42.8552 51.5393 41.0406 51.7504 39.633 53.8802C38.2254 56.01 38.5131 62.2279 38.2927 62.6165C38.0724 63.0051 38.3784 64.9237 38.3784 64.9237C38.2561 65.0149 38.1547 65.1312 38.0808 65.2647C38.0069 65.3981 37.9624 65.5458 37.95 65.6979C37.9255 66.1967 38.4641 67.4238 38.4641 67.4238L38.868 68.7212Z" fill="white" stroke="#263238" stroke-width="0.307212" stroke-miterlimit="10"/>
<g style="mix-blend-mode:multiply">
<path d="M38.4133 61.0186C38.4229 61.5525 38.3829 62.0862 38.294 62.6128C38.0981 62.9617 38.3215 64.5376 38.3705 64.8589C40.9934 65.6735 43.767 65.8828 46.4825 65.4709C46.5409 65.258 46.5757 65.0395 46.5866 64.8191C46.6478 63.6226 46.5866 62.6189 46.5866 62.6189C46.5866 62.6189 46.6753 62.2487 46.7977 61.6856C43.9854 61.8644 41.162 61.6398 38.4133 61.0186Z" fill="#008DCC"/>
</g>
<g style="mix-blend-mode:multiply">
<path d="M39.4403 54.2197C39.0027 55.0979 38.7579 56.4168 38.6172 57.754C41.3951 58.8142 44.3901 59.1787 47.3412 58.8158C47.459 58.1082 47.5112 57.3911 47.4973 56.6738C47.4443 56.1069 47.3104 55.5504 47.0995 55.0214C44.5227 55.0816 41.9488 54.8122 39.4403 54.2197Z" fill="#008DCC"/>
</g>
<path d="M38.4648 67.457L38.8596 68.7208L43.523 72.0868L44.7317 69.9448C44.7317 69.9448 45.5671 69.2869 45.6895 68.7912C45.7113 68.705 45.7247 68.6168 45.7293 68.528C43.2718 68.4856 40.83 68.1256 38.4648 67.457Z" fill="#263238"/>
<path d="M41.8394 127.934C41.8394 127.934 41.9435 125.284 42.4514 121.41C42.9594 117.536 41.7384 112.035 41.5334 111.117C41.3284 110.199 41.6375 108.161 41.4324 107.445C41.2274 106.729 40.236 103.675 40.8204 100.131C41.4049 96.5877 41.8792 87.2211 41.8792 87.2211C41.8792 87.2211 40.4073 86.0246 39.9759 84.4671C39.5444 82.9095 39.8749 82.4199 39.8749 82.4199" stroke="#263238" stroke-width="0.307212" stroke-miterlimit="10"/>
<path d="M42.5231 82.5645L41.957 85.6979" stroke="#263238" stroke-width="0.307212" stroke-miterlimit="10"/>
</svg>
