<svg width="99" height="99" viewBox="0 0 99 99" fill="none" xmlns="http://www.w3.org/2000/svg">
<g clip-path="url(#clip0)">
<path d="M56.1015 0H23.1016C18.5525 0 14.8516 3.7009 14.8516 8.25006V67.6501C14.8516 72.199 18.5525 75.9001 23.1016 75.9001H52.8016V72.6001H23.1016C20.3726 72.6001 18.1516 70.3791 18.1516 67.6501V8.25006C18.1516 5.52099 20.3726 3.30006 23.1016 3.30006H56.1017C58.8308 3.30006 61.0517 5.52099 61.0517 8.25006V56.1001H64.3515V8.25006C64.3515 3.7009 60.6507 0 56.1015 0Z" fill="#00587F"/>
<path d="M80.1743 43.9498L63.9878 23.7207L61.4087 25.7833L77.5952 46.0106C79.6957 48.6341 80.8506 51.9309 80.8491 55.2918V95.7003H56.7097C48.1859 95.7003 41.2493 88.7653 41.2493 80.2398V74.2503H37.9492V80.2398C37.9492 90.5836 46.366 99.0003 56.7097 99.0003H82.4992C83.4117 99.0003 84.1492 98.2629 84.1492 97.3504V55.2936C84.1509 51.1884 82.7402 47.159 80.1743 43.9498Z" fill="#00587F"/>
<path d="M42.8941 38.9123C44.0523 38.9454 45.1299 39.427 45.9235 40.2685L68.0979 63.8305L70.502 61.5684L48.3242 38.0047C46.9233 36.5212 45.0275 35.6716 42.9881 35.6138C40.9273 35.5445 39.0084 36.2952 37.5431 37.6796C37.5249 37.6978 37.3928 37.8231 37.3764 37.8413C34.5567 40.6693 34.3668 45.1079 36.9392 48.1736L51.1508 64.9541V70.0592C51.149 79.1771 56.8829 87.4486 65.4216 90.6462L66.5799 87.5557C59.3231 84.8382 54.4491 77.8075 54.4506 70.0592V64.3503C54.4506 63.9608 54.312 63.5813 54.0597 63.2827L39.4622 46.0451C38.0019 44.306 38.1092 41.7798 39.7922 40.0953C40.6336 39.3 41.7324 38.9055 42.8941 38.9123Z" fill="#00587F"/>
<path d="M54.4485 3.30029H51.1484V44.5502H54.4485V3.30029Z" fill="#00587F"/>
<path d="M46.1985 54.4497H42.8984V74.2497H46.1985V54.4497Z" fill="#00587F"/>
<path d="M46.1985 1.6499H42.8984V37.9498H46.1985V1.6499Z" fill="#00587F"/>
<path d="M26.4016 8.25H23.1016V29.6999H26.4016V8.25Z" fill="#00587F"/>
<path d="M34.6516 8.25H31.3516V21.4501H34.6516V8.25Z" fill="#00587F"/>
<path d="M34.6515 54.4497H24.7515C23.8408 54.4497 23.1016 55.1872 23.1016 56.0996V65.9996C23.1016 66.9121 23.8408 67.6496 24.7515 67.6496H34.6515C35.5622 67.6496 36.3014 66.9121 36.3014 65.9996V56.0996C36.3014 55.1872 35.5622 54.4497 34.6515 54.4497ZM33.0016 64.3497H26.4016V57.7498H33.0016V64.3497Z" fill="#00587F"/>
</g>
<defs>
<clipPath id="clip0">
<rect width="99" height="99" fill="white"/>
</clipPath>
</defs>
</svg>
