<svg width="166" height="166" viewBox="0 0 166 166" fill="none" xmlns="http://www.w3.org/2000/svg">
<path d="M108.124 13.3098C95.9027 13.519 86.4806 23.5122 76.0192 29.8335C60.2227 39.3785 39.9342 41.3173 26.5911 54.0695C17.4577 62.811 12.9492 75.9715 14.2241 88.5443C15.4989 101.117 22.4045 112.903 32.3911 120.652C38.7589 125.589 46.2322 128.919 53.8582 131.525C61.5872 134.161 69.6349 136.117 77.8021 136.22C89.12 136.362 100.239 132.939 110.478 128.109C117.599 124.752 124.465 120.649 130.066 115.114C135.358 109.889 139.415 103.468 142.193 96.5688C149.063 79.5173 147.97 59.9724 142.014 42.5789C137.087 28.1934 125.042 13.0177 108.124 13.3098Z" fill="#008DCC"/>
<path opacity="0.7" d="M108.124 13.3098C95.9027 13.519 86.4806 23.5122 76.0192 29.8335C60.2227 39.3785 39.9342 41.3173 26.5911 54.0695C17.4577 62.811 12.9492 75.9715 14.2241 88.5443C15.4989 101.117 22.4045 112.903 32.3911 120.652C38.7589 125.589 46.2322 128.919 53.8582 131.525C61.5872 134.161 69.6349 136.117 77.8021 136.22C89.12 136.362 100.239 132.939 110.478 128.109C117.599 124.752 124.465 120.649 130.066 115.114C135.358 109.889 139.415 103.468 142.193 96.5688C149.063 79.5173 147.97 59.9724 142.014 42.5789C137.087 28.1934 125.042 13.0177 108.124 13.3098Z" fill="white"/>
<path opacity="0.1" d="M115.697 83.6818C115.611 81.1818 115.448 78.5159 115.179 75.7569C114.817 70.2457 114.127 65.0997 112.875 61.8627C105.983 60.4517 70.1766 63.0812 70.1501 63.0812L69.9276 62.0852L69.838 61.6901L69.6786 60.9962L69.6355 60.8369C69.4031 59.9006 69.1408 58.9743 68.8353 58.0547C68.8353 58.0547 41.691 55.6311 32.6872 57.9817C32.6872 58.0613 32.6872 58.1377 32.6872 58.2174L32.7137 60.4385C32.7403 64.7379 32.6407 68.7717 32.8631 73.2005V73.2337C32.8201 73.2298 32.7767 73.2298 32.7337 73.2337C32.3843 73.2799 32.0545 73.4219 31.7808 73.644C31.5072 73.8661 31.3003 74.1596 31.1832 74.492C31.0939 74.7498 31.061 75.0238 31.0869 75.2955L31.2065 76.6932C31.2065 76.7164 31.2065 76.7363 31.2065 76.7596C31.5385 80.2854 31.8705 83.7781 31.8705 83.7781C31.8705 83.7781 32.0431 83.7947 32.3253 83.8079L33.816 83.9142C30.6421 84.2063 27.176 88.3962 27.3287 91.9984C27.4814 95.6006 24.0087 102.383 24.8752 106.274C25.5392 109.315 28.9555 114.206 30.6188 117.921L30.4893 118.658L23.0625 133.571C23.5605 132.841 28.0425 152.329 48.8589 148.203L63.6694 124.073C65.3214 122.827 66.8331 121.406 68.178 119.833C68.7457 119.269 69.2177 118.617 69.5757 117.901C70.1045 117.056 70.5082 116.139 70.7742 115.179C70.8406 114.926 70.9103 114.677 70.9834 114.422C72.1919 111.344 73.8054 107.144 74.9873 104.236C90.5913 103.771 106.976 102.818 115.202 100.883H115.219C116.016 95.4711 116.032 89.3988 115.697 83.6818ZM35.5623 97.317C35.4335 96.418 35.3559 95.5124 35.3299 94.6046C35.5125 95.5607 35.7117 96.5136 35.9209 97.4697C35.8013 97.4166 35.6818 97.3635 35.5623 97.317Z" fill="black"/>
<path d="M21.3633 132.619C21.3633 132.619 28.0298 152.329 48.8562 148.203C48.8562 148.203 53.4776 126.506 57.3488 123.303C59.8454 121.244 65.3599 117.552 66.5385 114.88C67.7171 112.207 72.4514 99.5149 73.3678 97.9877C74.2841 96.4605 63.4343 78.8877 63.4343 78.8877L40.5794 90.6803L27.8638 113.256C27.8638 113.256 25.4236 127.864 21.3633 132.619Z" fill="white"/>
<path d="M27.6435 115.016C27.6435 115.016 26.0134 127.203 20.625 133.571" stroke="#263238" stroke-width="0.332" stroke-linecap="round" stroke-linejoin="round"/>
<path d="M48.8633 148.203C48.8633 148.203 53.4582 127.211 57.3558 123.303C57.3558 123.303 66.1605 118.184 67.7474 112.158C68.8464 107.985 70.845 103.174 71.8012 100.99" stroke="#263238" stroke-width="0.332" stroke-linecap="round" stroke-linejoin="round"/>
<path d="M50.7094 101.663C50.3774 101.45 56.038 105.979 56.2571 112.167" stroke="#263238" stroke-width="0.332" stroke-linecap="round" stroke-linejoin="round"/>
<path d="M112.187 97.8678C93.8343 102.184 34.725 101.616 34.725 101.616C34.227 100.567 33.6261 97.9242 33.0451 94.8632C31.8831 88.7178 30.7974 80.886 30.7974 80.886L28.842 80.7498C28.842 80.7498 28.51 77.2572 28.178 73.7314C27.846 70.2055 29.838 70.2088 29.838 70.2088L29.6952 58.0045L29.6587 54.9568C38.6625 52.6062 65.8068 55.0298 65.8068 55.0298L66.6534 57.9713L67.1249 60.0563L109.847 58.8511C113.764 68.9804 112.187 97.8678 112.187 97.8678Z" fill="#008DCC"/>
<path d="M105.09 68.2616L77.0687 69.6627C75.9154 69.7203 75.0272 70.702 75.0849 71.8554L75.3696 77.5492C75.4272 78.7025 76.4089 79.5907 77.5623 79.533L105.583 78.132C106.736 78.0743 107.625 77.0926 107.567 75.9393L107.282 70.2455C107.225 69.0922 106.243 68.204 105.09 68.2616Z" fill="#263238"/>
<path d="M107.412 81.8516L107.501 82.7978L75.2375 84.0461L75.2109 83.1962L107.412 81.8516Z" fill="#263238"/>
<path d="M107.569 85.1416L107.599 85.9915L75.3385 87.1834L75.3086 86.3368L107.569 85.1416Z" fill="#263238"/>
<path opacity="0.3" d="M109.834 58.8521C109.834 58.8521 114.595 81.4281 112.182 97.8688C112.182 97.8688 82.0759 101.401 71.7673 100.83L71.3457 95.3356L72.2089 95.2028C72.2089 95.2028 68.0523 63.8421 67.1094 60.0573C67.1094 60.0573 102.962 57.4378 109.834 58.8521Z" fill="black"/>
<path opacity="0.8" d="M70.3594 95.2554L70.7146 99.4087C70.7146 99.4087 40.3698 100.737 37.7005 99.7706C35.0313 98.8045 37.8433 97.264 44.9016 96.7095C51.9599 96.1551 70.3594 95.2554 70.3594 95.2554Z" fill="white"/>
<path d="M52.237 77.64C53.7681 77.64 55.0092 76.5162 55.0092 75.13C55.0092 73.7438 53.7681 72.6201 52.237 72.6201C50.706 72.6201 49.4648 73.7438 49.4648 75.13C49.4648 76.5162 50.706 77.64 52.237 77.64Z" fill="#263238"/>
<path d="M30.793 80.8826C31.4184 87.9057 32.7328 94.8502 34.7172 101.616C47.5888 101.506 60.4572 101.364 73.3255 100.952C86.1938 100.54 99.4174 99.6705 112.169 97.8678C112.169 97.8678 114.454 77.6954 109.822 58.8511C104.703 57.7854 67.2399 60.0496 67.2399 60.0496" stroke="#263238" stroke-width="0.332" stroke-linecap="round" stroke-linejoin="round"/>
<path d="M70.3553 95.2551L70.7106 99.4084L41.8266 100.072C40.6347 100.175 38.7788 100.331 37.6832 99.7703C37.1852 99.5146 36.8267 98.8905 37.0624 98.3792C37.2749 97.921 37.8326 97.7583 38.3306 97.6587C41.8631 96.9317 45.4686 96.6262 49.0642 96.3606C56.7622 95.7896 64.4723 95.4034 72.1946 95.2019C72.0319 95.2019 70.1495 79.6677 69.9403 78.2334C69.1236 72.6226 68.3467 66.9886 67.3375 61.4077C66.9732 59.2469 66.4528 57.1154 65.7804 55.0299C53.8815 54.18 41.4547 53.3932 29.6289 54.9569C29.7385 60.2257 29.5426 64.9169 29.8115 70.209" stroke="#263238" stroke-width="0.332" stroke-linecap="round" stroke-linejoin="round"/>
<path d="M34.2785 100.052C34.2074 99.8374 34.165 99.6141 34.1523 99.3882" stroke="#263238" stroke-width="0.332" stroke-linecap="round" stroke-linejoin="round"/>
<path d="M34.3438 98.1303C34.7853 97.0247 36.11 95.7764 39.7122 95.378C46.2825 94.6476 60.605 93.3329 69.0079 93.0142" stroke="#263238" stroke-width="0.332" stroke-linecap="round" stroke-linejoin="round" stroke-dasharray="1.3 1.3"/>
<path d="M69.6602 92.99L70.3242 92.9667L70.2345 92.3027" stroke="#263238" stroke-width="0.332" stroke-linecap="round" stroke-linejoin="round"/>
<path d="M70.0448 91.0324C68.5342 80.166 66.861 69.3794 64.9453 58.5728" stroke="#263238" stroke-width="0.332" stroke-linecap="round" stroke-linejoin="round" stroke-dasharray="1.29 1.29"/>
<path d="M64.846 57.9385L64.7265 57.2745L64.0625 57.228" stroke="#263238" stroke-width="0.332" stroke-linecap="round" stroke-linejoin="round"/>
<path d="M62.7156 57.1412C57.1944 56.7727 41.4941 55.8531 31.0195 56.5702" stroke="#263238" stroke-width="0.332" stroke-linecap="round" stroke-linejoin="round" stroke-dasharray="1.35 1.35"/>
<path d="M30.3476 56.6201L29.6836 56.6732" stroke="#263238" stroke-width="0.332" stroke-linecap="round" stroke-linejoin="round"/>
<path d="M28.841 80.7494L28.0475 72.2834C28.0234 72.0291 28.0509 71.7726 28.1283 71.5292C28.2056 71.2858 28.3313 71.0605 28.4977 70.8668C28.6642 70.673 28.868 70.5149 29.0969 70.4018C29.3259 70.2886 29.5754 70.2228 29.8304 70.2084C34.7108 69.9262 47.3334 69.2622 52.1773 69.6506C54.5013 69.8365 57.0278 70.5835 58.1533 72.8079C59.0895 74.6406 59.229 77.3895 57.6586 78.8968C55.2682 81.1876 50.7331 81.0116 47.6521 81.1212C41.9152 81.3403 28.8443 80.7992 28.841 80.7494Z" stroke="#263238" stroke-width="0.332" stroke-linecap="round" stroke-linejoin="round"/>
<path d="M58.8503 75.5738C58.8503 75.3381 60.0588 80.4376 55.6432 82.1209C51.2276 83.8041 30.793 83.2729 30.793 83.2729V80.8825C30.793 80.8825 45.2483 81.1879 47.6553 81.1215C50.0623 81.0551 58.5913 81.8553 58.8503 75.5738Z" fill="#263238"/>
<path d="M54.6094 104.059C54.6094 104.059 58.2215 106.174 59.5728 110.148" stroke="#263238" stroke-width="0.332" stroke-linecap="round" stroke-linejoin="round"/>
<path d="M28.1445 71.4807C28.1445 71.4807 45.86 70.6473 50.3686 70.7967C54.8772 70.9461 57.085 71.9388 57.5332 74.7641C57.9814 77.5895 55.249 79.3491 53.0711 79.6811C50.8932 80.0131 28.8351 80.1093 28.8351 80.1093" stroke="#263238" stroke-width="0.332" stroke-linecap="round" stroke-linejoin="round" stroke-dasharray="1.33 1.33"/>
<path d="M40.3234 105.706C40.3234 105.706 37.5811 96.1813 32.5347 94.3055C32.5347 94.3055 31.5387 87.8049 33.69 87.4464C35.8414 87.0878 41.917 83.0839 40.33 78.0873C38.7431 73.0907 33.9789 80.5939 30.8049 80.8827C27.631 81.1716 24.1649 85.3647 24.3077 88.9703C24.4505 92.5758 20.9877 99.3585 21.8542 103.246C22.7207 107.134 28.0626 114.069 28.4942 117.678" fill="white"/>
<path d="M40.3234 105.706C40.3234 105.706 37.5811 96.1813 32.5347 94.3055C32.5347 94.3055 31.5387 87.8049 33.69 87.4464C35.8414 87.0878 41.917 83.0839 40.33 78.0873C38.7431 73.0907 33.9789 80.5939 30.8049 80.8827C27.631 81.1716 24.1649 85.3647 24.3077 88.9703C24.4505 92.5758 20.9877 99.3585 21.8542 103.246C22.7207 107.134 28.0626 114.069 28.4942 117.678" stroke="#263238" stroke-width="0.332" stroke-linecap="round" stroke-linejoin="round"/>
<path d="M33.6836 79.4193C33.6836 79.4193 37.485 80.1099 39.55 77.6962C41.6151 75.2826 39.238 75.1299 39.238 75.1299L33.6836 79.4193Z" fill="white" stroke="#263238" stroke-width="0.332" stroke-linecap="round" stroke-linejoin="round"/>
<path d="M26.8906 84.7964C27.5845 84.8441 28.2556 85.0643 28.8428 85.4371" stroke="#263238" stroke-width="0.332" stroke-linecap="round" stroke-linejoin="round"/>
<path d="M26.7695 86.1787C27.4608 86.2442 28.1192 86.5044 28.6686 86.929" stroke="#263238" stroke-width="0.332" stroke-linecap="round" stroke-linejoin="round"/>
<path d="M37.0391 98.9372C37.0391 98.9372 53.3071 98.0972 57.5899 98.3429" stroke="#263238" stroke-width="0.332" stroke-linecap="round" stroke-linejoin="round"/>
<path d="M53.6211 97.1002C53.6211 97.1002 57.7147 96.7682 60.2611 97.1002" stroke="#263238" stroke-width="0.332" stroke-linecap="round" stroke-linejoin="round"/>
<path d="M63.9961 98.2959H70.6195" stroke="#263238" stroke-width="0.332" stroke-linecap="round" stroke-linejoin="round"/>
<path d="M68 61.915C68 61.915 97.0932 59.3155 108.783 60.7995C108.783 60.7995 111.937 66.5996 111.25 96.3235C98.111 98.0076 84.8919 98.9906 71.6487 99.2684" stroke="#263238" stroke-width="0.332" stroke-linecap="round" stroke-linejoin="round" stroke-dasharray="1.33 1.33"/>
<g opacity="0.1">
<path opacity="0.1" d="M146.757 103.05C145.931 99.5339 144.719 98.2126 143.504 97.1966C143.504 97.1966 143.477 95.2046 141.92 94.0692C141.504 93.7029 141.06 93.3698 140.592 93.0732C139.131 91.9776 137.521 90.7492 137.521 90.7492C136.764 88.558 135.738 85.9053 134.629 83.2958L134.686 83.8901C133.55 81.1179 132.438 78.359 132.126 77.4426V77.4227C132.458 78.3058 132.79 79.1591 133.155 79.9459L128.999 65.2549C128.899 64.664 128.796 64.083 128.693 63.5219C128.494 61.8619 127.953 58.7344 126.648 58.512C126.599 58.5087 126.551 58.5087 126.502 58.512C126.502 58.512 124.965 57.848 124.965 60.5737C123.135 61.1846 122.428 62.5657 122.252 64.1892C122.157 64.7041 122.146 65.2311 122.219 65.7496C122.252 66.3505 122.322 66.9647 122.415 67.5756L116.525 59.8334L115.958 59.0963L108.693 49.5347L98.9294 36.6531C98.566 36.1749 98.1121 35.773 97.5934 35.4703C97.0747 35.1676 96.5015 34.9701 95.9065 34.889C95.3114 34.8079 94.7062 34.8449 94.1255 34.9978C93.5447 35.1506 92.9998 35.4164 92.5218 35.78L80.4004 44.9863L75.6694 48.5786C72.0407 50.4676 72.9869 54.1993 73.9928 55.524L95.1313 83.3489C95.0212 83.335 94.9102 83.3295 94.7993 83.3323C94.7993 83.3323 94.195 81.908 92.701 82.1338C92.3829 82.1485 92.075 82.2508 91.8113 82.4293C91.5703 82.556 91.3657 82.7423 91.217 82.9704C91.0514 83.1703 90.9026 83.3835 90.7721 83.6079C90.0118 84.9093 90.7157 88.0932 91.8146 91.9809C91.8843 92.2332 91.954 92.4756 92.0204 92.7014V92.7379L92.3026 93.7106C93.3783 97.4423 95.3902 104.77 95.7621 108.362C95.7886 108.694 95.8052 109.049 95.8119 109.381C95.8351 113.518 93.9992 120.443 94.7893 123.305C94.8922 123.68 94.9985 124.039 95.1047 124.394C95.6924 126.306 96.2169 128.116 97.1399 129.912C98.262 132.103 99.6 134.205 100.852 136.326C103.149 140.224 105.526 144.075 107.983 147.88C109.115 149.626 110.44 151.22 111.721 152.86C112.309 153.613 113.59 154.746 113.813 155.712C113.813 155.712 125.177 156.651 131.538 152.611L130.941 143.567L135.207 119.049C136.425 117.2 140.187 113.587 140.937 112.445C141.326 111.878 141.704 111.313 142.073 110.762C144.878 108.143 146.283 106.114 146.9 103.754C146.913 103.76 146.87 103.491 146.757 103.05ZM107.415 108.405L107.359 108.299C108.52 108.824 109.749 109.182 111.011 109.361C109.686 109.208 108.189 108.996 107.415 108.405ZM112.209 109.504L112.82 109.547C112.616 109.546 112.412 109.532 112.209 109.504ZM107.296 108.156L106.532 106.642C105.47 103.594 103.069 96.4098 103.059 96.3799C102.589 94.3096 101.961 92.2785 101.18 90.3043C101.745 90.5034 102.351 90.5591 102.942 90.4664C103.534 90.3737 104.093 90.1355 104.57 89.7731L110.38 85.3608C110.981 85.7227 111.595 86.0481 112.196 86.3336L117.638 90.5865L113.322 108.325L107.296 108.156ZM129.321 67.3C129.772 69.4182 130.486 72.466 131.432 75.4174C130.514 72.7716 129.805 70.0574 129.314 67.3H129.321Z" fill="black"/>
<path opacity="0.1" d="M104.656 152.538L104.689 152.698C104.689 152.698 104.68 152.638 104.656 152.538Z" fill="black"/>
</g>
<path d="M124.833 67.9512C125.165 67.7321 130.032 65.0827 132.469 73.0275C134.906 80.9722 137.765 94.4913 137.765 94.4913L131.974 95.6168C131.974 95.6168 126.609 92.7616 121.802 85.6103C121.802 85.6103 115.062 83.864 112.127 79.714C109.471 75.9424 117.665 62.0947 117.665 62.0947L124.833 67.9512Z" fill="white"/>
<path d="M122.746 77.8389C124.18 79.9902 126.896 84.5154 130.561 85.943" stroke="#263238" stroke-width="0.332" stroke-linecap="round" stroke-linejoin="round"/>
<path d="M118.684 80.1509C119.348 80.4198 121.008 81.376 121.791 81.4125C121.791 81.4125 125.174 88.1089 130.755 90.2835" stroke="#263238" stroke-width="0.332" stroke-linecap="round" stroke-linejoin="round"/>
<path d="M115.59 82.6182C117.665 84.3545 120.138 85.5398 121.802 85.6062C121.802 85.6062 125.185 92.3026 130.766 94.4772" stroke="#263238" stroke-width="0.332" stroke-linecap="round" stroke-linejoin="round"/>
<path d="M98.1282 34.0926L79.7698 48.0375C78.1754 49.2487 77.8646 51.523 79.0758 53.1175L104.574 86.6855C105.785 88.28 108.059 88.5907 109.654 87.3796L128.012 73.4347C129.607 72.2236 129.917 69.9492 128.706 68.3548L103.208 34.7867C101.997 33.1922 99.7227 32.8815 98.1282 34.0926Z" fill="#263238"/>
<path d="M127.487 72.7082L110.641 85.5068C110.163 85.871 109.618 86.1373 109.037 86.2904C108.456 86.4435 107.851 86.4804 107.255 86.399C106.66 86.3176 106.087 86.1194 105.568 85.8159C105.05 85.5124 104.596 85.1095 104.233 84.6304L79.8813 52.5724C79.4846 52.0546 79.2058 51.4563 79.0646 50.8195C78.8683 49.9643 78.9234 49.0706 79.2232 48.246C79.523 47.4213 80.0548 46.7009 80.7545 46.1715L85.4888 42.5792L97.6068 33.3696C98.085 33.0062 98.6301 32.7406 99.211 32.588C99.7919 32.4354 100.397 32.3988 100.992 32.4802C101.587 32.5616 102.16 32.7594 102.679 33.0624C103.198 33.3654 103.651 33.7676 104.014 34.246L113.785 47.1077L121.049 56.6693L128.353 66.2973C128.718 66.775 128.984 67.3199 129.138 67.9007C129.292 68.4816 129.329 69.087 129.249 69.6824C129.168 70.2778 128.971 70.8515 128.669 71.3707C128.367 71.8899 127.965 72.3444 127.487 72.7082Z" fill="#008DCC"/>
<path opacity="0.1" d="M113.77 47.1077L85.4766 42.5759L97.6045 33.3696C98.0827 33.0062 98.6279 32.7406 99.2087 32.588C99.7896 32.4354 100.395 32.3988 100.99 32.4802C101.585 32.5616 102.158 32.7594 102.677 33.0624C103.195 33.3654 103.649 33.7676 104.012 34.246L113.77 47.1077Z" fill="black"/>
<path opacity="0.1" d="M127.489 72.7086L110.643 85.5072C110.165 85.8714 109.62 86.1377 109.039 86.2908C108.458 86.4439 107.852 86.4807 107.257 86.3993C106.662 86.3179 106.088 86.1197 105.57 85.8162C105.051 85.5127 104.598 85.1099 104.235 84.6307L79.8831 52.5728C79.4864 52.055 79.2076 51.4567 79.0664 50.8198L121.609 57.4366L128.355 66.3176C129.085 67.2811 129.403 68.4943 129.241 69.6919C129.079 70.8896 128.449 71.9742 127.489 72.7086Z" fill="black"/>
<path d="M100.002 36.6236L97.0279 38.8828C96.4321 39.3353 96.316 40.1851 96.7686 40.7808L100.369 45.5211C100.822 46.1168 101.672 46.2329 102.267 45.7804L105.241 43.5212C105.837 43.0687 105.953 42.2189 105.501 41.6232L101.9 36.8829C101.448 36.2872 100.598 36.1711 100.002 36.6236Z" fill="white" stroke="#263238" stroke-width="0.332" stroke-linecap="round" stroke-linejoin="round"/>
<path d="M98.5742 37.7017L103.71 44.6803" stroke="#263238" stroke-width="0.332" stroke-linecap="round" stroke-linejoin="round"/>
<path d="M98.5742 43.1639L103.71 39.2695" stroke="#263238" stroke-width="0.332" stroke-linecap="round" stroke-linejoin="round"/>
<path d="M108.516 83.4192L107.639 84.0633L96.9453 69.9865L97.8152 69.3291L108.516 83.4192Z" fill="#263238"/>
<path d="M109.998 82.3191L109.121 82.9698L98.4141 68.8698L99.2773 68.2124L109.998 82.3191Z" fill="#263238"/>
<path d="M111.476 81.2271L110.603 81.8712L99.8789 67.7578L100.745 67.0972L111.476 81.2271Z" fill="#263238"/>
<path d="M112.969 80.1281L112.093 80.7722L101.512 66.8448L102.375 66.1841L112.969 80.1281Z" fill="#263238"/>
<path d="M114.568 78.9463L113.691 79.5937L103.094 65.6431L103.96 64.9824L114.568 78.9463Z" fill="#263238"/>
<path d="M114.568 62.5323L113.691 63.1764L103.094 49.2257L103.96 48.5684L114.568 62.5323Z" fill="#263238"/>
<path d="M91.493 38.0528L90.1367 39.083L119.999 78.396L121.355 77.3658L91.493 38.0528Z" fill="#263238"/>
<path d="M127.487 72.7082L110.641 85.5068C110.163 85.871 109.618 86.1373 109.037 86.2904C108.456 86.4435 107.851 86.4804 107.255 86.399C106.66 86.3175 106.087 86.1194 105.568 85.8159C105.05 85.5124 104.596 85.1095 104.233 84.6304L79.8813 52.5724C79.4846 52.0546 79.2058 51.4563 79.0646 50.8195C78.8683 49.9643 78.9234 49.0706 79.2232 48.246C79.523 47.4213 80.0548 46.7009 80.7545 46.1715L85.4888 42.5792L97.6068 33.3696C98.085 33.0062 98.6301 32.7406 99.211 32.588C99.7919 32.4354 100.397 32.3988 100.992 32.4802C101.587 32.5616 102.16 32.7594 102.679 33.0624C103.198 33.3654 103.651 33.7676 104.014 34.246L113.785 47.1077L121.049 56.6693L128.353 66.2973C128.718 66.775 128.984 67.3199 129.138 67.9007C129.292 68.4816 129.329 69.087 129.249 69.6824C129.168 70.2778 128.971 70.8515 128.669 71.3707C128.367 71.8899 127.965 72.3444 127.487 72.7082V72.7082Z" stroke="#263238" stroke-width="0.332" stroke-linecap="round" stroke-linejoin="round"/>
<path d="M113.829 155.708C113.829 155.708 133.437 162.68 139.369 147.494C139.369 147.494 130.09 136.206 135.156 126.983C138.343 121.173 147.158 108.348 147.158 108.348C147.158 108.348 150.84 104.852 151.985 101.339C151.985 101.339 151.355 97.4252 148.579 94.7758C148.579 94.7758 148.549 92.7838 146.992 91.6484C145.435 90.5129 142.58 88.3284 142.58 88.3284C142.58 88.3284 137.885 77.0669 137.188 75.0318C136.491 72.9966 135.09 69.1487 134.389 64.8991C133.689 60.6495 133.041 56.0746 131.554 56.0879C131.554 56.0879 130.02 55.4239 130.02 58.1496C130.02 58.1496 126.8 59.8096 127.275 63.3221C127.749 66.8347 128.188 68.6507 128.061 70.6261C127.935 72.6015 128.569 79.4607 130.156 81.612C130.156 81.612 130.688 91.24 131.484 93.7466C131.511 93.823 131.534 93.8927 131.557 93.9558C132.394 96.0773 124.034 104.248 119.509 106.459C119.509 106.459 119.034 107.342 117.278 107.1C115.522 106.857 112.55 106.744 112.039 105.44C111.528 104.135 108.125 93.9558 108.125 93.9558C108.125 93.9558 105.373 80.9082 99.8746 80.9115C99.8746 80.9115 99.0413 78.9195 96.8866 80.0085C94.732 81.0974 96.143 87.0336 97.0958 90.2805C98.0486 93.5275 100.462 102.063 100.854 105.991C101.246 109.918 99.0214 117.787 99.858 120.881C100.695 123.975 101.624 126.064 104.294 131.13C106.963 136.196 112.876 151.302 113.829 155.708Z" fill="white"/>
<path d="M113.839 155.707C113.839 155.707 109.643 139.911 103.474 129.695C97.3056 119.479 100.934 115.867 100.934 107.365C100.934 98.8623 94.0056 84.3871 95.8747 81.1965C97.7439 78.006 100.294 80.5591 101.359 83.5371C102.425 86.5152 100.934 88.2183 97.9464 88.4308" stroke="#263238" stroke-width="0.332" stroke-linecap="round" stroke-linejoin="round"/>
<path d="M99.875 80.9254C99.875 80.9254 103.457 80.7063 105.658 86.4333C107.86 92.1603 111.385 106.685 115.057 111.104" stroke="#263238" stroke-width="0.332" stroke-linecap="round" stroke-linejoin="round"/>
<path d="M112.16 105.738C112.18 105.785 117.29 108.633 125.218 106.137" stroke="#263238" stroke-width="0.332" stroke-linecap="round" stroke-linejoin="round"/>
<path d="M100.551 97.7338C100.949 97.2464 101.469 96.8724 102.057 96.6492C102.646 96.426 103.283 96.3615 103.904 96.4623" stroke="#263238" stroke-width="0.332" stroke-linecap="round" stroke-linejoin="round"/>
<path d="M101.238 99.5374C101.583 99.1258 102.036 98.8194 102.546 98.6532C103.056 98.487 103.603 98.4678 104.123 98.5978" stroke="#263238" stroke-width="0.332" stroke-linecap="round" stroke-linejoin="round"/>
<path d="M130.022 58.1396C124.81 59.876 128.694 67.7477 128.063 70.6195C127.433 73.4913 129.059 78.9892 130.311 81.9706C130.311 85.4666 131.556 93.9492 131.556 93.9492C130.786 96.6483 124.358 104.603 118.113 107.093" stroke="#263238" stroke-width="0.332" stroke-linecap="round" stroke-linejoin="round"/>
<path d="M133.85 62.1039C133.85 62.1039 133.461 56.0781 131.559 56.0781C129.657 56.0781 129.773 60.1385 130.563 63.153C131.353 66.1676 134.427 65.736 133.85 62.1039Z" stroke="#263238" stroke-width="0.332" stroke-linecap="round" stroke-linejoin="round"/>
<path d="M133.84 62.104C133.84 62.104 135.46 71.576 138.206 77.5254" stroke="#263238" stroke-width="0.332" stroke-linecap="round" stroke-linejoin="round"/>
<path d="M141.452 99.709C142.78 97.5576 143.367 95.5225 143.859 92.9329C143.736 91.3094 141.867 86.0106 139.695 80.8779" stroke="#263238" stroke-width="0.332" stroke-linecap="round" stroke-linejoin="round"/>
<path d="M142.758 88.8311C144.912 90.4512 148.661 91.6962 148.229 94.4917C147.753 97.2881 146.774 99.9753 145.341 102.423" stroke="#263238" stroke-width="0.332" stroke-linecap="round" stroke-linejoin="round"/>
<path d="M139.846 148.202C139.846 148.202 132.34 137.781 133.844 130.583C134.949 125.288 142.057 116.028 147.157 108.359C149.966 105.739 151.37 103.711 151.984 101.35C151.084 96.9181 149.624 95.6267 148.219 94.4912" stroke="#263238" stroke-width="0.332" stroke-linecap="round" stroke-linejoin="round"/>
<path d="M141.847 90.5493C141.011 90.3142 140.135 90.2533 139.275 90.3704C138.414 90.4875 137.587 90.78 136.844 91.2299" stroke="#263238" stroke-width="0.332" stroke-linecap="round" stroke-linejoin="round"/>
<path d="M141.441 92.3326C140.421 92.1782 139.379 92.3613 138.473 92.8539" stroke="#263238" stroke-width="0.332" stroke-linecap="round" stroke-linejoin="round"/>
</svg>
