<svg width="35" height="35" viewBox="0 0 35 35" fill="none" xmlns="http://www.w3.org/2000/svg">
<path d="M13.4502 2.90034L28.2974 10.5876C28.3917 10.6365 28.47 10.7067 28.5244 10.7913C28.5788 10.876 28.6074 10.9719 28.6072 11.0696V29.0651C28.6072 29.1628 28.6358 29.2589 28.6903 29.3435C28.7448 29.4282 28.8232 29.4985 28.9176 29.5473C29.012 29.5962 29.1191 29.6219 29.228 29.6218C29.337 29.6218 29.4441 29.596 29.5384 29.5471L34.3995 27.0301C34.4932 26.9816 34.5711 26.912 34.6254 26.8281C34.6798 26.7442 34.7087 26.6491 34.7093 26.5521V9.22092C34.7095 9.12326 34.6809 9.02728 34.6265 8.94267C34.5721 8.85806 34.4938 8.7878 34.3995 8.73896L17.6666 0.0745526C17.5722 0.0257125 17.4652 0 17.3563 0C17.2474 0 17.1404 0.0257125 17.0461 0.0745526L13.4502 1.9372C13.3561 1.98608 13.2779 2.05631 13.2236 2.14083C13.1692 2.22536 13.1406 2.32121 13.1406 2.41877C13.1406 2.51634 13.1692 2.61219 13.2236 2.69671C13.2779 2.78123 13.3561 2.85146 13.4502 2.90034Z" fill="white"/>
<path d="M5.28343 7.12835L18.8083 14.1342C18.9026 14.183 18.981 14.2533 19.0354 14.3379C19.0898 14.4225 19.1183 14.5185 19.1181 14.6162L19.1224 33.9815C19.1231 34.079 19.1522 34.1746 19.2069 34.2587C19.2617 34.3429 19.3401 34.4128 19.4343 34.4613C19.5285 34.5099 19.6353 34.5354 19.744 34.5354C19.8526 34.5353 19.9594 34.5097 20.0536 34.4611L24.9095 31.9466C25.0038 31.8977 25.0821 31.8275 25.1365 31.7429C25.1909 31.6582 25.2195 31.5623 25.2193 31.4646V12.7512C25.2195 12.6536 25.1909 12.5576 25.1365 12.473C25.0821 12.3884 25.0038 12.3181 24.9095 12.2693L9.51102 4.29635C9.4167 4.24751 9.30969 4.2218 9.20077 4.2218C9.09185 4.2218 8.98484 4.24751 8.89051 4.29635L5.28257 6.16443C5.18826 6.21334 5.10997 6.28364 5.05556 6.36828C5.00116 6.45293 4.97257 6.54892 4.97266 6.64662C4.97274 6.74431 5.00151 6.84027 5.05606 6.92483C5.11062 7.0094 5.18904 7.07959 5.28343 7.12835Z" fill="white"/>
<path d="M0.0898438 8.8767L15.7678 16.9994V15.9897L1.03748 8.36292L0.112346 8.84255L0.0898438 8.8767Z" fill="white"/>
<path d="M0 9.59021V10.6007L15.7671 18.7692V17.7595L0 9.59021Z" fill="white"/>
<path d="M0 11.3618V12.3723L15.7671 20.5408V19.5311L0 11.3618Z" fill="white"/>
<path d="M0 13.1328V14.1425L15.7663 22.311V21.3013L0 13.1328Z" fill="white"/>
<path d="M15.7663 23.0718L0 14.9033V15.9138L15.7663 24.0815V23.0718Z" fill="white"/>
<path d="M0 16.6754V17.6851L15.7663 25.8536V24.8439L0 16.6754Z" fill="white"/>
<path d="M0 18.4457V19.4554L15.7663 27.6239V26.6142L0 18.4457Z" fill="white"/>
<path d="M0 20.2163V21.2268L15.7663 29.3953V28.3848L0 20.2163Z" fill="white"/>
<path d="M0 21.9877V22.9974L15.7654 31.1659L15.7663 30.1562L0 21.9877Z" fill="white"/>
<path d="M0 23.7587V24.7692L15.7654 32.9369V31.9271L0 23.7587Z" fill="white"/>
<path d="M0 25.5295V26.54L15.7654 34.7077V33.6972L0 25.5295Z" fill="white"/>
<path d="M0 20.2163V21.2268L15.7663 29.3953V28.3848L0 20.2163Z" fill="white"/>
<path d="M0 21.9877V22.9974L15.7654 31.1659L15.7663 30.1562L0 21.9877Z" fill="white"/>
<path d="M0 23.7587V24.7692L15.7654 32.9369V31.9271L0 23.7587Z" fill="white"/>
<path d="M0 25.5295V26.54L15.7654 34.7077V33.6972L0 25.5295Z" fill="white"/>
<path d="M0 18.4457V19.4554L15.7663 27.6239V26.6142L0 18.4457Z" fill="white"/>
<path d="M0 16.6754V17.6851L15.7663 25.8536V24.8439L0 16.6754Z" fill="white"/>
<path d="M0 14.9033V15.9138L15.7663 24.0815V23.0718L0 14.9033Z" fill="white"/>
<path d="M0 13.1328V14.1425L15.7663 22.311V21.3013L0 13.1328Z" fill="white"/>
<path d="M0 11.3618V12.3723L15.7671 20.5408V19.5311L0 11.3618Z" fill="white"/>
<path d="M0 9.59021V10.6007L15.7671 18.7692V17.7595L0 9.59021Z" fill="white"/>
<path d="M0.0898438 8.8767L15.7678 16.9994V15.9897L1.03748 8.36292L0.112346 8.84255L0.0898438 8.8767Z" fill="white"/>
</svg>
