<svg width="200" height="200" viewBox="0 0 200 200" fill="none" xmlns="http://www.w3.org/2000/svg">
<path d="M4.17356 37.1703C31.6228 60.4168 79.7876 101.314 93.9439 114.066C95.8443 115.788 97.8825 116.663 99.9986 116.663C102.11 116.663 104.145 115.796 106.041 114.083C120.21 101.318 168.374 60.4168 195.824 37.1703C197.533 35.7258 197.793 33.1867 196.41 31.4207C193.211 27.3398 188.443 25 183.332 25H16.6654C11.5548 25 6.78567 27.3398 3.58763 31.4211C2.20403 33.1867 2.46458 35.7258 4.17356 37.1703Z" fill="#5C7C8A"/>
<path d="M197.583 49.7683C196.106 49.0808 194.369 49.3207 193.14 50.3707C162.699 76.1761 123.848 109.253 111.625 120.268C104.764 126.461 95.243 126.461 88.3664 120.26C75.3375 108.521 31.7094 71.4316 6.86016 50.3703C5.62305 49.3203 3.88164 49.0887 2.4168 49.7679C0.944141 50.4519 0 51.925 0 53.5484V158.334C0 167.526 7.47461 175 16.6668 175H183.334C192.525 175 200 167.526 200 158.334V53.5484C200 51.925 199.056 50.448 197.583 49.7683Z" fill="#5C7C8A"/>
</svg>
