<svg width="28" height="30" viewBox="0 0 28 30" fill="none" xmlns="http://www.w3.org/2000/svg">
<path d="M2.74998 0H18.6809L27.1249 8.41128V28.125C27.1249 29.1609 26.285 30 25.25 30H2.74998C1.71495 30 0.875 29.1609 0.875 28.125V1.87498C0.875 0.839081 1.71505 0 2.74998 0Z" fill="#009FE5"/>
<path d="M27.0978 8.43632H20.5625C19.5275 8.43632 18.6875 7.59637 18.6875 6.56134V0.0175781L27.0978 8.43632Z" fill="#007CB2"/>
<path d="M20.0903 14.2158C20.4044 14.2158 20.5581 13.942 20.5581 13.6767C20.5581 13.402 20.3978 13.1367 20.0903 13.1367H18.3016C17.9519 13.1367 17.7569 13.4264 17.7569 13.7461V18.142C17.7569 18.5339 17.98 18.7514 18.2819 18.7514C18.5819 18.7514 18.806 18.5339 18.806 18.142V16.9355H19.8879C20.2235 16.9355 20.3913 16.6608 20.3913 16.388C20.3913 16.1208 20.2235 15.8554 19.8879 15.8554H18.806V14.2158H20.0903ZM14.0444 13.1367H12.7356C12.3803 13.1367 12.1281 13.3805 12.1281 13.7423V18.1458C12.1281 18.5948 12.4909 18.7355 12.7505 18.7355H14.124C15.7496 18.7355 16.823 17.6658 16.823 16.0148C16.8222 14.2692 15.8116 13.1367 14.0444 13.1367ZM14.1072 17.6499H13.3094V14.2224H14.0285C15.1169 14.2224 15.5903 14.9527 15.5903 15.9605C15.5903 16.9037 15.1253 17.6499 14.1072 17.6499ZM9.31282 13.1367H8.01627C7.6497 13.1367 7.44531 13.3785 7.44531 13.7461V18.142C7.44531 18.5339 7.67967 18.7514 7.99464 18.7514C8.30961 18.7514 8.54397 18.5339 8.54397 18.142V16.8586H9.35677C10.3599 16.8586 11.1877 16.1479 11.1877 15.0051C11.1878 13.8868 10.3891 13.1367 9.31282 13.1367ZM9.29129 15.8274H8.54407V14.1689H9.29129C9.75254 14.1689 10.046 14.5289 10.046 14.9986C10.045 15.4674 9.75254 15.8274 9.29129 15.8274Z" fill="white"/>
</svg>
