<svg width="30" height="30" viewBox="0 0 30 30" fill="none" xmlns="http://www.w3.org/2000/svg">
<g id="Iconly/Light/2 User">
<g id="2 User">
<path id="Stroke 1" fill-rule="evenodd" clip-rule="evenodd" d="M11.99 19.0085C16.6013 19.0085 20.5425 19.7073 20.5425 22.4985C20.5425 25.2898 16.6275 26.0085 11.99 26.0085C7.3775 26.0085 3.4375 25.316 3.4375 22.5235C3.4375 19.731 7.35125 19.0085 11.99 19.0085Z" stroke="white" stroke-width="1.5" stroke-linecap="round" stroke-linejoin="round"/>
<path id="Stroke 3" fill-rule="evenodd" clip-rule="evenodd" d="M11.9903 15.0248C8.96281 15.0248 6.50781 12.571 6.50781 9.54351C6.50781 6.51601 8.96281 4.06226 11.9903 4.06226C15.0166 4.06226 17.4716 6.51601 17.4716 9.54351C17.4828 12.5598 15.0453 15.0135 12.0291 15.0248H11.9903Z" stroke="white" stroke-width="1.5" stroke-linecap="round" stroke-linejoin="round"/>
<path id="Stroke 5" d="M20.6055 13.6021C22.6067 13.3208 24.148 11.6033 24.1517 9.52459C24.1517 7.47584 22.658 5.77584 20.6992 5.45459" stroke="white" stroke-width="1.5" stroke-linecap="round" stroke-linejoin="round"/>
<path id="Stroke 7" d="M23.2461 18.4153C25.1848 18.704 26.5386 19.384 26.5386 20.784C26.5386 21.7478 25.9011 22.3728 24.8711 22.764" stroke="white" stroke-width="1.5" stroke-linecap="round" stroke-linejoin="round"/>
</g>
</g>
</svg>
