<svg width="22" height="24" viewBox="0 0 22 24" fill="none" xmlns="http://www.w3.org/2000/svg">
<path fill-rule="evenodd" clip-rule="evenodd" d="M20.5395 7.2589L19.8653 6.0888C19.2948 5.09871 18.0306 4.75716 17.0392 5.32526V5.32526C16.5672 5.60327 16.0041 5.68215 15.4739 5.54449C14.9438 5.40684 14.4901 5.06396 14.2131 4.59147C14.0348 4.29114 13.9391 3.94907 13.9354 3.59986V3.59986C13.9515 3.03997 13.7403 2.49742 13.3499 2.09579C12.9594 1.69416 12.4231 1.46766 11.863 1.4679H10.5045C9.95572 1.46789 9.42959 1.68655 9.0425 2.0755C8.65541 2.46445 8.43928 2.99162 8.44191 3.54036V3.54036C8.42565 4.67332 7.50252 5.58319 6.36945 5.58308C6.02023 5.57945 5.67816 5.48367 5.37784 5.30542V5.30542C4.3864 4.73733 3.12221 5.07888 2.55175 6.06896L1.82788 7.2589C1.25811 8.24774 1.59502 9.51114 2.5815 10.085V10.085C3.22273 10.4552 3.61775 11.1394 3.61775 11.8798C3.61775 12.6202 3.22273 13.3044 2.5815 13.6746V13.6746C1.59627 14.2446 1.259 15.5049 1.82788 16.4908V16.4908L2.51209 17.6708C2.77937 18.1531 3.22782 18.509 3.75821 18.6597C4.2886 18.8105 4.8572 18.7436 5.33818 18.474V18.474C5.81101 18.1981 6.37446 18.1225 6.90329 18.264C7.43212 18.4055 7.88251 18.7524 8.15435 19.2276C8.33259 19.5279 8.42837 19.87 8.432 20.2192V20.2192C8.432 21.3638 9.35987 22.2917 10.5045 22.2917H11.863C13.0037 22.2917 13.93 21.3699 13.9354 20.2291V20.2291C13.9328 19.6787 14.1503 19.15 14.5395 18.7608C14.9288 18.3715 15.4574 18.154 16.0079 18.1567C16.3563 18.166 16.6969 18.2614 16.9995 18.4343V18.4343C17.9883 19.0041 19.2517 18.6672 19.8256 17.6807V17.6807L20.5395 16.4908C20.8159 16.0164 20.8918 15.4515 20.7503 14.9211C20.6089 14.3906 20.2618 13.9384 19.7859 13.6647V13.6647C19.3101 13.3909 18.963 12.9388 18.8215 12.4083C18.6801 11.8779 18.7559 11.313 19.0323 10.8386C19.212 10.5248 19.4722 10.2647 19.7859 10.085V10.085C20.7665 9.51145 21.1026 8.25543 20.5395 7.26881V7.26881V7.2589Z" stroke="white" stroke-width="2" stroke-linecap="round" stroke-linejoin="round"/>
<ellipse cx="11.1879" cy="11.8798" rx="2.85583" ry="2.85583" stroke="white" stroke-width="2" stroke-linecap="round" stroke-linejoin="round"/>
</svg>
