<svg width="200" height="200" viewBox="0 0 200 200" fill="none" xmlns="http://www.w3.org/2000/svg">
<path d="M100 192.254C150.95 192.254 192.254 150.95 192.254 100C192.254 49.0496 150.95 7.74609 100 7.74609C49.0496 7.74609 7.74609 49.0496 7.74609 100C7.74609 150.95 49.0496 192.254 100 192.254Z" fill="#10CC9B"/>
<path d="M100 200C44.8645 200 0 155.143 0 100C0 44.8645 44.8645 0 100 0C155.143 0 200 44.8645 200 100C200 155.143 155.143 200 100 200ZM100 15.4918C53.4004 15.4918 15.4918 53.4004 15.4918 100C15.4918 146.6 53.4004 184.508 100 184.508C146.6 184.508 184.508 146.592 184.508 100C184.508 53.4004 146.6 15.4918 100 15.4918Z" fill="#10CC9B"/>
<path d="M87.9177 136.793C85.8419 136.793 83.8587 135.964 82.3947 134.477L53.8122 105.43C50.8146 102.378 50.8532 97.4828 53.9052 94.4774C56.9572 91.4875 61.8603 91.5184 64.8579 94.5703L87.6931 117.777L134.936 65.7477C137.825 62.5797 142.72 62.3551 145.873 65.2211C149.041 68.0949 149.273 72.9903 146.399 76.166L93.6497 134.26C92.2169 135.84 90.2029 136.754 88.0728 136.801C88.0185 136.793 87.972 136.793 87.9177 136.793Z" fill="white"/>
</svg>
