<svg width="63" height="63" viewBox="0 0 63 63" fill="none" xmlns="http://www.w3.org/2000/svg">
<path d="M61.3094 56.3711V31.9292C61.3065 31.7667 61.2651 31.6073 61.1886 31.464H61.1991L58.6287 26.3243C58.0995 25.2527 57.0066 24.5758 55.8116 24.5792H48.7094V23.5292C48.7093 23.2507 48.5986 22.9837 48.4017 22.7868L42.3594 17.5C41.9815 17.1261 41.8717 17.0704 41.3594 16.9287V9.2334L43.4594 8.66955V11.2127V11.22C43.4582 12.2982 43.9971 13.3054 44.8947 13.9028C45.2068 14.111 45.6063 14.1368 45.9427 13.9706C46.279 13.8044 46.5012 13.4714 46.5254 13.097C46.5497 12.7226 46.3723 12.3638 46.0602 12.1556C45.7469 11.9474 45.5589 11.5961 45.5594 11.22V11.2127V8.0133C46.2943 7.58878 46.7015 6.76357 46.5912 5.92199C46.481 5.08041 45.8749 4.38797 45.0554 4.16715L31.3991 0.500554C31.0455 0.406065 30.6733 0.406065 30.3197 0.500554L16.6634 4.16715C15.745 4.41788 15.1079 5.25216 15.1079 6.20415C15.1079 7.15615 15.745 7.99042 16.6634 8.24115L20.3594 9.2334V16.1792L20.2932 16.9287C19.3597 16.9291 18.9559 16.782 18.3594 17.5L13.2582 22.8572C13.099 23.045 13.011 23.2829 13.0094 23.5292V24.5792H5.90717C4.71304 24.575 3.62044 25.2502 3.09002 26.3201L0.519625 31.4598H0.530125C0.453005 31.6044 0.411602 31.7653 0.409375 31.9292V56.3711C-0.238214 56.7432 -0.638373 57.4323 -0.640625 58.1792V60.2792C-0.640625 61.439 0.299577 62.3792 1.45937 62.3792H15.4013C15.7734 63.0267 16.4625 63.4269 17.2094 63.4292H44.5094C45.2563 63.4269 45.9453 63.0267 46.3175 62.3792H60.2594C61.4192 62.3792 62.3594 61.439 62.3594 60.2792V58.1792C62.3571 57.4323 61.957 56.7432 61.3094 56.3711ZM45.5594 56.0792H44.5094V32.9792L59.8594 32.9297V56.0792H45.5594ZM34.8594 56.0792H26.8594V43.9297H34.8594V56.0792ZM35.0594 42.4292H26.6594C26.0795 42.4292 25.6094 42.8993 25.6094 43.4792V56.0792H18.8594V32.9792H42.8594V56.0792H36.1094V43.4792C36.1094 42.8993 35.6393 42.4292 35.0594 42.4292ZM46.6094 24.5792V26.6792H15.1094V24.5792H46.6094ZM44.5094 28.7792V30.8792H17.2094V28.7792H44.5094ZM55.8116 26.6792C56.2096 26.6779 56.5737 26.9031 56.7503 27.2598L58.5605 30.8792H46.6094V28.7792C47.7692 28.7792 48.7094 27.839 48.7094 26.6792H55.8116ZM30.8594 1.92871L44.5241 6.20415H44.8947L30.8594 10.4287L16.6634 6.20415L30.8594 1.92871ZM21.8594 9.42871L30.3197 11.9078C30.6732 12.0029 31.0456 12.0029 31.3991 11.9078L39.8594 9.42871V16.9287H21.8594V9.42871ZM19.4868 18.6572C19.6862 18.4178 19.9817 18.2793 20.2932 18.2792H40.4889C40.7677 18.2789 41.0352 18.3896 41.2323 18.5868L45.3594 22.7868L15.8594 22.8572L19.4868 18.6572ZM4.96847 27.2598C5.14506 26.9031 5.50915 26.6779 5.90717 26.6792H13.0094C13.0094 27.839 13.9496 28.7792 15.1094 28.7792V30.8792H3.09002L4.96847 27.2598ZM1.45937 58.1792H15.1094V60.2792H1.45937V58.1792ZM16.1594 56.0792L1.85938 55.9324V32.9792H17.2094V56.0792H16.1594ZM16.5659 61.3292V58.1792H45.131V61.3292H16.5659ZM60.8594 60.9297H46.6094V58H60.8594V60.9297Z" fill="#00587F"/>
</svg>
