<svg width="30" height="30" viewBox="0 0 30 30" fill="none" xmlns="http://www.w3.org/2000/svg">
<g clip-path="url(#clip0)">
<path d="M17.5 11.3621L28.5125 13.5496C29.4 13.7371 30 14.4871 30 15.3746V28.1246C30 29.1621 29.1625 29.9996 28.125 29.9996H16.875C17.225 29.9996 17.5 29.7246 17.5 29.3746V28.7496H28.125C28.4625 28.7496 28.75 28.4746 28.75 28.1246V15.3746C28.75 15.0871 28.55 14.8246 28.2625 14.7621L17.5 12.6371V11.3621Z" fill="white"/>
<path d="M24.375 17.4995C24.725 17.4995 25 17.7745 25 18.1245C25 18.4745 24.725 18.7495 24.375 18.7495H21.875C21.525 18.7495 21.25 18.4745 21.25 18.1245C21.25 17.7745 21.525 17.4995 21.875 17.4995H24.375Z" fill="white"/>
<path d="M24.375 21.2495C24.725 21.2495 25 21.5245 25 21.8745C25 22.2245 24.725 22.4995 24.375 22.4995H21.875C21.525 22.4995 21.25 22.2245 21.25 21.8745C21.25 21.5245 21.525 21.2495 21.875 21.2495H24.375Z" fill="white"/>
<path d="M24.375 24.9995C24.725 24.9995 25 25.2745 25 25.6245C25 25.9745 24.725 26.2495 24.375 26.2495H21.875C21.525 26.2495 21.25 25.9745 21.25 25.6245C21.25 25.2745 21.525 24.9995 21.875 24.9995H24.375Z" fill="white"/>
<path d="M17.5 29.3748C17.5 29.7248 17.225 29.9998 16.875 29.9998C16.525 29.9998 16.25 29.7248 16.25 29.3748V28.7498V11.8748C16.25 11.6873 16.3375 11.5123 16.475 11.3873C16.625 11.2748 16.8125 11.2248 17 11.2623L17.5 11.3623V12.6373V28.7498V29.3748Z" fill="white"/>
<path d="M16.25 28.7495V29.3745C16.25 29.7245 16.525 29.9995 16.875 29.9995H11.875C12.225 29.9995 12.5 29.7245 12.5 29.3745V28.7495H16.25Z" fill="white"/>
<path d="M13.125 6.24951C13.475 6.24951 13.75 6.52451 13.75 6.87451C13.75 7.22451 13.475 7.4995 13.125 7.4995H10.625C10.275 7.4995 10 7.22451 10 6.87451C10 6.52451 10.275 6.24951 10.625 6.24951H13.125Z" fill="white"/>
<path d="M13.75 10.6245C13.75 10.9745 13.475 11.2495 13.125 11.2495H10.625C10.275 11.2495 10 10.9745 10 10.6245C10 10.2745 10.275 9.99951 10.625 9.99951H13.125C13.475 9.99951 13.75 10.2745 13.75 10.6245Z" fill="white"/>
<path d="M13.125 13.7495C13.475 13.7495 13.75 14.0245 13.75 14.3745C13.75 14.7245 13.475 14.9995 13.125 14.9995H10.625C10.275 14.9995 10 14.7245 10 14.3745C10 14.0245 10.275 13.7495 10.625 13.7495H13.125Z" fill="white"/>
<path d="M13.125 17.4995C13.475 17.4995 13.75 17.7745 13.75 18.1245C13.75 18.4745 13.475 18.7495 13.125 18.7495H10.625C10.275 18.7495 10 18.4745 10 18.1245C10 17.7745 10.275 17.4995 10.625 17.4995H13.125Z" fill="white"/>
<path d="M7.5 18.1245C7.5 18.4745 7.225 18.7495 6.875 18.7495H4.375C4.025 18.7495 3.75 18.4745 3.75 18.1245C3.75 17.7745 4.025 17.4995 4.375 17.4995H6.875C7.225 17.4995 7.5 17.7745 7.5 18.1245Z" fill="white"/>
<path d="M6.875 6.24951C7.225 6.24951 7.5 6.52451 7.5 6.87451C7.5 7.22451 7.225 7.4995 6.875 7.4995H4.375C4.025 7.4995 3.75 7.22451 3.75 6.87451C3.75 6.52451 4.025 6.24951 4.375 6.24951H6.875Z" fill="white"/>
<path d="M6.875 9.99951C7.225 9.99951 7.5 10.2745 7.5 10.6245C7.5 10.9745 7.225 11.2495 6.875 11.2495H4.375C4.025 11.2495 3.75 10.9745 3.75 10.6245C3.75 10.2745 4.025 9.99951 4.375 9.99951H6.875Z" fill="white"/>
<path d="M6.875 13.7495C7.225 13.7495 7.5 14.0245 7.5 14.3745C7.5 14.7245 7.225 14.9995 6.875 14.9995H4.375C4.025 14.9995 3.75 14.7245 3.75 14.3745C3.75 14.0245 4.025 13.7495 4.375 13.7495H6.875Z" fill="white"/>
<path d="M11.25 23.1245C11.25 22.7745 10.9625 22.4995 10.625 22.4995H6.875C6.525 22.4995 6.25 22.7745 6.25 23.1245V28.7495H5V23.1245C5 22.087 5.8375 21.2495 6.875 21.2495H10.625C11.6625 21.2495 12.5 22.087 12.5 23.1245V28.7495H11.25V23.1245Z" fill="white"/>
<path d="M6.25 28.7495H11.25H12.5V29.3745C12.5 29.7245 12.225 29.9995 11.875 29.9995H5.625C5.275 29.9995 5 29.7245 5 29.3745V28.7495H6.25Z" fill="white"/>
<path d="M2.1875 0.249678L15.925 2.33718C16.8375 2.48718 17.5 3.26218 17.5 4.18718V11.3622L17 11.2622C16.8125 11.2247 16.625 11.2747 16.475 11.3872C16.3375 11.5122 16.25 11.6872 16.25 11.8747V4.18718C16.25 3.87468 16.025 3.61218 15.725 3.56218L1.9875 1.48718C1.95 1.47468 1.9125 1.47468 1.875 1.47468C1.725 1.47468 1.5875 1.52468 1.475 1.62468C1.325 1.74968 1.25 1.91218 1.25 2.09968V28.1247C1.25 28.4747 1.5375 28.7497 1.875 28.7497H5V29.3747C5 29.7247 5.275 29.9997 5.625 29.9997H1.875C0.8375 29.9997 0 29.1622 0 28.1247V2.09968C0 1.54968 0.2375 1.02468 0.6625 0.674678C1.0875 0.312178 1.6375 0.162178 2.1875 0.249678Z" fill="white"/>
</g>
<defs>
<clipPath id="clip0">
<rect width="30" height="30" fill="white"/>
</clipPath>
</defs>
</svg>
