<svg width="42" height="42" viewBox="0 0 42 42" fill="none" xmlns="http://www.w3.org/2000/svg">
<path d="M16.2731 3.50972L34.2397 12.8122C34.3539 12.8713 34.4486 12.9563 34.5144 13.0587C34.5802 13.1611 34.6148 13.2772 34.6146 13.3954V35.1719C34.6146 35.2901 34.6492 35.4063 34.7152 35.5088C34.7811 35.6112 34.8759 35.6963 34.9902 35.7554C35.1044 35.8145 35.234 35.8456 35.3659 35.8456C35.4978 35.8455 35.6273 35.8143 35.7415 35.7551L41.6239 32.7094C41.7372 32.6507 41.8315 32.5664 41.8973 32.4649C41.9631 32.3634 41.9981 32.2482 41.9988 32.1308V11.1583C41.999 11.0401 41.9644 10.924 41.8986 10.8216C41.8328 10.7192 41.738 10.6342 41.6239 10.5751L21.3753 0.0902165C21.2611 0.0311149 21.1317 0 20.9998 0C20.868 0 20.7386 0.0311149 20.6244 0.0902165L16.2731 2.34422C16.1591 2.40337 16.0646 2.48835 15.9988 2.59064C15.9331 2.69292 15.8984 2.80891 15.8984 2.92697C15.8984 3.04503 15.9331 3.16102 15.9988 3.2633C16.0646 3.36559 16.1591 3.45057 16.2731 3.50972Z" fill="#00587F"/>
<path d="M6.3917 8.62564L22.7581 17.1035C22.8723 17.1625 22.9671 17.2475 23.033 17.3499C23.0988 17.4523 23.1333 17.5685 23.1331 17.6867L23.1383 41.1208C23.1391 41.2387 23.1744 41.3544 23.2406 41.4563C23.3068 41.5582 23.4017 41.6427 23.5157 41.7014C23.6297 41.7602 23.7589 41.7911 23.8904 41.791C24.0219 41.791 24.1511 41.76 24.2651 41.7012L30.1413 38.6583C30.2554 38.5992 30.3501 38.5142 30.416 38.4118C30.4818 38.3094 30.5163 38.1933 30.5162 38.0751V15.4299C30.5163 15.3117 30.4818 15.1956 30.416 15.0932C30.3501 14.9908 30.2554 14.9058 30.1413 14.8467L11.5075 5.19861C11.3934 5.13951 11.2639 5.1084 11.1321 5.1084C11.0003 5.1084 10.8708 5.13951 10.7566 5.19861L6.39065 7.45919C6.27652 7.51837 6.18178 7.60344 6.11595 7.70587C6.05012 7.8083 6.01552 7.92446 6.01563 8.04268C6.01573 8.16091 6.05054 8.27702 6.11656 8.37935C6.18257 8.48168 6.27747 8.56662 6.3917 8.62564Z" fill="#00587F"/>
<path d="M0.109375 10.7418L19.0814 20.5712V19.3493L1.25612 10.1201L0.136605 10.7005L0.109375 10.7418Z" fill="#00587F"/>
<path d="M0 11.6055V12.8283L19.0799 22.713V21.4911L0 11.6055Z" fill="#00587F"/>
<path d="M0 13.749V14.9718L19.0799 24.8566V23.6347L0 13.749Z" fill="#00587F"/>
<path d="M0 15.8926V17.1144L19.0788 26.9992V25.7773L0 15.8926Z" fill="#00587F"/>
<path d="M19.0788 27.9199L0 18.0352V19.258L19.0788 29.1417V27.9199Z" fill="#00587F"/>
<path d="M0 20.1787V21.4006L19.0788 31.2853V30.0634L0 20.1787Z" fill="#00587F"/>
<path d="M0 22.3213V23.5431L19.0788 33.4279V32.206L0 22.3213Z" fill="#00587F"/>
<path d="M0 24.4639V25.6867L19.0788 35.5714V34.3486L0 24.4639Z" fill="#00587F"/>
<path d="M0 26.6074V27.8293L19.0778 37.714L19.0788 36.4921L0 26.6074Z" fill="#00587F"/>
<path d="M0 28.75V29.9728L19.0778 39.8566V38.6347L0 28.75Z" fill="#00587F"/>
<path d="M0 30.8936V32.1163L19.0778 42.0001V40.7773L0 30.8936Z" fill="#00587F"/>
<path d="M0 24.4639V25.6867L19.0788 35.5714V34.3486L0 24.4639Z" fill="#00587F"/>
<path d="M0 26.6074V27.8293L19.0778 37.714L19.0788 36.4921L0 26.6074Z" fill="#00587F"/>
<path d="M0 28.75V29.9728L19.0778 39.8566V38.6347L0 28.75Z" fill="#00587F"/>
<path d="M0 30.8936V32.1163L19.0778 42.0001V40.7773L0 30.8936Z" fill="#00587F"/>
<path d="M0 22.3213V23.5431L19.0788 33.4279V32.206L0 22.3213Z" fill="#00587F"/>
<path d="M0 20.1787V21.4006L19.0788 31.2853V30.0634L0 20.1787Z" fill="#00587F"/>
<path d="M0 18.0352V19.258L19.0788 29.1417V27.9199L0 18.0352Z" fill="#00587F"/>
<path d="M0 15.8926V17.1144L19.0788 26.9992V25.7773L0 15.8926Z" fill="#00587F"/>
<path d="M0 13.749V14.9718L19.0799 24.8566V23.6347L0 13.749Z" fill="#00587F"/>
<path d="M0 11.6055V12.8283L19.0799 22.713V21.4911L0 11.6055Z" fill="#00587F"/>
<path d="M0.109375 10.7418L19.0814 20.5712V19.3493L1.25612 10.1201L0.136605 10.7005L0.109375 10.7418Z" fill="#00587F"/>
</svg>
