<svg width="30" height="30" viewBox="0 0 30 30" fill="none" xmlns="http://www.w3.org/2000/svg">
<g id="Iconly/Light/Discount">
<g id="Discount">
<path id="Stroke 1" d="M5.99345 8.81992C5.99345 7.25867 7.25845 5.99367 8.8197 5.99242H10.106C10.8522 5.99242 11.5672 5.69617 12.0972 5.17117L12.996 4.27117C14.0972 3.16367 15.8872 3.15867 16.9947 4.25992L16.996 4.26117L17.0072 4.27117L17.9072 5.17117C18.4372 5.69742 19.1522 5.99242 19.8985 5.99242H21.1835C22.7447 5.99242 24.011 7.25742 24.011 8.81992V10.1037C24.011 10.8499 24.306 11.5662 24.8322 12.0962L25.7322 12.9962C26.8397 14.0974 26.846 15.8874 25.7447 16.9949L25.7435 16.9962L25.7322 17.0074L24.8322 17.9074C24.306 18.4362 24.011 19.1512 24.011 19.8974V21.1837C24.011 22.7449 22.746 24.0099 21.1847 24.0099H21.1835H19.896C19.1497 24.0099 18.4335 24.3062 17.9047 24.8324L17.0047 25.7312C15.9047 26.8387 14.116 26.8449 13.0085 25.7462C13.0072 25.7449 13.006 25.7437 13.0047 25.7424L12.9935 25.7312L12.0947 24.8324C11.566 24.3062 10.8497 24.0112 10.1035 24.0099H8.8197C7.25845 24.0099 5.99345 22.7449 5.99345 21.1837V19.8949C5.99345 19.1487 5.6972 18.4337 5.17095 17.9049L4.2722 17.0049C3.1647 15.9049 3.15845 14.1162 4.25845 13.0087C4.25845 13.0074 4.2597 13.0062 4.26095 13.0049L4.2722 12.9937L5.17095 12.0937C5.6972 11.5637 5.99345 10.8487 5.99345 10.1012V8.81992" stroke="white" stroke-width="1.5" stroke-linecap="round" stroke-linejoin="round"/>
<path id="Stroke 3" d="M11.7891 18.2146L18.2141 11.7896" stroke="white" stroke-width="1.5" stroke-linecap="round" stroke-linejoin="round"/>
<path id="Stroke 11" d="M18.1194 18.125H18.1306" stroke="white" stroke-width="2" stroke-linecap="round" stroke-linejoin="round"/>
<path id="Stroke 11_2" d="M11.8694 11.875H11.8806" stroke="white" stroke-width="2" stroke-linecap="round" stroke-linejoin="round"/>
</g>
</g>
</svg>
