<svg width="69" height="75" viewBox="0 0 69 75" fill="none" xmlns="http://www.w3.org/2000/svg">
<path d="M68.0232 22.3406C67.8297 19.3629 65.3968 17.0308 62.4846 17.0308C61.1388 17.0336 59.8415 17.5338 58.8422 18.4351C55.8852 15.5466 52.1935 13.0585 48.107 11.209C43.4731 9.11181 38.6555 8.00329 34.1752 8.00329C32.9393 8.01454 31.7049 8.09115 30.4771 8.23278C30.5387 7.79285 30.555 7.34778 30.5259 6.90453C30.2924 3.31531 27.3628 0.503906 23.8563 0.503906C20.3498 0.503906 17.4196 3.31531 17.1868 6.90303C17.1032 8.5451 17.5981 10.1645 18.5854 11.4793L18.7718 11.7285C17.1207 12.6627 15.53 13.6996 14.0089 14.8331C13.3945 14.1774 12.6525 13.6543 11.8285 13.2957C11.0046 12.9372 10.116 12.7508 9.21746 12.7481C5.7108 12.7481 2.78074 15.5604 2.54809 19.1472C2.46454 20.7893 2.95947 22.4088 3.94672 23.7236L5.02246 25.1623C2.47334 30.0647 0.961013 36.0343 0.961013 41.2497C0.951719 45.6174 1.80397 49.9441 3.46899 53.982C5.134 58.0199 7.57907 61.6897 10.6642 64.7815C13.7494 67.8732 17.414 70.3261 21.4484 71.9997C25.4828 73.6733 29.8076 74.5347 34.1753 74.5347C38.543 74.5347 42.8679 73.6733 46.9022 71.9997C50.9366 70.3261 54.6012 67.8732 57.6864 64.7815C60.7715 61.6897 63.2166 58.0199 64.8816 53.982C66.5466 49.9441 67.3989 45.6174 67.3896 41.2497C67.3896 37.548 66.4468 31.9966 65.2154 28.3393L66.8632 26.136C67.6915 25.0504 68.103 23.7038 68.0232 22.3406ZM18.9876 7.02154C19.138 4.70552 21.0006 2.30859 23.8563 2.30859C26.7121 2.30859 28.5742 4.70492 28.7251 7.02394C28.7921 8.23743 28.422 9.43474 27.6818 10.3987L23.8563 15.5157L20.0373 10.4076C19.3027 9.43612 18.9313 8.23817 18.9876 7.02154ZM4.34931 19.2657C4.4997 16.9497 6.36214 14.5528 9.21791 14.5528C12.0737 14.5528 13.936 16.9491 14.0867 19.2683C14.1538 20.4817 13.7836 21.6791 13.0434 22.6429L9.21746 27.76L5.39889 22.6518C4.66432 21.6803 4.29299 20.4824 4.34931 19.2657ZM6.23251 26.7808L8.49558 29.8072C8.5796 29.9196 8.68867 30.0108 8.81413 30.0737C8.93958 30.1365 9.07797 30.1693 9.21829 30.1693C9.3586 30.1693 9.49699 30.1365 9.62244 30.0737C9.7479 30.0108 9.85697 29.9196 9.94099 29.8072L14.4882 23.7242C15.2935 22.6748 15.7769 21.4143 15.8797 20.0955C15.9826 18.7768 15.7005 17.4565 15.0677 16.2949C16.5961 15.1549 18.1982 14.1169 19.8633 13.1879L23.1339 17.5624C23.2179 17.6748 23.3269 17.766 23.4524 17.8289C23.5779 17.8917 23.7162 17.9245 23.8566 17.9245C23.9969 17.9245 24.1353 17.8917 24.2607 17.8289C24.3862 17.766 24.4952 17.6748 24.5793 17.5624L29.1268 11.4796C29.4446 11.056 29.7148 10.5989 29.9327 10.1163C30.3076 10.0683 30.6823 10.0235 31.0516 9.98604L34.8415 15.4536C35.2805 16.0843 35.5068 16.8386 35.4875 17.6068C35.4681 18.375 35.2041 19.117 34.7338 19.7247L33.6633 21.1148C33.4021 21.4527 33.0574 21.7166 32.6631 21.8805C32.2688 22.0445 31.8385 22.1027 31.4148 22.0496L30.2006 21.8944C29.3449 21.7846 28.4759 21.9288 27.7016 22.309C26.9273 22.6891 26.2818 23.2886 25.8454 24.0327C25.5996 24.4518 25.2361 24.7895 24.8 25.0039C24.364 25.2182 23.8745 25.2997 23.3925 25.2384L20.5889 24.8819C19.7504 24.7729 18.8981 24.8998 18.1277 25.2483C17.3572 25.5969 16.6993 26.1534 16.2276 26.8552C15.7863 27.5072 15.5447 28.2738 15.5326 29.061C15.5205 29.8483 15.7383 30.6219 16.1593 31.2872L18.0114 34.2146C18.3527 34.7509 18.8241 35.1922 19.3816 35.4977C19.9392 35.8031 20.5649 35.9626 21.2006 35.9615C21.8165 35.962 22.4229 35.8098 22.9656 35.5186L24.8725 34.4959C25.8067 33.995 27.3239 33.99 28.4174 34.4406C28.5218 35.7921 29.006 37.0865 29.8144 38.1747L34.3628 44.2595C34.4468 44.3718 34.5559 44.4631 34.6813 44.5259C34.8068 44.5888 34.9452 44.6215 35.0855 44.6215C35.2258 44.6215 35.3642 44.5888 35.4896 44.5259C35.6151 44.4631 35.7242 44.3718 35.8082 44.2595L38.115 41.1737L38.4083 41.5756C38.5325 41.7488 38.6656 41.9194 38.8041 42.0824L41.1201 44.8102C41.2233 44.9318 41.3008 45.073 41.3478 45.2254C41.3948 45.3778 41.4104 45.5381 41.3936 45.6967C41.3768 45.8553 41.3279 46.0088 41.25 46.148C41.1721 46.2872 41.0668 46.409 40.9404 46.5063L37.4307 49.2051C36.4967 49.9205 35.8095 50.9099 35.4653 52.035L34.2954 55.8326C34.2035 56.1322 34.053 56.4104 33.8526 56.6513L32.7143 58.0217C31.8664 59.0405 31.3414 60.289 31.2065 61.6076C31.1736 61.9283 31.0549 62.2341 30.863 62.4931C30.671 62.7521 30.4129 62.9546 30.1157 63.0795C29.9912 63.1316 29.8564 63.1549 29.7215 63.1476C29.5867 63.1402 29.4553 63.1025 29.3371 63.0371C29.2189 62.9717 29.117 62.8805 29.0392 62.7701C28.9613 62.6598 28.9094 62.5333 28.8874 62.4L27.8151 55.9604C27.6812 55.1602 27.3546 54.4045 26.8634 53.7587L22.935 48.6032C22.5821 48.1408 22.3211 47.6149 22.1662 47.0542L20.8697 42.3727C20.6405 41.5524 20.2031 40.8054 19.5998 40.2042C18.9966 39.6029 18.2481 39.168 17.4271 38.9415L17.1453 38.8646C16.575 38.7084 16.0516 38.4149 15.6209 38.0097L13.2028 35.7307C12.8176 35.3679 12.4872 34.9511 12.2218 34.4934C11.6591 33.5232 10.8074 32.7529 9.78571 32.2902C8.76401 31.8275 7.62331 31.6954 6.52291 31.9124C6.48766 31.9193 6.45285 31.9283 6.41869 31.9395L3.99575 32.7277C4.56102 30.6821 5.30964 28.6918 6.23251 26.7808ZM30.2171 33.718C30.3675 31.402 32.2299 29.005 35.0857 29.005C37.9415 29.005 39.8038 31.4014 39.9544 33.7205C40.0216 34.934 39.6514 36.1313 38.9112 37.0951L35.0857 42.2122L31.2667 37.104C30.5321 36.1326 30.1608 34.9346 30.2171 33.718ZM65.5849 41.2497C65.5849 58.5867 51.4945 72.6914 34.1752 72.6914C16.8559 72.6914 2.7657 58.5867 2.7657 41.2497C2.78043 39.0772 3.02278 36.9122 3.48878 34.7903L6.92265 33.6733C7.64766 33.5411 8.39581 33.6359 9.06493 33.9448C9.73405 34.2536 10.2915 34.7615 10.6612 35.399C11.0142 36.0077 11.4536 36.5619 11.9657 37.0443L14.384 39.3226C15.0302 39.9302 15.8153 40.3705 16.6708 40.605L16.9527 40.6817C17.4722 40.8252 17.9457 41.1007 18.3273 41.4813C18.7089 41.8619 18.9856 42.3348 19.1305 42.8539L20.427 47.5362C20.6429 48.3187 21.0071 49.0525 21.4996 49.6977L25.4279 54.8534C25.7412 55.2653 25.9495 55.7473 26.0349 56.2578L27.1072 62.6973C27.1732 63.0995 27.3296 63.4815 27.5646 63.8145C27.7996 64.1474 28.1071 64.4228 28.4639 64.6198C28.8206 64.8168 29.2175 64.9303 29.6245 64.9518C30.0314 64.9733 30.438 64.9022 30.8136 64.7439C31.4095 64.4938 31.9271 64.0879 32.3119 63.5687C32.6968 63.0496 32.9349 62.4364 33.001 61.7935C33.0995 60.8305 33.4828 59.9188 34.102 59.1747L35.2403 57.8044C35.593 57.3805 35.8579 56.8908 36.0196 56.3636L37.1891 52.566C37.4238 51.7987 37.8924 51.124 38.5293 50.636L42.0405 47.9371C42.3607 47.6909 42.6275 47.3823 42.8249 47.0299C43.0222 46.6775 43.1459 46.2887 43.1885 45.8871C43.2311 45.4855 43.1917 45.0794 43.0727 44.6935C42.9536 44.3075 42.7575 43.9498 42.496 43.642L40.18 40.9142C40.0736 40.7887 39.9711 40.6576 39.8714 40.5185L39.2463 39.6613L40.3563 38.1766C41.3547 36.8677 41.8509 35.2444 41.7549 33.601C41.5217 30.0118 38.5921 27.2003 35.0854 27.2003C31.9167 27.2003 29.2202 29.4964 28.5571 32.586C27.0581 32.1441 25.2635 32.2401 24.0198 32.9066L22.1129 33.9293C21.6768 34.161 21.1695 34.2199 20.692 34.0941C20.2145 33.9683 19.8019 33.6672 19.5367 33.2507L17.6845 30.3232C17.4511 29.9546 17.3304 29.5259 17.3372 29.0897C17.3439 28.6535 17.4777 28.2288 17.7222 27.8675C18.0076 27.4427 18.4058 27.106 18.872 26.895C19.3382 26.6841 19.854 26.6073 20.3614 26.6732L23.165 27.0295C23.9974 27.1359 24.8428 26.9954 25.5959 26.6253C26.3491 26.2552 26.9769 25.6719 27.4013 24.9479C27.6586 24.5084 28.0395 24.1543 28.4966 23.9297C28.9536 23.705 29.4667 23.6198 29.9718 23.6847L31.1859 23.8399C31.9222 23.9322 32.6698 23.831 33.3551 23.5462C34.0403 23.2613 34.6394 22.8027 35.0932 22.2157L36.1637 20.8256C36.8685 19.9149 37.2643 18.803 37.2932 17.6518C37.3222 16.5006 36.9829 15.3702 36.3248 14.4253L33.1401 9.83204C33.5051 9.817 33.8525 9.80797 34.1752 9.80797C38.4012 9.80797 42.9611 10.8607 47.3628 12.8532C48.7419 13.479 50.0822 14.1872 51.3763 14.9737L48.9523 19.1286C48.6048 19.7383 48.4558 20.4411 48.5259 21.1394C48.5959 21.8377 48.8816 22.4968 49.3433 23.0254C50.0398 23.8232 51.0064 24.3358 52.0576 24.4649L52.4972 24.519C52.9226 24.5718 53.3237 24.7469 53.6515 25.0231C53.9794 25.2993 54.2201 25.6648 54.3443 26.0751C54.4618 26.465 54.4652 26.8803 54.3542 27.272C54.2432 27.6638 54.0224 28.0156 53.7179 28.2859L49.365 32.1347C48.9238 32.5251 48.5705 33.0047 48.3285 33.5419C48.0865 34.079 47.9613 34.6615 47.9612 35.2506V36.2719C47.9599 36.8771 48.1108 37.473 48.4002 38.0045C48.6896 38.5361 49.1081 38.9862 49.6172 39.3136C49.8703 39.4762 50.0832 39.6942 50.24 39.9509C50.3968 40.2077 50.4934 40.4967 50.5225 40.7961L50.6244 41.8158C50.7041 42.6413 51.089 43.4073 51.7037 43.9641C52.3184 44.5208 53.1186 44.8282 53.948 44.8261H56.4958C57.5512 44.8258 58.5838 44.5181 59.4672 43.9406C60.3507 43.3631 61.0469 42.5409 61.4707 41.5742L61.6238 41.2252C61.7738 40.8791 62.0182 40.5823 62.3291 40.3688C62.64 40.1552 63.0047 40.0335 63.3815 40.0177L63.9793 39.9906C64.0766 39.9863 64.1737 39.9792 64.2705 39.9694L65.5415 39.8414C65.5697 40.3358 65.5849 40.8086 65.5849 41.2497ZM65.3917 38.0414L64.0897 38.1724C64.0263 38.1789 63.9625 38.1834 63.8981 38.1864L63.2994 38.2136C62.5859 38.2435 61.8953 38.4739 61.3066 38.8781C60.718 39.2824 60.2551 39.8444 59.971 40.4995L59.8179 40.8486C59.5349 41.4942 59.0701 42.0434 58.4801 42.4291C57.8902 42.8148 57.2006 43.0204 56.4958 43.0207H53.9477C53.5663 43.0215 53.1983 42.88 52.9157 42.6239C52.6331 42.3677 52.4563 42.0154 52.4197 41.6357L52.3178 40.6159C52.2624 40.0465 52.0787 39.497 51.7804 39.0087C51.4822 38.5204 51.0772 38.1061 50.5958 37.7969C50.3405 37.6326 50.1306 37.4068 49.9855 37.1402C49.8404 36.8736 49.7648 36.5747 49.7655 36.2712V35.2499C49.7655 34.9163 49.8363 34.5866 49.9733 34.2826C50.1103 33.9785 50.3102 33.7069 50.56 33.4859L54.9129 29.6371C55.4756 29.1377 55.8836 28.4876 56.0888 27.7638C56.294 27.04 56.2878 26.2725 56.0709 25.5521C55.8453 24.8072 55.4083 24.1438 54.8129 23.6424C54.2176 23.1411 53.4896 22.8233 52.7172 22.7276L52.2776 22.6734C51.6671 22.5985 51.1057 22.3008 50.7012 21.8374C50.4869 21.5925 50.3539 21.2871 50.3206 20.9633C50.2872 20.6396 50.3552 20.3135 50.5152 20.03L52.8972 15.9471C54.6139 17.0963 56.2215 18.4009 57.6996 19.8441C57.2604 20.6075 57.0026 21.4617 56.9462 22.3406C56.8764 23.7026 57.2866 25.046 58.1054 26.1366L61.762 31.0261C61.846 31.1385 61.9551 31.2297 62.0805 31.2925C62.206 31.3554 62.3443 31.3881 62.4846 31.3881C62.6249 31.3881 62.7633 31.3554 62.8887 31.2925C63.0142 31.2297 63.1232 31.1385 63.2072 31.0261L63.8796 30.1269C64.5978 32.7196 65.1035 35.3666 65.3917 38.0414ZM65.4186 25.0541L62.4846 28.9774L59.5573 25.0627C58.9912 24.3155 58.7045 23.3938 58.747 22.4573C58.8628 20.6767 60.2925 18.835 62.4846 18.835C64.6767 18.835 66.1066 20.6767 66.2224 22.4594C66.2737 23.3927 65.9884 24.3134 65.4184 25.0543L65.4186 25.0541Z" fill="#00587F"/>
</svg>
