<svg width="28" height="28" viewBox="0 0 28 28" fill="none" xmlns="http://www.w3.org/2000/svg">
<path d="M5.79688 28H22.2031C23.5601 28 24.6641 26.8961 24.6641 25.5391V8.20312H18.9219C17.5649 8.20312 16.4609 7.0992 16.4609 5.74219V0H5.79688C4.43986 0 3.33594 1.10392 3.33594 2.46094V25.5391C3.33594 26.8961 4.43986 28 5.79688 28ZM9.07812 11.5391H18.9219C19.3753 11.5391 19.7422 11.906 19.7422 12.3594C19.7422 12.8128 19.3753 13.1797 18.9219 13.1797H9.07812C8.62471 13.1797 8.25781 12.8128 8.25781 12.3594C8.25781 11.906 8.62471 11.5391 9.07812 11.5391ZM9.07812 14.8203H18.9219C19.3753 14.8203 19.7422 15.1872 19.7422 15.6406C19.7422 16.094 19.3753 16.4609 18.9219 16.4609H9.07812C8.62471 16.4609 8.25781 16.094 8.25781 15.6406C8.25781 15.1872 8.62471 14.8203 9.07812 14.8203ZM9.07812 18.1016H18.9219C19.3753 18.1016 19.7422 18.4685 19.7422 18.9219C19.7422 19.3753 19.3753 19.7422 18.9219 19.7422H9.07812C8.62471 19.7422 8.25781 19.3753 8.25781 18.9219C8.25781 18.4685 8.62471 18.1016 9.07812 18.1016ZM9.07812 21.3828H15.6406C16.094 21.3828 16.4609 21.7497 16.4609 22.2031C16.4609 22.6565 16.094 23.0234 15.6406 23.0234H9.07812C8.62471 23.0234 8.25781 22.6565 8.25781 22.2031C8.25781 21.7497 8.62471 21.3828 9.07812 21.3828Z" fill="#7595A3"/>
<path d="M18.9219 6.56232H24.1834L18.1016 0.480469V5.74201C18.1016 6.1946 18.4693 6.56232 18.9219 6.56232Z" fill="#7595A3"/>
</svg>
