<svg width="33" height="33" viewBox="0 0 33 33" fill="none" xmlns="http://www.w3.org/2000/svg">
<path d="M12.5095 2.80744L26.3201 10.0078C26.4078 10.0535 26.4806 10.1193 26.5312 10.1986C26.5818 10.2778 26.6084 10.3677 26.6083 10.4592V27.3148C26.6082 27.4063 26.6349 27.4963 26.6855 27.5756C26.7362 27.6549 26.8091 27.7207 26.8969 27.7665C26.9847 27.8122 27.0843 27.8363 27.1857 27.8363C27.2871 27.8362 27.3867 27.8121 27.4744 27.7662L31.9961 25.4087C32.0832 25.3633 32.1557 25.2981 32.2063 25.2195C32.2568 25.141 32.2837 25.0518 32.2843 24.961V8.72764C32.2844 8.63617 32.2579 8.54627 32.2073 8.46702C32.1567 8.38776 32.0838 8.32196 31.9961 8.27622L16.4315 0.16065C16.3437 0.114904 16.2442 0.0908203 16.1429 0.0908203C16.0416 0.0908203 15.942 0.114904 15.8543 0.16065L12.5095 1.90531C12.422 1.9511 12.3493 2.01687 12.2987 2.09604C12.2482 2.17521 12.2216 2.26499 12.2216 2.35638C12.2216 2.44776 12.2482 2.53754 12.2987 2.61671C12.3493 2.69587 12.422 2.76165 12.5095 2.80744Z" fill="#00587F"/>
<path d="M4.91371 6.76736L17.4942 13.3295C17.582 13.3751 17.6549 13.4409 17.7055 13.5202C17.7561 13.5995 17.7826 13.6894 17.7824 13.7809L17.7864 31.9195C17.787 32.0108 17.8142 32.1003 17.8651 32.1792C17.916 32.258 17.9889 32.3235 18.0765 32.3689C18.1642 32.4144 18.2635 32.4383 18.3646 32.4383C18.4657 32.4382 18.565 32.4143 18.6526 32.3688L23.1694 30.0135C23.2572 29.9677 23.33 29.9019 23.3806 29.8227C23.4312 29.7434 23.4578 29.6535 23.4576 29.562V12.034C23.4578 11.9426 23.4312 11.8527 23.3806 11.7734C23.33 11.6942 23.2572 11.6284 23.1694 11.5826L8.84612 4.11475C8.75838 4.06901 8.65885 4.04492 8.55753 4.04492C8.45621 4.04492 8.35668 4.06901 8.26894 4.11475L4.91291 5.8645C4.82518 5.9103 4.75236 5.97616 4.70175 6.05544C4.65115 6.13472 4.62455 6.22463 4.62463 6.31614C4.62472 6.40765 4.65147 6.49752 4.70222 6.57673C4.75296 6.65594 4.8259 6.72168 4.91371 6.76736Z" fill="#00587F"/>
<path d="M0.0827637 8.40506L14.6661 16.0132V15.0675L0.964237 7.92383L0.103694 8.37308L0.0827637 8.40506Z" fill="#00587F"/>
<path d="M0 9.07422V10.0207L14.6662 17.6717V16.726L0 9.07422Z" fill="#00587F"/>
<path d="M0 10.7334V11.6799L14.6662 19.3309V18.3852L0 10.7334Z" fill="#00587F"/>
<path d="M0 12.3921V13.3378L14.6654 20.9889V20.0431L0 12.3921Z" fill="#00587F"/>
<path d="M14.6654 21.7018L0 14.0508V14.9973L14.6654 22.6476V21.7018Z" fill="#00587F"/>
<path d="M0 15.71V16.6557L14.6654 24.3068V23.361L0 15.71Z" fill="#00587F"/>
<path d="M0 17.3687V18.3144L14.6654 25.9655V25.0197L0 17.3687Z" fill="#00587F"/>
<path d="M0 19.0264V19.9728L14.6654 27.6239V26.6774L0 19.0264Z" fill="#00587F"/>
<path d="M0 20.686V21.6318L14.6646 29.2828L14.6654 28.3371L0 20.686Z" fill="#00587F"/>
<path d="M0 22.3442V23.2907L14.6646 30.941V29.9953L0 22.3442Z" fill="#00587F"/>
<path d="M0 24.0029V24.9494L14.6646 32.5997V31.6533L0 24.0029Z" fill="#00587F"/>
<path d="M0 19.0264V19.9728L14.6654 27.6239V26.6774L0 19.0264Z" fill="#00587F"/>
<path d="M0 20.686V21.6318L14.6646 29.2828L14.6654 28.3371L0 20.686Z" fill="#00587F"/>
<path d="M0 22.3442V23.2907L14.6646 30.941V29.9953L0 22.3442Z" fill="#00587F"/>
<path d="M0 24.0029V24.9494L14.6646 32.5997V31.6533L0 24.0029Z" fill="#00587F"/>
<path d="M0 17.3687V18.3144L14.6654 25.9655V25.0197L0 17.3687Z" fill="#00587F"/>
<path d="M0 15.71V16.6557L14.6654 24.3068V23.361L0 15.71Z" fill="#00587F"/>
<path d="M0 14.0508V14.9973L14.6654 22.6476V21.7018L0 14.0508Z" fill="#00587F"/>
<path d="M0 12.3921V13.3378L14.6654 20.9889V20.0431L0 12.3921Z" fill="#00587F"/>
<path d="M0 10.7334V11.6799L14.6662 19.3309V18.3852L0 10.7334Z" fill="#00587F"/>
<path d="M0 9.07422V10.0207L14.6662 17.6717V16.726L0 9.07422Z" fill="#00587F"/>
<path d="M0.0827637 8.40506L14.6661 16.0132V15.0675L0.964237 7.92383L0.103694 8.37308L0.0827637 8.40506Z" fill="#00587F"/>
</svg>
