<svg width="21" height="35" viewBox="0 0 21 35" fill="none" xmlns="http://www.w3.org/2000/svg">
<path d="M12.8648 34.9316H7.24893C6.3109 34.9316 5.54784 34.1701 5.54784 33.2339V20.5917H2.2714C1.33337 20.5917 0.570312 19.8298 0.570312 18.8939V13.4767C0.570312 12.5405 1.33337 11.7789 2.2714 11.7789H5.54784V9.06616C5.54784 6.37638 6.3941 4.08794 7.99486 2.44865C9.60285 0.801888 11.85 -0.0683594 14.4934 -0.0683594L18.7764 -0.0614167C19.7128 -0.0598145 20.4745 0.701752 20.4745 1.63635V6.66611C20.4745 7.60231 19.7117 8.36388 18.774 8.36388L15.8903 8.36495C15.0109 8.36495 14.7869 8.54092 14.739 8.59486C14.6601 8.68431 14.5662 8.93719 14.5662 9.63547V11.7786H18.5573C18.8577 11.7786 19.1488 11.8526 19.399 11.992C19.9386 12.2929 20.2741 12.862 20.2741 13.4769L20.272 18.8942C20.272 19.8298 19.5089 20.5914 18.5709 20.5914H14.5662V33.2339C14.5662 34.1701 13.8029 34.9316 12.8648 34.9316ZM7.6037 32.8798H12.5101V19.6731C12.5101 19.048 13.0197 18.5395 13.6458 18.5395H18.2161L18.218 13.8308H13.6455C13.0195 13.8308 12.5101 13.3223 12.5101 12.6972V9.63547C12.5101 8.83385 12.5917 7.92221 13.1979 7.23702C13.9305 6.40869 15.085 6.3131 15.8898 6.3131L18.4187 6.31203V1.9899L14.4918 1.98349C10.2436 1.98349 7.6037 4.69757 7.6037 9.06616V12.6972C7.6037 13.3221 7.09429 13.8308 6.46822 13.8308H2.62618V18.5395H6.46822C7.09429 18.5395 7.6037 19.048 7.6037 19.6731V32.8798ZM18.7724 1.99043H18.7726H18.7724Z" fill="white"/>
</svg>
