<svg width="99" height="99" viewBox="0 0 99 99" fill="none" xmlns="http://www.w3.org/2000/svg">
<g clip-path="url(#clip0)">
<path d="M98.9996 38.25C98.9989 37.5543 98.6787 36.8981 98.1278 36.4724C98.1278 36.4724 92.5953 32.1809 85.4297 26.5575V17.9999C85.4297 13.0364 81.3935 8.99987 76.4297 8.99987H63.3954C60.1894 6.3815 57.4071 4.06667 55.549 2.41903C53.7615 0.837844 51.6308 0.000210977 49.5009 3.97697e-08C47.3692 -0.000210898 45.2381 0.838688 43.4532 2.41924C41.595 4.06688 38.8132 6.38171 35.6048 9.00008H22.4296C17.4661 9.00008 13.4296 13.0364 13.4296 18.0002V26.668C6.3353 32.2361 0.874337 36.4703 0.872227 36.4724C0.321258 36.8981 0.00105469 37.5543 0.000421875 38.25H0V89.9999C0 94.9635 4.03629 99 9.00008 99H90.0001C94.9637 99 99.0002 94.9637 99.0002 89.9999V38.25H98.9996ZM85.4297 32.276C88.6098 34.7657 91.3067 36.8673 93.0807 38.2478C91.3092 39.6227 88.6073 41.7241 85.4297 44.2087V32.276ZM46.4371 5.7875C48.3663 4.07806 50.6316 4.07574 52.5652 5.78961C53.578 6.68525 54.855 7.77368 56.322 8.99987H42.6799C44.1471 7.77368 45.4244 6.6844 46.4371 5.7875ZM17.9297 17.9999C17.9297 15.5193 19.949 13.5 22.4296 13.5H76.4297C78.9103 13.5 80.9296 15.5193 80.9296 17.9999V47.7352C70.8689 55.6371 58.2808 65.6501 52.565 70.7101C52.0223 71.1912 50.8906 72 49.4294 72C48.3615 72 47.331 71.5671 46.3643 70.7101C40.5871 65.5946 27.9708 55.5439 17.9297 47.6445V17.9999ZM13.4298 32.3863V44.1121C10.314 41.6718 7.66358 39.6063 5.91954 38.2502C7.66463 36.8905 10.313 34.8264 13.4298 32.3863ZM94.5001 90.0001C94.5001 92.4808 92.4808 94.5001 90.0001 94.5001H9.00008C6.51945 94.5001 4.50014 92.4808 4.50014 90.0001V42.844C13.8848 50.1487 35.5968 67.1853 43.3808 74.0809C45.1693 75.6629 47.2612 76.5001 49.4299 76.5001C51.6139 76.5001 53.787 75.641 55.5492 74.0809C63.6386 66.9174 85.7814 49.6189 94.5001 42.8425V90.0001Z" fill="#00587F"/>
<path d="M29.2501 27.0001H69.6799C70.9235 27.0001 71.9299 25.9938 71.9299 24.7501C71.9299 23.5064 70.9235 22.5 69.6799 22.5H29.2501C28.0064 22.5 27 23.5064 27 24.7501C27 25.9938 28.0064 27.0001 29.2501 27.0001Z" fill="#00587F"/>
<path d="M71.9297 38.2501C71.9297 37.0064 70.9233 36 69.6796 36H29.2501C28.0064 36 27 37.0064 27 38.2501C27 39.4938 28.0064 40.5001 29.2501 40.5001H69.6799C70.9233 40.5001 71.9297 39.4938 71.9297 38.2501Z" fill="#00587F"/>
<path d="M62.9297 51.7501C62.9297 50.5064 61.9233 49.5 60.6796 49.5H38.1798C36.9361 49.5 35.9297 50.5064 35.9297 51.7501C35.9297 52.9937 36.9361 54.0001 38.1798 54.0001H60.6798C61.9233 54.0001 62.9297 52.9937 62.9297 51.7501Z" fill="#00587F"/>
</g>
<defs>
<clipPath id="clip0">
<rect width="99" height="99" fill="white"/>
</clipPath>
</defs>
</svg>
