<svg width="81" height="94" viewBox="0 0 81 94" fill="none" xmlns="http://www.w3.org/2000/svg">
<path d="M69.1298 6.93292H51.7602C49.7919 3.10934 45.3758 0.641602 40.5004 0.641602C35.6242 0.641602 31.2081 3.10934 29.2398 6.93292H11.8694C5.31703 6.93943 0.00759932 11.492 0 17.1093V83.1229C0.00759932 88.7403 5.31703 93.2928 11.8694 93.2993H69.1298C75.6821 93.2928 80.9924 88.7403 81 83.1229V17.1093C80.9924 11.492 75.6821 6.93943 69.1298 6.93292ZM31.1946 11.5658C32.4628 11.5658 33.5605 10.8093 33.8332 9.74595C34.4969 7.15587 37.3011 5.27449 40.5004 5.27449C43.6998 5.27449 46.5031 7.15587 47.1668 9.74595C47.4386 10.8093 48.5363 11.5658 49.8063 11.5658H55.1638V13.5985C55.1596 16.6584 52.2676 19.1377 48.6985 19.1413H32.3015C28.7315 19.1377 25.8395 16.6584 25.8353 13.5985V11.5658H31.1946ZM75.596 83.1229C75.5926 86.1835 72.6998 88.6635 69.1298 88.6664H11.8694C8.3002 88.6635 5.40822 86.1835 5.404 83.1229V17.1093C5.40822 14.0487 8.3002 11.5694 11.8694 11.5658H20.4313V13.5985C20.4389 19.2159 25.7492 23.7677 32.3015 23.7742H48.6985C55.2508 23.7677 60.5602 19.2159 60.5678 13.5985V11.5658H69.1298C72.6998 11.5694 75.5918 14.0487 75.596 17.1093V83.1229Z" fill="#00587F"/>
<path d="M51.9096 42.1405L36.6767 56.9589L28.9414 49.4363C28.0314 48.5491 26.5739 48.56 25.6755 49.4587C24.7779 50.3581 24.7742 51.8102 25.6683 52.7132L25.6995 52.7435L35.0547 61.8447C35.9567 62.7217 37.396 62.7217 38.2973 61.8447L55.1508 45.4499C56.0623 44.557 56.0768 43.0984 55.1849 42.1875C54.2916 41.2765 52.8283 41.2562 51.9096 42.1419V42.1405Z" fill="#00587F"/>
</svg>
