<svg width="28" height="28" viewBox="0 0 28 28" fill="none" xmlns="http://www.w3.org/2000/svg">
<path d="M14.0547 0C6.36508 0 0 6.2557 0 13.9453C0 21.6349 6.36508 28 14.0547 28C21.7443 28 28 21.6349 28 13.9453C28 6.2557 21.7443 0 14.0547 0ZM15.6953 21.4375C15.6953 22.342 14.9587 23.0781 14.0547 23.0781C13.1502 23.0781 12.4141 22.342 12.4141 21.4375V13.125C12.4141 12.2205 13.1502 11.4844 14.0547 11.4844C14.9587 11.4844 15.6953 12.2205 15.6953 13.125V21.4375ZM14.0547 8.20312C13.1502 8.20312 12.4141 7.46703 12.4141 6.5625C12.4141 5.65797 13.1502 4.92188 14.0547 4.92188C14.9587 4.92188 15.6953 5.65797 15.6953 6.5625C15.6953 7.46703 14.9587 8.20312 14.0547 8.20312Z" fill="#00587F"/>
</svg>
