<svg width="35" height="35" viewBox="0 0 35 35" fill="none" xmlns="http://www.w3.org/2000/svg">
<path d="M13.4502 2.90034L28.2974 10.5876C28.3917 10.6365 28.47 10.7067 28.5244 10.7913C28.5788 10.876 28.6074 10.9719 28.6072 11.0696V29.0651C28.6072 29.1628 28.6358 29.2589 28.6903 29.3435C28.7448 29.4282 28.8232 29.4985 28.9176 29.5473C29.012 29.5962 29.1191 29.6219 29.228 29.6218C29.337 29.6218 29.4441 29.596 29.5384 29.5471L34.3995 27.0301C34.4932 26.9816 34.5711 26.912 34.6254 26.8281C34.6798 26.7442 34.7087 26.6491 34.7093 26.5521V9.22092C34.7095 9.12326 34.6809 9.02728 34.6265 8.94267C34.5721 8.85806 34.4938 8.7878 34.3995 8.73896L17.6666 0.0745526C17.5722 0.0257125 17.4652 0 17.3563 0C17.2474 0 17.1404 0.0257125 17.0461 0.0745526L13.4502 1.9372C13.3561 1.98608 13.2779 2.05631 13.2236 2.14083C13.1692 2.22536 13.1406 2.32121 13.1406 2.41877C13.1406 2.51634 13.1692 2.61219 13.2236 2.69671C13.2779 2.78123 13.3561 2.85146 13.4502 2.90034Z" fill="white"/>
<path d="M5.28343 7.12921L18.8083 14.1351C18.9026 14.1839 18.981 14.2541 19.0354 14.3387C19.0898 14.4234 19.1183 14.5194 19.1181 14.617L19.1224 33.9824C19.1231 34.0798 19.1522 34.1754 19.2069 34.2596C19.2617 34.3438 19.3401 34.4136 19.4343 34.4622C19.5285 34.5107 19.6353 34.5362 19.744 34.5362C19.8526 34.5362 19.9594 34.5106 20.0536 34.462L24.9095 31.9474C25.0038 31.8986 25.0821 31.8283 25.1365 31.7437C25.1909 31.6591 25.2195 31.5631 25.2193 31.4655V12.7521C25.2195 12.6544 25.1909 12.5584 25.1365 12.4738C25.0821 12.3892 25.0038 12.3189 24.9095 12.2701L9.51102 4.29721C9.4167 4.24837 9.30969 4.22266 9.20077 4.22266C9.09185 4.22266 8.98484 4.24837 8.89051 4.29721L5.28257 6.16529C5.18826 6.21419 5.10997 6.2845 5.05556 6.36914C5.00116 6.45378 4.97257 6.54978 4.97266 6.64747C4.97274 6.74517 5.00151 6.84112 5.05606 6.92569C5.11062 7.01025 5.18904 7.08044 5.28343 7.12921Z" fill="white"/>
<path d="M0.0898438 8.87706L15.7678 16.9998V15.99L1.03748 8.36328L0.112346 8.84291L0.0898438 8.87706Z" fill="white"/>
<path d="M0 9.58984V10.6003L15.7671 18.7688V17.7591L0 9.58984Z" fill="white"/>
<path d="M0 11.3613V12.3718L15.7671 20.5403V19.5306L0 11.3613Z" fill="white"/>
<path d="M0 13.1328V14.1425L15.7663 22.311V21.3013L0 13.1328Z" fill="white"/>
<path d="M15.7663 23.0728L0 14.9043V15.9148L15.7663 24.0825V23.0728Z" fill="white"/>
<path d="M0 16.6758V17.6855L15.7663 25.854V24.8443L0 16.6758Z" fill="white"/>
<path d="M0 18.4453V19.455L15.7663 27.6235V26.6138L0 18.4453Z" fill="white"/>
<path d="M0 20.2168V21.2273L15.7663 29.3958V28.3853L0 20.2168Z" fill="white"/>
<path d="M0 21.9883V22.998L15.7654 31.1665L15.7663 30.1568L0 21.9883Z" fill="white"/>
<path d="M0 23.7578V24.7683L15.7654 32.936V31.9263L0 23.7578Z" fill="white"/>
<path d="M0 25.5293V26.5398L15.7654 34.7075V33.697L0 25.5293Z" fill="white"/>
<path d="M0 20.2168V21.2273L15.7663 29.3958V28.3853L0 20.2168Z" fill="white"/>
<path d="M0 21.9883V22.998L15.7654 31.1665L15.7663 30.1568L0 21.9883Z" fill="white"/>
<path d="M0 23.7578V24.7683L15.7654 32.936V31.9263L0 23.7578Z" fill="white"/>
<path d="M0 25.5293V26.5398L15.7654 34.7075V33.697L0 25.5293Z" fill="white"/>
<path d="M0 18.4453V19.455L15.7663 27.6235V26.6138L0 18.4453Z" fill="white"/>
<path d="M0 16.6758V17.6855L15.7663 25.854V24.8443L0 16.6758Z" fill="white"/>
<path d="M0 14.9043V15.9148L15.7663 24.0825V23.0728L0 14.9043Z" fill="white"/>
<path d="M0 13.1328V14.1425L15.7663 22.311V21.3013L0 13.1328Z" fill="white"/>
<path d="M0 11.3613V12.3718L15.7671 20.5403V19.5306L0 11.3613Z" fill="white"/>
<path d="M0 9.58984V10.6003L15.7671 18.7688V17.7591L0 9.58984Z" fill="white"/>
<path d="M0.0898438 8.87706L15.7678 16.9998V15.99L1.03748 8.36328L0.112346 8.84291L0.0898438 8.87706Z" fill="white"/>
</svg>
