<svg width="28" height="28" viewBox="0 0 28 28" fill="none" xmlns="http://www.w3.org/2000/svg">
<g clip-path="url(#clip0)">
<path d="M13.9995 0C6.26789 0 0 6.26836 0 13.9997C0 21.7311 6.26789 28 13.9995 28C21.7312 28 27.9998 21.7315 27.9998 13.9997C27.9998 6.26799 21.7312 0 13.9995 0ZM20.6548 10.0749L19.325 11.4046L16.6183 8.69801L15.5914 9.72487L18.2982 12.4316L11.6592 19.0701L8.95263 16.3638L7.92577 17.3906L10.6323 20.0972L9.9708 20.7587L9.9582 20.7461C9.88484 20.8669 9.76556 20.955 9.62388 20.9865L7.09987 21.5493C7.06207 21.5578 7.02361 21.5619 6.98563 21.5619C6.84787 21.5619 6.71403 21.5076 6.61481 21.4081C6.48751 21.2813 6.43449 21.0981 6.47369 20.9225L7.03621 18.3993C7.06795 18.2577 7.15624 18.1381 7.27683 18.0649L7.26404 18.0522L17.9479 7.36783C18.1045 7.21149 18.3589 7.21149 18.5156 7.36829L20.6549 9.50721C20.8116 9.66383 20.8116 9.91825 20.6548 10.0749Z" fill="#00587F"/>
</g>
<defs>
<clipPath id="clip0">
<rect width="28" height="28" fill="white"/>
</clipPath>
</defs>
</svg>
