<svg width="77" height="77" viewBox="0 0 77 77" fill="none" xmlns="http://www.w3.org/2000/svg">
<g clip-path="url(#clip0)">
<path d="M74.1127 41.3863H2.8875C1.29359 41.3863 0 40.0927 0 38.4988C0 36.9049 1.29359 35.6113 2.8875 35.6113H74.1127C75.7066 35.6113 77.0002 36.9049 77.0002 38.4988C77.0002 40.0927 75.7066 41.3863 74.1127 41.3863Z" fill="#7595A3"/>
<path d="M38.5008 77.0002C36.9069 77.0002 35.6133 75.7066 35.6133 74.1127V2.8875C35.6133 1.29359 36.9069 0 38.5008 0C40.0947 0 41.3883 1.29359 41.3883 2.8875V74.1127C41.3883 75.7066 40.0947 77.0002 38.5008 77.0002Z" fill="#7595A3"/>
</g>
<defs>
<clipPath id="clip0">
<rect width="77" height="77" fill="white"/>
</clipPath>
</defs>
</svg>
