<svg width="35" height="31" viewBox="0 0 35 31" fill="none" xmlns="http://www.w3.org/2000/svg">
<path d="M34.4596 1.47672C34.0321 0.953873 33.3917 0.666016 32.6563 0.666016C32.2566 0.666016 31.8331 0.75013 31.3978 0.916489L1.77099 12.226C0.198724 12.826 -0.0130295 13.7264 0.00058899 14.2097C0.0142074 14.693 0.276697 15.5801 1.88047 16.0904C1.89008 16.0933 1.8997 16.0963 1.90931 16.0989L8.05471 17.8576L11.3782 27.3612C11.8313 28.6568 12.8484 29.4616 14.033 29.4616C14.7798 29.4616 15.5144 29.1486 16.1574 28.5569L19.9586 25.057L25.4719 29.4963C25.4725 29.4969 25.4733 29.4971 25.4738 29.4977L25.5261 29.5398C25.5309 29.5436 25.536 29.5476 25.5408 29.5513C26.1537 30.0266 26.8226 30.2776 27.476 30.2779H27.4762C28.7529 30.2779 29.7695 29.3329 30.0656 27.8706L34.9199 3.90107C35.1149 2.93897 34.9515 2.07806 34.4596 1.47672ZM10.1106 17.5235L21.9669 11.4665L14.5844 19.311C14.4634 19.4395 14.3777 19.5968 14.3355 19.7679L12.912 25.5341L10.1106 17.5235ZM14.7681 27.0482C14.719 27.0933 14.6695 27.1336 14.6201 27.1708L15.9409 21.8216L18.3433 23.7563L14.7681 27.0482ZM32.91 3.49385L28.0557 27.4637C28.009 27.6931 27.8597 28.2269 27.476 28.2269C27.2864 28.2269 27.0482 28.1235 26.8044 27.9358L20.557 22.9055C20.5562 22.9047 20.5551 22.9039 20.5541 22.9034L16.8368 19.91L27.5128 8.5658C27.8546 8.20264 27.8856 7.64642 27.5863 7.24748C27.2867 6.84853 26.7438 6.72303 26.2997 6.95001L8.74044 15.9206L2.51146 14.1384L32.1292 2.83242C32.3794 2.73682 32.5541 2.7168 32.6563 2.7168C32.7191 2.7168 32.8307 2.72427 32.8721 2.77528C32.9266 2.84177 32.996 3.06847 32.91 3.49385Z" fill="white"/>
</svg>
